<svg xmlns="http://www.w3.org/2000/svg" viewBox="0 0 100 100"><circle cx="78" cy="14" r="1" fill="#f1bc19"/><circle cx="50" cy="50" r="38" fill="#f9dbd2"/><circle cx="84" cy="16" r="4" fill="#f1bc19"/><circle cx="14" cy="26" r="2" fill="#ee3e54"/><circle cx="78" cy="77" r="2" fill="#fbcd59"/><circle cx="17" cy="78" r="4" fill="#fbcd59"/><circle cx="24" cy="83" r="2" fill="#ee3e54"/><circle cx="66.483" cy="78.517" r="2.483" fill="#fff"/><circle cx="16" cy="48" r="1" fill="#fff"/><circle cx="86" cy="31" r="1" fill="#f1bc19"/><circle cx="80" cy="66" r="2" fill="#fff"/><path fill="#f6cca4" d="M50.485,76.3c-3.063,0-13.495-4.824-16.272-10.622c-0.371-0.768-0.502-1.704-0.502-2.272 c-0.005-0.454-0.003-0.721-0.002-0.961l0.002-1.563l-0.619-0.432c-0.37-0.246-0.584-0.615-0.862-1.471 c-0.116-0.382-0.636-2.505-1.321-5.397c-0.38-1.167-0.309-2.065,0.195-2.729c0.105-0.142,0.439-0.618,0.724-1.022l0.362-0.528 V43.06c0-10.062,8.207-18.246,18.295-18.246s18.295,8.185,18.295,18.246v6.251c0,0,0.954,1.351,1.089,1.539 c0.507,0.663,0.562,1.629,0.171,2.809c-0.065,0.297-1.099,4.705-1.293,5.316c-0.213,0.65-0.414,1.176-0.855,1.478l-0.625,0.422 v2.546c0,0.606-0.155,1.539-0.501,2.256C63.987,71.476,53.551,76.3,50.485,76.3z"/><path fill="#472b29" d="M50.485,25.513c9.702,0,17.596,7.871,17.596,17.547v6.026v0.45l0.262,0.366l0.123,0.172 c0.233,0.334,0.699,0.995,0.861,1.22c0.438,0.572,0.269,1.482,0.049,2.145l-0.027,0.087l-0.016,0.078 c-0.071,0.337-1.079,4.615-1.249,5.148c-0.198,0.604-0.35,0.962-0.58,1.119l-0.319,0.215l-0.617,0.416v0.744v0.861v1.313 c0,0.51-0.135,1.338-0.434,1.956C63.439,71,53.119,75.6,50.485,75.6c-2.632,0-12.947-4.6-15.643-10.228 c-0.298-0.617-0.432-1.432-0.432-1.982c-0.005-0.44-0.003-0.703-0.001-0.94l0.002-0.343v-0.861v-0.731l-0.599-0.418l-0.344-0.239 c-0.174-0.116-0.324-0.333-0.564-1.071c-0.115-0.377-0.63-2.484-1.313-5.367l-0.014-0.058l-0.019-0.057 c-0.288-0.878-0.253-1.561,0.115-2.045c0.114-0.154,0.532-0.75,0.85-1.203l0.126-0.187l0.24-0.355v-0.429V43.06 C32.89,33.385,40.783,25.513,50.485,25.513 M50.485,24.113c-10.47,0-18.996,8.501-18.996,18.947v6.026l-0.126,0.187 c-0.297,0.423-0.705,1.004-0.816,1.155c-0.453,0.595-0.868,1.643-0.319,3.314c0.564,2.382,1.187,4.964,1.336,5.452 c0.282,0.868,0.557,1.449,1.128,1.829l0.319,0.222v0.861c0,0.366-0.007,0.638,0,1.298c0,0.646,0.148,1.7,0.571,2.576 C36.52,72.115,47.213,77,50.485,77c3.28,0,13.972-4.885,16.911-11.019c0.423-0.875,0.571-1.93,0.571-2.561 c0-0.674,0-0.947,0-1.313v-0.861l0.319-0.215c0.631-0.43,0.89-1.119,1.128-1.844c0.208-0.653,1.254-5.115,1.291-5.309 c0.594-1.794,0.178-2.855-0.267-3.436c-0.134-0.187-0.594-0.839-0.824-1.169l-0.134-0.187V43.06 C69.481,32.615,60.963,24.113,50.485,24.113L50.485,24.113z"/><ellipse cx="43" cy="50.5" fill="#472b29" rx="2" ry="2.5"/><ellipse cx="58" cy="50.5" fill="#472b29" rx="2" ry="2.5"/><circle cx="42" cy="50" r="1" fill="#f6cca4"/><circle cx="57" cy="50" r="1" fill="#f6cca4"/><path fill="#f6cca4" d="M48,58c1,1.333,4,1.333,5,0"/><path fill="#472b29" d="M48.4,57.7c0.532,0.407,1.315,0.607,2.1,0.593c0.785,0.011,1.564-0.191,2.1-0.593l0.061-0.046 c0.222-0.166,0.536-0.121,0.702,0.1c0.123,0.163,0.13,0.378,0.037,0.545c-0.299,0.535-0.806,0.88-1.311,1.096 c-0.514,0.214-1.053,0.296-1.589,0.311c-0.535-0.02-1.075-0.095-1.587-0.314c-0.505-0.214-1.012-0.56-1.313-1.093 c-0.136-0.241-0.051-0.547,0.19-0.683c0.18-0.102,0.396-0.08,0.551,0.038L48.4,57.7z"/><g><line x1="43.5" x2="58.75" y1="66.5" y2="64.083" fill="#f6cca4"/><path fill="#472b29" d="M43.422,66.006c1.259-0.277,2.521-0.531,3.788-0.76l3.805-0.649c1.274-0.184,2.544-0.39,3.82-0.557 c1.275-0.175,2.554-0.322,3.837-0.451c0.275-0.028,0.521,0.173,0.548,0.448c0.026,0.256-0.146,0.486-0.392,0.539 c-1.259,0.274-2.522,0.53-3.788,0.757c-1.265,0.236-2.537,0.433-3.805,0.652l-3.82,0.56c-1.275,0.174-2.554,0.322-3.837,0.448 c-0.275,0.027-0.52-0.174-0.547-0.45C43.006,66.289,43.177,66.06,43.422,66.006z"/></g><g><path fill="#472b29" d="M37.743,44.571c0.563-0.481,1.227-0.838,1.92-1.103c0.693-0.273,1.425-0.422,2.156-0.502 c0.732-0.066,1.467-0.065,2.185,0.035c0.718,0.094,1.424,0.249,2.094,0.509l-0.196,0.981c-0.677-0.008-1.337-0.039-1.991-0.032 c-0.653,0.014-1.298,0.028-1.933,0.099c-0.637,0.056-1.261,0.169-1.881,0.305c-0.619,0.142-1.223,0.343-1.84,0.567L37.743,44.571z"/></g><g><path fill="#472b29" d="M53.743,46.571c0.563-0.481,1.227-0.838,1.92-1.103c0.693-0.273,1.425-0.422,2.156-0.502 c0.732-0.066,1.467-0.065,2.185,0.035c0.718,0.094,1.424,0.249,2.094,0.509l-0.196,0.981c-0.677-0.008-1.337-0.039-1.991-0.032 c-0.653,0.014-1.298,0.028-1.933,0.099c-0.637,0.056-1.261,0.169-1.881,0.305c-0.619,0.142-1.223,0.343-1.84,0.567L53.743,46.571z"/></g><g><path fill="#472b29" d="M67.308,54.565c-0.018,0-0.036-0.001-0.054-0.003c-0.274-0.029-0.473-0.276-0.443-0.551 c0.054-0.498,0.118-1.023,0.195-1.58c0.037-0.272,0.288-0.463,0.563-0.427c0.273,0.037,0.465,0.29,0.427,0.563 c-0.075,0.547-0.138,1.063-0.191,1.551C67.776,54.375,67.56,54.565,67.308,54.565z"/></g><g><path fill="#472b29" d="M67.13,64.171c-0.011,0-0.022,0-0.033-0.001c-0.275-0.018-0.484-0.256-0.467-0.531 c0.064-0.989,0.025-1.819-0.019-2.779c-0.06-1.303-0.129-2.779,0.046-5.054c0.021-0.276,0.251-0.496,0.537-0.46 c0.275,0.021,0.481,0.261,0.46,0.536c-0.17,2.213-0.104,3.657-0.044,4.932c0.044,0.948,0.085,1.845,0.018,2.89 C67.611,63.968,67.391,64.171,67.13,64.171z"/></g><g><path fill="#472b29" d="M33.574,55.946c-0.253,0-0.471-0.191-0.497-0.449c-0.06-0.584-0.136-1.224-0.233-1.929 c-0.038-0.273,0.153-0.526,0.427-0.563c0.277-0.039,0.526,0.153,0.563,0.427c0.099,0.719,0.177,1.368,0.238,1.964 c0.028,0.274-0.172,0.52-0.446,0.548C33.608,55.945,33.591,55.946,33.574,55.946z"/></g><g><path fill="#472b29" d="M33.709,64.171c-0.261,0-0.481-0.203-0.499-0.468c-0.068-1.05-0.031-1.897,0.008-2.795 c0.043-0.986,0.087-2.007,0.011-3.475c-0.014-0.276,0.198-0.512,0.474-0.525c0.264-0.029,0.511,0.196,0.525,0.473 c0.079,1.517,0.031,2.608-0.011,3.571c-0.038,0.869-0.074,1.69-0.009,2.687c0.018,0.275-0.191,0.514-0.467,0.531 C33.731,64.171,33.72,64.171,33.709,64.171z"/></g><g><path fill="#5e2e2e" d="M76,35.008c-3.804,0.261-6.194-4.01-8.676-7.159c-6.051-7.678-16.645-10.062-25.459-5.637 c-2.345,1.178-4.226,2.437-4.769,3.579c-4.457,1.774-6.958,7.195-7.939,12.408c-1.145,6.082,4.357,15.494,4.683,10.256 c0.236-3.78,1.744-9.064,3.269-12.35c0.686-1.477,1.309-3.043,1.757-4.66c0.526,3.931,6.008,7.671,9.444,7.705 c0.366,0.004,0.535-1.353,0.437-3.203c0.898,1.508,2.175,2.773,3.597,3.705c2.235,1.466,4.809,2.2,7.375,2.716 c-0.909-0.356-1.447-1.407-1.614-2.441c-0.087-0.538-0.095-1.083-0.086-1.629c2.242,1.452,4.647,2.524,7.264,2.616 c0.302,0.011,0.606,0.002,0.909-0.015c1.359,2.63,1.312,5.812,1.453,8.065c0.327,5.238,5.004-3.528,3.859-9.61 c-0.008-0.045-0.018-0.09-0.026-0.135C73.194,38.203,74.76,36.772,76,35.008z M39.435,28.646c0.009-0.073,0.017-0.146,0.025-0.22 c0.029,0.009,0.056,0.018,0.085,0.027C39.504,28.517,39.472,28.582,39.435,28.646z"/></g><g><path fill="#472b29" d="M49.5,68.75c-0.112,0-0.214-0.076-0.243-0.189c-0.033-0.134,0.048-0.27,0.182-0.303l4-1 c0.134-0.039,0.27,0.048,0.303,0.182s-0.048,0.27-0.182,0.303l-4,1C49.54,68.748,49.52,68.75,49.5,68.75z"/></g><g><path fill="#472b29" d="M47.5,55.75c-0.026,0-0.053-0.004-0.079-0.013c-0.131-0.044-0.202-0.186-0.158-0.316 c0.003-0.009,0.302-0.913,0.568-2.2c0.028-0.136,0.164-0.219,0.295-0.194c0.135,0.028,0.222,0.16,0.194,0.296 c-0.272,1.317-0.57,2.219-0.583,2.257C47.702,55.684,47.604,55.75,47.5,55.75z"/></g><g><path fill="#472b29" d="M48.372,51.737c-0.01,0-0.021-0.001-0.031-0.002c-0.137-0.017-0.235-0.142-0.218-0.278 c0.084-0.687,0.127-1.345,0.127-1.957c0-2.205-1.142-3.871-1.633-4.484c-0.086-0.107-0.069-0.266,0.039-0.352 c0.109-0.087,0.266-0.068,0.352,0.039c0.65,0.813,1.742,2.519,1.742,4.797c0,0.633-0.044,1.312-0.131,2.018 C48.604,51.645,48.496,51.737,48.372,51.737z"/></g></svg>