<svg xmlns="http://www.w3.org/2000/svg" viewBox="0 0 100 100"><path fill="#fff" d="M20.8 55.5A.9.9 0 1 0 20.8 57.3.9.9 0 1 0 20.8 55.5zM79.8 30.8A.7.7 0 1 0 79.8 32.2.7.7 0 1 0 79.8 30.8z"/><path fill="#f1bc19" d="M77.2 11.6A.9.9 0 1 0 77.2 13.4.9.9 0 1 0 77.2 11.6zM21.2 63.199999999999996A.9.9 0 1 0 21.2 65 .9.9 0 1 0 21.2 63.199999999999996z"/><path fill="#f9dbd2" d="M50.3 12.200000000000003A37.5 37.5 0 1 0 50.3 87.2A37.5 37.5 0 1 0 50.3 12.200000000000003Z"/><path fill="#f1bc19" d="M82.6 10.6A4 4 0 1 0 82.6 18.6A4 4 0 1 0 82.6 10.6Z"/><path fill="#f4989e" d="M86.6 21.8A1.9 1.9 0 1 0 86.6 25.599999999999998A1.9 1.9 0 1 0 86.6 21.8Z"/><path fill="#fbcd59" d="M77.6 74.19999999999999A1.9 1.9 0 1 0 77.6 78 1.9 1.9 0 1 0 77.6 74.19999999999999zM14.5 59.2A4 4 0 1 0 14.5 67.2 4 4 0 1 0 14.5 59.2z"/><path fill="#f4989e" d="M24.7 85.39999999999999A1.9 1.9 0 1 0 24.7 89.2A1.9 1.9 0 1 0 24.7 85.39999999999999Z"/><path fill="#fff" d="M76.3 28.2A1.8 1.8 0 1 0 76.3 31.8 1.8 1.8 0 1 0 76.3 28.2zM18.2 48.6A2.5 2.5 0 1 0 18.2 53.6 2.5 2.5 0 1 0 18.2 48.6z"/><path fill="#d8ad8f" d="M66.2,67.8C65.4,67.3,55.9,64,55.9,64c-0.5-0.2-0.9-0.6-1-1.2c-0.1-0.9-0.2-1.8-0.2-2.8 c2.5-1.4,4.6-3.5,6.1-6c0.3-0.5,0.4-1.1,0.5-1.7c0-1,0-2,0-3c0.6-0.1,1.1-0.6,1.3-1.2c0.4-1.2,1-3.8,1-3.9 c0.5-1.6-0.3-2.5-1.8-2.4c0.4-0.3,0.7-0.7,1-1.2h0.1c0.1,0,0.3,0,0.4,0c2,0.7,5.1,0.3,5.9-4.5c-0.7,0.9-1.9,1.4-3,1.3 c0-0.4-0.1-0.8-0.3-1.2c0.6-0.6,1-1.4,1-2.2c0-1.7-1.4-3.1-3.2-3.1c0,0-0.1,0-0.1,0l0,0c0.1-0.4,0.2-0.8,0.2-1.2c0-2.2-1.8-4-4-4 c0,0-0.1,0-0.1,0c-0.4,0-0.8,0.1-1.1,0.2c0,0,0-0.1,0-0.2c-0.1-2.7-2.4-4.8-5.2-4.7c-1.6,0-3.1,0.7-4.1,1.9 c-1.1-0.7-2.5-1.1-3.8-1c-3.4,0-6.2,2.2-6.2,4.9c0,0.1,0,0.2,0,0.4c-0.8,0.3-1.4,1-1.7,1.8c-0.3,0.8,0.6,3,0.6,3.1l0,0 c-1-0.1-1.9,0.7-2,1.8c0,0.2,0,0.4,0.1,0.6c0.1,0.5,0.9,7.3,1.3,7.5c-1.5,0-2.3,0.8-1.8,2.4c0,0,0.6,2.6,1,3.9 c0.1,0.7,0.8,1.2,1.5,1.2c0,0.8,0,1.7,0,2.5c0,1,0.3,2,0.8,2.8c1.5,2.2,3.4,4,5.7,5.3c0,0.9-0.1,1.9-0.2,2.8 c-0.1,0.6-0.5,1-1,1.2l-7.8,2.7c-0.8,0.2-1.5,0.5-2.2,0.9c-2.2,1.6-3.5,4.1-3.6,6.9h39.3C69.4,71.9,68.2,69.4,66.2,67.8z"/><path fill="#b2876b" d="M66.1,67.7c-0.1,0-0.2-0.1-0.3-0.1l-0.6-0.2C64,66.8,56,64.1,56,64.1c-0.5-0.1-1-0.5-1.2-1.1 c-0.2-1.1-0.3-2.2-0.2-3.3c-1.3,0.8-2.7,1.4-4.2,1.8c-1.9,0.2-5.1-1.6-5.1-1.6s-0.2,2.4-0.3,3c-0.2,0.6-0.7,1-1.3,1.1L36,66.6 c-0.8,0.2-1.5,0.5-2.2,0.9c-1.6,1.1-2.8,2.8-3.3,4.7h0c0,0.1,0,0.3-0.1,0.6c-0.1,0.4-0.1,0.9-0.1,1.3c0,0.5-0.3,6.1-0.4,6.6 c7.6,5.2,10.6,6.1,21.1,6.1c4.6,0,14.8-2.9,18.9-4.4C69.5,73.2,70.4,69,66.1,67.7z"/><path fill="#836f61" d="M41.2,64.9c1.5,1.3,13,1.8,16.1-0.7l4.9,1.7l1.2,18.4c0,0-15.8,5.8-28-0.3L36,66.6L41.2,64.9z"/><path fill="#f1bc19" d="M49.8 64.6A1 1 0 1 0 49.8 66.6 1 1 0 1 0 49.8 64.6zM49.8 64.6c-2.5 0-5.1-.7-5.1-1.9 0-.1.1-.3.3-.3s.3.1.3.3c0 .7 2 1.4 4.6 1.4 2.6 0 4.6-.8 4.6-1.4 0-.1.1-.3.3-.3s.3.1.3.3C54.9 64 52.2 64.6 49.8 64.6z"/><path fill="#564139" d="M54.8,37.1c0.7,1.4,2.2,2.3,3.8,2.3c0.4,0,0.8-0.1,1.2-0.2c0.6,0.7,1.6,1.2,2.6,1.2h0.4 c1.9,0.6,5,1,5.9-3C68,38,67,38.1,66.1,37.7c0-0.5-0.1-1-0.3-1.5c0.6-0.5,1-1.3,1-2.2c-0.1-1.7-1.5-3-3.2-3l0,0 c0.1-0.4,0.2-0.8,0.2-1.2c-0.1-2.2-1.9-3.9-4.1-3.9c-0.4,0-0.8,0.1-1.1,0.1c0,0,0-0.1,0-0.1c-0.1-2.7-2.4-4.7-5.1-4.6 c-1.5,0-3,0.6-4,1.8c-1.1-0.7-2.5-1-3.8-1c-3.4,0-6.1,2.2-6.1,4.9c0,0.1,0,0.2,0,0.4c-0.8,0.3-1.4,0.9-1.7,1.6c0,0,0.5,2.7,0.6,3 c0.6,0.8,1.5,1.3,2.4,1.6c1,0.3,2,0.3,3,0c0.8,2.5,3.7,4.4,7.2,4.4C52.3,38,53.6,37.7,54.8,37.1z"/><path fill="#9f8066" d="M38.7,32.5c-0.2,0-0.5,0.2-0.7,0.2 c-0.6,0-1.1,0.6-1.1,1.3l1.1,7.3c0-0.6,0.2-6.2,2-7.8C39.5,33.2,39.1,32.9,38.7,32.5z" opacity=".94"/><path fill="#472b29" d="M47.8 41c-2.4-.6-4.9-.7-7.4-.4-.1 0-.2.1-.2.2 0 .1.1.2.2.2 0 0 5.1.6 6.7 1.1h.1c.1 0 .2 0 .2-.1l.6-.7c0-.1 0-.1 0-.2C48 41.1 47.9 41 47.8 41zM51.8 41c2.4-.6 4.9-.7 7.4-.4.1 0 .2.1.2.2 0 .1-.1.2-.2.2 0 0-5.1.6-6.7 1.1h-.1c-.1 0-.2 0-.2-.1l-.6-.7c0-.1 0-.1 0-.2C51.7 41.1 51.8 41 51.8 41zM44.3 43.3c-.5 0-1 .3-1.2.8.1 0 .1 0 .2 0 .5 0 .8.4.8.8 0 .5-.4.8-.8.8-.1 0-.3 0-.4-.1.1.7.7 1.2 1.4 1.3 1-.2 1.6-1.2 1.4-2.2C45.5 44 45 43.4 44.3 43.3L44.3 43.3zM55.3 43.3c-.4 0-.8.2-1.1.6.1 0 .2 0 .3 0 .5 0 .8.4.8.8 0 .5-.4.8-.8.8-.3 0-.5-.1-.6-.3.2.8 1 1.2 1.8 1 .8-.2 1.2-1 1-1.8C56.5 43.7 55.9 43.3 55.3 43.3L55.3 43.3z"/><path fill="#472b29" d="M49.8,52.6c0.8,0,1.6-0.4,2.2-1c0.1-0.1,0.1-0.3,0-0.5 c0,0,0,0,0,0c-0.1-0.1-0.3-0.1-0.5,0c-1,0.9-2.4,0.9-3.3,0c-0.1-0.1-0.3-0.1-0.5,0c-0.1,0.1-0.1,0.3,0,0.4 C48.2,52.2,48.9,52.5,49.8,52.6z" opacity=".41"/><path fill="#472b29" d="M50.1 61.8c-2 0-5.2-1.8-5.3-1.9-.1-.1-.2-.2-.1-.3.1-.1.2-.2.3-.1 0 0 3.5 2 5.3 1.8 1.6-.3 3.1-.9 4.4-1.8.1-.1.3 0 .3.1.1.1 0 .3-.1.3-1.4.9-3 1.5-4.6 1.9C50.3 61.8 50.2 61.8 50.1 61.8zM64.9 41.2c-.7 0-1.3-.2-1.9-.5-.1 0-.3 0-.4 0 0 0 0 0 0 0-1 0-1.9-.4-2.6-1.1-.4.1-.8.2-1.1.2 0 0-.1 0-.1 0-1.6 0-3.1-.8-3.9-2.2-1.2.5-2.5.8-3.7.8-3.4 0-6.4-1.8-7.3-4.3-1 .2-2 .2-3-.1-1.1-.3-2.1-1-2.8-2-.1-.1-.1-.3.1-.4.1-.1.3-.1.4.1.6.8 1.5 1.5 2.5 1.7 1 .3 2 .3 2.9 0 .1 0 .2 0 .2 0 .1 0 .1.1.1.2.7 2.4 3.6 4.2 6.8 4.2 0 0 0 0 0 0 1.3 0 2.5-.3 3.7-.8.1-.1.3 0 .4.1.7 1.3 2.1 2.1 3.6 2.1.4 0 .8-.1 1.2-.2.1 0 .2 0 .3.1.6.7 1.5 1.1 2.4 1.1.2 0 .3 0 .4 0 .1 0 .1 0 .2 0 .9.6 2 .6 3 .2.1-.1.3 0 .4.2.1.2 0 .3-.2.4C65.9 41.1 65.4 41.2 64.9 41.2z"/><g opacity=".3"><path fill="#ba8964" d="M42.7 49.1A2 2 0 1 0 42.7 53.1 2 2 0 1 0 42.7 49.1zM57.8 49.1A2 2 0 1 0 57.8 53.1 2 2 0 1 0 57.8 49.1z" opacity=".8"/></g><path fill="#8e7469" d="M46.8 46.9A.2.2 0 1 0 46.8 47.300000000000004.2.2 0 1 0 46.8 46.9zM47 48.599999999999994A.2.2 0 1 0 47 49 .2.2 0 1 0 47 48.599999999999994zM48.5 47.699999999999996A.2.2 0 1 0 48.5 48.1.2.2 0 1 0 48.5 47.699999999999996zM51.7 47.599999999999994A.2.2 0 1 0 51.7 48 .2.2 0 1 0 51.7 47.599999999999994zM52.5 49.099999999999994A.2.2 0 1 0 52.5 49.5.2.2 0 1 0 52.5 49.099999999999994zM53.6 47.599999999999994A.2.2 0 1 0 53.6 48 .2.2 0 1 0 53.6 47.599999999999994z" opacity=".8"/><path fill="#472b29" d="M38.7 49.7c-.2 0-.3-.1-.3-.3l-.7-7.6c0-.2.1-.3.3-.3.2 0 .3.1.3.3l.7 7.6C39 49.6 38.9 49.7 38.7 49.7 38.7 49.7 38.7 49.7 38.7 49.7zM61.2 49.6C61.1 49.6 61.1 49.6 61.2 49.6c-.2 0-.3-.2-.3-.3l.4-7.4c0-.2.1-.3.3-.3.2 0 .3.2.3.3l-.4 7.4C61.4 49.5 61.3 49.6 61.2 49.6z"/><path fill="#472b29" d="M48.8,87.3c-6.9,0-14-1.5-19-6.2c-0.1-0.1-0.2-0.3-0.2-0.4c0.1-0.8,0.2-2.9,0.3-4.7 c0.1-2.7,0.2-3.8,0.3-4.1c0.5-1.9,1.7-3.6,3.4-4.7c0.7-0.5,1.5-0.8,2.3-1l7.7-2.6c0.4-0.1,0.6-0.4,0.7-0.8 c0.1-0.8,0.2-1.6,0.2-2.5c-2.2-1.3-4.1-3.2-5.6-5.3c-0.6-0.9-1-2-0.9-3.1l0-2c-0.7-0.2-1.3-0.8-1.5-1.5c-0.4-1.2-1-3.7-1-3.8 c-0.3-0.9-0.2-1.6,0.2-2.2c0.2-0.3,0.7-0.7,1.5-0.8c-0.1-0.7-0.4-2.1-0.6-3.8c-0.2-1.4-0.5-2.9-0.5-3.1c-0.1-0.2-0.1-0.5-0.1-0.7 c0.1-1,0.8-1.8,1.7-2.1c-0.5-1.1-0.6-2.1-0.3-2.9c0.3-0.8,0.9-1.5,1.7-2v0c0-3,3.1-5.4,6.7-5.4c1.3,0,2.5,0.3,3.6,0.9 c1.1-1.1,2.6-1.7,4.1-1.7c0,0,0,0,0,0c2.8-0.1,5.3,2,5.6,4.7c0.2,0,0.4,0,0.7-0.1l0.1,0c2.5,0,4.5,2,4.5,4.5c0,0.3,0,0.5-0.1,0.7 c1.8,0.3,3.1,1.7,3.1,3.5c0,0.9-0.3,1.7-0.9,2.3c0.1,0.2,0.1,0.4,0.2,0.6c0.8,0,1.6-0.4,2.2-1.1c0.1-0.2,0.4-0.2,0.6-0.1 c0.2,0.1,0.3,0.3,0.3,0.5c-0.5,2.6-1.2,4.1-3.3,4.9c-1.1,0.3-2.3,0.3-3.4,0.1c-0.1,0.1-0.1,0.2-0.2,0.3c0.5,0.2,0.8,0.4,1,0.7 c0.3,0.4,0.5,1.1,0.2,2.3l0,0c-0.1,0.6-0.7,3-1,3.9c-0.1,0.6-0.6,1.2-1.2,1.4v2.6c0,0.7-0.2,1.3-0.5,1.9c-1.5,2.5-3.6,4.6-6.1,6 c0,0.8,0.1,1.6,0.2,2.4c0,0.4,0.3,0.7,0.7,0.8c1.6,0.6,9.6,3.3,10.4,3.9c3.2,2.1,3.3,4.1,3.4,5.6l0.5,9.4c0,0.2-0.1,0.4-0.2,0.5 C67.8,84.3,58.5,87.3,48.8,87.3z M30.6,80.6c11.6,10.4,34.2,4,38.8,1.6l-0.5-9.1c-0.1-1.4-0.2-3.1-2.9-4.9 c-0.5-0.3-6.5-2.5-10.1-3.7c-0.7-0.2-1.2-0.9-1.3-1.6c-0.1-0.9-0.2-1.9-0.2-2.8c0-0.2,0.1-0.4,0.3-0.4c2.5-1.4,4.5-3.4,5.9-5.8 c0.2-0.4,0.4-0.9,0.4-1.5l0-2.9c0-0.3,0.2-0.5,0.4-0.5c0.4-0.1,0.8-0.4,0.8-0.8c0.4-1.3,1-3.8,1-3.9c0.2-0.5,0.3-1,0-1.4 c-0.2-0.3-0.6-0.4-1.3-0.4c-0.2,0-0.4-0.1-0.5-0.3c-0.1-0.2,0-0.4,0.2-0.6c0.4-0.3,0.7-0.6,0.9-1c0.1-0.2,0.3-0.3,0.4-0.3h0.1 c0,0,0.1,0,0.1,0c1,0.2,2.1,0.2,3.2,0c1.2-0.4,1.9-1.1,2.3-2.7c-0.7,0.4-1.4,0.5-2.2,0.5c-0.2,0-0.4-0.2-0.5-0.5 c0-0.4-0.1-0.7-0.3-1c-0.1-0.2-0.1-0.4,0.1-0.6c0.5-0.5,0.8-1.1,0.8-1.8c0-1.4-1.2-2.6-2.7-2.6c-0.2,0-0.3-0.1-0.4-0.2 c-0.1-0.1-0.1-0.3-0.1-0.4c0.1-0.3,0.2-0.7,0.2-1.1c0-0.9-0.4-1.8-1-2.5c-0.7-0.7-1.5-1-2.5-1l-0.1,0c-0.3,0-0.7,0-1,0.1 c-0.2,0-0.3,0-0.4-0.1c-0.1-0.1-0.2-0.2-0.2-0.4v-0.2c-0.1-2.4-2.2-4.3-4.6-4.2c0,0,0,0,0,0c-1.4,0-2.7,0.6-3.6,1.6 c-0.2,0.2-0.4,0.2-0.6,0.1c-1.1-0.7-2.3-1-3.5-1c-3.1,0-5.7,2-5.7,4.4v0.4c0,0.2-0.1,0.4-0.3,0.5c-0.7,0.3-1.2,0.9-1.5,1.6 c-0.3,0.6-0.1,1.6,0.5,2.6c0.1,0.1,0.1,0.4,0,0.5c-0.1,0.2-0.3,0.3-0.5,0.3c-0.8,0-1.4,0.5-1.4,1.3c0,0.2,0,0.3,0,0.4 c0.1,0.2,0.3,1.6,0.5,3.2c0.3,1.8,0.7,4.1,0.7,4.3c0,0.1,0,0.3-0.1,0.4c-0.1,0.1-0.2,0.2-0.4,0.2c-0.4,0-1,0.1-1.3,0.4 c-0.3,0.4-0.1,0.9,0,1.3c0,0.1,0.6,2.7,1,3.9c0.1,0.5,0.5,0.9,1,0.9c0.3,0,0.5,0.2,0.5,0.5v2.5c0,0.9,0.2,1.8,0.8,2.5 c1.4,2.1,3.3,3.9,5.5,5.2c0.2,0.1,0.3,0.3,0.2,0.4c0,1-0.1,1.9-0.2,2.9c-0.1,0.7-0.6,1.4-1.3,1.6l-7.7,2.7 c-0.8,0.2-1.4,0.5-2.1,0.9c-1.4,1-2.5,2.5-3,4.2c-0.1,0.3-0.2,2.2-0.3,3.8C30.8,77.8,30.7,79.6,30.6,80.6z"/><path fill="#6d1b18" d="M45.6,54.6c-0.1,0.2-0.1,0.4-0.1,0.6c0,1.8,2,3.3,4.5,3.3s4.5-1.5,4.5-3.3c0-0.2,0-0.4-0.1-0.6 H45.6z"/><path fill="#ee3e54" d="M52.4,58c-1.4-1-3.3-1-4.8,0C49.1,58.7,50.8,58.7,52.4,58z"/><path fill="#fdfcef" d="M46.9,54.6C46.9,54.6,46.9,54.6,46.9,54.6v0.6c0,0.5,0.6,0.9,1.4,0.9h3.4c0.8,0,1.4-0.4,1.4-0.9 v-0.5c0,0,0,0,0-0.1H46.9z"/><path fill="#472b29" d="M50,58.8c-2.6,0-4.8-1.6-4.8-3.5c0-0.2,0-0.5,0.1-0.7c0-0.1,0.1-0.2,0.2-0.2h8.8 c0.1,0,0.2,0.1,0.2,0.2c0.1,0.2,0.1,0.4,0.1,0.7C54.7,57.2,52.6,58.8,50,58.8z M45.8,54.9c0,0.1,0,0.2,0,0.4c0,1.7,1.9,3,4.3,3 c2.3,0,4.2-1.4,4.2-3c0-0.1,0-0.2,0-0.4H45.8z"/></svg>