<svg xmlns="http://www.w3.org/2000/svg" xmlns:xlink="http://www.w3.org/1999/xlink" viewBox="0 0 100 100"><path fill="#fff" d="M20.3 55.1A.9.9 0 1 0 20.3 56.9.9.9 0 1 0 20.3 55.1zM79.4 30.400000000000002A.7.7 0 1 0 79.4 31.8.7.7 0 1 0 79.4 30.400000000000002z"/><path fill="#f1bc19" d="M76.7 11.2A.9.9 0 1 0 76.7 13 .9.9 0 1 0 76.7 11.2zM20.8 62.800000000000004A.9.9 0 1 0 20.8 64.60000000000001.9.9 0 1 0 20.8 62.800000000000004z"/><path fill="#cee1f4" d="M49.6 11.799999999999997A37.5 37.5 0 1 0 49.6 86.8A37.5 37.5 0 1 0 49.6 11.799999999999997Z"/><path fill="#f1bc19" d="M82.2 10.2A4 4 0 1 0 82.2 18.2A4 4 0 1 0 82.2 10.2Z"/><path fill="#78a0cf" d="M86.2 21.400000000000002A1.9 1.9 0 1 0 86.2 25.2A1.9 1.9 0 1 0 86.2 21.400000000000002Z"/><path fill="#fbcd59" d="M77.2 73.8A1.9 1.9 0 1 0 77.2 77.60000000000001 1.9 1.9 0 1 0 77.2 73.8zM14 58.8A4 4 0 1 0 14 66.8 4 4 0 1 0 14 58.8z"/><path fill="#78a0cf" d="M24.3 85A1.9 1.9 0 1 0 24.3 88.80000000000001A1.9 1.9 0 1 0 24.3 85Z"/><path fill="#fff" d="M75.8 27.8A1.8 1.8 0 1 0 75.8 31.400000000000002 1.8 1.8 0 1 0 75.8 27.8zM17.8 48.2A2.5 2.5 0 1 0 17.8 53.2 2.5 2.5 0 1 0 17.8 48.2z"/><path fill="#ce9065" d="M68.1,70.5c-0.4-2.2-1.3-3.4-3.3-4l-0.3-0.1l-0.6-0.2c-1.3-0.5-8.7-3.3-8.7-3.3 c-0.6-0.1-1-0.5-1.2-1.1c-0.2-0.9-0.3-1.9-0.2-2.9c-1.6,0.6-3.3,1-5,1.4c-1.9,0.2-6-2.3-6-2.3s-0.1,3-0.2,3.7 c-0.2,0.6-0.7,1-1.3,1.1L34,65.5c-0.8,0.2-1.5,0.5-2.2,0.9c-1.5,1-2.6,2.4-3.2,4.2c0,0-0.5,3.3-0.5,3.4c0,0.5-0.1,1-0.1,1.5 c7.8,5.3,14,6.7,24.7,6.3c4.9-0.2,12.1-2.6,15.9-4.5C68.5,73,68.1,70.5,68.1,70.5z"/><path fill="#fdfcef" d="M64.8,66.5l-0.3-0.1l-0.6-0.2c-0.8-0.3-3.9-1.5-6.2-2.3h-0.1C55,65.1,51.5,67,48.2,67 s-6.6-1.8-9.4-3.2l-0.3,0.1L34,65.5c-0.8,0.2-1.5,0.5-2.2,0.9c-1.5,1-2.6,2.4-3.2,4.2c0,0-0.5,3.3-0.5,3.4c0,0.5-0.1,5.4-0.1,6 c7.8,5.3,14,6.7,24.7,6.3c4.9-0.2,12.1-2.6,15.9-4.5c-0.2-4.2-0.6-11.2-0.6-11.2C67.7,68.4,66.8,67.2,64.8,66.5z"/><path fill="#e1e0d8" d="M40.6,63.5l-3,1.1l6,7.6l5.2-5.5C48.9,66.7,41,65,40.6,63.5z"/><path fill="#e1e0d8" d="M56.2,63.5l2.6,1.5l-5.6,7.2L48,66.7C48,66.7,55.8,65,56.2,63.5z"/><path fill="#ce9065" d="M60.4,42h-0.4c-1,0-1.2,0.3-1.2-0.3c0.1-1.1-0.1-5.4-0.1-5.6c0-4.5-4.7-8.1-10.5-8.3h-0.2 c-5.8,0.2-10.5,3.8-10.5,8.3c0,0.2-0.2,4.5-0.1,5.6c0,0.6-0.2,0.2-1.2,0.3H36c-1,0-1.8,0.7-2.1,1.6c0.1,0.1,0.6,3.7,1.4,5.2 c0.4,0.8,1.1,0.9,1.8,1.4c0.3,0.2,0.5,0.6,0.6,1c0.5,1.6,1.4,3,2.7,4.1c0.6,0.6,4.5,4.7,7.9,4.5s7.3-4,7.9-4.5 c1.3-1.1,2.2-2.5,2.7-4.1c0.1-0.4,0.3-0.8,0.6-1c0.7-0.5,1.4-0.6,1.8-1.4c0.8-1.4,1.3-5.1,1.4-5.2C62.2,42.7,61.4,42,60.4,42z"/><path fill="#ce9065" d="M48.3,62.8c2,0,7.7-2.7,9.8-5.5c1.4-1.9,0.8-4.6,0.8-8.2c0-8.7,3.3-19.4-10.5-19.4 S37.7,40.5,37.7,49.2c0,3.6-0.6,6.2,0.8,8.2C40.7,60.1,46.2,62.8,48.3,62.8z"/><defs><path id="k86mdo2qyW0oaJx67hp~La" d="M48.3,62.8c2,0,7.7-2.7,9.8-5.5c1.4-1.9,0.8-4.6,0.8-8.2c0-8.7,3.3-19.4-10.5-19.4S37.7,40.5,37.7,49.2 c0,3.6-0.6,6.2,0.8,8.2C40.7,60.1,46.2,62.8,48.3,62.8z"/></defs><clipPath id="k86mdo2qyW0oaJx67hp~Lb"><use xlink:href="#k86mdo2qyW0oaJx67hp~La"/></clipPath><g clip-path="url(#k86mdo2qyW0oaJx67hp~Lb)"><path fill="#512c2b" d="M58.7,45.2c0,0-0.4,5.5-1.9,6.5c-1.1,0.7-2.2,1.2-3.5,1.5H43.1c-1.2-0.3-2.4-0.8-3.5-1.5 c-1.5-1-1.9-6.5-1.9-6.5c-0.4,3.1-0.5,6.2-0.2,9.3c0.1,1.1,0.5,2.2,1.2,3.1c0,0,5.9,6,6.3,6.3c1.1,0.2,2.1,0.2,3.2,0.1 c1.1,0.1,2.1,0.1,3.2-0.1c0.5-0.3,6.9-6.1,6.9-6.1c0.6-1.1,0.9-2.3,1.1-3.5C59.5,51.3,59.3,48.3,58.7,45.2L58.7,45.2z"/></g><path fill="#603535" d="M56.7,51.8c-2.1,1.1-2.3-1.1-4.6-1.7c-1.5-0.3-3,0.2-3.8,1.5c-1-1.1-2.4-1.7-3.8-1.5 c-2.3,0.6-2.5,2.8-4.6,1.7c-0.2,0,5.7,5.9,8.4,1.8C51,57.7,56.9,51.8,56.7,51.8z"/><path fill="#e1e0d8" d="M34.9 84.2c-.2 0-.3-.1-.3-.3v-4c0-.2.1-.3.3-.3s.3.1.3.3v4C35.2 84.1 35.1 84.2 34.9 84.2zM61.2 84.9c-.2 0-.3-.1-.3-.3V80c0-.2.1-.3.3-.3s.3.1.3.3v4.7C61.5 84.8 61.4 84.9 61.2 84.9z"/><path fill="#512c2b" d="M48.3,50.1c0.7,0,1.3-0.3,1.8-0.8c0,0,0-0.1,0-0.2c0,0,0,0,0,0l0,0c0,0-0.1,0-0.2,0c0,0,0,0,0,0 c-0.9,0.8-2.3,0.8-3.2,0c0,0-0.1,0-0.1,0c0,0-0.1,0-0.1,0c0,0,0,0.1,0,0.2c0,0,0,0,0,0C47,49.8,47.6,50.1,48.3,50.1z"/><path fill="#603535" d="M46.1 40.8l.4-.8c-1.9-.4-3.8-.4-5.7.2l.5.8C42.9 40.5 44.5 40.5 46.1 40.8zM55.3 40.8l.4-.8c-1.9-.4-3.8-.4-5.7.2l.5.8C52.1 40.5 53.7 40.5 55.3 40.8z"/><path fill="#512c2b" d="M43.5 42c-.5 0-.9.3-1 .7.1 0 .1 0 .2 0 .4 0 .7.3.7.7 0 .4-.3.7-.7.7-.1 0-.2 0-.3-.1.1.6.6 1.1 1.2 1.1.9-.2 1.4-1.1 1.2-2C44.5 42.6 44 42.2 43.5 42L43.5 42zM53 42c-.4 0-.7.2-.9.5.1 0 .2 0 .2 0 .4 0 .7.3.7.7 0 .4-.3.7-.7.7-.2 0-.4-.1-.5-.3.2.7.9 1.1 1.6.9.7-.2 1.1-.9.9-1.6C54.1 42.4 53.6 42 53 42z"/><path fill="#895d3d" d="M60.5 46.9l-.6-.1.2-1.8-1 .4-.2-.5 1.5-.7c.1 0 .2 0 .3 0 .1.1.1.2.1.3L60.5 46.9zM36.3 46.5L36 44.2c0-.1 0-.2.1-.3.1-.1.2-.1.3 0l1.5.6-.2.6-1-.4.2 1.8L36.3 46.5z"/><path fill="#472b29" d="M49.3,87.1c-8.9,0-14.6-1.8-21.5-6.4c-0.1-0.1-0.2-0.3-0.2-0.5c0-0.3,0.4-6.3,0.6-9.4 c0,0,0-0.1,0-0.1c0.6-1.8,1.8-3.4,3.4-4.4c0.7-0.4,1.5-0.8,2.4-1l7.1-2.5c0.5-0.1,0.8-0.4,1-0.8c0-0.2,0-0.4,0.1-0.7 c-1.5-0.9-2.8-1.9-3.9-3.2c-1.2-1.6-1.2-3.6-1-6l0-0.5c0-0.2-0.2-0.4-0.4-0.6c-0.2-0.1-0.4-0.3-0.6-0.4c-0.5-0.3-1-0.5-1.3-1.2 c-0.8-1.7-1.3-3.5-1.4-5.3c0-0.1,0-0.1,0-0.2c0.4-1.1,1.4-1.9,2.6-1.9h0.5c0.2,0,0.3,0,0.5,0c0-1.4,0-2.9,0.2-4.3l0-1.1 c0-4.7,4.8-8.6,10.9-8.8l0.3,0c6.2,0.2,11,4.1,11,8.8V37c0.2,1.5,0.3,3.1,0.3,4.8c0.2,0,0.3,0,0.5,0l0.3,0c1.2,0,2.2,0.8,2.6,1.9 c0,0.1,0,0.1,0,0.2c-0.2,1.9-0.6,3.7-1.4,5.3c-0.4,0.7-0.9,1-1.4,1.3c-0.2,0.1-0.4,0.2-0.6,0.4c-0.1,0.1-0.2,0.2-0.3,0.3l0,0.7 c0.1,2.4,0.2,4.4-1,6c-1.2,1.4-2.6,2.6-4.1,3.5c0,0.2,0.1,0.4,0.1,0.5c0.2,0.4,0.5,0.7,0.9,0.8c0.3,0.1,7.5,2.8,8.7,3.3l0.9,0.4 c2.1,0.6,3.2,1.9,3.7,4.4c0,0,0,0,0,0.1c0,0.4,0.5,9.9,0.5,11.2c0,0.2-0.1,0.4-0.3,0.5c-4,2-11.4,4.4-16.1,4.6 C51.5,87.1,50.4,87.1,49.3,87.1z M28.6,80c7.4,5,13.6,6.5,24.1,6c4.5-0.2,11.4-2.4,15.4-4.3c-0.1-2-0.5-10.2-0.5-10.8 c-0.4-2.1-1.2-3.1-3-3.6l-1-0.4c-1.2-0.5-8.6-3.2-8.7-3.3c-0.7-0.2-1.2-0.7-1.5-1.4c-0.1-0.4-0.2-0.8-0.3-1.2 c0-0.2,0.1-0.4,0.3-0.5c1.6-0.8,3-2,4.1-3.4c0.9-1.3,0.9-3.1,0.7-5.3l0-0.8c0-0.1,0-0.1,0-0.2c0.1-0.4,0.3-0.7,0.7-1 c0.2-0.2,0.5-0.3,0.7-0.4c0.4-0.2,0.7-0.4,1-0.8c0.7-1.5,1.2-3.2,1.3-4.9c-0.2-0.7-0.9-1.1-1.6-1.1H60c-0.3,0-0.6,0-0.9,0.1 c-0.2,0-0.3,0-0.4-0.1c-0.1-0.1-0.2-0.3-0.2-0.4c0.1-1.7,0-3.5-0.2-5.2l0-0.6c0-4.2-4.4-7.6-10-7.8l-0.2,0c-5.6,0.2-10,3.6-10,7.8 v1.1c-0.2,1.6-0.3,3.2-0.2,4.7c0,0.1-0.1,0.3-0.2,0.4c-0.1,0.1-0.3,0.2-0.4,0.1c-0.3,0-0.6-0.1-0.9-0.1H36c-0.7,0-1.3,0.5-1.6,1.1 c0.2,1.7,0.6,3.3,1.3,4.9c0.2,0.4,0.5,0.6,0.9,0.8c0.2,0.1,0.5,0.3,0.7,0.4c0.4,0.3,0.7,0.8,0.7,1.3l0,0.6C38,54.2,38,56,39,57.3 c1.1,1.3,2.4,2.3,3.8,3.1c0.2,0.1,0.3,0.3,0.3,0.5c0,0.4-0.1,0.8-0.1,1.2c-0.3,0.8-0.9,1.4-1.7,1.6l-7.1,2.5 c-0.8,0.2-1.5,0.5-2.1,0.9c-1.4,0.9-2.4,2.2-2.9,3.8C29.1,71.7,28.7,78.5,28.6,80z"/><path fill="#603535" d="M58.3,31.9c1.3,0.3,2.1,1.4,2.1,2.6c-0.1,2.2-1.6,11.7-1.6,11.7l-3.1-9.8 C55.8,36.5,58.3,31.9,58.3,31.9z"/><path fill="#512c2b" d="M46.7,25.8l-1.2-1.6c0,0,13.1-1.4,13,5.8c0.2,5.4-3.4,10.1-8.5,11.6l0.7-2.6l-5.1,2.7l0.6-1.5 L42,41.6l1.5-3.5l-3.8,1.4c-0.9,2.2-1.5,4.5-2,6.8c0,0-3-10.1-1.1-10.9L35.9,35l0.9-1.8l-1.4-0.6l1.2-1.6l-0.5-0.7l2.6-1.5 l-1.4-0.7C37.3,28.1,41.7,24.5,46.7,25.8L46.7,25.8z"/><path fill="#78a0cf" d="M57.6,42L57.6,42h-0.2h-0.2c-0.4,0-0.7,0-1.1,0c-0.7,0-1.3,0-2,0c-1,0-1.9,0.1-2.9,0.2h-0.3 c-0.7,0.1-1.5,0.3-2.2,0.5c-0.5,0.2-1.1,0.3-1.6,0.1L47,42.7c-0.2-0.1-0.4-0.2-0.6-0.2l-0.5-0.1c-0.8-0.2-1.7-0.3-2.5-0.4 c-0.6-0.1-1.2-0.1-1.8-0.1h-0.7h-0.8c-0.6,0-1.2,0-1.8,0.1c-0.4,0-1,0.1-1.3,0.3C37,42.4,37,42.5,37,42.6c0,0.3,0.1,0.5,0.1,0.7 s0.1,0.5,0.1,0.8s0.3,0.4,0.8,0.6l0.3,0.2c0.1,0.1,0.2,0.2,0.2,0.3v0.1l0.2,0.3c0.1,0.2,0.2,0.4,0.3,0.5c0.1,0.2,0.3,0.3,0.4,0.4 c0.2,0.1,0.4,0.2,0.6,0.2c1.5,0.3,3.1,0.4,4.7,0.3c0.9,0,1.6-0.6,1.8-1.4c0.1-0.2,0.2-0.5,0.3-0.7s0.1-0.3,0.2-0.4 c0.1-0.2,0.2-0.3,0.4-0.3h0.6c0.4,0,0.5,0,0.6,0.5l0.1,0.2c0.2,0.4,0.3,0.8,0.5,1.2c0.2,0.4,0.6,0.7,1,0.8c0.2,0.1,0.5,0.1,0.7,0.2 c0.4,0,0.7,0,1.1,0c1.1,0,2.1-0.1,3.2-0.3c0.8,0,1.5-0.5,1.8-1.3c0.1-0.2,0.3-0.5,0.5-0.6c0.1-0.1,0.3-0.1,0.4-0.2 c0.4-0.2,0.6-0.3,0.7-0.4h0.1c0.1,0,0.1-0.1,0.1-0.1c0-0.2,0-0.3,0-0.5c0-0.4,0.1-0.8,0.1-1.1S58.3,42.1,57.6,42z M51.9,42.7 l1.1-0.1h1.3c0.2,0,0.3,0,0.5,0c0.5,0,0.9,0.1,1.4,0.1s0.6,0.3,0.6,0.8c0,0.7-0.2,1.4-0.5,2c-0.1,0.2-0.2,0.3-0.4,0.4 c-0.6,0.3-1.2,0.5-1.9,0.5c-0.8,0-1.7,0-2.5,0h-0.4c-0.5,0-1-0.3-1.3-0.8c-0.3-0.6-0.5-1.3-0.5-2c0-0.2,0.2-0.4,0.4-0.5 c0.6-0.2,1.2-0.4,1.8-0.4L51.9,42.7z M46.5,43.9c0,0.8-0.3,1.5-0.8,2.1c-0.2,0.3-0.6,0.5-0.9,0.5c-0.5,0-1,0.1-1.4,0.1l0,0 c-0.9,0-1.9-0.1-2.8-0.3c-0.3-0.1-0.6-0.2-0.8-0.3c-0.1-0.1-0.3-0.2-0.3-0.3c-0.3-0.6-0.4-1.3-0.4-2c0-0.5,0.1-0.7,0.6-0.8 s1-0.1,1.5-0.1h0.7c1.3,0,2.6,0.2,3.9,0.5l0.3,0.1C46.4,43.3,46.5,43.4,46.5,43.9L46.5,43.9z"/></svg>