<svg xmlns="http://www.w3.org/2000/svg" viewBox="0 0 100 100"><path fill="#fff" d="M22.1 57.6A0.9 0.9 0 1 0 22.1 59.4A0.9 0.9 0 1 0 22.1 57.6Z"/><path fill="#f1bc19" d="M22.6 65.3A0.9 0.9 0 1 0 22.6 67.10000000000001A0.9 0.9 0 1 0 22.6 65.3Z"/><path fill="#c0e5e4" d="M51.6 14.299999999999997A37.5 37.5 0 1 0 51.6 89.3A37.5 37.5 0 1 0 51.6 14.299999999999997Z"/><path fill="#fbcd59" d="M78.9 76.3A1.9 1.9 0 1 0 78.9 80.10000000000001 1.9 1.9 0 1 0 78.9 76.3zM15.8 61.3A4 4 0 1 0 15.8 69.3 4 4 0 1 0 15.8 61.3z"/><path fill="#00a5a5" d="M26 87.5A1.9 1.9 0 1 0 26 91.30000000000001A1.9 1.9 0 1 0 26 87.5Z"/><path fill="#fff" d="M19.5 50.7A2.5 2.5 0 1 0 19.5 55.7A2.5 2.5 0 1 0 19.5 50.7Z"/><path fill="#d8ad8f" d="M66.7,70c-0.7-0.5-10.2-3.8-10.2-3.8c-0.5-0.2-0.9-0.6-1-1.2c-0.1-0.9-0.2-1.8-0.2-2.8 c2.5-1.4,4.6-3.5,6.1-6c0.3-0.5,0.4-1.1,0.5-1.7c0-1,0-2,0-3c0.6-0.1,1.1-0.6,1.3-1.2c0.4-1.3,1-3.8,1-3.9 c0.5-1.6-0.3-2.4-1.8-2.4c0.4-0.3,0.7-0.7,1-1.2h0.1c0.1,0,0.3,0,0.4,0c2,0.7,5.1,0.3,5.9-4.5c-0.7,0.9-1.9,1.4-3,1.3 c0-0.4-0.1-0.8-0.3-1.2c0.6-0.6,1-1.4,1-2.2c0-1.7-1.4-3.1-3.1-3.1c0,0-0.1,0-0.1,0l0,0c0.1-0.4,0.2-0.8,0.2-1.2c0-2.2-1.8-4-4-4 c0,0-0.1,0-0.1,0c-0.4,0-0.8,0.1-1.1,0.1c0,0,0-0.1,0-0.1c-0.2-2.7-2.4-4.7-5.1-4.6c-1.5,0-3,0.6-4,1.8c-1.1-0.7-2.5-1.1-3.8-1.1 c-3.4,0-6.2,2.2-6.2,4.9c0,0.1,0,0.2,0,0.4c-0.8,0.4-1.4,1-1.7,1.8c-0.3,0.8,0.6,3,0.6,3.1l0,0c-1,0-1.9,0.7-1.9,1.8 c0,0.2,0,0.4,0.1,0.6c0.1,0.5,0.9,7.3,1.3,7.5c-1.5,0-2.3,0.8-1.8,2.4c0,0,0.6,2.6,1,3.9c0.1,0.7,0.8,1.2,1.5,1.2 c0,0.8,0,1.7,0,2.5c0,1,0.3,2,0.9,2.8c1.5,2.2,3.4,4,5.7,5.3c0,0.9-0.1,1.9-0.2,2.8c-0.1,0.6-0.5,1-1,1.2l-7.8,2.7 c-0.8,0.2-1.5,0.5-2.2,0.9c-3.4,2.2-3.6,6.6-3.6,6.9H70C70,74,68.8,71.6,66.7,70z"/><path fill="#efa21b" d="M55.3,39.3c0.8,1.4,2.2,2.3,3.9,2.3c0.4,0,0.8-0.1,1.2-0.2c0.7,0.7,1.6,1.2,2.6,1.2 c0.1,0,0.3,0,0.4,0c1.9,0.6,5,1,5.9-3c-0.8,0.5-1.8,0.7-2.7,0.3c0-0.5-0.1-1-0.3-1.5c0.6-0.6,1-1.3,1-2.2c-0.1-1.7-1.5-3-3.2-3 l0,0c0.1-0.4,0.1-0.8,0.1-1.3c-0.1-2.2-1.9-3.9-4.1-3.9c-0.4,0-0.8,0-1.1,0.1c0,0,0-0.1,0-0.1c-0.1-2.7-2.4-4.7-5.1-4.6 c-1.5,0-3,0.6-4,1.8c-1.1-0.7-2.5-1-3.8-1c-3.4,0-6.1,2.2-6.1,4.9c0,0.1,0,0.2,0,0.4c-0.8,0.3-1.4,1-1.7,1.8c0,0.1,0.5,2.7,0.6,3 c0.6,0.8,1.5,1.3,2.4,1.6c1,0.3,2,0.3,3,0c0.8,2.5,3.6,4.4,7.1,4.4C52.8,40.2,54.1,39.9,55.3,39.3z"/><path fill="#b2876b" d="M50.3,76.6h19.5c0-2.5-1.2-4.9-3.2-6.4c-0.7-0.5-10.2-3.7-10.2-3.7c-0.6-0.2-1-0.6-1.2-1.1 c-0.2-1.1-0.3-2.2-0.2-3.3c-1.3,0.8-2.7,1.4-4.2,1.8c-1.9,0.2-5.1-1.6-5.1-1.6s-0.2,2.4-0.3,3c-0.2,0.6-0.7,1-1.3,1.1L36.5,69 c-0.8,0.2-1.5,0.5-2.2,0.9c-2.2,1.5-3.5,4-3.5,6.6L50.3,76.6z"/><path fill="#00a5a5" d="M51.7,88.9c6.5,0,13-1.7,18.6-5c-0.2-7.7,0-12.7-3.8-13.9c-0.8-0.3-3.9-1.8-3.9-1.8 s-8,4.5-11.5,5.2c-6.6,1.3-13.4,1.7-20.1,1.1c-0.1,0.3-0.2,5.7-0.3,7.9C36.9,86.7,44.2,88.9,51.7,88.9z"/><path fill="#6d3c14" d="M39.2,34.7c-0.2,0-0.5,0.2-0.7,0.2 c-0.6,0.1-1.1,0.6-1.1,1.3l1.1,7.3c0-0.6,0.2-6.2,2-7.8C40.1,35.4,39.7,35.1,39.2,34.7z" opacity=".34"/><path fill="#472b29" d="M48.4 43.2c-2.4-.6-4.9-.7-7.4-.4-.1 0-.2.1-.2.2 0 .1.1.2.2.2 2.2.2 4.5.6 6.7 1.1h.1c.1 0 .1 0 .2-.1l.6-.7c0-.1 0-.1 0-.2C48.5 43.2 48.5 43.2 48.4 43.2zM52.4 43.2c2.4-.6 4.9-.7 7.4-.4.1 0 .2.1.2.2s-.1.2-.2.2c-2.2.2-4.5.6-6.7 1.1H53c-.1 0-.1 0-.2-.1l-.6-.7c0-.1 0-.1 0-.2C52.3 43.2 52.3 43.2 52.4 43.2zM44.9 45.4c-.5 0-1 .4-1.2.8.1 0 .1 0 .2 0 .5.1.8.5.7.9 0 .4-.3.7-.7.7-.1 0-.3 0-.4-.1.1.7.7 1.2 1.4 1.3 1-.2 1.6-1.2 1.4-2.2C46.1 46.2 45.6 45.6 44.9 45.4L44.9 45.4zM55.8 45.4c-.4 0-.8.2-1.1.6.1 0 .2 0 .3 0 .5.1.8.5.7.9 0 .4-.3.7-.7.7-.3 0-.5-.1-.6-.4.2.8 1 1.2 1.8 1 .8-.2 1.2-1 1-1.8C57.1 45.9 56.5 45.4 55.8 45.4L55.8 45.4z"/><path fill="#472b29" d="M50.3,54.7c0.8,0,1.6-0.4,2.2-1c0.1-0.1,0.1-0.3,0-0.5 c0,0,0,0,0,0c-0.1-0.1-0.3-0.1-0.5,0c-1,0.9-2.4,0.9-3.3,0c-0.1-0.1-0.3-0.1-0.5,0c-0.1,0.1-0.1,0.3,0,0.5 C48.7,54.4,49.5,54.7,50.3,54.7z" opacity=".41"/><path fill="#472b29" d="M50.6,64c-2,0-5.2-1.8-5.3-1.9c-0.1-0.1-0.2-0.2-0.1-0.3c0.1-0.1,0.2-0.2,0.3-0.1 c0,0,3.5,2,5.3,1.8c1.6-0.3,3.1-0.9,4.4-1.8c0.1-0.1,0.3,0,0.3,0.1c0.1,0.1,0,0.3-0.1,0.3c-1.4,0.9-3,1.5-4.6,1.9 C50.8,64,50.7,64,50.6,64z"/><path fill="#e2900e" d="M66.7,39.7c0-0.5-0.1-1-0.3-1.5c0.6-0.5,1-1.3,1-2.2c-0.1-1.7-1.5-3.1-3.2-3l0,0 c0.1-0.4,0.2-0.8,0.2-1.2c-0.1-2.2-1.9-3.9-4.1-3.9c-0.4,0-0.8,0-1.1,0.1c0,0,0-0.1,0-0.1c-0.2-2.7-2.5-4.7-5.1-4.6c0,0,0,0,0,0 c-1.2,0-2.4,0.4-3.3,1.1c0.4,0.4,0.1,0,0.4,0.4c1.7-0.4,3.5-0.2,5,0.6c2.5,1.5,3.4,4.5,2.3,7.2l-0.1,0.1c0.4,0.1,0.7,0.2,1.1,0.4 c1.9,1,2.7,3.4,1.7,5.3c-0.2,0.3-0.4,0.7-0.7,0.9l0,0c1,0.5,1.7,1.6,1.7,2.8c0.3,0.1,0.6,0.1,0.9,0.1c0.1,0,0.3,0,0.4,0 c1.9,0.6,5,1,5.9-3C68.5,40,67.5,40.1,66.7,39.7z"/><path fill="#472b29" d="M65.4,43.4c-0.7,0-1.3-0.2-1.9-0.5c-0.1,0-0.3,0-0.4,0c-1,0-2-0.4-2.7-1.1 c-0.4,0.1-0.7,0.1-1.1,0.1c0,0-0.1,0-0.1,0c-1.6,0-3.1-0.8-3.9-2.2c-1.2,0.5-2.4,0.8-3.7,0.8c0,0,0,0-0.1,0 c-3.4,0-6.4-1.8-7.3-4.3c-1,0.3-2,0.2-3-0.1c-1.1-0.3-2.1-1-2.8-2c-0.1-0.1-0.1-0.3,0.1-0.4s0.3-0.1,0.4,0.1 c0.6,0.8,1.5,1.5,2.5,1.7c1,0.3,1.9,0.3,2.9,0c0.1,0,0.2,0,0.2,0c0.1,0,0.1,0.1,0.1,0.2c0.7,2.4,3.6,4.2,6.9,4.2 c1.3,0,2.6-0.3,3.7-0.8c0.1-0.1,0.3,0,0.4,0.1c0.7,1.3,2.1,2.1,3.6,2.1c0,0,0,0,0,0c0.4,0,0.8-0.1,1.1-0.2c0.1,0,0.2,0,0.3,0.1 c0.6,0.7,1.5,1.1,2.4,1.1c0.2,0,0.3,0,0.4,0c0.1,0,0.1,0,0.2,0c0.9,0.6,2,0.6,3,0.2c0.2-0.1,0.3,0,0.4,0.2c0.1,0.2,0,0.3-0.2,0.4 C66.4,43.3,65.9,43.4,65.4,43.4z"/><g opacity=".3"><path fill="#ba8964" d="M43.3 51.2A2 2 0 1 0 43.3 55.2 2 2 0 1 0 43.3 51.2zM58.3 51.2A2 2 0 1 0 58.3 55.2 2 2 0 1 0 58.3 51.2z" opacity=".8"/></g><path fill="#8e7469" d="M47.3 49.099999999999994A.2.2 0 1 0 47.3 49.5.2.2 0 1 0 47.3 49.099999999999994zM47.5 50.8A.2.2 0 1 0 47.5 51.2.2.2 0 1 0 47.5 50.8zM49 49.8A.2.2 0 1 0 49 50.2.2.2 0 1 0 49 49.8zM52.2 49.8A.2.2 0 1 0 52.2 50.2.2.2 0 1 0 52.2 49.8zM53.1 51.3A.2.2 0 1 0 53.1 51.7.2.2 0 1 0 53.1 51.3zM54.1 49.8A.2.2 0 1 0 54.1 50.2.2.2 0 1 0 54.1 49.8z" opacity=".8"/><path fill="#472b29" d="M39.2 51.9c-.2 0-.3-.1-.3-.3l-.7-7.5c0-.2.1-.3.3-.3.2 0 .3.1.3.3l.7 7.5C39.5 51.7 39.4 51.9 39.2 51.9 39.2 51.9 39.2 51.9 39.2 51.9zM61.7 51.8C61.7 51.8 61.7 51.8 61.7 51.8c-.2 0-.3-.2-.3-.3l.4-7.4c0-.2.1-.3.3-.3.2 0 .3.2.3.3L62 51.5C62 51.7 61.9 51.8 61.7 51.8z"/><path fill="#472b29" d="M51.6,89.4L51.6,89.4c-7.6,0-15-2.3-21.3-6.5c-0.1-0.1-0.2-0.3-0.2-0.5c0.1-1,0.2-2.7,0.3-4.3 c0.1-2.6,0.2-3.7,0.3-4c0.5-1.9,1.7-3.6,3.4-4.7c0.7-0.5,1.5-0.8,2.3-1l7.7-2.7c0.4-0.1,0.6-0.4,0.7-0.8c0.1-0.8,0.2-1.6,0.2-2.5 c-2.2-1.3-4.1-3.1-5.6-5.3c-0.6-0.9-1-2-0.9-3.1l0-2c-0.7-0.2-1.3-0.8-1.5-1.6c-0.4-1.2-1-3.7-1-3.9c-0.4-1.1-0.1-1.8,0.2-2.2 c0.2-0.3,0.7-0.7,1.5-0.8c-0.1-0.7-0.3-1.8-0.6-3.4c-0.3-1.5-0.5-3.3-0.6-3.5c-0.1-0.2-0.1-0.5-0.1-0.8c0-0.6,0.3-1.2,0.8-1.6 c0.3-0.2,0.6-0.4,0.9-0.5c-0.5-1.1-0.6-2.1-0.3-2.9c0.3-0.8,0.9-1.5,1.7-1.9V29c0-3,3-5.4,6.7-5.4c1.3,0,2.6,0.3,3.7,0.9 c1.1-1.1,2.6-1.7,4.2-1.7c2.8-0.1,5.2,2,5.6,4.7c0.2,0,0.4,0,0.7,0l0.1,0c2.5,0,4.5,2,4.5,4.5c0,0.2,0,0.5-0.1,0.7 c1.8,0.2,3.2,1.8,3.2,3.6c0,0.9-0.3,1.7-0.9,2.3c0.1,0.2,0.1,0.4,0.1,0.6c0.8,0,1.6-0.4,2.2-1.1c0.1-0.2,0.4-0.2,0.6-0.1 c0.2,0.1,0.3,0.3,0.3,0.5c-0.5,2.6-1.2,4.1-3.3,4.9c-1.1,0.3-2.3,0.3-3.4,0.1c-0.1,0.1-0.1,0.2-0.2,0.3c0.5,0.2,0.9,0.4,1,0.7 c0.3,0.4,0.5,1.1,0.2,2.2l0,0c-0.1,0.6-0.7,3-1,3.9c-0.1,0.6-0.6,1.2-1.2,1.4v2.6c0,0.7-0.2,1.3-0.5,1.9c-1.5,2.5-3.6,4.6-6.1,6 c0,0.8,0.1,1.6,0.2,2.4c0,0.4,0.3,0.7,0.7,0.8c1.6,0.6,9.6,3.4,10.4,3.9c3.1,2,3.3,4.2,3.4,5.6l0,0.2l0.3,8.5 c0,0.2-0.1,0.4-0.3,0.5C64.8,87.6,58.3,89.4,51.6,89.4z M31.2,82.2c6.1,4.1,13.1,6.2,20.5,6.2c6.4,0,12.6-1.7,18.2-4.8l-0.3-8.4 c-0.1-1.4-0.2-3-3-4.8c-0.5-0.3-6.5-2.5-10.1-3.8c-0.7-0.2-1.2-0.8-1.3-1.6c-0.1-0.9-0.2-1.9-0.2-2.8c0-0.2,0.1-0.4,0.3-0.4 c2.5-1.4,4.5-3.4,5.9-5.8c0.2-0.4,0.4-0.9,0.4-1.4v-2.9c0-0.3,0.2-0.5,0.4-0.5c0.4-0.1,0.8-0.4,0.8-0.8c0.4-1.2,1-3.7,1-3.9 c0.2-0.5,0.3-1,0-1.4c-0.2-0.3-0.7-0.4-1.3-0.4c-0.2,0-0.4-0.1-0.5-0.3c-0.1-0.2,0-0.4,0.2-0.6c0.4-0.3,0.7-0.6,0.9-1 c0.1-0.2,0.3-0.3,0.4-0.3h0.1c0,0,0.1,0,0.1,0c1,0.3,2.1,0.3,3.1,0c1.2-0.4,1.9-1.1,2.3-2.7c-0.7,0.4-1.4,0.5-2.2,0.5 c-0.3,0-0.5-0.2-0.5-0.5c0-0.4-0.1-0.7-0.2-1c-0.1-0.2,0-0.4,0.1-0.6c0.5-0.5,0.8-1.1,0.8-1.8c0-1.5-1.2-2.6-2.6-2.6 c-0.1,0-0.1,0-0.2,0c-0.2,0-0.3-0.1-0.4-0.2c-0.1-0.1-0.1-0.3-0.1-0.5c0.1-0.3,0.2-0.7,0.2-1c0-1.9-1.6-3.5-3.5-3.5l-0.1,0 c-0.3,0-0.7,0-1,0.1c-0.1,0-0.3,0-0.4-0.1s-0.2-0.2-0.2-0.4V28c-0.1-2.4-2.2-4.3-4.6-4.2c-1.4,0-2.8,0.6-3.7,1.7 c-0.2,0.2-0.4,0.2-0.6,0.1c-1.1-0.7-2.3-1-3.5-1c-3.1,0-5.7,2-5.7,4.4v0.4c0,0.2-0.1,0.4-0.3,0.4c-0.7,0.3-1.2,0.9-1.4,1.6 c-0.3,0.6-0.1,1.5,0.5,2.6c0.1,0.1,0.1,0.4,0,0.5c-0.1,0.2-0.3,0.3-0.5,0.3c-0.7,0-1.4,0.5-1.4,1.3c0,0.2,0,0.3,0.1,0.5 c0.1,0.3,0.3,1.5,0.6,3.6c0.3,1.7,0.6,3.6,0.7,3.9c0,0.1,0,0.3-0.1,0.4s-0.2,0.2-0.4,0.2c-0.4,0-1,0.1-1.3,0.4 c-0.3,0.4-0.1,0.9,0,1.3c0,0.1,0.6,2.7,1,3.9c0.1,0.5,0.5,0.9,1,0.9c0.1,0,0.3,0,0.4,0.1c0.1,0.1,0.2,0.2,0.2,0.4v2.5 c0,0.9,0.2,1.8,0.8,2.5c1.4,2.1,3.3,3.9,5.5,5.1c0.2,0.1,0.3,0.3,0.2,0.4c0,1-0.1,1.9-0.2,2.9c-0.1,0.7-0.6,1.4-1.3,1.6l-7.7,2.7 c-0.8,0.2-1.4,0.5-2.1,0.9c-1.4,1-2.5,2.5-3,4.2c-0.1,0.3-0.2,2.2-0.2,3.8C31.3,79.6,31.3,81.2,31.2,82.2z"/><path fill="#6d1b18" d="M46.1,56.8C46.1,57,46,57.2,46,57.4c0,1.8,2,3.3,4.5,3.3s4.5-1.5,4.5-3.3c0-0.2,0-0.4-0.1-0.6H46.1 z"/><path fill="#ee3e54" d="M52.9,60.2c-0.7-0.6-1.5-0.8-2.4-0.8c-0.9-0.1-1.7,0.2-2.4,0.8C49.7,60.9,51.4,60.9,52.9,60.2z"/><path fill="#fdfcef" d="M47.4,56.8C47.4,56.8,47.4,56.8,47.4,56.8v0.6c0,0.5,0.7,0.9,1.4,0.9h3.4c0.8,0,1.4-0.4,1.4-0.9 v-0.6c0,0,0,0,0,0H47.4z"/><path fill="#472b29" d="M50.5,61c-2.6,0-4.8-1.6-4.8-3.5c0-0.2,0-0.5,0.1-0.7c0-0.1,0.1-0.2,0.2-0.2h8.8 c0.1,0,0.2,0.1,0.2,0.2c0.1,0.2,0.1,0.5,0.1,0.7C55.3,59.4,53.2,61,50.5,61z M46.3,57c0,0.1,0,0.2,0,0.4c0,1.7,1.9,3,4.3,3 c2.3,0,4.2-1.4,4.2-3c0-0.1,0-0.2,0-0.4H46.3z"/><path fill="#fff" d="M81.1 32.9A0.7 0.7 0 1 0 81.1 34.300000000000004A0.7 0.7 0 1 0 81.1 32.9Z"/><path fill="#f1bc19" d="M78.5 13.7A.9.9 0 1 0 78.5 15.5.9.9 0 1 0 78.5 13.7zM83.9 12.7A4 4 0 1 0 83.9 20.7 4 4 0 1 0 83.9 12.7z"/><path fill="#00a5a5" d="M87.9 23.900000000000002A1.9 1.9 0 1 0 87.9 27.7A1.9 1.9 0 1 0 87.9 23.900000000000002Z"/><path fill="#fff" d="M77.6 30.3A1.8 1.8 0 1 0 77.6 33.9A1.8 1.8 0 1 0 77.6 30.3Z"/></svg>