<svg xmlns="http://www.w3.org/2000/svg" viewBox="0 0 100 100"><path fill="#a1a1ca" d="M87.7 25.5A1.9 1.9 0 1 0 87.7 29.299999999999997A1.9 1.9 0 1 0 87.7 25.5Z"/><path fill="#fff" d="M21.1 55.5A.9.9 0 1 0 21.1 57.3.9.9 0 1 0 21.1 55.5zM80.2 30.8A.7.7 0 1 0 80.2 32.2.7.7 0 1 0 80.2 30.8z"/><path fill="#f1bc19" d="M77.6 11.6A.9.9 0 1 0 77.6 13.4.9.9 0 1 0 77.6 11.6zM21.6 63.199999999999996A.9.9 0 1 0 21.6 65 .9.9 0 1 0 21.6 63.199999999999996z"/><path fill="#e4e4f9" d="M50.7 12.200000000000003A37.5 37.5 0 1 0 50.7 87.2A37.5 37.5 0 1 0 50.7 12.200000000000003Z"/><path fill="#f1bc19" d="M83 10.6A4 4 0 1 0 83 18.6A4 4 0 1 0 83 10.6Z"/><path fill="#fbcd59" d="M78 74.19999999999999A1.9 1.9 0 1 0 78 78 1.9 1.9 0 1 0 78 74.19999999999999zM14.9 59.2A4 4 0 1 0 14.9 67.2 4 4 0 1 0 14.9 59.2z"/><path fill="#fff" d="M76.7 28.2A1.8 1.8 0 1 0 76.7 31.8 1.8 1.8 0 1 0 76.7 28.2zM18.6 48.6A2.5 2.5 0 1 0 18.6 53.6 2.5 2.5 0 1 0 18.6 48.6z"/><path fill="#a1a1ca" d="M31.6 85.39999999999999A1.9 1.9 0 1 0 31.6 89.2A1.9 1.9 0 1 0 31.6 85.39999999999999Z"/><path fill="#472b29" d="M66.2,36.3C65,33,62.9,30,60.1,27.8c-2.9-2.2-6.4-3.2-10-2.8c-3.6-0.4-7.1,0.6-10,2.8 C37.3,30,35.2,33,34,36.3c-2.4,6.7-1.8,14.1,1.8,20.2c2.8,4.6,7.4,7.8,12.8,8.6v0.1c0.5,0,1,0,1.6,0c0.5,0,1,0,1.6,0v-0.1 c5.3-0.8,10-4,12.7-8.6C68,50.4,68.6,43,66.2,36.3z M50.1,61.2c-3.2-9.3-3.2-19.4,0-28.7C53.3,41.8,53.3,51.9,50.1,61.2z"/><path fill="#d8ad8f" d="M61.7,41.9c0.1-1.5-0.3-2.8-0.2-3.6l0,0c-1.3-1.7-2.2-3.6-4-4.8c-2.1-1.3-4.4-2.2-6.8-2.8 c-5.7-1.4-11.3,2.7-13.1,8.1c0,0,0,0.1-0.1,0.1c0.2,1,0.3,2,0.4,2.9c-1.5,0-2.3,0.8-1.8,2.4c0,0,0.6,2.6,1,3.9 c0.1,0.7,0.8,1.2,1.5,1.2c0,0.8,0,1.7,0,2.5c0,1,0.3,2,0.9,2.8c1.5,2.2,9.2,7.2,11.1,7c3,0,9-5.1,10.6-7.7 c0.3-0.5,0.4-1.1,0.5-1.7c0-1,0-2,0-3c0.6-0.1,1.1-0.6,1.3-1.2c0.4-1.3,1-3.9,1-3.9C64.4,42.7,63.2,41.9,61.7,41.9z"/><path fill="#b2876b" d="M66.3,67.5L66,67.3l-0.6-0.2c-1.2-0.5-9.3-3.3-9.3-3.3c-0.6-0.2-1-0.6-1.2-1.1 c-0.2-1-0.3-1.9-0.2-2.9c-1.4,0.6-2.8,1.1-4.2,1.4c-1.9,0.2-5.2-2.3-5.2-2.3s-0.1,3-0.2,3.7c-0.2,0.6-0.7,1-1.3,1.1l-7.7,2.6 c-0.8,0.2-1.5,0.5-2.2,0.9c-1.6,1.1-2.8,2.8-3.3,4.7c0,0-0.3,2.8-0.3,3c0,0.5-0.1,5-0.1,5.5c6.8,7,11.9,6.5,22.4,6.5 c4.6,0,13.7-2.1,17.5-5.1C69.8,72.5,70.6,68.8,66.3,67.5z"/><g opacity=".3"><path fill="#f4989e" d="M42.9 48.5A2 2 0 1 0 42.9 52.5 2 2 0 1 0 42.9 48.5zM58 48.5A2 2 0 1 0 58 52.5 2 2 0 1 0 58 48.5z" opacity=".8"/></g><path fill="#472b29" d="M38.9 50.1c-.1 0-.2-.1-.2-.2l-.8-8c0-.1.1-.2.2-.2.1 0 .2.1.2.2l.8 8C39.1 50 39 50.1 38.9 50.1 38.9 50.1 38.9 50.1 38.9 50.1zM61.4 49.7C61.4 49.7 61.4 49.7 61.4 49.7c-.1 0-.2-.1-.2-.2l.5-8.1c0-.1.1-.2.2-.2.1 0 .2.1.2.2l-.5 8.1C61.6 49.6 61.5 49.7 61.4 49.7z"/><path fill="#6d1b18" d="M46.9,54.6c0,0.2-0.1,0.3-0.1,0.5c0,1.4,1.5,2.5,3.5,2.5s3.5-1.1,3.5-2.5c0-0.2,0-0.3-0.1-0.5 H46.9z"/><path fill="#ee3e54" d="M52.1,57.3c-1.1-0.8-2.6-0.8-3.6,0C49.6,57.8,50.9,57.8,52.1,57.3z"/><path fill="#fdfcef" d="M47.8,54.6L47.8,54.6V55c0,0.4,0.5,0.7,1.1,0.7h2.6c0.6,0,1.1-0.3,1.1-0.7v-0.4l0,0H47.8z"/><path fill="#472b29" d="M50.3,57.8c-2,0-3.7-1.2-3.7-2.7c0-0.2,0-0.4,0.1-0.5c0-0.1,0.1-0.2,0.2-0.2h6.8 c0.1,0,0.2,0.1,0.2,0.1c0,0.2,0.1,0.3,0.1,0.5C53.9,56.6,52.3,57.8,50.3,57.8z M47,54.8c0,0.1,0,0.2,0,0.3c0,1.3,1.5,2.3,3.3,2.3 s3.3-1,3.3-2.3c0-0.1,0-0.2,0-0.3H47z"/><path fill="#fbcd59" d="M42.9,64.7c1.5,1.3,12.6,2.7,15.8,0.1l4.9,1.7L65,84.7c0,0-15.8,5.5-28,0.2l0.7-18.4L42.9,64.7z"/><path fill="#472b29" d="M50.3 52.8c.8 0 1.5-.3 2-.9.1-.1.1-.1 0-.2l0 0c-.1-.1-.1-.1-.2 0-1 .9-2.6.9-3.6 0 0 0-.1 0-.1 0 0 0-.1 0-.1 0-.1.1-.1.1 0 .2 0 0 0 0 0 0C48.8 52.4 49.5 52.8 50.3 52.8zM51.1 59.5C51.2 59.5 51.2 59.4 51.1 59.5c.1-.1 0-.2 0-.2h-1.8c0 0-.1 0-.1.1s0 .1.1.1l0 0H51.1z" opacity=".41"/><path fill="#512c2b" d="M48.2 40.7c-2.4-.7-4.9-1-7.4-.8-.1 0-.2.1-.2.2 0 .1.1.2.2.2 2.2.4 4.5.8 6.6 1.4h.1c.1 0 .2 0 .2-.1l.6-.7c0-.1 0-.1 0-.2C48.3 40.8 48.3 40.7 48.2 40.7zM52.2 40.5c2.4-.6 5-.7 7.5-.4.1 0 .2.1.2.2 0 .1-.1.2-.2.2 0 0-5.1.6-6.7 1.1h-.1c-.1 0-.1 0-.2-.1l-.6-.7c0-.1 0-.1 0-.2C52.1 40.6 52.1 40.5 52.2 40.5z"/><path fill="#472b29" d="M44.7 42.8c-.5 0-1 .3-1.2.8.1 0 .1 0 .2 0 .5.1.8.5.7.9 0 .4-.3.7-.7.7-.1 0-.3 0-.4-.1.1.7.7 1.2 1.4 1.3 1-.2 1.6-1.2 1.4-2.2C45.9 43.5 45.3 43 44.7 42.8L44.7 42.8zM55.7 42.8c-.4 0-.8.3-1.1.6.1 0 .2-.1.3-.1.5.1.8.5.7.9 0 .4-.3.7-.7.7-.3 0-.5-.1-.6-.4.2.8 1 1.3 1.8 1.1.8-.2 1.3-1 1.1-1.8C56.9 43.2 56.3 42.8 55.7 42.8z"/><path fill="#472b29" d="M49.7,87.6c-6.2,0-14.1-1.3-19.8-6.6c-0.1-0.1-0.2-0.3-0.2-0.4c0-0.1,0-0.2,0-0.4 c-0.2-7.3,1.1-11.7,4-13.2c0.7-0.4,1.5-0.7,2.3-0.9l7.7-2.6c0.5-0.1,0.9-0.4,1-0.8c0.1-0.4,0.2-2,0.3-2.8c-2.3-1.5-5-3.5-5.8-4.7 c-0.7-0.9-1-2-0.9-3.1l0-2c-0.7-0.2-1.3-0.8-1.5-1.6c-0.4-1.2-1-3.8-1-3.9c-0.4-1.1-0.1-1.8,0.2-2.2c0.2-0.3,0.7-0.7,1.6-0.8 c0-0.1,0-0.3-0.1-0.4c-0.3-0.6-0.4-1.2-0.5-1.8c0-6.5,5.8-11.8,12.9-11.8c7.1,0,12.9,5.3,12.9,11.8c0,0.7-0.2,1.3-0.5,1.9 c0,0.1,0,0.2,0,0.3c0.8,0.1,1.5,0.4,1.9,1c0.3,0.4,0.6,1.1,0.2,2.1l0,0c-0.1,0.6-0.7,3-1,3.9c-0.1,0.6-0.6,1.2-1.2,1.4v2.6 c0,0.7-0.2,1.3-0.5,1.9c-1.8,2.4-3.9,4.4-6.4,6c0,0.8,0,1.5,0.2,2.3c0.1,0.3,0.4,0.6,0.8,0.7c0.3,0.1,8.1,2.7,9.3,3.3l0.9,0.3 c3.8,1.2,3.9,4.3,4.1,10.4c0,1.3,0.1,2.8,0.2,4.4c0,0.1,0,0.3-0.1,0.4c-1.8,2-10,4.9-19.3,5.2C50.8,87.6,50.3,87.6,49.7,87.6z M30.8,80.4c5.9,5.5,14.4,6.4,20.6,6.2c8.7-0.3,16.5-3,18.4-4.8c-0.1-1.6-0.1-3-0.1-4.2c-0.2-6-0.2-8.5-3.4-9.5c0,0,0,0,0,0 l-1-0.4c-1.2-0.5-9.1-3.2-9.2-3.2c-0.7-0.2-1.2-0.7-1.5-1.4c-0.3-1-0.3-1.9-0.3-2.9c0-0.2,0.1-0.3,0.2-0.4 c2.5-1.6,4.6-3.5,6.3-5.9c0.2-0.4,0.3-0.9,0.4-1.4l0-3c0-0.3,0.2-0.5,0.4-0.5c0.4-0.1,0.8-0.4,0.8-0.8c0.4-1.3,1-3.8,1-3.9 c0.2-0.6,0.2-1-0.1-1.3c-0.3-0.4-0.9-0.6-1.6-0.6c-0.1,0-0.3,0-0.4-0.1c-0.1-0.1-0.1-0.2-0.1-0.4c0-0.7,0-1.1,0.2-1.3 c0.2-0.5,0.3-0.9,0.3-1.4c0-5.9-5.4-10.8-12-10.8c-6.6,0-11.9,4.8-11.9,10.8c0,0.5,0.2,1,0.4,1.5c0,0,0,0.1,0,0.1 c0.1,0.3,0.1,0.7,0.1,1.1c0,0.1,0,0.3-0.1,0.4c-0.1,0.1-0.2,0.2-0.4,0.2c-0.4,0-1,0.1-1.3,0.4c-0.3,0.4-0.2,0.9,0,1.3 c0,0.1,0.6,2.7,1,3.9c0.1,0.5,0.5,0.9,1,0.9c0.1,0,0.3,0.1,0.4,0.1c0.1,0.1,0.1,0.2,0.1,0.4V52c0,0.9,0.2,1.8,0.8,2.5 c0.7,1,3.1,2.9,5.8,4.6c0.1,0.1,0.2,0.3,0.2,0.4c0,0.8-0.2,2.8-0.3,3.4c-0.2,0.8-0.9,1.4-1.7,1.6l-7.7,2.6 c-0.7,0.2-1.4,0.5-2.1,0.9c-1.7,0.9-3.7,3.7-3.4,12.2C30.8,80.3,30.8,80.4,30.8,80.4z"/><path fill="#472b29" d="M50.6 61.4c-1.9 0-5-1.7-5.2-1.7-.1-.1-.2-.2-.1-.3.1-.1.2-.2.3-.1 0 0 3.4 1.8 5.1 1.7 1.5-.3 3-.8 4.3-1.6.1-.1.3 0 .3.1.1.1 0 .3-.1.3-1.4.8-2.9 1.4-4.5 1.7C50.8 61.4 50.7 61.4 50.6 61.4zM50 28.2c-4-1.3-15.4 4-12.3 12.8.1 0 1.4 5.2 3.4 6.9-1-1.2-1.4-2.9-1-4.4.2-1.1.6-2.3 1.2-3.3 4.3-2 7.4-7.1 8.8-8.2 1.3 1.1 4.8 5.7 8.6 7.9.6 1.1 1.1 2.4 1.3 3.6.4 1.6 0 3.2-1 4.4 2-1.7 3.3-6.9 3.4-6.9C65.3 32.3 54 26.9 50 28.2z"/><path fill="#fbcd59" d="M51.7,30.8c-2.6-0.6-5.3-0.4-7.8,0.5c-2.5,1.1-4.7,3-6,5.4c1.1-2.7,3-4.9,5.5-6.3 c2.6-1.4,5.6-2,8.5-1.6L51.7,30.8z"/><path fill="#f4bb3b" d="M64.5,30.2h-0.3c-0.7-0.1-1.4-0.1-2.1,0c-0.6,0-1.2,0.1-1.7,0.2l-0.7,0.1c-0.2,0-0.3,0.1-0.5,0.2 c0,0-0.1,0-0.1-0.1l-1-0.6l-1-0.6c0,0-0.1-0.1-0.1-0.1c0-0.2,0-0.4-0.1-0.5c0-0.1-0.2-0.5-0.3-0.7c-0.2-0.5-0.4-1.1-0.7-1.6 c-0.3-0.6-0.6-1.3-1-1.9c-0.1-0.1-0.1-0.2-0.2-0.2c0,0-2,0.1-3.9,3.6c-0.4,0.8-0.6,1.8-0.6,2.7c0,0.4,0,0.6,0.3,0.6 c0.6,0.2,1.2,0.3,1.8,0.3l0.7,0c0.8,0.1,1.7,0.1,2.5,0c0,0.1,2.3,1.4,2.3,1.4c0.4,0.8,0.8,1.5,1.3,2.2c0.1,0.2,0.3,0.4,0.4,0.6 c0.3,0.5,0.7,1,1.1,1.4c0.2,0.3,0.4,0.2,0.7,0c0.8-0.5,1.5-1.1,2-1.9C65.4,32,64.4,30.3,64.5,30.2z"/><path fill="#ee3e54" d="M61.9,41.8c-0.8-0.3-1.6-0.4-2.3-0.3c-1.2,0-2.3,0.1-3.5,0.3c-1.5,0.3-3,0.7-4.5,1.4 c-1,0.5-2.2,0.5-3.1,0C47,42.5,45.5,42,44,41.8c-1.2-0.2-2.3-0.2-3.5-0.3c-0.8,0-1.6,0.1-2.3,0.3c-0.5,0.3-0.5,0.6-0.3,1.6 c0.2,0.9,0.6,1.8,1,2.6v0.1c0.8,1.3,2.1,2.4,3.5,3c1.1,0.5,2.4,0.5,3.6,0c1.1-0.5,2-1.4,2.7-2.4l0.1-0.3c0.2-0.4,0.6-1.2,0.9-1.2 h0.6c0.3,0,0.7,0.8,0.9,1.2l0.1,0.3c0.7,1.1,1.6,1.9,2.7,2.4c0.6,0.2,1.1,0.4,1.8,0.4c0.6,0,1.2-0.1,1.8-0.3 c1.4-0.6,2.6-1.7,3.5-3V46c0.5-0.8,0.8-1.6,1.1-2.5C62.4,42.4,62.3,42.1,61.9,41.8z M51.9,44.4c0,0,0.3-0.8,1.9-1.3 c1.2-0.3,2.5-0.5,3.7-0.6h0.2c1.2,0.1,1.8,0.3,2,0.7c0.4,1,0.3,2.2-0.3,3.1c-0.7,0.9-1.7,1.5-2.8,1.8c-1.1,0.3-2.3,0.1-3.2-0.6 c-0.7-0.5-1.3-1.3-1.6-2.1C51.8,45.2,51.8,44.8,51.9,44.4L51.9,44.4z M46.5,47.6c-0.9,0.7-2.1,0.9-3.2,0.6 c-1.1-0.3-2.1-1-2.8-1.8c-0.6-0.9-0.7-2.1-0.3-3.1c0.2-0.4,0.9-0.6,2-0.7h0.2c1.3,0.1,2.5,0.3,3.7,0.6c1.6,0.4,1.9,1.3,1.9,1.3 c0.1,0.4,0.1,0.7,0,1.1C47.8,46.4,47.2,47.1,46.5,47.6L46.5,47.6z"/></svg>