<svg xmlns="http://www.w3.org/2000/svg" viewBox="0 0 100 100"><circle cx="77" cy="13" r="1" fill="#f1bc19"/><circle cx="50" cy="50" r="37" fill="#e4e4f9"/><circle cx="83" cy="15" r="4" fill="#f1bc19"/><circle cx="87" cy="24" r="2" fill="#8889b9"/><circle cx="81" cy="76" r="2" fill="#fbcd59"/><circle cx="15" cy="63" r="4" fill="#fbcd59"/><circle cx="25" cy="87" r="2" fill="#8889b9"/><circle cx="18.5" cy="51.5" r="2.5" fill="#fff"/><circle cx="79.5" cy="33.5" r="1.5" fill="#fff"/><path fill="#f6cca4" d="M45.892,75.3c-2.298,0-4.98-1.007-4.98-3.846c0-2.781-1.664-4.365-3.426-6.042 c-1.184-1.126-2.407-2.291-3.277-3.939c-1.995-3.779-1.12-5.683-1.11-5.702c0.466-0.883,0.811-3.092-1.26-5.053 c-1.039-0.985-0.876-1.859-0.406-3.744c0.278-1.117,0.625-2.507,0.625-4.208c0-3.687,2.761-8.358,3.186-9.056 c3.229-2.716,7.339-4.151,11.896-4.151c9.128,0,17.431,5.598,18.13,12.223c0.028,0.266,0.204,0.491,0.454,0.583 c0.079,0.029,0.161,0.044,0.242,0.044c0.176,0,0.35-0.066,0.481-0.192c0.421-0.398,1.766-1.273,3.018-1.273 c1.658,0,2.499,1.681,2.499,4.995c0,7.79-4.962,8.82-5.012,8.83c-0.331,0.063-0.57,0.352-0.57,0.688 c0,0.02-0.011,1.996-0.868,6.159c-0.966,4.691-12.284,11.428-16.698,13.146C47.91,75.114,46.899,75.3,45.892,75.3z"/><path fill="#472b29" d="M47.139,30.259c8.635,0,16.781,5.419,17.433,11.596c0.056,0.53,0.408,0.982,0.907,1.166 c0.158,0.058,0.322,0.087,0.485,0.087c0.352,0,0.698-0.133,0.963-0.384c0.386-0.365,1.563-1.082,2.537-1.082 c1.487,0,1.799,2.336,1.799,4.295c0,7.104-4.277,8.106-4.442,8.142c-0.659,0.125-1.137,0.704-1.139,1.375 c0,0.019-0.017,1.953-0.854,6.021C63.949,65.735,53.097,72.342,48.56,74.11c-0.823,0.321-1.745,0.49-2.667,0.49 c-1.975,0-4.281-0.824-4.281-3.146c0-3.08-1.852-4.843-3.643-6.548c-1.143-1.088-2.325-2.213-3.141-3.76 c-1.75-3.316-1.129-4.993-1.095-5.08c0.191-0.393,1.401-3.191-1.413-5.857c-0.719-0.681-0.684-1.155-0.208-3.066 c0.288-1.154,0.646-2.59,0.646-4.378c0-3.364,2.474-7.675,3.025-8.592C39.673,30.942,44.095,30.259,47.139,30.259 M33.734,56.062 h0.005H33.734 M47.139,28.859c-4.383,0-8.817,1.307-12.433,4.39c0,0-3.349,5.287-3.349,9.517c0,4.23-2.233,6.345,0,8.46 s1.116,4.23,1.116,4.23s-1.116,2.115,1.116,6.345c2.233,4.23,6.622,5.425,6.622,9.654c0,3.09,2.757,4.546,5.681,4.546 c1.079,0,2.18-0.198,3.175-0.586c4.072-1.586,16.063-8.479,17.13-13.658c0.887-4.31,0.883-6.302,0.883-6.302 s5.582-1.057,5.582-9.517c0-4.474-1.562-5.695-3.199-5.695c-1.457,0-2.974,0.967-3.5,1.465 C65.209,34.559,56.288,28.859,47.139,28.859L47.139,28.859z"/><path fill="#9f8066" d="M63.979,46.862c0.254-4.437,4.692-6.676,7.035-5.261C69.957,26.797,60.501,24.26,52.042,23.203 S36.18,25.318,31.95,30.605s0,11.632,0,11.632s0-1.057,2.115-5.287c2.115-4.23,15.862-5.287,19.034-4.23 c3.172,1.057,2.115,5.287,2.115,5.287c3.172,1.057,5.089,9.426,5.089,9.426L63.979,46.862z"/><path fill="#472b29" d="M60.302,48.133c-0.321,0-0.607-0.222-0.682-0.544c-0.509-2.221-2.334-8.153-4.628-8.918 c-0.346-0.115-0.545-0.479-0.458-0.832c0.036-0.147,0.857-3.617-1.656-4.455c-3.131-1.045-16.345,0.194-18.187,3.879 c-1.934,3.867-2.038,4.96-2.042,5.004c-0.023,0.298-0.233,0.56-0.522,0.635c-0.286,0.075-0.594-0.028-0.759-0.276 c-0.046-0.068-4.462-6.836,0.035-12.458c4.668-5.834,12.417-8.701,20.726-7.659c9.55,1.193,18.532,4.327,19.584,19.044 c0.019,0.261-0.109,0.511-0.333,0.646c-0.223,0.138-0.503,0.137-0.728,0.003c-0.804-0.487-2.011-0.417-3.149,0.182 c-1.657,0.874-2.714,2.563-2.825,4.52c-0.02,0.329-0.266,0.602-0.592,0.651l-3.676,0.57C60.374,48.13,60.338,48.133,60.302,48.133z M63.979,46.862h0.01H63.979z M56.008,37.602c2.677,1.53,4.311,7.056,4.822,9.041l2.504-0.389c0.299-2.208,1.585-4.091,3.517-5.109 c1.139-0.601,2.33-0.799,3.37-0.588c-1.397-13.419-10.137-15.644-18.266-16.66c-7.824-0.975-15.098,1.695-19.458,7.146 c-2.69,3.363-1.637,7.252-0.735,9.324c0.32-0.85,0.839-2.052,1.678-3.73c2.359-4.722,16.689-5.641,19.882-4.58 C56.006,32.951,56.281,35.809,56.008,37.602z"/><path fill="#472b29" d="M66.845,51.196c-0.233,0-0.441-0.164-0.489-0.402c-0.44-2.201-0.235-3.839,0.607-4.866 c0.825-1.007,1.95-1.019,1.998-1.019c0.276,0,0.5,0.224,0.5,0.5c0,0.274-0.222,0.498-0.496,0.5 c-0.042,0.001-0.729,0.028-1.241,0.668c-0.624,0.776-0.758,2.167-0.388,4.021c0.054,0.271-0.121,0.534-0.393,0.588 C66.91,51.193,66.878,51.196,66.845,51.196z"/><path fill="#472b29" d="M42.525,42.237c0,0,0,1.057,2.115,1.057c2.115,0,6.345,0,6.345,0c1.146,0,2.384,2.048,0,2.115 c-2.114,0.06-7.402,0-7.402,0C42.789,45.321,41.11,44.506,42.525,42.237z"/><path fill="#472b29" d="M48.131,45.686c-2.179,0-4.517-0.026-4.552-0.026c-0.469-0.051-1.318-0.336-1.685-1.091 c-0.325-0.67-0.185-1.499,0.418-2.464c0.059-0.096,0.172-0.139,0.28-0.108c0.106,0.03,0.18,0.126,0.182,0.235 c0.002,0.041,0.069,0.813,1.865,0.813h6.345c0.772,0,1.602,0.781,1.612,1.519c0.004,0.316-0.144,1.056-1.605,1.097 C50.289,45.679,49.229,45.686,48.131,45.686z M43.611,45.161c0.108,0.001,5.298,0.056,7.366-0.002 c0.421-0.012,1.126-0.104,1.119-0.589c-0.007-0.43-0.568-1.026-1.112-1.026H44.64c-1.296,0-1.882-0.385-2.146-0.737 c-0.298,0.615-0.348,1.133-0.148,1.543c0.271,0.561,0.946,0.775,1.265,0.812C43.609,45.161,43.61,45.161,43.611,45.161z M42.774,42.236h0.006H42.774z"/><path fill="#472b29" d="M37.237,45.409c0,0-3.833,1.553-5.287,5.287c-1.057-1.057-1.057-3.172-1.057-3.172 S34.065,43.294,37.237,45.409z"/><path fill="#472b29" d="M31.95,50.946c-0.065,0-0.13-0.025-0.177-0.073c-1.118-1.118-1.131-3.258-1.131-3.349 c0-0.054,0.018-0.106,0.05-0.15c0.033-0.044,3.354-4.393,6.684-2.173c0.077,0.052,0.119,0.142,0.11,0.233 c-0.01,0.092-0.069,0.172-0.155,0.206c-0.037,0.016-3.752,1.561-5.147,5.146c-0.031,0.078-0.1,0.137-0.182,0.154 C31.984,50.944,31.967,50.946,31.95,50.946z M31.145,47.608c0.013,0.35,0.103,1.715,0.733,2.612 c1.262-2.818,3.787-4.319,4.817-4.836C34.1,44.115,31.538,47.117,31.145,47.608z"/><path fill="#472b29" d="M39.447,58.367c-0.287,0-0.603-0.198-0.828-0.521c-0.414-0.595-0.703-1.8,0.271-4.167 c0.497-1.209,0.307-2.628-0.522-3.895c-0.905-1.382-2.355-2.259-3.785-2.289c-0.275-0.006-0.495-0.234-0.489-0.511 c0.006-0.272,0.229-0.489,0.5-0.489c0.003,0,0.007,0,0.011,0c1.754,0.037,3.518,1.087,4.601,2.741 c1.013,1.547,1.234,3.305,0.609,4.823c-0.947,2.301-0.49,3.172-0.286,3.313c0.231,0.036,0.413,0.232,0.423,0.476 c0.01,0.276-0.205,0.508-0.481,0.519C39.462,58.367,39.454,58.367,39.447,58.367z M39.434,57.367L39.434,57.367L39.434,57.367z"/><path fill="#472b29" d="M42.036,58.065c-0.176,0-0.347-0.091-0.438-0.254c-0.132-0.237-0.057-0.533,0.177-0.672 c0.081-0.048,0.854-0.467,3.041-0.467c0.347,0,0.629-0.102,0.816-0.294c0.16-0.165,0.248-0.392,0.248-0.637 c0-0.486-0.343-0.977-1.108-0.977c-0.276,0-0.5-0.224-0.5-0.5s0.224-0.5,0.5-0.5c1.385,0,2.108,0.994,2.108,1.977 c0,0.507-0.188,0.98-0.531,1.333c-0.265,0.272-0.746,0.598-1.533,0.598c-1.889,0-2.536,0.33-2.542,0.334 C42.198,58.047,42.117,58.065,42.036,58.065z"/><path fill="#472b29" d="M53.1,60.464c-0.112,0-0.214-0.076-0.242-0.189c-0.409-1.633-1.346-3.136-2.783-4.468 c-0.102-0.094-0.107-0.252-0.014-0.354c0.096-0.1,0.253-0.106,0.354-0.014c1.511,1.399,2.495,2.985,2.928,4.714 c0.034,0.134-0.048,0.27-0.182,0.303C53.14,60.462,53.119,60.464,53.1,60.464z"/><path fill="#472b29" d="M49.206,55.011c-0.052,0-0.104-0.016-0.149-0.05c-0.769-0.572-1.351-0.865-1.356-0.868 c-0.124-0.062-0.174-0.212-0.112-0.335c0.063-0.125,0.215-0.173,0.335-0.112c0.025,0.013,0.625,0.313,1.433,0.915 c0.11,0.082,0.134,0.238,0.051,0.35C49.357,54.976,49.282,55.011,49.206,55.011z"/><path fill="#472b29" d="M38.295,63.636c-0.038,0-0.076-0.009-0.111-0.026c-2.229-1.114-2.254-3.303-2.254-3.396 c0-0.138,0.111-0.249,0.249-0.25c0.001,0,0.001,0,0.001,0c0.138,0,0.249,0.111,0.25,0.249c0,0.081,0.032,1.977,1.977,2.949 c0.124,0.062,0.174,0.212,0.112,0.335C38.475,63.585,38.387,63.636,38.295,63.636z"/><path fill="#472b29" d="M38.295,59.406c-0.038,0-0.076-0.009-0.111-0.026c-0.869-0.435-1.355-0.937-1.445-1.493 c-0.097-0.596,0.305-1.005,0.322-1.022c0.098-0.098,0.256-0.098,0.354,0s0.098,0.255,0.001,0.353 c-0.014,0.014-0.24,0.257-0.183,0.596c0.065,0.381,0.472,0.769,1.174,1.12c0.124,0.062,0.174,0.212,0.112,0.335 C38.475,59.355,38.387,59.406,38.295,59.406z"/><path fill="#472b29" d="M53.1,67.865c-0.138,0-0.25-0.112-0.25-0.25s0.112-0.25,0.25-0.25c0.604,0,1.462-1.755,1.877-3.001 c0.044-0.13,0.187-0.201,0.316-0.158c0.131,0.044,0.202,0.186,0.158,0.316C55.265,65.081,54.276,67.865,53.1,67.865z"/><path fill="#472b29" d="M43.582,66.809c-0.038,0-0.076-0.009-0.111-0.026c-0.124-0.062-0.174-0.212-0.112-0.335 c1.142-2.283,4.394-1.229,4.532-1.184c0.131,0.044,0.201,0.186,0.158,0.316c-0.044,0.132-0.185,0.202-0.316,0.158 c-0.029-0.01-2.98-0.962-3.927,0.932C43.762,66.758,43.674,66.809,43.582,66.809z"/><path fill="#472b29" d="M39.353,44.602c-0.138,0-0.25-0.112-0.25-0.25c0-0.737-1.464-1.635-1.977-1.892 c-0.124-0.062-0.174-0.212-0.112-0.335c0.062-0.125,0.216-0.173,0.335-0.112c0.231,0.115,2.254,1.161,2.254,2.339 C39.603,44.489,39.49,44.602,39.353,44.602z"/><path fill="#472b29" d="M42.524,49.889c-0.064,0-0.128-0.024-0.177-0.073c-0.046-0.046-1.131-1.144-1.131-2.291 c0-0.138,0.112-0.25,0.25-0.25s0.25,0.112,0.25,0.25c0,0.938,0.975,1.928,0.984,1.938c0.098,0.098,0.098,0.256,0,0.354 C42.652,49.864,42.588,49.889,42.524,49.889z"/><path fill="#472b29" d="M49.188,52.133c-0.751,0-1.376-0.123-1.427-0.134c-0.135-0.027-0.223-0.159-0.195-0.295 c0.028-0.135,0.16-0.22,0.295-0.195c0.022,0.006,2.282,0.452,3.195-0.373c0.287-0.26,0.404-0.62,0.356-1.102 c-0.014-0.138,0.087-0.26,0.225-0.273c0.136-0.012,0.26,0.088,0.273,0.225c0.063,0.642-0.112,1.154-0.521,1.521 C50.838,52.006,49.949,52.133,49.188,52.133z"/><path fill="#472b29" d="M36.18,56.233c-0.038,0-0.076-0.009-0.112-0.026c-0.123-0.062-0.173-0.212-0.111-0.336 c1.063-2.126,3.132-4.206,3.22-4.294c0.098-0.097,0.256-0.099,0.354,0c0.098,0.098,0.098,0.256,0,0.354 c-0.021,0.021-2.1,2.112-3.126,4.165C36.359,56.183,36.271,56.233,36.18,56.233z"/><ellipse cx="46.754" cy="48.581" fill="#fff" rx="2.115" ry="3.172" transform="rotate(-86.566 46.755 48.582)"/><path fill="#472b29" d="M46.918,50.951c-0.101,0-0.203-0.003-0.305-0.009c-0.895-0.054-1.726-0.339-2.339-0.803 c-0.643-0.487-0.976-1.113-0.937-1.763c0.079-1.303,1.686-2.264,3.558-2.156c0.895,0.054,1.726,0.339,2.339,0.803 c0.643,0.487,0.976,1.113,0.937,1.763c-0.039,0.65-0.444,1.232-1.141,1.639C48.442,50.768,47.701,50.951,46.918,50.951z M46.589,46.712c-0.694,0-1.346,0.159-1.858,0.458c-0.547,0.319-0.864,0.759-0.893,1.236c-0.029,0.479,0.233,0.952,0.738,1.334 c0.536,0.405,1.27,0.655,2.066,0.702c0.797,0.057,1.556-0.11,2.136-0.449c0.548-0.319,0.864-0.759,0.893-1.236l0,0 c0.029-0.479-0.233-0.952-0.738-1.334c-0.536-0.405-1.27-0.655-2.066-0.702C46.773,46.715,46.681,46.712,46.589,46.712z"/><g><ellipse cx="36.709" cy="51.225" fill="#fff" rx="2.644" ry="1.586" transform="rotate(-30 36.706 51.226)"/><path fill="#472b29" d="M35.694,53.385c-0.667,0-1.219-0.24-1.492-0.713c-0.515-0.893,0.184-2.227,1.589-3.037 c0.868-0.502,1.819-0.687,2.539-0.491c0.401,0.107,0.707,0.327,0.885,0.635l0,0c0.258,0.446,0.22,1.016-0.107,1.604 c-0.305,0.549-0.83,1.058-1.48,1.433C36.967,53.196,36.285,53.385,35.694,53.385z M37.726,49.568c-0.518,0-1.124,0.176-1.685,0.5 c-1.124,0.648-1.768,1.726-1.405,2.354s1.62,0.608,2.741-0.04c0.573-0.33,1.032-0.771,1.293-1.241 c0.238-0.43,0.278-0.824,0.111-1.112l0,0c-0.139-0.241-0.392-0.352-0.58-0.402C38.056,49.588,37.896,49.568,37.726,49.568z"/></g><g><circle cx="38.476" cy="51.529" r="1.308" fill="#472b29"/></g><g><path fill="#472b29" d="M52.13,61.976c0,0-0.486-0.622-1.549-1.172c-1.201-0.621-3.137-1.151-5.941-0.59 c-5.287,1.057-6.345,2.115-6.345,3.172s1.057,2.115,3.172,1.057c2.115-1.057,6.301-2.027,8.856-0.308 C53.098,66.001,53.187,63.033,52.13,61.976z"/></g><g><path fill="#fff" d="M38.515,63.871c0,0,5.464-3.172,13.615-1.895c-0.837-0.705-2.115-2.159-5.508-2.071 c-3.393,0.088-6.918,1.542-7.358,1.983C38.824,62.328,38.075,63.342,38.515,63.871z"/><path fill="#472b29" d="M38.516,64.12c-0.072,0-0.143-0.031-0.191-0.09c-0.561-0.67,0.217-1.773,0.764-2.319 c0.491-0.491,4.117-1.967,7.527-2.056c3.182-0.092,4.583,1.167,5.428,1.913c0.088,0.077,0.17,0.15,0.248,0.216 c0.086,0.072,0.113,0.193,0.066,0.295c-0.046,0.102-0.146,0.163-0.267,0.144c-7.972-1.243-13.396,1.833-13.449,1.863 C38.602,64.109,38.559,64.12,38.516,64.12z M46.915,60.151c-0.094,0-0.188,0.001-0.286,0.004c-3.384,0.088-6.821,1.543-7.188,1.909 c-0.394,0.394-0.853,1.061-0.809,1.461c1.111-0.564,5.945-2.744,12.694-1.914C50.512,60.935,49.279,60.151,46.915,60.151z"/></g><g><path fill="#472b29" d="M52.309,65.538c-0.543,0-1.275-0.323-2.265-0.988c-2.384-1.603-6.388-0.641-8.354,0.341 c-1.57,0.787-2.539,0.451-2.979,0.179c-0.573-0.354-0.916-0.983-0.916-1.684c0-1.644,1.955-2.704,6.747-3.662 c3.829-0.769,6.086,0.282,6.88,0.769c0.891,0.547,1.446,2.044,1.528,2.275c0.523,1.271,0.529,2.129,0.018,2.548 C52.787,65.463,52.569,65.538,52.309,65.538z M46.75,62.692c1.382,0,2.745,0.283,3.853,1.027c1.376,0.925,1.744,0.813,1.749,0.812 c0.024-0.068,0.023-0.537-0.331-1.395c-0.004-0.009-0.007-0.019-0.011-0.027c-0.186-0.533-0.651-1.483-1.111-1.766 c-0.54-0.33-2.579-1.358-6.161-0.64c-5.942,1.188-5.942,2.313-5.942,2.682c0,0.351,0.165,0.662,0.442,0.833 c0.452,0.28,1.164,0.2,2.006-0.223C42.591,63.322,44.69,62.692,46.75,62.692z"/></g><g><path fill="#f6cca4" d="M51.249,71.669c-0.176,0.969-1.432,2.512-3.084,3.261"/><path fill="#472b29" d="M48.164,75.43c-0.19,0-0.372-0.109-0.455-0.294c-0.114-0.251-0.003-0.548,0.249-0.661 c1.594-0.723,2.667-2.171,2.799-2.896c0.05-0.272,0.312-0.446,0.582-0.402c0.271,0.05,0.451,0.311,0.402,0.582 c-0.201,1.1-1.547,2.8-3.371,3.626C48.304,75.415,48.233,75.43,48.164,75.43z"/></g><g><path fill="#472b29" d="M47.75,50.491l1.298-0.538l0.842-0.862c-0.052-0.526-0.362-1.015-0.871-1.266 c-0.785-0.388-1.737-0.067-2.125,0.719c-0.373,0.754-0.087,1.655,0.631,2.07L47.75,50.491z"/></g><g><path fill="#472b29" d="M42.488,39.654c-0.097,0-0.188-0.057-0.229-0.15c-0.055-0.127,0.004-0.274,0.13-0.329 c0.6-0.259,1.241-0.439,1.907-0.534c0.133-0.021,0.263,0.074,0.282,0.212c0.02,0.137-0.075,0.263-0.212,0.282 c-0.622,0.09-1.221,0.258-1.778,0.499C42.556,39.647,42.521,39.654,42.488,39.654z"/></g><g><path fill="#472b29" d="M40.807,43.633c-0.097,0-0.188-0.056-0.229-0.15c-0.078-0.18-0.752-1.787-0.254-2.688 c0.202-0.365,0.566-0.734,1.054-1.066c0.114-0.079,0.27-0.049,0.347,0.065c0.078,0.113,0.049,0.27-0.065,0.347 c-0.416,0.285-0.735,0.604-0.897,0.896c-0.323,0.584,0.089,1.819,0.275,2.247c0.055,0.126-0.003,0.273-0.13,0.329 C40.874,43.626,40.84,43.633,40.807,43.633z"/></g><g><path fill="#472b29" d="M56.184,66.764c-0.063,0-0.124-0.023-0.173-0.069c-0.1-0.095-0.104-0.253-0.008-0.354 c0.843-0.883,0.813-2.36,0.812-2.375c-0.004-0.138,0.105-0.253,0.243-0.257c0.002,0,0.005,0,0.007,0 c0.135,0,0.246,0.107,0.25,0.243c0.002,0.069,0.035,1.702-0.95,2.734C56.315,66.737,56.249,66.764,56.184,66.764z"/></g><g><path fill="#472b29" d="M40.274,28.352c-0.079,0-0.158-0.038-0.206-0.108c-0.078-0.114-0.049-0.27,0.064-0.348 c0.992-0.68,3.144-1.318,5.614-1.668c0.131-0.028,0.263,0.075,0.282,0.212s-0.075,0.264-0.212,0.282 c-2.399,0.34-4.47,0.947-5.401,1.586C40.372,28.338,40.323,28.352,40.274,28.352z"/></g><g><path fill="#472b29" d="M66.206,33.607c-0.084,0-0.167-0.043-0.214-0.12c-4.216-6.961-13.662-7.226-17.53-7.021 c-0.161,0.015-0.256-0.1-0.264-0.236c-0.007-0.138,0.099-0.256,0.236-0.264c3.955-0.209,13.628,0.068,17.985,7.261 c0.071,0.118,0.034,0.272-0.084,0.344C66.295,33.596,66.25,33.607,66.206,33.607z"/></g><g><path fill="#472b29" d="M67.908,38.049c-0.116,0-0.221-0.081-0.245-0.2c-0.192-0.942-0.468-1.843-0.815-2.676 c-0.054-0.128,0.007-0.274,0.134-0.327c0.13-0.055,0.274,0.007,0.327,0.134c0.361,0.863,0.645,1.795,0.845,2.77 c0.027,0.135-0.06,0.267-0.195,0.295C67.941,38.047,67.925,38.049,67.908,38.049z"/></g></svg>