<svg xmlns="http://www.w3.org/2000/svg" viewBox="0 0 100 100"><path fill="#fff" d="M20.2 56A.9.9 0 1 0 20.2 57.8.9.9 0 1 0 20.2 56zM79.2 31.3A.7.7 0 1 0 79.2 32.7.7.7 0 1 0 79.2 31.3z"/><path fill="#f1bc19" d="M76.6 12.1A.9.9 0 1 0 76.6 13.9.9.9 0 1 0 76.6 12.1zM20.7 63.6A.9.9 0 1 0 20.7 65.4.9.9 0 1 0 20.7 63.6z"/><path fill="#f9dbd2" d="M49.5 12.700000000000003A37.5 37.5 0 1 0 49.5 87.7A37.5 37.5 0 1 0 49.5 12.700000000000003Z"/><path fill="#f1bc19" d="M82 11.1A4 4 0 1 0 82 19.1A4 4 0 1 0 82 11.1Z"/><path fill="#ee3e54" d="M86 22.3A1.9 1.9 0 1 0 86 26.099999999999998A1.9 1.9 0 1 0 86 22.3Z"/><path fill="#fbcd59" d="M77.1 74.69999999999999A1.9 1.9 0 1 0 77.1 78.5 1.9 1.9 0 1 0 77.1 74.69999999999999zM13.9 59.7A4 4 0 1 0 13.9 67.7 4 4 0 1 0 13.9 59.7z"/><path fill="#ee3e54" d="M24.1 85.89999999999999A1.9 1.9 0 1 0 24.1 89.7A1.9 1.9 0 1 0 24.1 85.89999999999999Z"/><path fill="#fff" d="M75.7 28.7A1.8 1.8 0 1 0 75.7 32.3 1.8 1.8 0 1 0 75.7 28.7zM17.6 49A2.5 2.5 0 1 0 17.6 54 2.5 2.5 0 1 0 17.6 49z"/><path fill="#ce9065" d="M68,71.4c-0.4-2.1-1.3-3.4-3.3-4c-0.1,0-0.2-0.1-0.3-0.1L63.7,67c-1.3-0.5-8.7-3.3-8.7-3.3 c-0.6-0.2-1-0.6-1.2-1.1c-0.2-1-0.3-1.9-0.2-2.9c-1.6,0.6-3.3,1-5,1.4c-1.9,0.2-6-2.3-6-2.3s-0.1,3-0.2,3.7c-0.2,0.6-0.7,1-1.3,1.1 l-7.1,2.6c-0.8,0.2-1.5,0.5-2.2,0.9c-1.5,1-2.6,2.4-3.2,4.2c0,0-0.5,3.3-0.5,3.4c0,0.5-0.1,1-0.1,1.5c7.8,5.3,14,6.7,24.7,6.3 c4.9-0.2,12.1-2.6,15.9-4.5C68.3,73.9,68,71.4,68,71.4z"/><path fill="#fdfcef" d="M64.6,67.4c-0.1,0-0.2-0.1-0.3-0.1l-0.6-0.2c-0.8-0.3-3.9-1.5-6.2-2.3h-0.1 c-2.5,1.3-6.1,3.2-9.4,3.2s-6.6-1.8-9.4-3.2l-0.3,0.1l-4.4,1.6c-0.8,0.2-1.5,0.5-2.2,0.9c-1.5,1-2.6,2.4-3.2,4.2 c0,0-0.5,3.3-0.5,3.4c0,0.5-0.1,5.4-0.1,6c7.8,5.3,14,6.7,24.7,6.3c4.9-0.2,12.1-2.6,15.9-4.5c-0.2-4.2-0.6-11.2-0.6-11.2 C67.6,69.3,66.7,68,64.6,67.4z"/><path fill="#e0a825" d="M67.3,69.8c-0.3-1-1.2-1.8-2.2-2.1l-1.5-0.5l-2.3-0.9l0,0l-2.8-1L57.9,65l0,0l-3-1.1l-7.4,15.5 l-6.4-15.8l-3.8,1.5l-2.6,1l-1.5,0.5c-1.1,0.3-3.9,2.2-4.3,3.2c-1.3,3.2-1.1,10.4-1.2,11.2c3.2,2.1,6.6,3.9,10.1,5.3 c2.3,0.6,4.6,1,7,1.1c0,0.1,0.1,0.2,0.1,0.2h3.8c3.8,0.2,7.6-0.3,11.2-1.3c6.3-1.8,8.7-3.3,8.7-3.3C68.5,82.1,68.4,73.4,67.3,69.8z"/><path fill="#ce942b" d="M34.9 85.1c-.2 0-.4-.2-.4-.3v-3.9c0-.2.2-.3.4-.3s.4.2.4.3v3.9C35.3 85 35.1 85.1 34.9 85.1zM61.1 85.8c-.2 0-.3-.2-.3-.3v-4.6c0-.2.2-.3.3-.3s.3.2.3.3v4.6C61.4 85.6 61.3 85.8 61.1 85.8z"/><path fill="#db9e71" d="M60.3,44.9h-0.4c-1,0-1.2,0.3-1.2-0.3c0.1-1.1-0.1-5.4-0.1-5.6c0-4.5-4.7-8.1-10.5-8.3l0,0h-0.2l0,0 C42.1,31,37.5,34.6,37.5,39c0,0.2-0.2,4.5-0.1,5.6c0,0.6-0.2,0.2-1.2,0.3h-0.4c-1,0-1.8,0.6-2.1,1.6c0.1,0.1,0.6,3.7,1.4,5.2 c0.4,0.8,1.1,0.9,1.8,1.4c0.3,0.2,0.5,0.6,0.6,1c0.5,1.6,1.4,3,2.7,4.1c0.6,0.6,4.5,4.7,7.8,4.5s7.3-4,7.9-4.5 c1.3-1.1,2.2-2.5,2.7-4.1c0-0.4,0.3-0.8,0.6-1c0.7-0.5,1.4-0.6,1.8-1.4c0.8-1.4,1.3-5.1,1.4-5.2C62.1,45.5,61.2,44.9,60.3,44.9z"/><path fill="#512c2b" d="M48.1 51.9c.7 0 1.3-.3 1.8-.8 0 0 0-.1 0-.2 0 0 0 0 0 0l0 0c0 0-.1 0-.2 0 0 0 0 0 0 0-.4.4-1 .7-1.6.6-.6 0-1.2-.2-1.6-.6 0 0-.1 0-.1 0 0 0 0 0-.1 0 0 0 0 .1 0 .2 0 0 0 0 0 0C46.8 51.7 47.4 51.9 48.1 51.9zM45.9 42.7l.4-.8c-1.9-.4-3.8-.4-5.7.2l.5.8C42.8 42.4 44.4 42.3 45.9 42.7zM55.1 42.7l.4-.8c-1.9-.4-3.8-.4-5.7.2l.5.8C51.9 42.4 53.6 42.3 55.1 42.7zM43.3 43.9c-.4 0-.8.3-1 .7.1 0 .1 0 .2 0 .4 0 .7.3.7.7 0 .4-.3.7-.7.7-.1 0-.2 0-.3-.1.1.6.6 1.1 1.2 1.2.9-.2 1.4-1.1 1.2-2C44.4 44.5 43.9 44.1 43.3 43.9L43.3 43.9zM52.9 43.9c-.4 0-.8.2-1 .5.1 0 .2 0 .2 0 .4 0 .7.3.7.7 0 .4-.3.7-.7.7-.2 0-.4-.1-.5-.3-.1.8.5 1.5 1.3 1.6.9-.2 1.4-1.1 1.2-2C53.9 44.5 53.4 44.1 52.9 43.9L52.9 43.9zM53.4 53.8c0 0 0-.1 0-.2 0 0 0 0 0 0l0 0c0 0-.1 0-.2 0 0 0 0 0 0 0-1.5 1-3.3 1.5-5.1 1.4-1.8.1-3.6-.4-5.1-1.4h-.1c0 0-.1 0-.1 0 0 0 0 .1 0 .2 0 0 0 0 0 0C46 56 50.2 56 53.4 53.8L53.4 53.8zM38.2 41.3c.5-2.2 1.2-4.3 2.3-6.2-.3-.5-.9-.7-1.5-.5-1.4 2.6-2.2 5.5-2.1 8.5.1 1.4.3 2.7.7 4C37.9 45.2 37.8 43.2 38.2 41.3zM58 41.3c-.5-2.2-1.2-4.3-2.3-6.2.4-.5 1-.7 1.5-.5 1.4 2.6 2.2 5.5 2.1 8.5-.1 1.4-.3 2.7-.7 4C58.3 45.2 58.4 43.2 58 41.3zM49.5 59.1c.1 0 .1-.1.1-.2 0-.1 0-.1-.1-.2h-2.6c-.1 0-.1.1-.1.2s0 .2.1.2H49.5z"/><path fill="#472b29" d="M49.1,87.8c-8.9,0-14.6-1.8-21.5-6.4c-0.2-0.1-0.2-0.3-0.2-0.5c0-0.1,0-0.5,0-1.1 c0-2.2,0.1-6.7,0.6-8.4c0.4-1.9,1.6-3.6,3.4-4.5c0.7-0.4,1.5-0.7,2.3-1l7.1-2.6c0.5-0.1,0.9-0.4,1-0.9c0.1-0.3,0.1-1.2,0.1-2 c-0.7-0.5-1.4-1-2.1-1.6c-1.3-1.2-2.3-2.7-2.8-4.4c-0.1-0.3-0.2-0.6-0.4-0.8c-0.2-0.2-0.4-0.3-0.6-0.4c-0.5-0.3-1-0.6-1.3-1.2 c-0.8-1.7-1.3-3.5-1.4-5.3c0-0.1,0-0.1,0-0.2c0.3-1.1,1.4-1.9,2.6-2h0.4c0.3,0,0.5,0,0.7,0c0-1,0-3.7,0.1-4.9c0-0.3,0-0.5,0-0.5 c0-4.8,4.8-8.7,11-8.9l0.2,0c6.2,0.2,11,4.1,11,8.9c0,0,0,0.2,0,0.5c0,1.2,0.1,3.8,0.1,4.9c0.2,0,0.4,0,0.7,0h0.3 c1.2,0,2.2,0.8,2.6,2c0,0.1,0,0.1,0,0.2c-0.2,1.9-0.6,3.7-1.4,5.4c-0.4,0.7-0.9,1-1.4,1.2c-0.2,0.1-0.4,0.2-0.6,0.4 c-0.2,0.2-0.3,0.4-0.4,0.7c-0.5,1.8-1.5,3.3-2.8,4.4c-0.7,0.6-1.5,1.2-2.2,1.8c0,0.6,0.1,1.3,0.3,1.9c0.1,0.3,0.5,0.6,0.9,0.8 c0.3,0.1,7.5,2.8,8.8,3.3l0.6,0.2c0.1,0,0.2,0.1,0.3,0.1c2.1,0.6,3.2,1.9,3.7,4.4c0,0,0,0,0,0.1c0,0,0.3,6.9,0.5,11.2 c0,0.2-0.1,0.4-0.3,0.5c-4,2-11.3,4.4-16.1,4.6C51.4,87.8,50.3,87.8,49.1,87.8z M28.4,80.7c7.4,5,13.6,6.5,24.2,6 c4.5-0.2,11.4-2.4,15.4-4.3c-0.2-4.1-0.5-10.3-0.5-10.8c-0.4-2.1-1.2-3.1-3-3.6c-0.1,0-0.3-0.1-0.4-0.1l-0.6-0.2 c-1.3-0.5-8.6-3.3-8.7-3.3c-0.7-0.2-1.2-0.7-1.5-1.4c-0.3-0.9-0.4-1.7-0.3-2.5c0-0.2,0.1-0.3,0.2-0.4c0.8-0.6,1.6-1.2,2.3-1.8 c1.2-1,2.1-2.4,2.5-3.9c0.1-0.4,0.3-0.9,0.7-1.2c0.3-0.2,0.5-0.3,0.7-0.5c0.4-0.2,0.7-0.4,1-0.8c0.7-1.5,1.2-3.2,1.3-4.9 c-0.2-0.7-0.9-1.1-1.6-1.2h-0.3c-0.3,0-0.5,0-0.7,0.1c-0.3,0-0.5,0.1-0.8-0.1c-0.2-0.2-0.2-0.6-0.2-0.7c0.1-0.8,0-3.9-0.1-5 c0-0.3,0-0.5,0-0.6c0-4.2-4.4-7.7-10-7.9l-0.2,0c-5.6,0.2-10,3.7-10,7.9c0,0,0,0.2,0,0.5c0,1.2-0.1,4.2-0.1,5.1 c0,0.2,0,0.5-0.2,0.7c-0.2,0.2-0.5,0.2-0.7,0.1c-0.2,0-0.4-0.1-0.7-0.1l-0.4,0c-0.7,0-1.3,0.5-1.6,1.2c0.2,1.7,0.6,3.3,1.3,4.9 c0.2,0.4,0.5,0.6,0.9,0.8c0.2,0.1,0.5,0.3,0.7,0.5c0.4,0.3,0.7,0.8,0.8,1.3c0.4,1.4,1.3,2.8,2.5,3.8c0.7,0.6,1.4,1.2,2.2,1.7 c0.1,0.1,0.2,0.2,0.2,0.4c0,1-0.1,2.1-0.2,2.5c-0.2,0.8-0.9,1.5-1.7,1.6L34.1,67c-0.8,0.2-1.5,0.5-2.1,0.9 c-1.5,0.8-2.6,2.2-2.9,3.8c-0.5,1.7-0.5,6.3-0.6,8.2C28.4,80.3,28.4,80.5,28.4,80.7z"/><path fill="#895d3d" d="M60.3 49.8l-.6-.1.2-1.8-1 .4-.2-.6 1.5-.6c.1 0 .2 0 .3 0 .1.1.1.2.1.3L60.3 49.8zM36.1 49.4l-.3-2.3c0-.1 0-.2.1-.3.1-.1.2-.1.3 0l1.5.6L37.5 48l-1-.4.2 1.8L36.1 49.4z"/><path fill="#472b29" d="M37.5 53.9C37.4 53.9 37.4 53.9 37.5 53.9c-.1 0-.2-.1-.2-.2l.2-8.7c0-.1.1-.2.2-.2 0 0 0 0 0 0 .1 0 .2.1.2.2l-.2 8.7C37.6 53.8 37.6 53.9 37.5 53.9zM58.8 53.9c-.1 0-.2-.1-.2-.2L58.5 45c0-.1.1-.2.2-.2 0 0 0 0 0 0 .1 0 .2.1.2.2l.2 8.7C59 53.8 58.9 53.9 58.8 53.9 58.8 53.9 58.8 53.9 58.8 53.9z"/><path fill="#512c2b" d="M59.5,41.8c0.5-4.7-0.9-7.4-2-8.7c-2.7-2.1-6-3.3-9.5-3.2c-2.9,0-5.7,0.8-8.2,2.3 c-1.9,1.9-4.2,5.4-3.1,9.6c0.2,2.1,0.5,4.2,1,6.2c0.2-2,0.2-6.1,0.6-7.9c0.3-1.3,0.7-2.6,1.3-3.9c2.7-2.9,14.1-2.8,17,0 c0.5,1.3,1,2.6,1.3,3.9c0.4,1.8,0.4,6,0.8,7.8C59.1,45.9,59.4,43.8,59.5,41.8z"/><path fill="#5e2e2e" d="M62.3,35.8c-0.3,0.5-0.8,0.9-1.3,1.1c-0.1-0.2-0.2-0.4-0.3-0.6c0.4-0.5,0.6-1.2,0.5-1.8 c-0.2-1.3-1.5-2.2-2.8-2l0,0c0.3-1.7-0.9-3.3-2.6-3.6c-0.3-0.1-0.7,0-1,0c-0.3,0-0.6,0.1-0.8,0.3c0,0,0-0.1,0-0.1 c-0.4-2-2.4-3.4-4.4-3c-1.2,0.2-2.2,0.9-2.8,1.9c-0.9-0.4-2-0.5-3-0.4c-2.5,0.4-4.3,2.5-4,4.6l0.1,0.3c-0.5,0.4-0.9,1-1,1.6 c-0.1,1.7,1.1,3.1,2.8,3.2c0,0,0,0,0.1,0c0.8,0.1,1.6,0,2.3-0.4c1.2,2.1,3.6,3.2,6,2.7c1-0.2,2-0.6,2.8-1.2c0.7,1.1,2,1.6,3.2,1.4 c0.3,0,0.6-0.1,0.9-0.3c0.6,0.5,1.3,0.8,2.1,0.7c0.5-0.1,1-0.3,1.3-0.7C61.3,39.1,62.3,38.1,62.3,35.8z"/><path fill="#472b29" d="M48,63.2c-2,0-5.5-2.6-5.6-2.7c-0.1-0.1-0.1-0.2,0-0.4c0.1-0.1,0.2-0.1,0.4,0c0,0,3.7,2.8,5.5,2.6 c1.8-0.2,4.8-2.4,4.8-2.4c0.1-0.1,0.3-0.1,0.3,0.1c0.1,0.1,0.1,0.3-0.1,0.3c-0.1,0.1-3.1,2.3-5,2.5C48.2,63.2,48.1,63.2,48,63.2z"/></svg>