<svg xmlns="http://www.w3.org/2000/svg" viewBox="0 0 100 100"><path fill="#fff" d="M22.1 57.6A.9.9 0 1 0 22.1 59.4.9.9 0 1 0 22.1 57.6zM81.1 32.9A.7.7 0 1 0 81.1 34.300000000000004.7.7 0 1 0 81.1 32.9z"/><path fill="#f1bc19" d="M78.5 13.7A.9.9 0 1 0 78.5 15.5.9.9 0 1 0 78.5 13.7zM22.6 65.3A.9.9 0 1 0 22.6 67.10000000000001.9.9 0 1 0 22.6 65.3z"/><path fill="#fce0a2" d="M51.6 14.299999999999997A37.5 37.5 0 1 0 51.6 89.3A37.5 37.5 0 1 0 51.6 14.299999999999997Z"/><path fill="#f1bc19" d="M83.9 12.7A4 4 0 1 0 83.9 20.7A4 4 0 1 0 83.9 12.7Z"/><path fill="#ee3e54" d="M87.9 23.900000000000002A1.9 1.9 0 1 0 87.9 27.7A1.9 1.9 0 1 0 87.9 23.900000000000002Z"/><path fill="#fbcd59" d="M78.9 76.3A1.9 1.9 0 1 0 78.9 80.10000000000001 1.9 1.9 0 1 0 78.9 76.3zM15.8 61.3A4 4 0 1 0 15.8 69.3 4 4 0 1 0 15.8 61.3z"/><path fill="#ee3e54" d="M26 87.5A1.9 1.9 0 1 0 26 91.30000000000001A1.9 1.9 0 1 0 26 87.5Z"/><path fill="#fff" d="M77.6 30.3A1.8 1.8 0 1 0 77.6 33.9 1.8 1.8 0 1 0 77.6 30.3zM19.5 50.7A2.5 2.5 0 1 0 19.5 55.7 2.5 2.5 0 1 0 19.5 50.7z"/><path fill="#9f8066" d="M33.3,77.9c0.5,0.1,1,0.1,1.4-0.1l0.1-0.1l0.1,0.1c0.2,0.3,0.4,0.5,0.7,0.7l0.2,0.1 c0.4,0.3,0.8,0.4,1.3,0.5h0.6c0,0.1,0,0.2,0,0.3c0.1,0.3,0.2,0.6,0.4,0.9c0.2,0.3,0.4,0.5,0.7,0.7l0.2,0.1 c0.4,0.2,0.8,0.4,1.3,0.4h0.7c0.1,0,0.3-0.1,0.4-0.1v0.2c0.1,0.5,0.4,1,0.8,1.3c0.2,0.2,0.5,0.3,0.7,0.3c0.3,0.1,0.5,0.1,0.8,0.1 c0.3,0,0.5-0.1,0.7-0.3c0.2-0.1,0.4-0.3,0.6-0.5l0.1-0.2c0,0,0,0,0-0.1c0.3,0.5,0.7,0.9,1.2,1.2c1.2,0.7,2.7,0.4,3.6-0.8L50,83 c1.3,1,3.2,0.8,4.2-0.4c0.2-0.3,0.4-0.7,0.5-1.1c1.1,0.4,2.4-0.1,3-1.1c0.2-0.3,0.3-0.6,0.3-1h0.6c0.5-0.1,1-0.3,1.3-0.8 c0.2-0.2,0.3-0.5,0.4-0.8c0.1-0.3,0.1-0.5,0.1-0.8c0-0.2-0.1-0.4-0.2-0.5c0.2,0,0.4,0,0.5,0c0.3,0,0.5-0.2,0.7-0.3 c0.2-0.1,0.5-0.3,0.6-0.6c0.3-0.5,0.4-1,0.2-1.6l-0.2-0.5l0,0c0.3-0.1,0.6-0.4,0.8-0.7c0.7-0.9,0.7-2.2,0-3.2 c0.4-0.2,0.7-0.5,0.9-0.8c0.8-1.4,0.4-3.3-1-4.1c-0.1,0-0.1-0.1-0.2-0.1c0.8-1.2,0.6-2.7-0.5-3.6c-0.4-0.4-1-0.6-1.5-0.7l0,0 l0.1-0.2c0.3-0.5,0.4-1,0.3-1.5c0-0.3-0.2-0.5-0.3-0.7c-0.1-0.2-0.3-0.4-0.6-0.6c-0.4-0.3-1-0.4-1.5-0.3L58.4,57 c0-0.1,0-0.3,0-0.4L58.2,56c-0.2-0.4-0.5-0.7-0.8-1l-0.2-0.1c-0.3-0.2-0.6-0.3-0.9-0.4c-0.3-0.1-0.7-0.1-1-0.1H55l-0.2-0.6 c-0.2-0.4-0.5-0.7-0.9-1l-0.2-0.1c-0.3-0.2-0.6-0.3-0.9-0.4h-0.1v-0.1c0.1-0.5-0.1-1-0.3-1.4c-0.3-0.4-0.7-0.7-1.2-0.8l-0.4-0.1 c-0.5-0.1-1,0-1.4,0.3c-0.2,0.1-0.3,0.3-0.4,0.4c-0.1-0.1-0.3-0.1-0.4-0.1c-0.4-0.1-0.9,0-1.3,0.3c-0.2,0.1-0.3,0.3-0.5,0.5 c0,0-0.1,0.1-0.1,0.1c-0.2-0.4-0.4-0.7-0.7-0.9l-0.2-0.1c-0.2-0.2-0.5-0.3-0.8-0.3c-0.5-0.2-1.1-0.1-1.6,0.3 c-0.2,0.1-0.4,0.3-0.6,0.5l-0.3,0.5v0.2c-0.4-0.2-0.9-0.4-1.4-0.4c-0.6,0-1.2,0.3-1.7,0.8l-0.3,0.5c-0.1,0.2-0.1,0.3-0.2,0.5 c-0.2,0-0.3,0-0.5,0c-0.3,0-0.5,0.1-0.8,0.2c-0.3,0.1-0.5,0.3-0.7,0.5L36.9,54c-0.1,0.2-0.2,0.5-0.2,0.7c-1-0.1-2,0.4-2.5,1.2 c-0.4,0.5-0.6,1.2-0.5,1.9C33,58,32.4,58.4,32,59c-0.6,0.8-0.7,1.9-0.3,2.8c-0.2,0.1-0.5,0.2-0.6,0.4l-0.3,0.5 c-0.1,0.2-0.2,0.5-0.2,0.8c-0.1,0.3,0,0.5,0.1,0.8c0,0.2,0.1,0.3,0.2,0.4c-0.1,0.1-0.3,0.2-0.4,0.3L30,65.5 c-0.3,0.6-0.3,1.2-0.2,1.8c0.1,0.3,0.2,0.6,0.5,0.8c0.1,0.1,0.2,0.3,0.4,0.4l-0.1,0.1l-0.4,0.4c-0.2,0.2-0.3,0.5-0.3,0.7 c-0.1,0.3-0.1,0.5,0,0.8c0,0.3,0.1,0.5,0.3,0.8c0.1,0.3,0.3,0.5,0.6,0.6l0.1,0.1c0.3,0.2,0.7,0.4,1.1,0.4l-0.1,0.1 c-0.1,0.2-0.2,0.4-0.3,0.6c-0.1,0.2-0.1,0.4-0.1,0.7c0,0.2,0.1,0.4,0.2,0.6c0.1,0.1,0.1,0.3,0.2,0.4c-0.1,0.2-0.2,0.3-0.3,0.5 c-0.1,0.5,0,1,0.2,1.4l0.2,0.4C32.4,77.5,32.8,77.8,33.3,77.9z"/><path fill="#9f8066" d="M31.1,37.4c0.2,0.5,0.6,0.9,1.1,1.1l0.1,0.1c0,0,0,0.1,0,0.1c-0.2,0.3-0.2,0.7-0.2,1v0.2 c0,0.5,0.1,0.9,0.4,1.3l0.4,0.5c-0.1,0.1-0.1,0.1-0.2,0.2c-0.3,0.2-0.4,0.5-0.5,0.8c-0.2,0.3-0.2,0.7-0.2,1v0.2 c0,0.5,0.2,0.9,0.4,1.3l0.5,0.5c0.1,0.1,0.2,0.2,0.3,0.2L33,46.1c-0.4,0.4-0.7,0.9-0.7,1.4c0,0.3,0,0.6,0.2,0.8 c0.1,0.3,0.2,0.5,0.5,0.7c0.2,0.2,0.4,0.4,0.7,0.5c0.3,0.1,0.5,0.2,0.8,0.2h0.3c-0.3,0.5-0.4,1.1-0.4,1.6c0.2,1.5,1.5,2.5,3,2.5 c0,0.1,0,0.2,0,0.2c0,1.7,1.4,3.2,3.1,3.2c0.4,0,0.9-0.1,1.3-0.3c0.5,1.2,1.6,1.9,2.9,1.8c0.4,0,0.8-0.1,1.1-0.3l0,0l0.3,0.5 c0.4,0.4,1,0.7,1.6,0.7c0.3,0,0.6,0,0.9-0.1c0.3-0.1,0.6-0.2,0.8-0.4c0.2-0.1,0.3-0.3,0.4-0.4c0.1,0.2,0.2,0.3,0.4,0.4 c0.2,0.2,0.5,0.4,0.8,0.4c0.3,0.1,0.6,0.2,0.9,0.1c0.6,0,1.2-0.3,1.6-0.7l0.3-0.5l0,0c0.3,0.2,0.7,0.3,1.1,0.3 c1.3,0.1,2.4-0.7,2.9-1.8c0.4,0.2,0.9,0.2,1.4,0.2c1.7,0,3.1-1.5,3.1-3.2v-0.2c1.5,0,2.8-1,3-2.5c0-0.6-0.1-1.1-0.4-1.6h0.3 c0.3,0,0.6-0.1,0.8-0.2c0.3-0.1,0.5-0.2,0.7-0.5c0.2-0.2,0.4-0.4,0.4-0.7c0.1-0.2,0.2-0.5,0.2-0.8c0-0.6-0.3-1.1-0.7-1.4l-0.2-0.2 c0.1-0.1,0.2-0.2,0.3-0.2l0.5-0.5c0.3-0.4,0.4-0.8,0.4-1.3v-0.2c0-0.7-0.3-1.3-0.7-1.8l-0.2-0.2l0.4-0.5c0.3-0.4,0.4-0.9,0.4-1.3 v-0.2c0-0.3-0.1-0.7-0.2-1c0,0,0-0.1,0-0.1l0.1-0.1c0.5-0.2,0.9-0.6,1.1-1.1c0.1-0.5,0.1-1-0.2-1.4l-0.2-0.4 c-0.2-0.5-0.7-0.8-1.2-1c-0.2-0.1-0.4-0.1-0.7-0.1c0-0.1-0.1-0.3-0.2-0.4c-0.1-0.2-0.2-0.4-0.4-0.5c-0.2-0.1-0.4-0.2-0.7-0.3 c-0.2-0.1-0.5-0.1-0.7-0.1h-0.2c0.2-0.3,0.3-0.7,0.3-1.1v-0.2c0-0.3-0.1-0.6-0.2-0.8c-0.1-0.3-0.3-0.5-0.5-0.7 c-0.2-0.2-0.5-0.3-0.7-0.4c-0.3-0.1-0.6-0.2-0.9-0.2l-0.6,0.1l-0.2,0c0-0.2-0.1-0.4-0.1-0.5c-0.1-0.3-0.2-0.6-0.4-0.9 c-0.2-0.3-0.5-0.5-0.8-0.6c-0.3-0.2-0.6-0.3-1-0.3h-0.7c-0.2,0-0.4,0.1-0.6,0.1c-0.1-0.1-0.2-0.3-0.3-0.4 c-0.2-0.2-0.4-0.4-0.7-0.5c-0.3-0.2-0.6-0.3-0.9-0.3h-0.6c-0.3,0-0.5,0.1-0.8,0.3c-0.6-0.9-1.6-1.4-2.7-1.4 c-0.7,0-1.5,0.2-2.1,0.7c-1.5-1.1-3.7-0.8-4.8,0.7c0,0,0,0,0,0c-0.2-0.1-0.5-0.2-0.8-0.3h-0.6c-0.3,0-0.6,0.1-0.9,0.3 c-0.4,0.2-0.8,0.5-1,0.9c-0.2-0.1-0.4-0.1-0.6-0.1h-0.7c-0.4,0-0.7,0.1-1,0.3c-0.3,0.1-0.6,0.3-0.8,0.6c-0.2,0.2-0.4,0.5-0.4,0.9 c-0.1,0.2-0.1,0.4-0.1,0.5l-0.2,0l-0.6-0.1c-0.3,0-0.6,0-0.9,0.2c-0.3,0.1-0.5,0.2-0.8,0.4c-0.2,0.2-0.4,0.4-0.5,0.7 c-0.1,0.3-0.2,0.5-0.2,0.8v0.2c0,0.4,0.1,0.8,0.3,1.1h-0.2c-0.2,0-0.5,0-0.7,0.1c-0.2,0.1-0.4,0.2-0.6,0.3 c-0.2,0.1-0.3,0.3-0.4,0.5c-0.1,0.1-0.1,0.3-0.2,0.4c-0.2,0-0.4,0-0.6,0.1c-0.5,0.2-0.9,0.5-1.2,1L31.2,36 C31,36.4,30.9,37,31.1,37.4z"/><path fill="#472b29" d="M47.5,84.5c-0.5,0-1.1-0.1-1.6-0.4c-0.4-0.2-0.7-0.5-1-0.8c-0.1,0.1-0.3,0.2-0.5,0.3 c-0.2,0.2-0.6,0.3-0.9,0.3c-0.3,0-0.7,0-1-0.1c-0.3,0-0.6-0.2-0.9-0.4C41.3,83,41,82.6,40.8,82l-0.7,0c-0.6,0-1.1-0.2-1.5-0.5 l-0.2-0.1c-0.3-0.2-0.6-0.5-0.8-0.8c-0.2-0.2-0.4-0.6-0.4-0.9H37c-0.6-0.1-1.1-0.2-1.5-0.6L35.3,79c-0.2-0.2-0.5-0.4-0.6-0.6 c-0.5,0.2-1,0.2-1.5,0.1c-0.6-0.2-1.1-0.6-1.4-1.1L31.5,77c-0.3-0.5-0.4-1.2-0.2-1.8c0-0.1,0.1-0.3,0.1-0.4c0-0.1-0.1-0.1-0.1-0.2 c-0.1-0.2-0.2-0.5-0.3-0.8c0-0.3,0-0.6,0.1-0.8c0-0.1,0-0.1,0.1-0.2c-0.2-0.1-0.4-0.2-0.6-0.3l-0.2-0.1c-0.3-0.2-0.5-0.5-0.7-0.8 c-0.2-0.2-0.3-0.6-0.4-0.9c-0.1-0.3-0.1-0.6,0-1c0-0.3,0.2-0.6,0.4-0.9l0.2-0.2c0,0-0.1-0.1-0.1-0.1c-0.5-0.5-0.7-1.3-0.6-2 c0-0.4,0.1-0.8,0.3-1.1l0.4-0.5c0.1-0.1,0.1-0.1,0.2-0.2c0-0.1,0-0.1-0.1-0.2c-0.1-0.3-0.1-0.7-0.1-1c0-0.3,0.1-0.6,0.3-1l0.4-0.5 c0.1-0.1,0.3-0.3,0.4-0.4c-0.3-1-0.1-2,0.5-2.9c0.4-0.5,0.9-0.9,1.5-1.2c0-0.7,0.2-1.3,0.6-1.8c0.6-0.9,1.5-1.4,2.6-1.4 c0,0,0-0.1,0-0.1c-1.3-0.3-2.3-1.4-2.6-2.8c0-0.4,0-0.9,0.1-1.3c-0.2,0-0.4-0.1-0.6-0.2c-0.3-0.1-0.6-0.3-0.8-0.5 c-0.2-0.2-0.4-0.5-0.6-0.9c-0.1-0.2-0.2-0.6-0.2-1c0-0.6,0.3-1.1,0.6-1.5l-0.1-0.1c-0.1-0.1-0.2-0.2-0.3-0.3 c-0.3-0.5-0.5-1-0.5-1.6l0-0.1c0-0.4,0-0.8,0.2-1.2c0.1-0.3,0.3-0.6,0.5-0.9l-0.2-0.2c-0.3-0.5-0.5-1.1-0.5-1.6l0-0.1 c0-0.3,0-0.6,0.1-0.9c-0.5-0.3-0.9-0.7-1.1-1.2c-0.2-0.6-0.2-1.2,0.1-1.8l0.2-0.4c0.3-0.6,0.8-1,1.4-1.2c0.2-0.1,0.3-0.1,0.5-0.1 c0.1-0.3,0.4-0.6,0.6-0.8c0.2-0.2,0.5-0.4,0.8-0.4c0.1,0,0.2-0.1,0.3-0.1c-0.1-0.2-0.1-0.5-0.1-0.7V32c0-0.4,0.1-0.7,0.3-1.1 c0.1-0.3,0.3-0.6,0.6-0.8c0.2-0.2,0.6-0.4,0.9-0.5c0.3-0.1,0.6-0.2,1-0.2l0.4,0.1c0,0,0-0.1,0.1-0.1c0.1-0.3,0.2-0.7,0.5-1 c0.2-0.3,0.6-0.6,1-0.7c0.3-0.2,0.7-0.3,1.1-0.4l0.7,0c0.1,0,0.2,0,0.4,0.1c0-0.1,0.1-0.1,0.2-0.2c0.2-0.3,0.5-0.5,0.9-0.6 c0.3-0.2,0.6-0.3,1-0.3l0.7,0c0.2,0,0.4,0.1,0.6,0.2c0.7-0.9,1.8-1.4,2.9-1.4c0.7,0,1.4,0.2,2,0.6c0.6-0.4,1.3-0.6,2.1-0.6 c1.1-0.1,2.2,0.4,2.9,1.3c0.2-0.1,0.4-0.1,0.6-0.2l0.7,0c0.4,0,0.8,0.1,1.1,0.3c0.3,0.1,0.6,0.3,0.8,0.6c0,0,0.1,0.1,0.1,0.2 c0.1,0,0.2,0,0.3-0.1l0.7,0c0.5,0,0.9,0.2,1.2,0.4c0.3,0.1,0.7,0.4,0.9,0.7c0.2,0.3,0.4,0.6,0.5,1c0,0,0,0.1,0,0.1l0.4-0.1 c0.4,0,0.8,0.1,1.1,0.2c0.3,0.1,0.6,0.3,0.9,0.5c0.3,0.2,0.5,0.5,0.6,0.9c0.2,0.2,0.2,0.6,0.2,1l0,0.2c0,0.2,0,0.5-0.1,0.7 c0.1,0,0.2,0.1,0.4,0.1c0.2,0,0.5,0.2,0.8,0.4c0.3,0.2,0.5,0.5,0.6,0.8c0.2,0,0.3,0.1,0.5,0.1c0.6,0.2,1.1,0.6,1.4,1.2l0.2,0.4 c0.3,0.5,0.3,1.2,0.1,1.8c-0.2,0.5-0.5,1-1,1.2c0.1,0.3,0.1,0.6,0.1,0.9l0,0.2c0,0.5-0.2,1.1-0.5,1.5l-0.2,0.2 c0.3,0.3,0.4,0.6,0.6,0.9c0.2,0.3,0.3,0.7,0.2,1.2l0,0.2c0,0.6-0.2,1.1-0.5,1.6c-0.2,0.2-0.3,0.4-0.5,0.5c0.4,0.4,0.6,1,0.6,1.5 c0,0.3,0,0.7-0.2,1c-0.1,0.3-0.3,0.6-0.5,0.8c-0.2,0.2-0.5,0.4-0.9,0.5c-0.2,0.1-0.3,0.1-0.5,0.2c0.1,0.4,0.2,0.8,0.1,1.2 c-0.3,1.6-1.5,2.7-3,2.9c0,1.2-0.8,2.4-1.8,3c0.1,0.1,0.2,0.2,0.3,0.3c0.2,0.2,0.3,0.5,0.4,0.9c0.1,0.5,0,1-0.1,1.4 c0.4,0.1,0.8,0.3,1.1,0.6c1.2,1,1.5,2.6,0.8,3.9c1.5,1.1,1.9,3.1,1,4.6c-0.2,0.3-0.4,0.5-0.7,0.7c0.6,1.1,0.5,2.4-0.3,3.3 c-0.2,0.2-0.4,0.4-0.6,0.6l0.1,0.1c0.2,0.7,0.1,1.4-0.3,2c-0.2,0.3-0.4,0.6-0.8,0.8c-0.2,0.2-0.6,0.3-0.9,0.4c0,0,0,0,0,0 c0,0,0,0,0,0c0.1,0.3,0,0.7-0.1,1c0,0.3-0.2,0.6-0.4,0.9c-0.4,0.5-1,0.8-1.7,0.9h-0.2c-0.1,0.3-0.2,0.6-0.4,0.8 c-0.7,1-1.9,1.5-3.1,1.4c-0.1,0.3-0.3,0.6-0.4,0.8c-1.2,1.4-3.3,1.7-4.7,0.6C49.1,84.2,48.3,84.5,47.5,84.5z M45,81.7l0.4,0.7 c0.2,0.4,0.6,0.8,1,1c1,0.6,2.3,0.3,3-0.6l0.3-0.4l0.5,0.5c1.1,0.9,2.7,0.7,3.6-0.4c0.2-0.3,0.3-0.6,0.4-0.9l0.1-0.5l0.5,0.1 c0.9,0.3,2-0.1,2.5-0.9c0.2-0.2,0.3-0.5,0.3-0.8l0-0.4h1c0.4,0,0.8-0.2,1-0.6c0.1-0.2,0.2-0.3,0.3-0.5c0.1-0.3,0.1-0.5,0.1-0.7 c0-0.2-0.1-0.3-0.1-0.4l-0.4-0.8l0.9,0.2c0.1,0,0.3,0,0.4,0c0.2,0,0.4-0.1,0.5-0.2c0.2-0.1,0.4-0.3,0.5-0.5 c0.2-0.4,0.3-0.8,0.2-1.2l-0.3-0.9l0.4-0.2c0.3-0.1,0.5-0.3,0.6-0.5c0.6-0.8,0.6-1.9,0-2.6l-0.3-0.4l0.4-0.3 c0.3-0.2,0.6-0.4,0.8-0.7c0.7-1.2,0.3-2.7-0.9-3.5c-0.1,0-0.1-0.1-0.2-0.1L62,64.9l0.3-0.4c0.7-1,0.5-2.4-0.4-3.1 c-0.4-0.3-0.8-0.5-1.3-0.6l-0.7-0.1l0.5-0.7c0.2-0.3,0.3-0.8,0.2-1.2c0-0.2-0.1-0.4-0.3-0.5c-0.1-0.2-0.3-0.4-0.5-0.5l-1.2-0.6 l1.1-0.3c1.2-0.3,2-1.4,2-2.7c0-0.1,0-0.1,0-0.2l-0.1-0.5l0.5,0c1.2,0,2.3-0.9,2.6-2.1c0-0.4-0.1-0.9-0.3-1.3L64,49.4h1 c0,0,0,0,0,0c0.2,0,0.4-0.1,0.6-0.1c0.3-0.1,0.4-0.2,0.6-0.4c0.2-0.2,0.3-0.3,0.3-0.5c0.1-0.2,0.2-0.4,0.1-0.6 c0-0.5-0.2-0.9-0.5-1.1L65.4,46l0.6-0.4c0.1-0.1,0.2-0.1,0.3-0.2c0.1-0.1,0.3-0.3,0.4-0.5c0.2-0.3,0.3-0.6,0.3-1l0-0.2 c0-0.3,0-0.6-0.1-0.8c-0.1-0.3-0.2-0.5-0.4-0.7l-0.5-0.5l0.7-0.8c0.2-0.3,0.3-0.6,0.3-1v-0.2c0-0.3,0-0.6-0.2-0.8l-0.1-0.1l0-0.4 l0.4-0.3c0.3-0.2,0.6-0.5,0.8-0.8c0.1-0.3,0.1-0.7-0.1-1L67.6,36c-0.2-0.4-0.5-0.7-0.9-0.8c-0.2-0.1-0.3-0.1-0.5-0.1l-0.3,0 l-0.1-0.3c-0.1-0.3-0.3-0.5-0.5-0.8c-0.1-0.1-0.3-0.2-0.4-0.2c-0.2-0.1-0.4-0.1-0.6-0.1l-1,0l0.5-0.7c0.2-0.3,0.3-0.6,0.3-0.9V32 c0-0.2,0-0.4-0.1-0.6c-0.1-0.3-0.2-0.5-0.4-0.6c-0.2-0.2-0.4-0.3-0.6-0.3c-0.3-0.1-0.5-0.2-0.7-0.2l-0.7,0.1l-0.5,0.2l0-0.6 c0-0.1,0-0.3-0.1-0.4c-0.1-0.3-0.2-0.5-0.4-0.7c-0.2-0.2-0.4-0.4-0.6-0.5c-0.3-0.2-0.6-0.3-0.9-0.3l-0.7,0c-0.1,0-0.3,0.1-0.4,0.1 l-0.4,0.2L57.3,28c0-0.1-0.1-0.2-0.2-0.3c-0.2-0.2-0.3-0.3-0.6-0.4c-0.3-0.2-0.5-0.2-0.7-0.2l-0.6,0c-0.2,0-0.4,0.1-0.6,0.2 l-0.4,0.2l-0.2-0.3c-0.5-0.8-1.4-1.2-2.3-1.2c-0.7,0-1.3,0.2-1.8,0.6l-0.3,0.2l-0.3-0.2c-0.5-0.4-1.1-0.6-1.8-0.6 c-1,0-1.9,0.5-2.4,1.3L45,27.6l-0.4-0.2c-0.2-0.1-0.4-0.2-0.6-0.2l-0.6,0c-0.2,0-0.4,0.1-0.6,0.2c-0.3,0.1-0.4,0.3-0.6,0.4 c-0.1,0.1-0.2,0.2-0.2,0.3l-0.2,0.4l-0.4-0.2c-0.1-0.1-0.3-0.1-0.4-0.1l-0.6,0c-0.2,0-0.5,0.1-0.8,0.3c-0.3,0.1-0.5,0.3-0.7,0.5 c-0.2,0.2-0.3,0.4-0.3,0.7c-0.1,0.2-0.1,0.3-0.1,0.5l-0.1,0.7l-0.7-0.4l-0.5-0.1c-0.2,0-0.4,0-0.6,0.1c-0.3,0.1-0.5,0.2-0.6,0.3 c-0.2,0.2-0.3,0.3-0.4,0.5c-0.1,0.3-0.2,0.5-0.2,0.7l0,0.2c0,0.3,0.1,0.6,0.3,0.9l0.5,0.7h-1c-0.2,0-0.4,0-0.5,0.1 c-0.2,0.1-0.4,0.1-0.5,0.2c-0.2,0.2-0.4,0.5-0.5,0.7l-0.1,0.3l-0.3,0c-0.2,0-0.3,0-0.5,0.1c-0.4,0.1-0.7,0.4-0.9,0.8l-0.2,0.4 c-0.2,0.3-0.2,0.7-0.1,1.1c0.1,0.4,0.4,0.7,0.8,0.8l0.4,0.2l0,0.3l0,0.1l-0.1,0.2c-0.1,0.2-0.2,0.5-0.2,0.8l0,0.2 c0,0.4,0.1,0.8,0.3,1.1l0.7,0.8l-0.5,0.5c-0.2,0.2-0.3,0.4-0.4,0.7c-0.2,0.3-0.2,0.6-0.2,0.8l0,0.2c0,0.4,0.1,0.7,0.3,1 c0.1,0.1,0.2,0.2,0.3,0.3l0.2,0.2c0,0,0.1,0.1,0.2,0.1L34,46l-0.8,0.6c-0.3,0.2-0.5,0.6-0.5,1.1c0,0.2,0,0.4,0.1,0.6 c0.1,0.3,0.2,0.5,0.4,0.6c0.2,0.2,0.3,0.3,0.5,0.4c0.3,0.1,0.5,0.2,0.7,0.2c0,0,0,0,0,0h1.1L35,50c-0.2,0.4-0.3,0.9-0.3,1.4 c0.2,1.1,1.2,2,2.4,2.1l0.8,0l-0.5,0.8c-0.1,0.1-0.1,0.3-0.1,0.5l0,0.5l-0.5-0.1c-0.9-0.1-1.7,0.3-2.2,1c-0.4,0.5-0.5,1-0.4,1.6 l0,0.4l-0.4,0.1c-0.5,0.1-1,0.4-1.3,0.9c-0.5,0.7-0.6,1.6-0.3,2.4l0.2,0.4l-0.4,0.2c-0.2,0.1-0.4,0.2-0.5,0.3L31.1,63 C31,63.1,31,63.3,31,63.5c0,0.3,0,0.5,0,0.7c0,0.1,0.1,0.3,0.1,0.4l0.2,0.4L31,65.1c-0.1,0.1-0.2,0.2-0.3,0.3l-0.3,0.4 c-0.1,0.2-0.2,0.4-0.2,0.6c-0.1,0.6,0.1,1.1,0.4,1.4c0.1,0.2,0.2,0.3,0.3,0.3l0.5,0.4l-0.6,0.5l-0.3,0.3c-0.1,0.1-0.2,0.3-0.2,0.5 c-0.1,0.3-0.1,0.4,0,0.6c0,0.3,0.1,0.5,0.2,0.6c0.1,0.2,0.3,0.4,0.5,0.5l0.2,0.1c0.2,0.2,0.5,0.3,0.8,0.3l0.9,0.1l-0.7,0.8 c-0.1,0.1-0.1,0.2-0.2,0.4c-0.1,0.2-0.1,0.3-0.1,0.5c0,0.2,0.1,0.3,0.1,0.5c0.1,0.2,0.1,0.2,0.2,0.3l0.3,0.3l-0.2,0.3 c-0.1,0.1-0.1,0.2-0.2,0.3c-0.1,0.4,0,0.8,0.1,1.1l0.2,0.4c0.2,0.3,0.5,0.6,0.9,0.7c0.4,0.1,0.8,0.1,1.1-0.1l0.5-0.3l0.3,0.4 c0.1,0.3,0.3,0.5,0.5,0.6l0.2,0.1c0.3,0.2,0.7,0.4,1.1,0.4l1,0l0.1,0.4c0,0.1,0,0.1,0,0.2c0.1,0.3,0.2,0.5,0.3,0.7 c0.2,0.3,0.3,0.5,0.6,0.6l0.2,0.1c0.3,0.2,0.7,0.3,1,0.4l0.6,0c0,0,0.1,0,0.2-0.1l0.6-0.2v0.9c0.1,0.3,0.3,0.7,0.6,0.9 c0.2,0.1,0.3,0.2,0.5,0.3c0.3,0.1,0.5,0.1,0.7,0.1c0.2,0,0.4-0.1,0.6-0.2c0.2-0.1,0.4-0.2,0.5-0.4L45,81.7z"/><path fill="#f6cca4" d="M61.8,44c0.1-1.5-0.3-2.8-0.2-3.6l0,0c-1.3-1.7-2.2-3.6-4-4.8c-2.1-1.3-4.4-2.2-6.8-2.8 c-5.7-1.4-11.3,2.7-13.1,8.1c0,0,0,0.1-0.1,0.1c0.2,1,0.3,2,0.4,3c-1.5,0-2.3,0.8-1.8,2.4c0,0,0.6,2.6,1,3.9 c0.1,0.7,0.8,1.2,1.5,1.2c0,0.8,0,1.7,0,2.5c0,1,0.3,2,0.9,2.8c1.5,2.2,9.2,7.2,11.1,7c3,0,9-5.1,10.6-7.7 c0.3-0.5,0.4-1.1,0.5-1.7c0-1,0-2,0-3c0.6-0.1,1.1-0.6,1.3-1.2c0.4-1.3,1-3.9,1-3.9C64.5,44.8,63.3,44,61.8,44z"/><path fill="#eab436" d="M49.8,30c-6.8,0-12.4,5-12.4,11.3c0,0.6,0.2,1.2,0.4,1.7c1.5-5.5,8.4-8.2,12-8.2s10.4,2.3,12,8.2 c0.3-0.5,0.4-1.1,0.4-1.7C62.3,35,56.7,30,49.8,30z"/><path fill="#472b29" d="M38,44.1l-0.4-0.9c-0.3-0.6-0.4-1.2-0.5-1.8c0-6.5,5.7-11.7,12.8-11.7c7,0,12.8,5.2,12.8,11.7 c0,0.7-0.2,1.3-0.5,1.9l-0.4,0.9l-0.3-1c-1.5-5.4-7.8-7.9-11.6-7.9c-3.2,0-10.1,2.4-11.6,7.9L38,44.1z M49.9,30.4 c-6.6,0-12,4.9-12,10.9c0,0.2,0,0.4,0.1,0.5c2.2-5.1,8.8-7.4,12-7.4c3.1,0,9.7,1.8,12,7.4c0-0.2,0.1-0.4,0.1-0.5 C61.9,35.3,56.5,30.4,49.9,30.4z"/><path fill="#edbc94" d="M66.4,69.6L66,69.4l-0.6-0.2c-1.2-0.5-9.3-3.3-9.3-3.3c-0.5-0.2-1-0.6-1.2-1.1 c-0.2-1-0.3-1.9-0.2-2.9c-1.4,0.6-2.8,1.1-4.2,1.4c-1.9,0.2-5.2-2.3-5.2-2.3s-0.1,3-0.2,3.7c-0.2,0.6-0.7,1-1.3,1.1l-7.8,2.6 c-0.8,0.2-1.5,0.5-2.2,0.9c-1.6,1.1-2.8,2.8-3.3,4.7h0c0,0.2-0.1,0.4-0.1,0.6c-0.1,0.4-0.2,0.9-0.1,1.3c0,0.5-0.1,6-0.1,6.5 c8,5.6,16.4,6.2,26.9,6.2c4.6,0,9.2-2.6,13-4.5C69.8,74.8,70.6,70.9,66.4,69.6z"/><g opacity=".3"><path fill="#f4989e" d="M43 50.6A2 2 0 1 0 43 54.6 2 2 0 1 0 43 50.6zM58.1 50.6A2 2 0 1 0 58.1 54.6 2 2 0 1 0 58.1 50.6z" opacity=".8"/></g><path fill="#472b29" d="M38.9 51.8c-.1 0-.2-.1-.2-.2L37.9 44c0-.1.1-.2.2-.2.1 0 .2.1.2.2l.8 7.6C39.1 51.7 39.1 51.8 38.9 51.8 38.9 51.8 38.9 51.8 38.9 51.8zM61.5 51.8C61.5 51.8 61.5 51.8 61.5 51.8c-.1 0-.2-.1-.2-.2l.4-8.1c0-.1.1-.2.2-.2 0 0 0 0 0 0 .1 0 .2.1.2.2l-.4 8.1C61.7 51.7 61.6 51.8 61.5 51.8z"/><path fill="#fdfcef" d="M41.5,67.1c-0.2,8.9,17.7,9.4,16.4-0.7l5,1.7l2,18.7c-9.7,3.4-20.3,2.9-29.7-1.3l1-16.7L41.5,67.1z"/><path fill="#472b29" d="M50.3 54.8c.8 0 1.5-.3 2-.9.1-.1.1-.1 0-.2l0 0c-.1 0-.1 0-.2 0-1 .9-2.6.9-3.6 0-.1 0-.1 0-.2 0-.1.1-.1.1 0 .2C48.9 54.5 49.6 54.8 50.3 54.8zM51.2 61.6C51.3 61.6 51.3 61.5 51.2 61.6c.1-.1 0-.2 0-.2h-1.8c0 0-.1 0-.1.1s0 .1.1.1H51.2z" opacity=".41"/><path fill="#472b29" d="M48.3 41.9c-2.4-.7-4.9-1-7.4-.8-.1 0-.2.1-.2.2 0 .1.1.2.2.2 0 0 5.1.9 6.7 1.4h.1c.1 0 .2 0 .2-.1l.6-.7c0-.1 0-.1 0-.2C48.4 42 48.3 42 48.3 41.9zM52.3 41.7c2.4-.6 5-.7 7.5-.4.1 0 .2.1.2.2 0 .1-.1.2-.2.2 0 0-5.1.6-6.7 1.1h-.1c-.1 0-.2 0-.2-.1L52.2 42c0-.1 0-.1 0-.2C52.2 41.8 52.2 41.8 52.3 41.7zM44.7 44.9c-.5 0-1 .3-1.2.8.1 0 .1 0 .2 0 .5.1.8.5.7.9 0 .4-.3.7-.7.7-.1 0-.3 0-.4-.1.1.7.7 1.2 1.4 1.3 1-.2 1.6-1.2 1.4-2.2C46 45.6 45.4 45.1 44.7 44.9L44.7 44.9zM55.7 44.9c-.4 0-.8.3-1.1.6.1 0 .2-.1.3-.1.5.1.8.5.7.9 0 .4-.3.7-.7.7-.3 0-.5-.1-.6-.4.2.8 1 1.3 1.8 1.1.8-.2 1.3-1 1.1-1.8C57 45.3 56.4 44.9 55.7 44.9zM50.7 63.5c-1.9 0-5-1.5-5.2-1.6-.1-.1-.2-.2-.1-.3.1-.1.2-.2.3-.1 0 0 3.4 1.7 5.1 1.5 1.5-.3 3-.7 4.3-1.5.1-.1.3 0 .3.1.1.1 0 .3-.1.3-1.4.7-2.9 1.2-4.5 1.5C50.9 63.5 50.8 63.5 50.7 63.5z"/><path fill="#472b29" d="M48.6 44.4c-2.3-2.7-10.7-.8-10.7-.8.2.6.3 1.2.4 1.8.6.1.7 1.5.7 2 .3 2.5 2 4.3 5.5 4.3 2.4 0 4.4-1.9 4.5-4.3 0 0 0 0 0 0C49.1 46.4 49 45.4 48.6 44.4zM48.2 47.5c0 2-1.7 3.7-3.7 3.7 0 0-.1 0-.1 0-.2 0-.4 0-.7 0-3.5 0-4.1-3.1-4.2-5-.1-1.1.8-2.1 1.9-2.2.7-.1 1.5-.1 2.2-.1 2.6 0 3.8.6 4.1 1.1C48.1 45.8 48.3 46.7 48.2 47.5zM51.1 47.4c0 2.4 2.1 4.4 4.5 4.3 0 0 0 0 0 0 3.5.1 5.2-1.8 5.5-4.3.1-.5.1-1.9.7-2 .1-.6.3-1.2.4-1.8 0 0-8.5-1.9-10.7.8C51.1 45.4 51 46.4 51.1 47.4zM52.4 45.1c.3-.5 1.4-1.1 4.1-1.1.7 0 1.5 0 2.2.1 1.1.1 1.9 1.1 1.9 2.2-.1 1.9-.7 5-4.2 5-.2 0-.4 0-.7 0-2 .1-3.7-1.5-3.8-3.6 0 0 0-.1 0-.1C51.8 46.7 52 45.8 52.4 45.1z"/><path fill="#472b29" d="M51.6 46.6c-.5-.3-1-.5-1.6-.5-.5 0-1 .1-1.5.5-.2-.4-.3-.8-.5-1.3h4C51.9 45.7 51.7 46.2 51.6 46.6zM57 56.8c.1-.1.1-.1 0-.2l0 0c-.1-.1-.1-.1-.2 0-1.9 1.2-4.1 1.9-6.3 1.7-2.2.1-4.5-.5-6.3-1.7 0 0-.1 0-.1 0 0 0-.1 0-.1 0-.1.1-.1.1 0 .2 1.9 1.4 4.2 2.1 6.5 2C52.8 58.8 55.1 58.1 57 56.8z"/><path fill="#472b29" d="M51.6,89.7C44,89.7,36.5,87.5,30,83c-0.1-0.1-0.2-0.2-0.2-0.4l0-0.3c-0.2-7.3,1.1-11.7,4-13.1 c0.7-0.4,1.5-0.7,2.3-0.9l7.7-2.6c0.5-0.1,0.8-0.4,0.9-0.8c0.1-0.4,0.2-2,0.3-2.8c-2.3-1.5-5-3.5-5.8-4.7c-0.7-0.9-1-2-1-3.2l0-2 c-0.7-0.2-1.3-0.8-1.5-1.6c-0.4-1.2-1-3.8-1-3.9c-0.4-1.1-0.1-1.8,0.2-2.2c0.2-0.3,0.7-0.7,1.6-0.8c0-0.2,0-0.3,0-0.5 c-0.3-0.5-0.4-1.1-0.5-1.7c0-6.6,5.8-11.8,12.9-11.8c7.1,0,12.9,5.3,12.9,11.8c0,0.7-0.2,1.3-0.5,1.9c0,0,0,0,0,0 c0,0.1,0,0.2,0,0.3c0.8,0.1,1.5,0.4,1.9,1c0.3,0.4,0.6,1.1,0.2,2.1l0,0c-0.1,0.6-0.7,3-1,3.9c-0.1,0.7-0.6,1.2-1.3,1.4v2.6 c0,0.7-0.2,1.3-0.5,1.9c-1.8,2.4-3.9,4.4-6.4,6c0,0.8,0,1.5,0.2,2.3c0.1,0.3,0.5,0.6,0.9,0.7c0.4,0.1,8.1,2.8,9.3,3.3l0.9,0.3 c3.8,1.2,3.9,6.2,4.1,13.1l0,2c0,0.2-0.1,0.4-0.3,0.4C64.6,88.1,58.1,89.7,51.6,89.7z M30.8,82.3c11.5,7.9,26.7,8.5,38.9,1.7 l0-1.7c-0.2-6.7-0.3-11.2-3.4-12.1c0,0,0,0,0,0l-0.9-0.4c-1.2-0.5-9.2-3.2-9.2-3.3c-0.7-0.2-1.3-0.7-1.5-1.3c-0.3-1-0.3-2-0.3-2.9 c0-0.2,0.1-0.3,0.2-0.4c2.5-1.6,4.6-3.5,6.3-5.9c0.2-0.4,0.4-0.9,0.4-1.4v-3c0-0.3,0.2-0.5,0.5-0.5c0.4,0,0.8-0.4,0.9-0.8 c0.4-1.3,1-3.8,1-3.9c0.2-0.6,0.2-1-0.1-1.3c-0.3-0.4-0.9-0.6-1.6-0.6c-0.1,0-0.3,0-0.4-0.1c-0.1-0.1-0.1-0.2-0.1-0.4 c0-0.8,0-1.2,0.2-1.4c0.2-0.4,0.3-0.9,0.3-1.4c0-5.9-5.3-10.8-11.9-10.8c-6.6,0-11.9,4.8-11.9,10.8c0,0.5,0.2,1,0.4,1.4 c0,0.1,0.1,0.1,0.1,0.2c0,0.4,0,0.7,0,1.1c0,0.3-0.2,0.5-0.5,0.5c-0.4,0-1,0.1-1.3,0.4c-0.3,0.4-0.2,0.9,0,1.3 c0,0.1,0.6,2.7,1,3.9c0.1,0.5,0.5,0.9,1,0.9c0,0,0,0,0,0c0.1,0,0.3,0.1,0.4,0.1c0.1,0.1,0.1,0.2,0.1,0.4v2.5 c0,0.9,0.2,1.8,0.8,2.6c0.7,1,3.1,2.9,5.8,4.6c0.1,0.1,0.2,0.3,0.2,0.4c0,0.8-0.2,2.8-0.3,3.4c-0.3,0.8-0.9,1.4-1.7,1.5l-7.7,2.6 c-0.7,0.2-1.4,0.5-2.1,0.9C32.5,70.9,30.6,73.7,30.8,82.3L30.8,82.3z"/></svg>