<svg xmlns="http://www.w3.org/2000/svg" viewBox="0 0 100 100"><path fill="#fff" d="M19.7 55.800000000000004A.9.9 0 1 0 19.7 57.6.9.9 0 1 0 19.7 55.800000000000004zM78.8 31.1A.7.7 0 1 0 78.8 32.5.7.7 0 1 0 78.8 31.1z"/><path fill="#f1bc19" d="M76.1 11.799999999999999A.9.9 0 1 0 76.1 13.6.9.9 0 1 0 76.1 11.799999999999999zM20.2 63.4A.9.9 0 1 0 20.2 65.2.9.9 0 1 0 20.2 63.4z"/><path fill="#c0e5e4" d="M49.3 12.600000000000001A37.4 37.4 0 1 0 49.3 87.4A37.4 37.4 0 1 0 49.3 12.600000000000001Z"/><path fill="#f1bc19" d="M81.6 10.9A4 4 0 1 0 81.6 18.9A4 4 0 1 0 81.6 10.9Z"/><path fill="#00a5a5" d="M85.6 22.1A1.9 1.9 0 1 0 85.6 25.9A1.9 1.9 0 1 0 85.6 22.1Z"/><path fill="#fbcd59" d="M76.6 74.5A1.9 1.9 0 1 0 76.6 78.30000000000001 1.9 1.9 0 1 0 76.6 74.5zM13.4 59.4A4 4 0 1 0 13.4 67.4 4 4 0 1 0 13.4 59.4z"/><path fill="#00a5a5" d="M23.7 85.69999999999999A1.9 1.9 0 1 0 23.7 89.5A1.9 1.9 0 1 0 23.7 85.69999999999999Z"/><path fill="#fff" d="M75.3 28.5A1.8 1.8 0 1 0 75.3 32.1 1.8 1.8 0 1 0 75.3 28.5zM17.2 48.8A2.5 2.5 0 1 0 17.2 53.8 2.5 2.5 0 1 0 17.2 48.8z"/><path fill="#472b29" d="M43.8 28.1c0 0-9.4-6.1-15 2.8s6.1 20.2 2.2 23.3c4.7-1.8 4.8-9.1 2.8-15-1.7-5.2 1.9-8.1 6-6.8C41.6 33.1 43.8 28.1 43.8 28.1zM56.2 28c0 0 9.4-6.1 15 2.8S65.1 51 69 54.2c-4.7-1.8-4.8-9.1-2.8-15 1.7-5.2-1.9-8.1-6-6.8C58.4 33 56.2 28 56.2 28z"/><path fill="#d8ad8f" d="M62,42.2c0.1-1.5-0.3-2.8-0.2-3.6l0,0c-1.3-1.6-2.2-3.6-4-4.8c-2.1-1.3-4.4-2.2-6.8-2.8 c-5.7-1.4-11.3,2.7-13.1,8.1l-0.1,0.1c0.2,1,0.3,2,0.4,2.9c-1.5,0-2.3,0.8-1.8,2.4c0,0,0.6,2.6,1,3.9c0.1,0.7,0.8,1.2,1.5,1.2 c0,0.8,0,1.7,0,2.5c0,1,0.2,2,0.8,2.8c1.5,2.2,9.2,7.2,11.1,7c3,0,9-5.1,10.6-7.7c0.3-0.5,0.4-1.1,0.5-1.7c0-1,0-2,0-3 c0.6-0.1,1.1-0.6,1.3-1.2c0.4-1.3,1-3.9,1-3.9C64.7,43,63.6,42.1,62,42.2z"/><path fill="#b2876b" d="M66.6,67.7c-0.1,0-0.2-0.1-0.3-0.1l-0.6-0.2c-1.2-0.5-9.3-3.3-9.3-3.3c-0.6-0.2-1-0.6-1.2-1.1 c-0.2-0.9-0.3-1.9-0.2-2.9c-1.4,0.6-2.8,1.1-4.2,1.4c-1.9,0.2-5.2-2.3-5.2-2.3s-0.1,3-0.2,3.7c-0.2,0.6-0.7,1-1.3,1.1l-7.7,2.6 c-0.8,0.2-1.5,0.5-2.2,0.9c-1.6,1.1-2.8,2.8-3.2,4.7h0c0,0.1,0,0.3-0.1,0.6c-0.1,0.7-0.2,7.2-0.1,7.3c0,0.5-0.1,1.5-0.1,2.1 c9.7,5.1,12.2,5,22.7,5c4.6,0,13.1-4,17.2-6.4C70,71.4,70.9,69,66.6,67.7z"/><g opacity=".3"><path fill="#f4989e" d="M43.2 48.8A2 2 0 1 0 43.2 52.8 2 2 0 1 0 43.2 48.8zM58.4 48.8A2 2 0 1 0 58.4 52.8 2 2 0 1 0 58.4 48.8z" opacity=".8"/></g><path fill="#472b29" d="M39.2 50.4c-.1 0-.2-.1-.2-.2l-.8-8c0-.1.1-.2.2-.2.1 0 .2.1.2.2l.8 8C39.4 50.3 39.4 50.4 39.2 50.4 39.2 50.4 39.2 50.4 39.2 50.4zM61.7 50C61.7 50 61.7 49.9 61.7 50c-.1 0-.2-.1-.2-.2l.5-8.1c0-.1.1-.2.2-.2.1 0 .2.1.2.2l-.5 8.1C61.9 49.9 61.8 50 61.7 50z"/><path fill="#6d1b18" d="M47.2,54.9c0,0.2-0.1,0.3-0.1,0.5c0,1.4,1.5,2.5,3.5,2.5s3.4-1.1,3.4-2.5c0-0.2,0-0.3,0-0.5H47.2z"/><path fill="#ee3e54" d="M52.4,57.5c-1.1-0.8-2.6-0.8-3.6,0C49.9,58,51.2,58,52.4,57.5z"/><path fill="#fdfcef" d="M48.2,54.9L48.2,54.9v0.4c0,0.4,0.5,0.7,1.1,0.7h2.6c0.6,0,1.1-0.3,1.1-0.7v-0.4l0,0H48.2z"/><path fill="#472b29" d="M50.6,58.1c-2,0-3.7-1.2-3.7-2.7c0-0.2,0-0.4,0.1-0.5c0-0.1,0.1-0.1,0.2-0.1H54 c0.1,0,0.2,0.1,0.2,0.2c0,0.2,0,0.3,0,0.5C54.2,56.9,52.6,58.1,50.6,58.1z M47.4,55.1c0,0.1,0,0.2,0,0.3c0,1.3,1.5,2.3,3.3,2.3 c1.8,0,3.2-1,3.2-2.3c0-0.1,0-0.2,0-0.3H47.4z"/><path fill="#83ccb7" d="M41.6,64.9c-0.2,9,17.4,9.6,16.2-0.7l4.9,1.7l1.4,18.3c0,0-14.9,6.4-28.4,0.4l0.7-18L41.6,64.9z"/><path fill="#472b29" d="M50.6 53c.8 0 1.5-.3 2-.9.1 0 .1-.1 0-.2 0 0 0 0 0 0l0 0c-.1 0-.1 0-.2 0-1 .9-2.6.9-3.6 0 0 0-.1 0-.1 0 0 0-.1 0-.1 0-.1 0-.1.1 0 .2 0 0 0 0 0 0C49.1 52.7 49.8 53 50.6 53zM51.5 59.8C51.5 59.8 51.6 59.7 51.5 59.8c.1-.1 0-.2 0-.2h-1.8c0 0-.1 0-.1.1s0 .1.1.1l0 0H51.5z" opacity=".41"/><path fill="#512c2b" d="M48.5 41c-2.4-.7-4.9-1-7.4-.8-.1 0-.2 0-.2.2 0 .1 0 .2.2.2 0 0 .1 0 .1 0 0 0 5.1.9 6.6 1.4h.1c.1 0 .1 0 .2 0l.6-.7c0-.1 0-.1 0-.2C48.6 41.1 48.6 41 48.5 41zM52.5 40.8c2.4-.6 5-.7 7.5-.4.1 0 .2.1.2.2 0 .1-.1.2-.2.2 0 0-5.1.6-6.7 1.1h-.1c-.1 0-.2 0-.2-.1l-.6-.7c0-.1 0-.1 0-.2C52.4 40.8 52.5 40.8 52.5 40.8z"/><path fill="#472b29" d="M45 43c-.5 0-1 .3-1.2.8.1 0 .1 0 .2 0 .5 0 .8.4.8.8 0 .5-.4.8-.8.8-.1 0-.3 0-.4-.1.1.7.7 1.2 1.4 1.3 1-.2 1.6-1.3 1.4-2.3C46.2 43.7 45.7 43.2 45 43zM56 43c-.4 0-.8.2-1.1.6.1 0 .2-.1.3-.1.5 0 .8.4.8.8 0 .5-.4.8-.8.8-.3 0-.5-.1-.6-.4.2.8 1 1.3 1.8 1.1.8-.2 1.3-1 1.1-1.8C57.2 43.5 56.7 43.1 56 43zM51 61.7c-1.9 0-5-1.7-5.2-1.7-.1-.1-.2-.2-.1-.3s.2-.2.3-.1c0 0 3.4 1.8 5.1 1.7 1.5-.3 3-.8 4.3-1.6.1-.1.3 0 .3.1.1.1 0 .3-.1.3-1.4.8-2.9 1.4-4.5 1.7C51.1 61.7 51 61.7 51 61.7z"/><path fill="#472b29" d="M49.4,87.8C49.4,87.8,49.4,87.8,49.4,87.8c-6.2,0-16.6-2.8-19.1-5.1c-0.1-0.1-0.2-0.3-0.2-0.4 c0-0.1,0-0.2,0-0.4c-0.3-10.2,2-13.5,4-14.5c0.7-0.4,1.5-0.7,2.3-0.9l7.7-2.6c0.5-0.1,0.8-0.4,0.9-0.8c0.1-0.4,0.2-2,0.2-2.8 c-2.3-1.4-4.9-3.4-5.8-4.7c-0.6-0.9-1-2-0.9-3.1l0-2c-0.7-0.2-1.3-0.8-1.5-1.6c-0.4-1.2-1-3.8-1-3.9c-0.4-1.1-0.1-1.8,0.2-2.2 c0.2-0.3,0.7-0.7,1.6-0.8c0-0.2,0-0.3,0-0.5c-0.3-0.5-0.4-1.1-0.5-1.7c0-6.6,5.8-11.9,12.9-11.9c7.1,0,12.9,5.3,12.9,11.8 c0,0.7-0.2,1.3-0.5,1.9c0,0,0,0,0,0c0,0.1,0,0.2,0,0.3c0.8,0.1,1.5,0.4,1.9,1c0.3,0.4,0.6,1.1,0.2,2.1l0,0c-0.1,0.6-0.7,3-1,3.9 c-0.1,0.6-0.6,1.2-1.2,1.4v2.6c0,0.7-0.2,1.4-0.6,1.9c-1.8,2.4-3.9,4.4-6.4,6c0,0.8,0,1.5,0.2,2.3c0.1,0.3,0.5,0.6,0.9,0.7 c0.4,0.1,8.1,2.8,9.3,3.3l0.6,0.2c0.1,0.1,0.2,0.1,0.3,0.1c3.8,1.2,3.9,6,4.1,12.7l0,0.6c0,0.2-0.1,0.3-0.2,0.4 C64.4,85.5,57.1,87.8,49.4,87.8z M31.1,82.1c2.5,2,12.1,4.7,18.3,4.7c0,0,0,0,0.1,0c7.4,0,14.5-2.2,20.6-6.3l0-0.4 c-0.2-6.5-0.3-10.8-3.4-11.8c0,0,0,0,0,0c-0.1,0-0.3-0.1-0.4-0.1L65.6,68c-1.2-0.5-9.2-3.2-9.2-3.3c-0.7-0.2-1.2-0.7-1.5-1.4 c-0.3-1-0.4-2-0.3-2.9c0-0.2,0.1-0.3,0.2-0.4c2.5-1.6,4.6-3.5,6.3-5.9c0.2-0.4,0.4-0.9,0.4-1.4l0-3c0-0.3,0.2-0.5,0.4-0.5 c0.4-0.1,0.8-0.4,0.8-0.8c0.4-1.3,1-3.8,1-3.9c0.2-0.6,0.2-1-0.1-1.3c-0.3-0.4-0.9-0.6-1.6-0.6c-0.1,0-0.3,0-0.4-0.1 c-0.1-0.1-0.1-0.2-0.1-0.4c0-0.8,0-1.2,0.2-1.3c0.2-0.4,0.3-0.9,0.3-1.4c0-5.9-5.3-10.8-11.9-10.8c-6.6,0-11.9,4.8-11.9,10.8 c0,0.5,0.2,1,0.4,1.4c0,0.1,0,0.1,0.1,0.2c0,0.4,0.1,0.8,0.1,1.1c0,0.1,0,0.3-0.1,0.4c-0.1,0.1-0.2,0.1-0.4,0.1 c-0.4,0-1,0.1-1.3,0.4c-0.3,0.4-0.2,0.9,0,1.3c0,0.1,0.6,2.7,1,3.9c0.1,0.5,0.5,0.9,1,0.9c0.1,0,0.3,0,0.4,0.1 c0.1,0.1,0.1,0.2,0.1,0.4v2.5c0,0.9,0.2,1.8,0.8,2.5c0.7,1,3.1,2.9,5.8,4.6c0.1,0.1,0.2,0.3,0.2,0.4c0,0.8-0.2,2.8-0.3,3.4 c-0.3,0.8-0.9,1.4-1.6,1.5l-7.7,2.6c-0.7,0.2-1.4,0.5-2.1,0.9c-1.4,0.7-3.8,3.5-3.5,13.6C31.1,81.9,31.1,82,31.1,82.1z"/><path fill="#512c2b" d="M50.3,25.9c-11.1,0.2-14.1,9.7-14.6,11.6c0.3-0.3,0.6-0.6,0.9-0.9c-0.7,3.5,1.4,6.4,2.9,9.3 C37.9,43,45,35.3,50.3,33.6c-0.3,0.5-0.6,1.1-0.9,1.7s-1.1,4-1.5,4.1c2.7-1.1,5-2.9,6.7-5.3c0.4-0.5,0.6-1,0.8-1.6 c-0.5,6.5,6.5,9.9,6.2,13.7C67,36,59.3,25.7,50.3,25.9z"/><path fill="#00a5a5" d="M48.9 42.6c-2.3-2.7-10.7-.8-10.7-.8.2.6.3 1.2.4 1.8.6.1.7 1.5.7 2 .3 2.5 2 4.3 5.5 4.3 2.4 0 4.4-1.9 4.5-4.3 0 0 0 0 0 0C49.4 44.6 49.2 43.5 48.9 42.6zM48.5 45.7c0 2-1.7 3.7-3.7 3.7 0 0-.1 0-.1 0-.2 0-.4 0-.7 0-3.5 0-4.1-3.1-4.2-5-.1-1.1.8-2.1 1.9-2.2.7-.1 1.4-.1 2.2-.1 2.6 0 3.8.6 4 1.1C48.4 44 48.5 44.8 48.5 45.7zM51.3 45.5c0 2.4 2 4.4 4.5 4.3 0 0 0 0 0 0 3.5.1 5.2-1.8 5.5-4.3.1-.5.1-1.9.7-2 .1-.6.3-1.2.4-1.8 0 0-8.5-1.9-10.7.8C51.4 43.5 51.2 44.5 51.3 45.5zM52.6 43.2c.3-.5 1.4-1.1 4-1.1.8 0 1.6 0 2.2.1 1.1.1 1.9 1.1 1.9 2.2-.1 1.9-.7 5-4.2 5-.2 0-.4 0-.7 0-2 .1-3.7-1.5-3.8-3.6 0 0 0-.1 0-.1C52 44.8 52.2 44 52.6 43.2z"/><path fill="#00a5a5" d="M51.8,44.8c-0.5-0.3-1-0.5-1.6-0.5c-0.5,0-1,0.1-1.5,0.5l-0.5-1.3h4L51.8,44.8z"/></svg>