<svg xmlns="http://www.w3.org/2000/svg" viewBox="0 0 100 100"><path fill="#fff" d="M22.1 57.6A.9.9 0 1 0 22.1 59.4.9.9 0 1 0 22.1 57.6zM81.1 32.9A.7.7 0 1 0 81.1 34.300000000000004.7.7 0 1 0 81.1 32.9z"/><path fill="#f1bc19" d="M78.5 13.7A.9.9 0 1 0 78.5 15.5.9.9 0 1 0 78.5 13.7zM22.6 65.3A.9.9 0 1 0 22.6 67.10000000000001.9.9 0 1 0 22.6 65.3z"/><path fill="#e6edb7" d="M51.6 14.299999999999997A37.5 37.5 0 1 0 51.6 89.3A37.5 37.5 0 1 0 51.6 14.299999999999997Z"/><path fill="#f1bc19" d="M83.9 12.7A4 4 0 1 0 83.9 20.7A4 4 0 1 0 83.9 12.7Z"/><path fill="#88ae45" d="M87.9 23.900000000000002A1.9 1.9 0 1 0 87.9 27.7A1.9 1.9 0 1 0 87.9 23.900000000000002Z"/><path fill="#fbcd59" d="M78.9 76.3A1.9 1.9 0 1 0 78.9 80.10000000000001 1.9 1.9 0 1 0 78.9 76.3zM15.8 61.3A4 4 0 1 0 15.8 69.3 4 4 0 1 0 15.8 61.3z"/><path fill="#88ae45" d="M26 87.5A1.9 1.9 0 1 0 26 91.30000000000001A1.9 1.9 0 1 0 26 87.5Z"/><path fill="#fff" d="M77.6 30.3A1.8 1.8 0 1 0 77.6 33.9 1.8 1.8 0 1 0 77.6 30.3zM19.5 50.7A2.5 2.5 0 1 0 19.5 55.7 2.5 2.5 0 1 0 19.5 50.7z"/><path fill="#472b29" d="M36.2,50.6c0.5,0.1,1,0.1,1.4-0.1l0.1-0.1l0.1,0.1c0.2,0.3,0.4,0.5,0.7,0.7l0.2,0.1 c0.4,0.3,0.8,0.4,1.3,0.5h0.6c0,0.1,0,0.2,0,0.3c0.1,0.3,0.2,0.6,0.4,0.9c0.2,0.3,0.4,0.5,0.7,0.7l0.2,0.1 c0.4,0.2,0.8,0.4,1.3,0.4h0.7l0.4-0.1v0.2c0.1,0.5,0.4,1,0.8,1.3c0.2,0.2,0.5,0.3,0.7,0.3c0.3,0.1,0.5,0.1,0.8,0.1 c0.3,0,0.5-0.1,0.7-0.3c0.2-0.1,0.4-0.3,0.6-0.5l0.1-0.2l0,0c0.3,0.5,0.7,0.8,1.1,1.1c1.2,0.7,2.7,0.4,3.6-0.8l0.2,0.2 c1.3,1,3.2,0.8,4.3-0.4c0.2-0.3,0.4-0.7,0.5-1.1c1.1,0.4,2.4-0.1,3-1.1c0.2-0.3,0.3-0.6,0.3-1h0.6c0.5-0.1,1-0.3,1.4-0.8 c0.2-0.2,0.3-0.5,0.3-0.7c0.1-0.3,0.1-0.5,0.1-0.8c0-0.2-0.1-0.4-0.2-0.5c0.5,0,0.9-0.1,1.3-0.4c0.2-0.1,0.4-0.3,0.6-0.6 c0.3-0.5,0.4-1,0.2-1.5L65,46.2l0,0c0.3-0.1,0.6-0.4,0.8-0.6c0.7-0.9,0.7-2.2,0-3.2c0.3-0.2,0.7-0.5,0.9-0.8 c0.9-1.4,0.4-3.3-1-4.1c-0.1,0-0.1-0.1-0.2-0.1c0.8-1.2,0.6-2.7-0.5-3.6c-0.4-0.4-1-0.6-1.5-0.6l0,0l0.1-0.2 c0.1-0.2,0.2-0.5,0.3-0.7c0.1-0.3,0.1-0.5,0-0.8c-0.1-0.3-0.2-0.5-0.3-0.7c-0.1-0.2-0.3-0.4-0.6-0.6c-0.4-0.3-1-0.4-1.5-0.3 l-0.2,0.1c0-0.1,0-0.3,0-0.4L61,28.7c-0.2-0.4-0.5-0.7-0.8-1L60,27.6c-0.3-0.2-0.6-0.3-0.9-0.4c-0.3-0.1-0.7-0.1-1-0.1 c-0.1,0-0.2,0-0.3,0l-0.2-0.6c-0.2-0.4-0.5-0.7-0.9-1l-0.2-0.1c-0.3-0.2-0.6-0.3-0.9-0.4h-0.1v-0.1c0.1-0.5-0.1-1-0.3-1.4 c-0.3-0.4-0.7-0.7-1.2-0.8l-0.4-0.1c-0.5-0.1-1,0-1.4,0.3c-0.2,0.1-0.3,0.3-0.4,0.4c-0.1-0.1-0.3-0.1-0.4-0.1 c-0.2-0.1-0.5-0.1-0.7,0c-0.4,0.1-0.8,0.4-1,0.7c0,0-0.1,0.1-0.1,0.1c-0.2-0.3-0.4-0.7-0.7-0.9l-0.2-0.1c-0.2-0.2-0.5-0.3-0.8-0.3 c-0.3-0.1-0.6-0.1-0.8,0c-0.3,0-0.5,0.1-0.7,0.3c-0.2,0.1-0.4,0.3-0.6,0.5l-0.3,0.5c0,0.1,0,0.1,0,0.2c-0.2-0.1-0.3-0.2-0.5-0.2 c-0.6-0.2-1.3-0.2-1.8,0.1c-0.3,0.1-0.6,0.3-0.8,0.5l-0.3,0.5c-0.1,0.2-0.1,0.3-0.2,0.5c-0.2,0-0.3,0-0.5,0 c-0.3,0-0.5,0.1-0.8,0.2c-0.3,0.1-0.5,0.3-0.7,0.5l-0.3,0.5c-0.1,0.2-0.2,0.5-0.2,0.7c-1-0.1-2,0.4-2.5,1.2 c-0.4,0.5-0.6,1.2-0.5,1.9c-0.6,0.1-1.2,0.5-1.6,1c-0.6,0.8-0.7,1.9-0.3,2.8c-0.2,0.1-0.4,0.2-0.6,0.4l-0.3,0.5 c-0.2,0.5-0.3,1.1-0.2,1.6c0,0.2,0.1,0.3,0.2,0.4c-0.1,0.1-0.3,0.2-0.4,0.3L33,38.1c-0.2,0.3-0.3,0.6-0.3,0.9c0,0.3,0,0.6,0.1,0.9 c0.1,0.3,0.2,0.6,0.5,0.8c0.1,0.2,0.2,0.3,0.4,0.4l-0.1,0.1l-0.4,0.4c-0.2,0.2-0.3,0.5-0.3,0.7c-0.1,0.3-0.1,0.5,0,0.8 c0,0.3,0.2,0.5,0.3,0.8c0.1,0.3,0.3,0.5,0.6,0.6l0.2,0.1c0.3,0.2,0.7,0.4,1.1,0.4l-0.1,0.1c-0.3,0.4-0.4,0.8-0.3,1.2 c0,0.2,0.1,0.4,0.2,0.6c0.1,0.1,0.1,0.2,0.2,0.3c-0.1,0.2-0.2,0.3-0.3,0.5c-0.1,0.5-0.1,1,0.2,1.4l0.2,0.4 C35.4,50.1,35.7,50.4,36.2,50.6z"/><path fill="#d8ad8f" d="M61.3,44.4c0.1-1.5-0.3-2.8-0.2-3.6l0,0c-1.3-1.6-2.2-3.6-4-4.8c-2.1-1.3-4.4-2.2-6.7-2.8 c-5.7-1.4-11.3,2.7-13,8.1l-0.1,0.1c0.2,1,0.2,1.9,0.2,2.9c-1.5,0-2.1,0.8-1.6,2.4c0,0,0.6,2.6,1,3.9c0.1,0.7,0.8,1.2,1.5,1.2 c0,0.8,0,1.7,0,2.5c0,1,0.3,2,0.9,2.8c1.5,2.2,9.2,7.2,11,7c3,0,9-5.1,10.5-7.7c0.3-0.5,0.4-1.1,0.5-1.7c0-1,0-2,0-3 c0.6-0.1,1.1-0.6,1.3-1.2c0.4-1.3,1-3.8,1-3.9C64,45.2,62.9,44.4,61.3,44.4z"/><path fill="#fbcd59" d="M49.5,30.4c-6.8,0-12.3,5-12.3,11.3c0,0.6,0.2,1.2,0.4,1.7c1.5-5.5,8.4-8.2,11.9-8.2 s10.3,2.3,11.9,8.2c0.2-0.5,0.4-1.1,0.4-1.7C61.8,35.5,56.3,30.4,49.5,30.4z"/><path fill="#b2876b" d="M65.9,69.9c-0.1,0-0.2-0.1-0.3-0.1L65,69.5c-1.2-0.5-9.2-3.3-9.2-3.3c-0.5-0.1-1-0.5-1.2-1.1 c-0.2-0.9-0.3-1.9-0.2-2.9c-1.4,0.6-2.8,1.1-4.2,1.4c-1.9,0.2-5.1-2.3-5.1-2.3s-0.1,3-0.2,3.7c-0.2,0.6-0.7,1-1.3,1.1l-7.7,2.6 c-0.8,0.2-1.5,0.5-2.2,0.9c-1.6,1.1-2.8,2.8-3.3,4.7h0c0,0.1,0,6.3-0.1,6.6c-0.1,0.4-0.1,0.9-0.1,1.3c0,0.5-0.1-1-0.1-0.5 c7.2,5.3,12.8,7.8,23.3,7.4c6.1-0.2,12.4-3.2,16.5-4.7C69.3,75.2,70.2,71.2,65.9,69.9z"/><path fill="#88ae45" d="M30.1,82.3c6.8,7,16,6.4,26.5,6.4c4.6,0,9.7-2.5,13.3-4.5c-0.4-9.3,0-12.3-3.8-14.1 c-0.8-0.4-3.9-1.8-3.9-1.8s-8,4.5-11.5,5.2c-6.6,1.3-13.3,1.7-20,1.1C30.6,75,30.3,80.7,30.1,82.3z"/><path fill="#fbcd59" d="M66,70c-0.2-0.1-0.4-0.3-0.6-0.4c-0.8-0.3-3.3-1.4-3.3-1.4s-7.9,4-11.4,4.7 C44,74.3,37.3,74.6,30.5,74c-0.1,0.3-0.2,1.6-0.3,3.1C52.5,81,62.9,71.7,66,70z"/><g opacity=".3"><path fill="#f4989e" d="M42.6 51A2 2 0 1 0 42.6 55 2 2 0 1 0 42.6 51zM57.7 51A2 2 0 1 0 57.7 55 2 2 0 1 0 57.7 51z" opacity=".8"/></g><path fill="#472b29" d="M38.7 52.4c-.1 0-.2-.1-.2-.2l-.8-8c0-.1.1-.2.2-.2.1 0 .2.1.2.2l.8 8C38.9 52.3 38.8 52.4 38.7 52.4 38.7 52.4 38.7 52.4 38.7 52.4zM61 52.1C61 52.1 61 52.1 61 52.1c-.1 0-.2-.1-.2-.2l.5-8c0-.1.1-.2.2-.2.1 0 .2.1.2.2l-.5 8C61.2 52 61.1 52.1 61 52.1z"/><path fill="#472b29" d="M50.8,61.9C50.9,61.9,50.9,61.9,50.8,61.9 c0.1-0.1,0-0.2,0-0.2h-1.8c0,0-0.1,0-0.1,0.1c0,0,0,0.1,0.1,0.1H50.8z" opacity=".41"/><path fill="#472b29" d="M50.3 63.9c-1.9 0-5-1.7-5.1-1.7-.1-.1-.2-.2-.1-.3.1-.1.2-.2.3-.1 0 0 3.4 1.8 5.1 1.7 1.5-.3 3-.8 4.3-1.6.1-.1.3 0 .3.1.1.1 0 .3-.1.3-1.4.8-2.9 1.3-4.5 1.6C50.5 63.9 50.4 63.9 50.3 63.9zM47.9 41c-2.5.1-4.9.7-7.2 1.7-.1 0-.2.1-.1.3 0 .1.1.2.3.1 0 0 5.1-.8 6.7-.8h.1c.1 0 .1-.1.2-.2l.4-.8c0-.1 0-.1 0-.2C48 41 47.9 41 47.9 41zM52.4 40.8c2.5.2 4.9.9 7.1 2 .1 0 .2.1.2.2 0 .1-.1.2-.2.2 0 0-.1 0-.1 0 0 0-5-1.1-6.7-1.1h-.1c-.1 0-.1-.1-.2-.2l-.3-.8c0-.1 0-.1 0-.2C52.2 40.8 52.3 40.8 52.4 40.8zM44.6 44.3c-.5 0-1 .3-1.2.8.1 0 .1 0 .2 0 .5.1.8.5.7.9 0 .4-.3.7-.7.7-.1 0-.3 0-.4-.1.1.7.7 1.2 1.4 1.3 1-.2 1.6-1.2 1.4-2.2C45.8 45 45.3 44.5 44.6 44.3L44.6 44.3zM55.5 44.3c-.4 0-.8.2-1.1.6.1 0 .2-.1.3-.1.5.1.8.5.7.9 0 .4-.3.7-.7.7-.3 0-.5-.1-.6-.4-.2.8.3 1.6 1.1 1.7.8.2 1.6-.3 1.7-1.1 0-.2 0-.4 0-.6C57.1 45.2 56.4 44.4 55.5 44.3 55.5 44.3 55.5 44.3 55.5 44.3z"/><path fill="#472b29" d="M50.2,52.2c0.5,0,1-0.3,1.3-0.7c0.1-0.1,0.1-0.3,0-0.4 c-0.1-0.1-0.2-0.1-0.2,0c0,0,0,0,0,0c-0.5,0.6-1.3,0.7-1.9,0.2c-0.1-0.1-0.1-0.1-0.2-0.2C49.2,51,49,51,49,51.1c0,0,0,0,0,0 c-0.1,0.1-0.1,0.3,0,0.4C49.2,51.9,49.7,52.2,50.2,52.2z" opacity=".41"/><path fill="#6d1b18" d="M45.8,55.4c-0.1,0.2-0.1,0.4-0.1,0.6c0,1.8,2,3.3,4.5,3.3s4.5-1.5,4.5-3.3c0-0.2,0-0.4-0.1-0.6 H45.8z"/><path fill="#ee3e54" d="M52.5,58.8c-0.7-0.6-1.5-0.8-2.4-0.8c-0.9-0.1-1.7,0.2-2.4,0.8C49.3,59.5,51,59.5,52.5,58.8z"/><path fill="#fdfcef" d="M47,55.4C47,55.4,47,55.4,47,55.4v0.6c0,0.5,0.7,0.9,1.4,0.9h3.4c0.8,0,1.4-0.4,1.4-0.9v-0.6 c0,0,0,0,0-0.1H47z"/><path fill="#472b29" d="M50.2,59.6c-2.6,0-4.8-1.6-4.8-3.5c0-0.2,0-0.5,0.1-0.7c0-0.1,0.1-0.2,0.2-0.2h8.8 c0.1,0,0.2,0.1,0.2,0.2c0.1,0.2,0.1,0.5,0.1,0.7C54.9,58,52.8,59.6,50.2,59.6z M46,55.7c0,0.1,0,0.2,0,0.4c0,1.7,1.9,3,4.3,3 c2.3,0,4.3-1.4,4.3-3c0-0.1,0-0.2,0-0.4H46z"/><path fill="#472b29" d="M51.7,89.7c-7.7,0-15.4-2.3-21.9-6.9c-0.1-0.1-0.2-0.2-0.2-0.4c-0.1-4.9,0.6-11.2,4-13 c0.7-0.4,1.5-0.7,2.3-0.9l7.7-2.6c0.5-0.1,0.8-0.4,0.9-0.8c0.1-0.4,0.2-2,0.2-2.8c-2.3-1.5-4.9-3.4-5.8-4.7c-0.6-0.9-1-2-0.9-3.1 l0-2c-0.7-0.2-1.3-0.7-1.4-1.5c-0.4-1.2-1-3.8-1-3.9c-0.3-0.9-0.2-1.6,0.2-2.2c0.2-0.3,0.7-0.7,1.6-0.8c0-0.2,0-0.3,0-0.5 c-0.3-0.5-0.4-1.1-0.5-1.7c0-6.5,5.8-11.8,12.8-11.8c7.1,0,12.9,5.3,12.9,11.7c0,0.7-0.2,1.3-0.4,1.9c0,0.1,0,0.2,0,0.4 c0.8,0.1,1.5,0.4,1.9,1c0.3,0.4,0.6,1.1,0.2,2.1l0,0c-0.1,0.6-0.7,3-1,3.9c-0.1,0.6-0.6,1.2-1.2,1.4V55c0,0.7-0.2,1.3-0.5,1.9 c-1.8,2.4-3.9,4.4-6.4,6.1c0,0.8,0,1.5,0.2,2.3c0.1,0.3,0.5,0.6,0.9,0.7c0.4,0.1,8,2.7,9.3,3.3l0.9,0.3c3.7,1.2,3.9,6.1,4,12.8 c0,0.7,0,1.4,0.1,2.2c0,0,0,0,0,0v0c0,0.2-0.1,0.3-0.3,0.4C64.3,88.2,58,89.7,51.7,89.7z M30.5,82.1c11.4,7.9,26.5,8.8,38.7,2.2 c0-0.7,0-1.3,0-1.9c-0.2-6.6-0.3-11-3.3-11.9l-1-0.4c-1.2-0.5-9.1-3.2-9.2-3.2c-0.7-0.2-1.2-0.7-1.5-1.4c-0.3-1-0.3-2-0.3-2.9 c0-0.2,0.1-0.3,0.2-0.4c2.4-1.6,4.6-3.5,6.3-5.9c0.2-0.4,0.3-0.9,0.3-1.4V52c0-0.3,0.2-0.5,0.4-0.5c0.4-0.1,0.8-0.4,0.8-0.8 c0.4-1.2,1-3.7,1-3.9c0.2-0.6,0.2-1-0.1-1.3c-0.3-0.4-0.8-0.6-1.6-0.6c-0.1,0-0.3,0-0.4-0.1c-0.1-0.1-0.2-0.2-0.2-0.4 c0-0.7,0-1.1,0.2-1.3c0.2-0.5,0.3-0.9,0.3-1.4c0-5.9-5.3-10.7-11.9-10.7c-6.5,0-11.8,4.8-11.8,10.7c0,0.5,0.2,1,0.4,1.4 c0,0,0,0.1,0,0.2c0,0.4,0.1,0.7,0.1,1.1c0,0.1,0,0.3-0.1,0.4c-0.1,0.1-0.2,0.1-0.4,0.1c-0.4,0-1,0.1-1.3,0.4 c-0.3,0.4-0.1,0.9,0,1.3c0,0.1,0.6,2.7,1,3.9c0.1,0.5,0.5,0.8,1,0.8c0,0,0,0,0,0c0.1,0,0.3,0.1,0.4,0.1c0.1,0.1,0.1,0.2,0.1,0.4 v2.5c0,0.9,0.2,1.8,0.8,2.5c0.7,1,3.1,2.9,5.8,4.6c0.1,0.1,0.2,0.3,0.2,0.4c0,0.7-0.2,2.8-0.3,3.3c-0.3,0.8-0.9,1.4-1.7,1.5 L36,69.5c-0.7,0.2-1.4,0.5-2.1,0.9C30.9,71.9,30.5,78.3,30.5,82.1z M69.7,84.6L69.7,84.6L69.7,84.6L69.7,84.6z"/><path fill="#f1bc19" d="M38 57.5C38 57.5 38 57.5 38 57.5c-2-.2-3.4-2-3.1-3.9.2-1.6 1.4-2.8 3-3.1.2 0 .4.1.5.3 0 .2-.1.4-.3.5-1.2.2-2.2 1.2-2.3 2.4-.1.7.1 1.4.6 2 .5.6 1.1.9 1.8 1 .2 0 .4.2.3.4C38.4 57.3 38.2 57.5 38 57.5zM62 56.7c-.2 0-.4-.2-.4-.4 0-.2.2-.4.4-.4.7 0 1.4-.4 1.9-.9s.7-1.3.7-2c-.1-1.4-1.1-2.4-2.5-2.6-.2 0-.4-.2-.4-.4 0-.2.2-.4.4-.4 1.7.2 3.1 1.6 3.2 3.3.1.9-.3 1.9-.9 2.6C63.8 56.2 63 56.6 62 56.7 62 56.7 62 56.7 62 56.7z"/></svg>