<svg xmlns="http://www.w3.org/2000/svg" viewBox="0 0 100 100"><circle cx="77" cy="13" r="1" fill="#f1bc19"/><circle cx="50" cy="50" r="37" fill="#e6edb7"/><circle cx="83" cy="15" r="4" fill="#f1bc19"/><circle cx="87" cy="24" r="2" fill="#9f8066"/><circle cx="81" cy="76" r="2" fill="#fbcd59"/><circle cx="15" cy="63" r="4" fill="#fbcd59"/><circle cx="25" cy="87" r="2" fill="#9f8066"/><circle cx="18.5" cy="51.5" r="2.5" fill="#fff"/><circle cx="79.5" cy="33.5" r="1.5" fill="#fff"/><path fill="#f6cca4" d="M33.365,73.084c0,0-4.827-11.622-4.827-25.826s16.894-25.826,25.341-24.535 s20.313,19.907,18.101,40.03c-0.402,3.659-3.62,11.622-3.62,11.622H40.706C34.673,70.394,30.55,62.969,30.55,62.969"/><path fill="#472b29" d="M68.36,75.075H40.706c-0.137,0-0.271-0.04-0.386-0.116c-3.651-2.41-6.588-5.993-8.395-8.552 c1.073,3.935,2.064,6.356,2.086,6.408c0.148,0.357-0.021,0.767-0.378,0.915c-0.356,0.147-0.766-0.021-0.915-0.378 c-0.049-0.117-4.881-11.915-4.881-26.095c0-6.508,3.539-13.278,9.709-18.576c5.418-4.651,12.028-7.32,16.438-6.65 c9.001,1.376,20.955,20.201,18.691,40.798c-0.409,3.713-3.534,11.479-3.667,11.809C68.902,74.901,68.646,75.075,68.36,75.075z M40.918,73.675h26.967c0.671-1.706,3.065-7.96,3.399-10.998c2.146-19.514-9.229-37.995-17.51-39.261 c-4.041-0.619-10.19,1.926-15.315,6.328c-5.86,5.031-9.221,11.415-9.221,17.514c0,5.629,0.776,10.874,1.702,15.13 c0.089,0.06,0.166,0.141,0.222,0.241C31.202,62.701,35.196,69.81,40.918,73.675z"/><path fill="#f4989e" d="M47.085,42.849c0,0-3.709-4.946-8.655-3.709c-4.946,1.236-3.709,7.419-3.709,9.892 c0,2.473,2.473,3.709,6.182,2.473S47.085,42.849,47.085,42.849z"/><path fill="#f4989e" d="M59.45,32.957c0,0-8.013,4.147-4.946,8.853c2.473,3.794,5.203,4.69,7.676,4.69 s5.925-0.896,4.688-3.425C65.632,40.545,61.922,32.957,59.45,32.957z"/><path fill="#472b29" d="M54.504,42.112c-0.161,0-0.319-0.078-0.416-0.223c-0.697-1.046-0.932-2.152-0.694-3.289 c0.057-0.271,0.325-0.447,0.591-0.388c0.271,0.056,0.444,0.321,0.388,0.591c-0.183,0.877-0.003,1.705,0.548,2.531 c0.153,0.229,0.091,0.54-0.139,0.693C54.696,42.085,54.6,42.112,54.504,42.112z"/><path fill="#472b29" d="M62.18,47c-2.532,0-4.651-0.932-6.479-2.85c-0.19-0.199-0.183-0.516,0.018-0.707 c0.199-0.189,0.516-0.184,0.707,0.018C58.076,45.193,59.904,46,62.18,46c1.653,0,3.7-0.429,4.288-1.371 c0.228-0.364,0.212-0.801-0.049-1.334c-3.828-7.832-5.833-9.703-6.856-9.831c-0.524,0.29-2.688,1.546-4.074,3.279 c-0.173,0.216-0.486,0.249-0.703,0.078c-0.216-0.173-0.25-0.487-0.078-0.703c1.714-2.142,4.398-3.547,4.513-3.605 c0.07-0.036,0.149-0.056,0.229-0.056c2.469,0,5.501,5.557,7.867,10.397c0.522,1.067,0.288,1.842-0.001,2.305 C66.468,46.517,64.106,47,62.18,47z"/><path fill="#472b29" d="M42.094,67.958c0,0,3.722-4.92,3.726-9.952c0.004-4.707,2.418-12.835,9.669-9.863 c6.105,2.503,10.098,5.976,11.334,8.492c1.236,2.516,0.095,4.947-3.615,4.947S50.888,72.788,42.094,67.958z"/><path fill="#472b29" d="M46.732,69.672c-1.596,0-3.23-0.37-4.879-1.275c-0.127-0.07-0.217-0.192-0.248-0.334 c-0.03-0.142,0.003-0.29,0.091-0.406c0.036-0.048,3.62-4.85,3.624-9.65c0.002-2.713,0.871-7.883,4.115-10.057 c1.736-1.164,3.838-1.254,6.243-0.269c6.749,2.767,10.463,6.435,11.594,8.734c0.688,1.399,0.703,2.809,0.045,3.867 c-0.724,1.16-2.183,1.8-4.108,1.8c-1.056,0-2.768,1.18-4.751,2.546C55.233,66.849,51.134,69.672,46.732,69.672z M42.837,67.776 c5.486,2.616,10.999-1.179,15.054-3.973c2.208-1.521,3.952-2.722,5.318-2.722c1.568,0,2.726-0.472,3.259-1.329 c0.473-0.758,0.438-1.814-0.094-2.896c-1.136-2.313-5.001-5.761-11.074-8.25c-2.079-0.853-3.863-0.792-5.308,0.173 c-2.519,1.688-3.669,5.967-3.672,9.227C46.317,62.281,43.78,66.395,42.837,67.776z"/><path fill="#472b29" d="M47.085,43.349c-0.202,0-0.393-0.124-0.468-0.324C42.84,32.951,30.128,32.835,30,32.835 c-0.276,0-0.5-0.224-0.5-0.5s0.224-0.5,0.5-0.5c0.135,0,13.535,0.124,17.553,10.838c0.098,0.259-0.033,0.547-0.292,0.644 C47.203,43.339,47.144,43.349,47.085,43.349z"/><path fill="#472b29" d="M50.821,38.403c-0.276,0-0.5-0.224-0.5-0.5c0-0.101,0.131-10.128,11.446-14.371 c0.256-0.099,0.546,0.034,0.644,0.292c0.098,0.259-0.033,0.547-0.292,0.644C51.444,28.471,51.321,37.81,51.321,37.903 C51.321,38.18,51.098,38.403,50.821,38.403z"/><g><path fill="#472b29" d="M50.936,37.303c-0.234,0-0.444-0.167-0.49-0.406c-1.301-6.803,1.258-10.273,1.367-10.418 c0.168-0.221,0.479-0.263,0.698-0.097c0.221,0.165,0.265,0.479,0.1,0.699c-0.024,0.032-2.394,3.296-1.183,9.628 c0.052,0.271-0.126,0.533-0.397,0.585C50.999,37.3,50.967,37.303,50.936,37.303z"/></g><g><path fill="#fdfdfd" d="M55.792,53.153c3.542,0,2.624-3.468,2.533-3.781c-0.878-0.439-1.793-0.868-2.791-1.267 c-1.791-0.716-3.284-0.793-4.523-0.434c-0.008,0.005-0.016,0.008-0.024,0.013C50.987,47.683,52.082,53.153,55.792,53.153z"/><path fill="#472b29" d="M55.792,53.652c-4.073,0-5.247-5.632-5.295-5.872c-0.041-0.203,0.049-0.411,0.226-0.521 c0.046-0.033,0.095-0.054,0.149-0.069c1.433-0.417,3.063-0.265,4.848,0.45c0.897,0.359,1.796,0.768,2.829,1.284 c0.125,0.063,0.219,0.175,0.257,0.31c0.099,0.342,0.541,2.11-0.379,3.33C57.882,53.286,56.996,53.652,55.792,53.652z M51.594,48.045c0.35,1.251,1.537,4.607,4.198,4.607c0.873,0,1.491-0.232,1.836-0.691c0.47-0.622,0.406-1.622,0.269-2.244 c-0.922-0.457-1.737-0.824-2.548-1.149C53.963,48.014,52.7,47.84,51.594,48.045z"/><path fill="#fdfdfd" d="M63.159,61.396c0.698,0,1.279-0.111,1.802-0.27c-0.473-1.123-2.149-4.638-4.237-3.594 c-2.473,1.236-2.396,5.95-2.396,5.95s-1.507-3.477-3.98-2.241c-2.473,1.236-2.318,6.337-2.318,6.337s-1.236-4.946-3.709-3.709 c-2.473,1.236-3.818,4.628-3.818,4.628c0.082,0.039,0.17,0.065,0.253,0.101C52.492,70.375,59.824,61.396,63.159,61.396z"/><path fill="#472b29" d="M46.813,69.328c-0.718,0-1.442-0.076-2.17-0.243l-0.177-0.063c-0.06-0.022-0.118-0.045-0.175-0.071 c-0.24-0.111-0.352-0.391-0.254-0.638c0.058-0.146,1.446-3.585,4.06-4.892c0.622-0.31,1.262-0.331,1.846-0.063 c0.755,0.348,1.33,1.128,1.744,1.918c0.247-1.647,0.872-3.699,2.438-4.482c0.727-0.363,1.452-0.418,2.16-0.16 c0.685,0.249,1.236,0.76,1.646,1.267c0.204-1.595,0.806-3.935,2.568-4.816c0.577-0.288,1.171-0.321,1.764-0.103 c1.54,0.569,2.639,2.72,3.157,3.95c0.055,0.131,0.052,0.278-0.009,0.407c-0.06,0.128-0.172,0.225-0.308,0.266 c-0.655,0.198-1.273,0.291-1.946,0.291c-1.054,0-2.764,1.162-4.743,2.509C55.291,66.528,51.174,69.328,46.813,69.328z M45.191,68.189c2.123,0.421,4.235-0.021,6.25-0.859c-0.293-0.949-0.981-2.634-1.916-3.063c-0.315-0.144-0.626-0.13-0.98,0.049 C46.817,65.18,45.653,67.241,45.191,68.189z M55.4,61.476c-0.269,0-0.543,0.07-0.827,0.213c-1.527,0.764-1.964,3.52-2.034,5.143 c1.889-0.926,3.675-2.14,5.29-3.237c-0.171-0.352-0.862-1.649-1.888-2.021C55.763,61.508,55.583,61.476,55.4,61.476z M61.498,57.841c-0.184,0-0.366,0.046-0.55,0.138c-1.567,0.784-2.028,3.45-2.106,4.931c1.744-1.168,3.166-2.014,4.317-2.014 c0.38,0,0.739-0.035,1.102-0.107c-0.445-0.937-1.317-2.489-2.343-2.869C61.776,57.867,61.637,57.841,61.498,57.841z"/><g><path fill="#fdfdfd" d="M50.794,55.213c2.259-1.13,0.284-6.511-0.075-7.435c-2,0.718-3.293,2.606-4.037,4.778 C46.778,52.776,48.396,56.412,50.794,55.213z"/><path fill="#472b29" d="M49.83,55.956c-0.287,0-0.573-0.052-0.857-0.155c-1.647-0.6-2.641-2.798-2.749-3.046 c-0.049-0.114-0.055-0.243-0.014-0.361c0.9-2.631,2.4-4.39,4.34-5.086c0.256-0.09,0.537,0.036,0.635,0.29 c0.609,1.567,2.397,6.781-0.167,8.063C50.623,55.857,50.227,55.956,49.83,55.956z M47.222,52.529 c0.245,0.504,1.022,1.942,2.093,2.332c0.415,0.151,0.826,0.119,1.256-0.096l0,0c1.43-0.715,0.654-4.11-0.138-6.325 C48.722,49.273,47.752,51.059,47.222,52.529z"/></g></g><g><path fill="#472b29" d="M28.212,68.125c-0.192,0-0.376-0.112-0.458-0.301c-1.874-4.302-2.229-16.224-0.037-22.992 c0.085-0.262,0.365-0.405,0.63-0.321c0.263,0.085,0.406,0.367,0.321,0.63c-2.093,6.461-1.768,18.223,0.002,22.285 c0.11,0.253-0.005,0.547-0.259,0.657C28.347,68.111,28.279,68.125,28.212,68.125z"/></g><g><path fill="#472b29" d="M33.524,73.11c-0.186,0-0.364-0.104-0.45-0.282c-2.237-4.633-5.293-14.576-4.543-22.982 c0.024-0.277,0.285-0.475,0.542-0.454c0.275,0.024,0.479,0.268,0.454,0.542c-0.731,8.206,2.259,17.927,4.447,22.459 c0.12,0.249,0.016,0.548-0.232,0.668C33.672,73.095,33.598,73.11,33.524,73.11z"/></g><g><circle cx="37" cy="47" r="2" fill="#1f212b"/></g><g><circle cx="60" cy="37" r="2" fill="#1f212b"/></g><g><path fill="#472b29" d="M38.213,52.489c-1.29,0-2.348-0.374-3.061-1.084c-0.609-0.605-0.932-1.427-0.932-2.374 c0-0.354-0.026-0.788-0.056-1.272c-0.179-2.973-0.479-7.949,4.144-9.104c5.204-1.295,9.017,3.682,9.177,3.895 c0.098,0.131,0.126,0.303,0.074,0.458c-0.021,0.06-0.501,1.49-1.358,3.218c-0.124,0.248-0.425,0.347-0.671,0.226 c-0.247-0.123-0.348-0.424-0.226-0.671c0.619-1.245,1.041-2.351,1.216-2.833c-0.748-0.885-3.962-4.321-7.97-3.321 c-3.816,0.954-3.559,5.238-3.388,8.074c0.03,0.507,0.058,0.961,0.058,1.332c0,0.686,0.214,1.245,0.637,1.665 c0.521,0.52,1.336,0.793,2.355,0.793c0.012,0,0.024,0,0.036,0c0.274,0,0.498,0.222,0.5,0.497c0.002,0.276-0.221,0.501-0.497,0.503 C38.239,52.489,38.226,52.489,38.213,52.489z"/></g><g><path fill="#472b29" d="M40.903,52.004c-0.209,0-0.404-0.133-0.475-0.342c-0.087-0.262,0.055-0.545,0.316-0.633 c1.015-0.338,2.048-1.249,3.072-2.708c0.159-0.227,0.472-0.281,0.696-0.122c0.227,0.158,0.281,0.471,0.122,0.696 c-1.149,1.638-2.352,2.676-3.574,3.083C41.009,51.996,40.956,52.004,40.903,52.004z"/></g><g><path fill="#472b29" d="M41,71.25c-0.055,0-0.109-0.018-0.155-0.054c-1.18-0.932-2.266-1.943-3.229-3.006 c-0.093-0.103-0.085-0.261,0.018-0.354s0.261-0.085,0.354,0.018c0.944,1.043,2.011,2.035,3.169,2.949 c0.108,0.086,0.127,0.243,0.041,0.352C41.146,71.218,41.073,71.25,41,71.25z"/></g><g><path fill="#472b29" d="M36.115,66.194c-0.077,0-0.154-0.036-0.203-0.104c-4.422-6.126-4.165-12.045-4.162-12.104 c0.008-0.138,0.138-0.222,0.263-0.237c0.138,0.008,0.244,0.125,0.237,0.263c-0.003,0.058-0.246,5.81,4.068,11.785 c0.08,0.112,0.055,0.269-0.057,0.35C36.218,66.179,36.166,66.194,36.115,66.194z"/></g></svg>