<svg xmlns="http://www.w3.org/2000/svg" viewBox="0 0 100 100"><path fill="#fff" d="M20.8 55.5A.9.9 0 1 0 20.8 57.3.9.9 0 1 0 20.8 55.5zM79.8 30.8A.7.7 0 1 0 79.8 32.2.7.7 0 1 0 79.8 30.8z"/><path fill="#f1bc19" d="M77.2 11.6A.9.9 0 1 0 77.2 13.4.9.9 0 1 0 77.2 11.6zM21.2 63.199999999999996A.9.9 0 1 0 21.2 65 .9.9 0 1 0 21.2 63.199999999999996z"/><path fill="#e6edb7" d="M50.3 12.200000000000003A37.5 37.5 0 1 0 50.3 87.2A37.5 37.5 0 1 0 50.3 12.200000000000003Z"/><path fill="#f1bc19" d="M82.6 10.6A4 4 0 1 0 82.6 18.6A4 4 0 1 0 82.6 10.6Z"/><path fill="#88ae45" d="M86.6 21.8A1.9 1.9 0 1 0 86.6 25.599999999999998A1.9 1.9 0 1 0 86.6 21.8Z"/><path fill="#fbcd59" d="M77.6 74.19999999999999A1.9 1.9 0 1 0 77.6 78 1.9 1.9 0 1 0 77.6 74.19999999999999zM14.5 59.2A4 4 0 1 0 14.5 67.2 4 4 0 1 0 14.5 59.2z"/><path fill="#88ae45" d="M24.7 85.39999999999999A1.9 1.9 0 1 0 24.7 89.2A1.9 1.9 0 1 0 24.7 85.39999999999999Z"/><path fill="#fff" d="M76.3 28.2A1.8 1.8 0 1 0 76.3 31.8 1.8 1.8 0 1 0 76.3 28.2zM18.2 48.6A2.5 2.5 0 1 0 18.2 53.6 2.5 2.5 0 1 0 18.2 48.6z"/><path fill="#d8ad8f" d="M66.2,67.6C65.5,67,56,63.8,56,63.8c-0.5-0.2-0.9-0.6-1-1.2c-0.1-0.9-0.2-1.8-0.2-2.8 c2.5-1.4,4.6-3.5,6.1-6c0.3-0.5,0.4-1.1,0.5-1.7c0-1,0-2,0-3c0.6-0.1,1.1-0.5,1.2-1.1c0.4-1.3,1-3.8,1-3.9 c0.5-1.6-0.3-2.4-1.8-2.4c0.4-0.3,0.7-0.7,1-1.2h0.1c0.1,0,0.3,0,0.4,0c2,0.7,5.1,0.3,5.9-4.5c-0.7,0.9-1.9,1.4-3,1.3 c0-0.4-0.1-0.8-0.2-1.2c0.6-0.6,1-1.4,1-2.2c0-1.7-1.5-3.1-3.2-3.1c0,0,0,0,0,0l0,0c0.1-0.4,0.2-0.8,0.2-1.2c0-2.2-1.8-4-4-4 c0,0-0.1,0-0.1,0c-0.4,0-0.8,0-1.1,0.1c0,0,0-0.1,0-0.1c-0.2-2.7-2.5-4.8-5.2-4.6c0,0,0,0-0.1,0c-1.5,0-3,0.6-4,1.8 c-1.2-0.7-2.5-1-3.8-1c-3.4,0-6.2,2.2-6.2,4.9c0,0.1,0,0.2,0,0.4c-0.8,0.3-1.4,1-1.7,1.8c-0.3,0.8,0.6,3,0.6,3.1l0,0 c-1-0.1-1.9,0.7-2,1.7c0,0.2,0,0.4,0.1,0.6c0.1,0.5,0.9,7.3,1.3,7.5c-1.5,0-2.3,0.8-1.8,2.4c0,0,0.6,2.6,1,3.9 c0.1,0.7,0.8,1.2,1.5,1.2c0,0.8,0,1.7,0,2.5c0,1,0.3,2,0.9,2.8c1.5,2.2,3.4,4,5.7,5.3c0,0.9-0.1,1.9-0.2,2.8 c-0.1,0.6-0.5,1-1,1.2l-7.8,2.7c-0.8,0.2-1.5,0.5-2.2,0.9c-3.4,2.2-3.6,6.6-3.6,6.9h39.3C69.5,71.7,68.3,69.2,66.2,67.6z"/><path fill="#9f8066" d="M54.8,36.9c0.7,1.4,2.2,2.3,3.9,2.3c0.4,0,0.8-0.1,1.2-0.2c0.6,0.7,1.6,1.2,2.6,1.2 c0.1,0,0.3,0,0.4,0c1.9,0.6,5,1,5.9-3c-0.8,0.6-1.8,0.7-2.7,0.3c0-0.5-0.1-1-0.3-1.5c0.6-0.5,1-1.3,1-2.2c-0.1-1.7-1.5-3-3.2-3 l0,0c0.1-0.4,0.2-0.8,0.2-1.2c-0.1-2.2-1.9-4-4.1-3.9c0,0,0,0,0,0c-0.4,0-0.8,0.1-1.1,0.2c0-0.1,0-0.1,0-0.2 c-0.2-2.7-2.4-4.7-5.1-4.6c-1.5,0-3,0.6-4,1.8c-1.1-0.7-2.5-1-3.8-1c-3.4,0-6.1,2.2-6.1,4.9c0,0.1,0,0.2,0,0.4 c-0.8,0.3-1.4,1-1.7,1.8c0,0,0.5,2.7,0.6,3c0.6,0.8,1.5,1.3,2.4,1.6c1,0.3,2,0.3,3,0c0.8,2.5,3.6,4.4,7.1,4.4 C52.4,37.8,53.7,37.5,54.8,36.9z"/><path fill="#b2876b" d="M66.1,67.7l-0.3-0.1l-0.6-0.2c-1.2-0.5-9.2-3.3-9.2-3.3c-0.5-0.1-1-0.5-1.2-1 c-0.2-1.1-0.3-2.2-0.2-3.3c-1.3,0.8-2.7,1.4-4.2,1.8c-1.9,0.2-5.1-1.6-5.1-1.6s-0.2,2.4-0.3,3c-0.2,0.6-0.7,1-1.3,1.1L36,66.6 c-2.7,0.7-4.8,2.8-5.4,5.6h0c0,0.1,0,0.2,0,0.3c-0.1,0.5-0.2,1.1-0.2,1.7h0.1c-0.1,2.4-0.2,6.3-0.3,7.5c7.5,3.8,13,5.4,23.5,5.4 c4.6,0,12.6-3.1,16.2-5.3C69.4,72.3,70.3,69,66.1,67.7z"/><path fill="#6d3c14" d="M38.7,32.3c-0.2,0-0.5,0.2-0.7,0.2 c-0.6,0.1-1.1,0.6-1.1,1.3l1.1,7.3c0-0.6,0.2-6.2,2-7.8C39.6,33,39.2,32.7,38.7,32.3z" opacity=".34"/><path fill="#472b29" d="M47.9 40.8c-2.4-.6-4.9-.7-7.4-.4-.1 0-.2 0-.2.2 0 .1 0 .2.2.2 0 0 .1 0 .1 0 0 0 5.1.6 6.7 1.1h.1c.1 0 .2 0 .2-.1L48 41c0-.1 0-.1 0-.2C48 40.8 48 40.8 47.9 40.8zM51.9 40.8c2.4-.6 4.9-.7 7.4-.4.1 0 .2.1.2.2 0 .1-.1.2-.2.2 0 0-5.1.6-6.7 1.1h-.1c-.1 0-.2 0-.2-.1L51.8 41c0-.1 0-.1 0-.2C51.8 40.8 51.8 40.8 51.9 40.8zM44.4 43c-.5 0-1 .3-1.2.8.1 0 .1 0 .2 0 .5.1.8.5.7.9 0 .4-.3.7-.7.7-.1 0-.3 0-.4-.1.1.7.7 1.2 1.4 1.3 1-.2 1.6-1.2 1.4-2.2C45.6 43.7 45.1 43.2 44.4 43L44.4 43zM55.3 43c-.4 0-.8.2-1.1.6.1 0 .2-.1.3-.1.5.1.8.5.7.9 0 .4-.3.7-.7.7-.3 0-.5-.1-.6-.4-.2.8.3 1.6 1.1 1.7.8.2 1.6-.3 1.7-1.1 0-.2 0-.4 0-.6C56.9 43.9 56.2 43.1 55.3 43 55.3 43 55.3 43 55.3 43z"/><path fill="#472b29" d="M49.8,52.8c0.5,0,0.9-0.2,1.2-0.6c0.1-0.1,0.1-0.2,0-0.3 c0,0,0,0,0,0c-0.1-0.1-0.2-0.1-0.3,0c0,0,0,0,0,0c-0.5,0.5-1.4,0.5-1.9,0c-0.1-0.1-0.2-0.1-0.3,0c0,0,0,0,0,0 c-0.1,0.1-0.1,0.2,0,0.3c0,0,0,0,0,0C48.9,52.6,49.3,52.8,49.8,52.8z" opacity=".41"/><path fill="#472b29" d="M50.1,61.6c-2,0-5.2-1.8-5.3-1.9c-0.1-0.1-0.2-0.2-0.1-0.3c0.1-0.1,0.2-0.2,0.3-0.1 c0,0,3.5,2,5.3,1.8c1.6-0.3,3.1-1,4.4-1.8c0.1-0.1,0.3,0,0.3,0.1c0.1,0.1,0,0.3-0.1,0.3c-1.4,0.9-3,1.5-4.6,1.9 C50.3,61.6,50.2,61.6,50.1,61.6z"/><path fill="#836f61" d="M66.2,37.3c0-0.5-0.1-1-0.3-1.5c0.6-0.5,1-1.3,1-2.2c-0.1-1.7-1.5-3-3.2-3l0,0 c0.1-0.4,0.2-0.8,0.2-1.2c-0.1-2.2-1.9-3.9-4.1-3.9c-0.4,0-0.8,0.1-1.1,0.1c0,0,0-0.1,0-0.1c-0.2-2.7-2.4-4.7-5.1-4.6 c-1.2,0-2.4,0.4-3.3,1.1c0.4,0.4,0.1-0.1,0.4,0.4c1.7-0.4,3.5-0.2,5,0.6c2.5,1.5,3.4,4.5,2.3,7.2l-0.1,0.1 c0.4,0.1,0.7,0.2,1.1,0.4c1.9,1,2.7,3.4,1.7,5.3c-0.2,0.4-0.4,0.7-0.7,0.9l0,0c1,0.5,1.7,1.6,1.7,2.8c0.3,0.1,0.6,0.1,0.9,0.1 c0.1,0,0.3,0,0.4,0c1.9,0.6,5,1,5.9-3C68,37.6,67,37.7,66.2,37.3z"/><path fill="#472b29" d="M64.9,41c-0.7,0-1.4-0.2-2-0.5h-0.3c0,0,0,0,0,0c-1,0-2-0.4-2.7-1.1c-0.4,0.1-0.7,0.1-1.1,0.1 c-1.7,0-3.2-0.8-4-2.2c-1.2,0.5-2.4,0.8-3.7,0.8c0,0,0,0,0,0c-3.4,0-6.4-1.8-7.3-4.3c-1,0.2-2,0.2-3-0.1c-1.1-0.3-2.1-1-2.8-2 c-0.1-0.1-0.1-0.3,0.1-0.4c0.1-0.1,0.3-0.1,0.4,0.1c0.6,0.9,1.5,1.5,2.5,1.7c1,0.3,2,0.3,2.9,0c0.1,0,0.2,0,0.2,0 c0.1,0,0.1,0.1,0.1,0.2c0.7,2.4,3.6,4.2,6.9,4.2c0,0,0,0,0,0c1.3,0,2.6-0.3,3.7-0.8c0.1-0.1,0.3,0,0.4,0.1 c0.7,1.3,2.1,2.1,3.6,2.1c0.4,0,0.8-0.1,1.1-0.2c0.1,0,0.2,0,0.3,0.1c0.6,0.7,1.5,1.1,2.4,1.1H63c0.1,0,0.1,0,0.2,0 c0.9,0.6,2,0.6,3,0.2c0.2-0.1,0.3,0,0.4,0.2c0.1,0.2,0,0.3-0.2,0.4C65.9,40.9,65.4,41,64.9,41z"/><g opacity=".3"><path fill="#ba8964" d="M42.8 48.8A2 2 0 1 0 42.8 52.8 2 2 0 1 0 42.8 48.8zM57.8 48.8A2 2 0 1 0 57.8 52.8 2 2 0 1 0 57.8 48.8z" opacity=".8"/></g><path fill="#472b29" d="M38.7 49.5c-.2 0-.3-.1-.3-.3l-.7-7.5c0-.2.1-.3.3-.3.2 0 .3.1.3.3l.7 7.5C39 49.3 38.9 49.5 38.7 49.5 38.7 49.5 38.7 49.5 38.7 49.5zM61.2 49.4C61.2 49.4 61.2 49.4 61.2 49.4c-.2 0-.3-.2-.3-.3l.4-7.4c0-.2.1-.3.3-.3.2 0 .3.2.3.3l-.4 7.4C61.5 49.3 61.4 49.4 61.2 49.4z"/><path fill="#6d1b18" d="M45.6,54.4c-0.1,0.2-0.1,0.4-0.1,0.6c0,1.8,2,3.3,4.5,3.3s4.5-1.5,4.5-3.3c0-0.2,0-0.4-0.1-0.6 H45.6z"/><path fill="#ee3e54" d="M52.4,57.8c-0.7-0.6-1.5-0.9-2.4-0.8c-0.9-0.1-1.7,0.2-2.4,0.8C49.1,58.5,50.9,58.5,52.4,57.8 L52.4,57.8z"/><path fill="#fdfcef" d="M46.9,54.4C46.9,54.4,46.9,54.4,46.9,54.4V55c0,0.5,0.7,0.9,1.4,0.9h3.4c0.8,0,1.4-0.4,1.4-0.9 v-0.6c0,0,0,0,0-0.1L46.9,54.4z"/><path fill="#472b29" d="M50,58.5c-2.6,0-4.8-1.6-4.8-3.5c0-0.2,0-0.5,0.1-0.7c0-0.1,0.1-0.2,0.2-0.2h8.8 c0.1,0,0.2,0.1,0.2,0.2c0.1,0.2,0.1,0.5,0.1,0.7C54.8,56.9,52.6,58.5,50,58.5z M45.8,54.6c0,0.1,0,0.2,0,0.4c0,1.7,1.9,3,4.3,3 s4.3-1.4,4.3-3c0-0.1,0-0.2,0-0.4H45.8z"/><path fill="#ee3e54" d="M48.5 42.9c-2.3-2-10.7-.6-10.7-.6.2.5.3.9.4 1.3.6 0 .7 1.1.7 1.5.3 1.8 2 3.2 5.5 3.1s4.3-2 4.5-3.2C49 44.3 48.8 43.6 48.5 42.9zM48.1 45.2c-.2 1.6-1.6 2.6-3.8 2.7h-.7c-3.5 0-4.1-2.3-4.2-3.7 0-.8.7-1.5 1.9-1.6.6 0 1.4 0 2.2 0 2.6 0 3.8.5 4.1.8C48 43.9 48.1 44.5 48.1 45.2zM50.9 45.1c.1 1.2 1 3 4.5 3.2s5.2-1.3 5.5-3.1c.1-.4.1-1.4.7-1.5.1-.4.3-.9.4-1.3 0 0-8.5-1.4-10.7.6C51 43.6 50.8 44.3 50.9 45.1zM52.2 43.4c.3-.4 1.4-.8 4-.8.8 0 1.6 0 2.2 0 1.1.1 1.9.8 1.9 1.6-.1 1.4-.7 3.7-4.2 3.7h-.7c-2.2-.1-3.6-1-3.8-2.7C51.7 44.5 51.8 43.9 52.2 43.4z"/><path fill="#ee3e54" d="M51.4,44.5c-0.5-0.2-1-0.3-1.6-0.3c-0.5,0-1,0.1-1.5,0.3l-0.5-0.9h4 C51.7,43.9,51.6,44.2,51.4,44.5z"/><path fill="#fdfcef" d="M69.2,73.2c-0.4-2.8-1.2-4.4-3.3-5.2l-0.3-0.2L65,67.5c-0.7-0.4-3.8-1.8-6.2-2.8 c-2.8,2.2-6,2.1-9.1,2.1s-6,0-8.9-2.2l-4.9,2.1c-1,0.5-1.5,0.8-2.2,1.2c-3.6,2-3.5,9.6-3.5,9.8c0,0.6-0.1,2.6-0.1,3.6 c3.4,1.9,13.3,6,19.9,5.9c7.8-0.1,13.5-2.8,19.6-5.2C69.4,77,69.2,73.2,69.2,73.2z"/><path fill="#88ae45" d="M69.2,73.2c-0.4-2.8-1.2-4.4-3.3-5.2l-0.3-0.2L65,67.5c-0.7-0.4-3.8-1.8-6.2-2.8 c-1.4,1.1-5.2,22.3-8.9,22.3s-7.6-21.3-9.1-22.4l-4.9,2.1c-1,0.5-1.5,0.8-2.2,1.2c-3.6,2-3.5,9.6-3.5,9.8c0,0.6-0.1,2.6-0.1,3.6 c3.4,1.9,13.3,6,19.9,5.9c7.8-0.1,13.5-2.8,19.6-5.2C69.4,77,69.2,73.2,69.2,73.2z"/><path fill="#f1bc19" d="M43.3,63.5l-2.5,1.1l0.9,1.3c1.5,2.4,4.7,3.2,7.1,1.7c0.5-0.3,1-0.7,1.4-1.2l0,0 C50.1,66.3,43.7,65,43.3,63.5z"/><path fill="#f1bc19" d="M56.1,63.5l2.7,1.2L57.9,66c-1.6,2.4-4.8,3.1-7.3,1.6c-0.5-0.3-0.9-0.7-1.3-1.2l0,0 C49.3,66.3,55.8,65.1,56.1,63.5z"/><path fill="#fbcd59" d="M30.7 48A1.9 1.9 0 1 0 30.7 51.8A1.9 1.9 0 1 0 30.7 48Z"/><path fill="#472b29" d="M30.7 52c-1.2 0-2.1-1-2.1-2.1s1-2.1 2.1-2.1 2.1 1 2.1 2.1S31.8 52 30.7 52zM30.7 48.3c-.9 0-1.6.7-1.6 1.6s.7 1.6 1.6 1.6c.9 0 1.6-.7 1.6-1.6S31.6 48.3 30.7 48.3zM48.1 87.6C48.1 87.6 48.1 87.6 48.1 87.6c-6.5-.4-12.8-2.4-18.3-6-.2-.1-.2-.3-.2-.5.1-1 .2-3.2.3-5.1.1-3 .2-4.1.3-4.4.5-1.9 1.7-3.6 3.4-4.7.7-.5 1.5-.8 2.3-1l7.7-2.7c.4-.1.6-.4.7-.8.1-.8.2-1.6.2-2.5-2.2-1.3-4.1-3.1-5.6-5.2-.6-.9-1-2-.9-3.1l0-2c-.7-.2-1.3-.8-1.5-1.5-.4-1.2-1-3.7-1-3.9-.4-1.1-.1-1.8.2-2.2.2-.3.7-.7 1.5-.8-.1-.7-.3-2-.6-3.7-.2-1.5-.5-3-.6-3.2C36 34.2 35.9 34 36 33.7c.1-1 .8-1.8 1.7-2.1-.5-1.1-.6-2.1-.3-2.9.3-.8.9-1.5 1.7-1.9v-.1c0-3 3-5.4 6.7-5.4 1.3 0 2.6.3 3.7.9 1.1-1.1 2.6-1.7 4.2-1.7 2.8-.1 5.2 1.9 5.6 4.7.2 0 .5-.1.7 0 2.5 0 4.6 2 4.6 4.4 0 .3 0 .5-.1.7.7.1 1.4.4 2 1 .7.7 1.1 1.6 1.1 2.6 0 .9-.3 1.7-.9 2.3.1.2.2.4.2.7.8 0 1.6-.4 2.2-1.1.1-.2.4-.2.6-.1.2.1.3.3.3.5-.5 2.6-1.2 4.2-3.3 4.9-1.1.3-2.3.3-3.4.1-.1.1-.1.2-.2.3.5.2.9.4 1 .7.3.4.5 1.1.2 2.2l0 0c-.1.6-.7 3-1 3.9-.1.6-.6 1.1-1.2 1.4v2.6c0 .7-.2 1.3-.5 1.9-1.5 2.5-3.6 4.6-6.1 6 0 .8.1 1.6.2 2.4.1.4.3.7.7.8 1.6.6 9.6 3.4 10.3 3.9 3.2 2.1 3.3 4.1 3.4 5.6l0 .2.3 8.7c0 .2-.1.4-.2.4-4.8 3-10.4 4.8-16 5.4-1.2 0-2.4 0-3.6.1C49.7 87.6 48.9 87.6 48.1 87.6 48.1 87.6 48.1 87.6 48.1 87.6zM30.6 81c5.3 3.3 11.3 5.3 17.5 5.6.8 0 1.5 0 2.3 0 1.2 0 2.4 0 3.5 0 5.4-.5 10.7-2.3 15.3-5.1L69 72.8c-.1-1.4-.2-3-2.9-4.9-.5-.3-6.5-2.5-10.1-3.7-.7-.2-1.2-.9-1.3-1.6-.1-.9-.2-1.9-.2-2.8 0-.2.1-.4.3-.4 2.5-1.4 4.5-3.4 5.9-5.8.2-.4.4-.9.4-1.4v-3c0-.2.2-.5.4-.5.4-.1.7-.3.8-.7.4-1.2 1-3.7 1-3.8.2-.5.3-1 0-1.4-.2-.3-.7-.4-1.3-.4-.2 0-.4-.1-.5-.3-.1-.2 0-.4.2-.6.4-.3.7-.6.9-1 .1-.2.3-.3.4-.3H63c0 0 .1 0 .1 0 1 .2 2.1.2 3.1 0 1.2-.4 1.9-1.1 2.3-2.7-.7.4-1.5.5-2.2.5-.2 0-.4-.2-.5-.5 0-.4-.1-.7-.3-1-.1-.2-.1-.5.1-.6.5-.5.8-1.1.8-1.8 0-.7-.3-1.3-.8-1.8-.5-.5-1.2-.7-1.9-.7 0 0 0 0 0 0-.2 0-.3-.1-.4-.2-.1-.1-.1-.3-.1-.5.1-.3.2-.7.2-1 0-1.9-1.6-3.5-3.5-3.5-.4 0-.8 0-1.1.1-.2 0-.3 0-.4-.1-.1-.1-.2-.2-.2-.4v-.1c-.1-2.4-2.3-4.2-4.6-4.1-1.4 0-2.8.6-3.7 1.6-.2.2-.4.2-.6.1-1.1-.6-2.3-.9-3.5-.9-3.1 0-5.7 2-5.7 4.4v.4c0 .2-.1.4-.3.5-.7.3-1.2.9-1.4 1.6-.3.6-.1 1.5.5 2.6.1.1.1.4 0 .5-.1.2-.3.3-.5.3-.7 0-1.4.5-1.4 1.2 0 .2 0 .3 0 .5.1.2.3 1.4.6 3.3.3 1.7.7 3.9.7 4.2 0 .1 0 .3-.1.4-.1.1-.2.2-.4.2-.4 0-1 .1-1.3.4-.3.4-.1.9 0 1.3 0 .1.6 2.7 1 3.9.1.5.5.8 1 .9.2 0 .3.1.4.1s.1.2.1.4v2.5c0 .9.2 1.8.8 2.5 1.4 2.1 3.3 3.8 5.5 5 .2.1.3.3.3.4 0 1-.1 1.9-.2 2.9-.1.7-.6 1.4-1.3 1.6l-7.8 2.7c-.8.2-1.4.5-2.1.9-1.4 1-2.5 2.5-3 4.2-.1.3-.2 2.4-.2 4.2C30.8 78 30.7 79.8 30.6 81z"/></svg>