<svg xmlns="http://www.w3.org/2000/svg" viewBox="0 0 100 100"><path fill="#fff" d="M20.8 55.5A.9.9 0 1 0 20.8 57.3.9.9 0 1 0 20.8 55.5zM79.8 30.8A.7.7 0 1 0 79.8 32.2.7.7 0 1 0 79.8 30.8z"/><path fill="#f1bc19" d="M77.2 11.6A.9.9 0 1 0 77.2 13.4.9.9 0 1 0 77.2 11.6zM21.2 63.199999999999996A.9.9 0 1 0 21.2 65 .9.9 0 1 0 21.2 63.199999999999996z"/><path fill="#fce0a2" d="M50.3 12.200000000000003A37.5 37.5 0 1 0 50.3 87.2A37.5 37.5 0 1 0 50.3 12.200000000000003Z"/><path fill="#f1bc19" d="M82.6 10.6A4 4 0 1 0 82.6 18.6A4 4 0 1 0 82.6 10.6Z"/><path fill="#00a5a5" d="M86.6 21.8A1.9 1.9 0 1 0 86.6 25.599999999999998A1.9 1.9 0 1 0 86.6 21.8Z"/><path fill="#fbcd59" d="M77.6 74.19999999999999A1.9 1.9 0 1 0 77.6 78 1.9 1.9 0 1 0 77.6 74.19999999999999zM14.5 59.2A4 4 0 1 0 14.5 67.2 4 4 0 1 0 14.5 59.2z"/><path fill="#00a5a5" d="M24.7 85.39999999999999A1.9 1.9 0 1 0 24.7 89.2A1.9 1.9 0 1 0 24.7 85.39999999999999Z"/><path fill="#fff" d="M76.3 28.2A1.8 1.8 0 1 0 76.3 31.8 1.8 1.8 0 1 0 76.3 28.2zM18.2 48.6A2.5 2.5 0 1 0 18.2 53.6 2.5 2.5 0 1 0 18.2 48.6z"/><path fill="#3a1e0b" d="M63.5,34.9c1,2.9-0.3,6.3,1.5,8.9c0.9,1.1,1.9,2,3,2.9c1,0.9,1.9,2.2,1.7,3.4 c-0.2,1.6-2.1,2.8-2.4,4.4c-0.5,2.5,2.9,4.3,4.2,6.6c1.7,3.1-1.1,7.1-4.9,8c-3.9,0.8-7.9-0.4-10.7-3.2c-2.7-2.5-4-5.9-5-9.2 c-2-7.1-3-15.6-0.8-22.8C51.9,27.6,61.6,29.3,63.5,34.9z"/><path fill="#3a1e0b" d="M32.8,66.4C31.5,66,30.5,65,30,63.8c-0.5-1.7,0.9-3.5,2.2-4.8s2.8-2.8,2.8-4.6 c0-2.5-3-4.3-2.4-6.8c0.5-1.9,2.8-2.7,3.9-4.3c1.5-2.3,0.3-5.2,0.3-7.9c0.2-3.5,2.2-6.6,5.3-8.3c3-1.5,6.5-1.8,9.7-0.8 c2.8,0.9,5.7,3.1,5.5,6.3c-0.3,2.8-3,4.7-5.3,6.3s-4.8,4.2-4.2,6.9c0.4,2,2.3,3.3,2.7,5.2c0.5,2.5-2.1,5.2-4.5,4.6 c2.3,1.2,3.4,3.8,2.6,6.3c-0.8,2.2-2.8,3.7-4.8,5l-3.8,2.6c-1.1,0.8-2.5,1.8-3.8,1.9C36,68.6,35.6,67.7,32.8,66.4z"/><path fill="#f6cca4" d="M61.8,41.9c0.1-1.5-0.3-2.8-0.2-3.6l0,0c-1.3-1.7-2.2-3.6-4-4.8c-2.1-1.3-4.4-2.2-6.8-2.8 c-5.7-1.4-11.3,2.7-13.1,8.1c0,0,0,0.1-0.1,0.1c0.2,1,0.3,2,0.4,2.9c-1.5,0-2.3,0.8-1.8,2.4c0,0,0.6,2.6,1,3.9 c0.1,0.7,0.8,1.2,1.5,1.2c0,0.8,0,1.7,0,2.5c0,1,0.3,2,0.9,2.8c1.5,2.2,9.2,7.2,11.1,7c3,0,9-5.1,10.6-7.7 c0.3-0.5,0.4-1.1,0.5-1.7c0-1,0-2,0-3c0.6-0.1,1.1-0.6,1.3-1.2c0.4-1.3,1-3.9,1-3.9C64.5,42.7,63.3,41.9,61.8,41.9z"/><path fill="#edbc94" d="M66.4,67.5L66,67.3l-0.6-0.2c-1.2-0.5-9.3-3.3-9.3-3.3c-0.5-0.2-1-0.6-1.2-1.1 c-0.2-1-0.3-1.9-0.2-2.9c-1.4,0.6-2.8,1.1-4.2,1.4c-1.9,0.2-5.2-2.3-5.2-2.3s-0.1,3-0.2,3.7c-0.2,0.6-0.7,1-1.3,1.1l-7.7,2.6 c-0.8,0.2-1.5,0.5-2.2,0.9c-1.7,1.1-2.8,2.8-3.3,4.7h0c0,0.2-0.1,0.4-0.1,0.6c-0.1,0.5-0.2,0.9-0.1,1.4c0,0.5-0.1,6-0.1,6.5 c6.8,7,15.3,6.2,25.8,6.2c4.6,0,11.2-2.1,14.1-4.8C69.8,72.5,70.6,68.8,66.4,67.5z"/><g opacity=".3"><path fill="#f4989e" d="M43 48.5A2 2 0 1 0 43 52.5 2 2 0 1 0 43 48.5zM58.1 48.5A2 2 0 1 0 58.1 52.5 2 2 0 1 0 58.1 48.5z" opacity=".8"/></g><path fill="#472b29" d="M38.9 49.7c-.1 0-.2-.1-.2-.2l-.8-7.6c0-.1.1-.2.2-.2.1 0 .2.1.2.2l.8 7.6C39.1 49.6 39.1 49.7 38.9 49.7 38.9 49.7 38.9 49.7 38.9 49.7zM61.5 49.7C61.5 49.7 61.5 49.7 61.5 49.7c-.1 0-.2-.1-.2-.2l.4-8.1c0-.1.1-.2.2-.2 0 0 0 0 0 0 .1 0 .2.1.2.2l-.4 8.1C61.7 49.6 61.6 49.7 61.5 49.7z"/><path fill="#83ccb7" d="M41.4,65c-0.2,8.9,17.4,9.4,16.2-0.7l4.9,1.7L64,85.5c0,0-16.3,4.3-28.5-1.5l0.7-17.3L41.4,65z"/><path fill="#472b29" d="M50.3 52.8c.8 0 1.5-.3 2-.9.1-.1.1-.1 0-.2l0 0c-.1 0-.1 0-.2 0-1 .9-2.6.9-3.6 0-.1 0-.1 0-.2 0-.1.1-.1.1 0 .2C48.9 52.4 49.6 52.8 50.3 52.8zM51.2 59.5C51.3 59.5 51.3 59.4 51.2 59.5c.1-.1 0-.2 0-.2h-1.8c0 0-.1 0-.1.1s0 .1.1.1H51.2z" opacity=".41"/><path fill="#472b29" d="M48.3 39.8c-2.4-.7-4.9-1-7.4-.8-.1 0-.2.1-.2.2 0 .1.1.2.2.2 0 0 5.1.9 6.7 1.4h.1c.1 0 .2 0 .2-.1l.6-.7c0-.1 0-.1 0-.2C48.4 39.9 48.3 39.9 48.3 39.8zM52.3 39.7c2.4-.6 5-.7 7.5-.4.1 0 .2.1.2.2 0 .1-.1.2-.2.2 0 0-5.1.6-6.7 1.1h-.1c-.1 0-.2 0-.2-.1L52.2 40c0-.1 0-.1 0-.2C52.2 39.8 52.2 39.7 52.3 39.7zM44.7 42.8c-.5 0-1 .3-1.2.8.1 0 .1 0 .2 0 .5.1.8.5.7.9 0 .4-.3.7-.7.7-.1 0-.3 0-.4-.1.1.7.7 1.2 1.4 1.3 1-.2 1.6-1.2 1.4-2.2C46 43.5 45.4 43 44.7 42.8L44.7 42.8zM55.7 42.8c-.4 0-.8.3-1.1.6.1 0 .2-.1.3-.1.5.1.8.5.7.9 0 .4-.3.7-.7.7-.3 0-.5-.1-.6-.4.2.8 1 1.3 1.8 1.1.8-.2 1.3-1 1.1-1.8C57 43.2 56.4 42.8 55.7 42.8z"/><path fill="#472b29" d="M51.8,87.3c-0.2,0-0.3,0-0.5,0c-9.4-0.1-17.7-2.4-21.2-6C30,81.3,30,81.2,30,81.1 c0-0.1,0-0.2,0-0.4c-0.3-9.4,1.9-12.5,3.9-13.5c0.7-0.4,1.5-0.7,2.2-0.9l7.7-2.6c0.5-0.1,0.9-0.4,1-0.9c0.1-0.4,0.2-2.1,0.3-3 c-2.2-1.4-5-3.5-5.9-4.7c-0.6-0.9-1-2-0.9-3l0-2.1c-0.7-0.1-1.3-0.7-1.5-1.5c-0.4-1.2-1-3.8-1-3.9c-0.3-1.1-0.1-1.7,0.2-2.1 c0.3-0.5,0.9-0.7,1.6-0.8c0-0.2,0-0.4,0-0.5c-0.3-0.6-0.5-1.2-0.5-1.8c0-6.5,5.7-11.7,12.8-11.7c7,0,12.8,5.2,12.8,11.7 c0,0.7-0.2,1.3-0.5,1.9c0,0,0,0,0,0c0,0.1,0,0.3,0,0.5c0.9,0.1,1.5,0.4,1.9,0.9c0.3,0.4,0.5,1,0.2,2c-0.1,0.6-0.7,2.9-1,3.9 c-0.1,0.7-0.6,1.2-1.3,1.4v2.7c0,0.7-0.2,1.3-0.5,1.9c-1.8,2.4-3.9,4.4-6.4,6c0,0.8,0,1.6,0.2,2.4c0.2,0.4,0.5,0.7,1,0.8 c0.4,0.1,8.1,2.7,9.3,3.3l0.9,0.3c3.7,1.2,3.8,4,4,10.1c0,1.3,0.1,2.8,0.1,4.5c0,0.1,0,0.2-0.1,0.3 C67.3,85.4,60.3,87.3,51.8,87.3z M30.8,80.9c3.3,3.3,11.5,5.6,20.5,5.6c8.5,0.1,15.3-1.7,18.6-4.8c-0.1-1.6-0.1-3.1-0.1-4.4 c-0.1-6.1-0.2-8.4-3.4-9.4c0,0,0,0,0,0l-0.9-0.4c-1.2-0.5-9.2-3.2-9.2-3.2c-0.7-0.2-1.2-0.7-1.5-1.3c-0.3-1-0.3-1.9-0.3-2.9 c0-0.1,0.1-0.2,0.2-0.3c2.5-1.6,4.6-3.6,6.3-5.9c0.2-0.4,0.4-1,0.4-1.5v-3c0-0.2,0.1-0.4,0.3-0.4c0.5,0,0.9-0.4,1-0.9 c0.4-1.2,1-3.8,1-3.9c0.2-0.6,0.2-1-0.1-1.4c-0.3-0.4-1-0.6-1.7-0.6c-0.1,0-0.2,0-0.3-0.1c-0.1-0.1-0.1-0.2-0.1-0.3 c0-0.8,0-1.1,0.1-1.3c0.2-0.5,0.3-1,0.3-1.5c0-6-5.4-10.9-12.1-10.9c-6.6,0-12,4.9-12,10.9c0,0.5,0.2,1,0.5,1.5c0,0,0,0.1,0,0.2 c0,0.3,0,0.7,0,1c0,0.2-0.2,0.4-0.4,0.4c-0.5,0-1.1,0.1-1.4,0.5c-0.3,0.4-0.2,1,0,1.4c0,0.1,0.6,2.7,1,3.9 c0.1,0.6,0.6,0.9,1.1,0.9c0.1,0,0.2,0,0.3,0.1s0.1,0.2,0.1,0.3V52c0,0.9,0.2,1.8,0.8,2.6c0.8,1.1,3.5,3.2,5.8,4.7 c0.1,0.1,0.2,0.2,0.2,0.3c0,0.8-0.2,2.8-0.3,3.3c-0.2,0.8-0.8,1.3-1.6,1.4l-7.7,2.6c-0.7,0.2-1.4,0.5-2.1,0.9 c-1.8,0.9-3.8,3.8-3.5,12.8C30.7,80.8,30.8,80.9,30.8,80.9z"/><path fill="#472b29" d="M50.7 61.4c-1.9 0-5-1.5-5.2-1.6-.1-.1-.2-.2-.1-.3.1-.1.2-.2.3-.1 0 0 3.4 1.7 5.1 1.5 1.5-.3 3-.7 4.3-1.5.1-.1.3 0 .3.1.1.1 0 .3-.1.3-1.4.7-2.9 1.2-4.5 1.5C50.9 61.4 50.8 61.4 50.7 61.4zM48.6 42.3c-2.3-2.7-10.7-.8-10.7-.8.2.6.3 1.2.4 1.8.6.1.7 1.5.7 2 .3 2.5 2 4.3 5.5 4.3 2.4 0 4.4-1.9 4.5-4.3 0 0 0 0 0 0C49.1 44.3 49 43.3 48.6 42.3zM48.2 45.4c0 2-1.7 3.7-3.7 3.7 0 0-.1 0-.1 0h-.7c-3.5 0-4.1-3.1-4.2-5-.1-1.1.8-2.1 1.9-2.2.7-.1 1.5-.1 2.2-.1 2.6 0 3.8.6 4.1 1.1C48.1 43.7 48.3 44.6 48.2 45.4zM51.1 45.3c0 2.4 2.1 4.4 4.5 4.3 0 0 0 0 0 0 3.5.1 5.2-1.8 5.5-4.3.1-.5.1-1.9.7-2 .1-.6.3-1.2.4-1.8 0 0-8.5-1.9-10.7.8C51.1 43.3 51 44.3 51.1 45.3zM52.4 43c.3-.5 1.4-1.1 4.1-1.1.7 0 1.5 0 2.2.1 1.1.1 1.9 1.1 1.9 2.2-.1 1.9-.7 5-4.2 5h-.7c-2 .1-3.7-1.5-3.8-3.6 0 0 0-.1 0-.1C51.8 44.6 52 43.8 52.4 43z"/><path fill="#472b29" d="M51.6 44.5c-.5-.3-1-.5-1.6-.5-.5 0-1 .1-1.5.5-.2-.4-.3-.8-.5-1.3h4C51.9 43.7 51.7 44.1 51.6 44.5zM57 54.7c.1-.1.1-.1 0-.2l0 0c-.1-.1-.1-.1-.2 0-1.9 1.2-4.1 1.9-6.3 1.7-2.2.1-4.5-.5-6.3-1.7 0 0-.1 0-.1 0 0 0-.1 0-.1 0-.1.1-.1.1 0 .2 1.9 1.4 4.2 2.1 6.5 2C52.8 56.8 55.1 56.1 57 54.7z"/><path fill="#512c2b" d="M45.5 64.9c-.4-1.5-1.1-3.1-2.4-3.6-2.3-.9-2.8-3.2-3-5.3-.1 0-1-.9-1.2-1.1C38.3 56 37.7 57 37 58c-.8 1.2-1.1 2.6-.8 4 .6 1.9 2.6 2.8 3.3 4.6.4 1.4.3 2.9-.3 4.2-.6 1.3-.9 2.7-1 4.1 0 1.4 1 3 2.3 3-.6-1.6-.3-3.4.7-4.7.9-1.4 2.1-2.4 3.1-3.7C45.4 68.3 45.8 66.5 45.5 64.9zM53.4 32.6c-.3-1.5-2.3-1.7-3.4-.7s-1.5 2.5-2.1 3.9c-1.1 2.4-3 4.4-5.4 5.7-1.7.8-3.5 1.2-5.2 2-1.8.8-3 2.5-3.3 4.4-.2 2 1.8 4.1 3.5 3.3-3 1.2-6.5-.3-7.8-3.3-1.2-3.1-.9-7.2 1.8-8.8 1.2-.8 2.4-1.1 3.4-2.2 1.2-1.3 1.4-3.4 1.9-5.2 1.4-5.3 7.7-9 12.6-8.4 2.2.2 4.2 1.5 5.4 3.4C55.8 28.7 55.2 31.2 53.4 32.6z"/><path fill="#512c2b" d="M67.3,39.3c0.4-0.4,0,3.3-1.1,4.2c-1.1,0.9-2.7,1-4,0.3c-1.6-1-2.2-3.3-2.5-5.1 c-0.2-1.7-0.9-3.3-2.2-4.5c-1.1-1.1-2.7-2.1-4.1-1.4c-0.5-2.1,1.5-4.3,3.6-4.7c2-0.3,3.9,0.6,5,2.2c1.1,1.6,1.7,3.5,1.7,5.5 c0,0.8,0.1,1.6,0.4,2.3c0.3,0.7,0.4,2.2,1,2.6C66.5,41.4,66.9,39.7,67.3,39.3z"/></svg>