<svg xmlns="http://www.w3.org/2000/svg" viewBox="0 0 100 100"><circle cx="13" cy="29" r="2" fill="#ee3e54"/><circle cx="77" cy="13" r="1" fill="#f1bc19"/><circle cx="50" cy="50" r="37" fill="#fce0a2"/><circle cx="83" cy="15" r="4" fill="#f1bc19"/><circle cx="87" cy="24" r="2" fill="#ee3e54"/><circle cx="81" cy="76" r="2" fill="#fbcd59"/><circle cx="15" cy="63" r="4" fill="#fbcd59"/><circle cx="25" cy="87" r="2" fill="#ee3e54"/><circle cx="18.5" cy="53.5" r="2.5" fill="#fff"/><circle cx="21" cy="67" r="1" fill="#f1bc19"/><circle cx="80" cy="34" r="1" fill="#fff"/><path fill="#c5def0" d="M50.485,76.3c-3.063,0-13.495-4.824-16.272-10.622c-0.371-0.768-0.502-1.704-0.502-2.272 c-0.006-0.454-0.004-0.721-0.002-0.96l0.002-1.564l-0.619-0.432c-0.37-0.246-0.584-0.615-0.862-1.472 c-0.116-0.381-0.636-2.504-1.319-5.396c-0.381-1.166-0.311-2.065,0.194-2.73c0.11-0.149,0.481-0.677,0.775-1.096l0.31-0.455v-6.24 c0-10.062,8.207-18.246,18.296-18.246s18.296,8.185,18.296,18.246v6.25c0,0,0.954,1.353,1.089,1.54 c0.507,0.663,0.562,1.628,0.171,2.809c-0.065,0.298-1.101,4.708-1.294,5.315c-0.213,0.651-0.412,1.177-0.855,1.479l-0.624,0.423 v2.545c0,0.606-0.155,1.539-0.501,2.256C63.988,71.476,53.551,76.3,50.485,76.3z"/><path fill="#472b29" d="M50.485,25.513c9.702,0,17.596,7.871,17.596,17.547v6.026v0.45l0.262,0.366l0.123,0.172 c0.233,0.334,0.699,0.995,0.861,1.22c0.438,0.572,0.269,1.482,0.049,2.145l-0.027,0.087l-0.016,0.078 c-0.071,0.337-1.079,4.615-1.249,5.148c-0.198,0.604-0.35,0.962-0.58,1.119l-0.319,0.215l-0.617,0.416v0.744v0.861v1.313 c0,0.51-0.135,1.338-0.434,1.956C63.439,71,53.119,75.6,50.485,75.6c-2.632,0-12.947-4.6-15.643-10.228 c-0.298-0.617-0.432-1.432-0.432-1.982c-0.005-0.44-0.003-0.703-0.001-0.94l0.002-0.343v-0.861v-0.731l-0.599-0.418l-0.344-0.24 c-0.174-0.116-0.324-0.333-0.564-1.071c-0.115-0.377-0.63-2.484-1.313-5.367l-0.014-0.058l-0.019-0.056 c-0.288-0.878-0.253-1.561,0.115-2.046c0.114-0.154,0.532-0.749,0.85-1.202l0.126-0.187l0.24-0.355v-0.429V43.06 C32.89,33.385,40.783,25.513,50.485,25.513 M50.485,24.113c-10.47,0-18.996,8.501-18.996,18.947v6.026l-0.126,0.187 c-0.297,0.423-0.705,1.004-0.816,1.155c-0.453,0.595-0.868,1.643-0.319,3.314c0.564,2.382,1.187,4.964,1.336,5.452 c0.282,0.868,0.557,1.449,1.128,1.829l0.319,0.222v0.861c0,0.366-0.007,0.638,0,1.298c0,0.646,0.148,1.7,0.571,2.576 C36.52,72.115,47.213,77,50.485,77c3.28,0,13.972-4.885,16.911-11.019c0.423-0.875,0.571-1.93,0.571-2.561 c0-0.674,0-0.947,0-1.313v-0.861l0.319-0.215c0.631-0.43,0.89-1.119,1.128-1.844c0.208-0.653,1.254-5.115,1.291-5.309 c0.594-1.794,0.178-2.855-0.267-3.436c-0.134-0.187-0.594-0.839-0.824-1.169l-0.134-0.187V43.06 C69.481,32.615,60.963,24.113,50.485,24.113L50.485,24.113z"/><path fill="#472b29" d="M48.4,57.7c0.532,0.407,1.315,0.607,2.1,0.593c0.785,0.011,1.564-0.191,2.1-0.593l0.061-0.046 c0.222-0.166,0.536-0.121,0.702,0.1c0.123,0.163,0.13,0.378,0.037,0.545c-0.299,0.535-0.806,0.88-1.312,1.096 c-0.514,0.214-1.053,0.296-1.589,0.311c-0.535-0.02-1.075-0.095-1.587-0.314c-0.505-0.214-1.012-0.56-1.313-1.093 c-0.136-0.241-0.051-0.547,0.19-0.683c0.18-0.102,0.396-0.08,0.551,0.038L48.4,57.7z"/><path fill="#472b29" d="M45,65c1.917-0.172,3.833-0.182,5.75-0.203c1.917,0.023,3.833,0.037,5.75,0.203 c0.276,0.024,0.481,0.267,0.457,0.543C56.935,65.79,56.739,65.979,56.5,66c-1.917,0.166-3.833,0.18-5.75,0.203 C48.833,66.182,46.917,66.172,45,66c-0.276-0.025-0.48-0.269-0.455-0.545C44.567,65.209,44.763,65.021,45,65z"/><path fill="#472b29" d="M37.822,44.533c0.542-0.338,1.137-0.579,1.754-0.762c0.616-0.19,1.262-0.287,1.916-0.319 c0.654-0.017,1.322,0.03,1.969,0.212c0.645,0.174,1.279,0.451,1.802,0.887l-0.494,0.869c-0.53-0.153-1.051-0.267-1.588-0.323 c-0.537-0.049-1.08-0.075-1.629-0.047c-0.55,0.013-1.103,0.081-1.665,0.147c-0.561,0.073-1.123,0.182-1.708,0.27L37.822,44.533z"/><path fill="#472b29" d="M61.821,45.467c-0.584-0.089-1.144-0.197-1.704-0.27c-0.56-0.066-1.112-0.134-1.661-0.147 c-0.548-0.028-1.09-0.002-1.625,0.047c-0.535,0.056-1.056,0.17-1.584,0.323l-0.495-0.869c0.522-0.436,1.155-0.713,1.799-0.887 c0.646-0.182,1.312-0.229,1.965-0.212c0.653,0.032,1.298,0.129,1.912,0.319c0.615,0.184,1.209,0.425,1.75,0.762L61.821,45.467z"/><path fill="#472b29" d="M67.309,54.565c-0.019,0-0.036-0.001-0.054-0.003c-0.275-0.029-0.474-0.275-0.444-0.55 c0.053-0.498,0.117-1.024,0.194-1.581c0.037-0.273,0.298-0.458,0.563-0.427c0.273,0.037,0.465,0.29,0.427,0.563 c-0.075,0.547-0.138,1.062-0.19,1.55C67.777,54.375,67.561,54.565,67.309,54.565z"/><g><path fill="#472b29" d="M67.131,64.171c-0.012,0-0.022,0-0.033-0.001c-0.275-0.018-0.484-0.256-0.467-0.531 c0.063-0.988,0.025-1.816-0.02-2.776c-0.061-1.304-0.129-2.781,0.047-5.057c0.021-0.276,0.281-0.505,0.536-0.46 c0.275,0.021,0.481,0.261,0.46,0.536c-0.17,2.215-0.103,3.659-0.044,4.935c0.044,0.947,0.086,1.843,0.019,2.887 C67.612,63.968,67.392,64.171,67.131,64.171z"/></g><g><path fill="#472b29" d="M33.573,55.946c-0.253,0-0.471-0.192-0.496-0.45c-0.06-0.584-0.137-1.223-0.233-1.928 c-0.038-0.274,0.153-0.526,0.427-0.563c0.268-0.034,0.525,0.152,0.563,0.427c0.099,0.719,0.178,1.369,0.237,1.965 c0.028,0.274-0.172,0.52-0.447,0.547C33.607,55.945,33.591,55.946,33.573,55.946z"/></g><g><path fill="#472b29" d="M33.708,64.171c-0.261,0-0.48-0.203-0.498-0.468c-0.067-1.049-0.03-1.896,0.009-2.792 c0.043-0.987,0.087-2.009,0.011-3.478c-0.015-0.276,0.197-0.512,0.473-0.525c0.284-0.04,0.512,0.197,0.525,0.473 c0.079,1.518,0.032,2.61-0.01,3.574c-0.038,0.868-0.074,1.688-0.01,2.684c0.018,0.275-0.191,0.514-0.467,0.531 C33.73,64.171,33.72,64.171,33.708,64.171z"/></g><g><path fill="#5e2e2e" d="M76,35.008c-3.804,0.261-6.194-4.01-8.676-7.159c-6.051-7.678-16.645-10.062-25.459-5.637 c-2.345,1.178-4.226,2.437-4.769,3.579c-4.457,1.774-6.958,7.195-7.939,12.408c-1.145,6.082,4.357,15.494,4.683,10.256 c0.236-3.78,1.744-9.064,3.269-12.35c0.686-1.477,1.309-3.043,1.757-4.66c0.526,3.931,6.008,7.671,9.444,7.705 c0.366,0.004,0.535-1.353,0.437-3.203c0.898,1.508,2.175,2.773,3.597,3.705c2.235,1.466,4.809,2.2,7.375,2.716 c-0.909-0.356-1.447-1.407-1.614-2.441c-0.087-0.538-0.095-1.083-0.086-1.629c2.242,1.452,4.647,2.524,7.264,2.616 c0.302,0.011,0.606,0.002,0.909-0.015c1.359,2.63,1.312,5.812,1.453,8.065c0.327,5.238,5.004-3.528,3.859-9.61 c-0.008-0.045-0.018-0.09-0.026-0.135C73.194,38.203,74.76,36.772,76,35.008z M39.435,28.646c0.009-0.073,0.017-0.146,0.025-0.22 c0.029,0.009,0.056,0.018,0.085,0.027C39.504,28.517,39.472,28.582,39.435,28.646z"/></g><g><path fill="#472b29" d="M52.5,68.75h-4c-0.138,0-0.25-0.112-0.25-0.25s0.112-0.25,0.25-0.25h4c0.138,0,0.25,0.112,0.25,0.25 S52.638,68.75,52.5,68.75z"/></g><g><path fill="#472b29" d="M47.5,55.75c-0.026,0-0.053-0.004-0.079-0.013c-0.131-0.044-0.202-0.186-0.158-0.316 c0.003-0.009,0.303-0.913,0.568-2.2c0.027-0.135,0.153-0.217,0.296-0.194c0.135,0.028,0.222,0.16,0.194,0.296 c-0.272,1.317-0.571,2.219-0.584,2.257C47.702,55.684,47.604,55.75,47.5,55.75z"/></g><g><path fill="#472b29" d="M48.371,51.737c-0.01,0-0.02-0.001-0.03-0.002c-0.137-0.017-0.234-0.142-0.218-0.278 c0.084-0.69,0.127-1.349,0.127-1.957c0-1.031-0.244-2.056-0.726-3.046c-0.061-0.124-0.009-0.273,0.115-0.334 c0.123-0.061,0.274-0.009,0.334,0.115c0.516,1.059,0.776,2.157,0.776,3.265c0,0.629-0.044,1.308-0.131,2.018 C48.604,51.645,48.496,51.737,48.371,51.737z"/></g><g><path fill="#472b29" d="M39.379,53.121c-0.128,0-0.256-0.049-0.354-0.146c-0.195-0.195-0.195-0.512,0-0.707l4.242-4.242 c0.195-0.195,0.512-0.195,0.707,0s0.195,0.512,0,0.707l-4.242,4.242C39.635,53.072,39.507,53.121,39.379,53.121z"/></g><g><path fill="#472b29" d="M43.621,53.121c-0.128,0-0.256-0.049-0.354-0.146l-4.242-4.242c-0.195-0.195-0.195-0.512,0-0.707 s0.512-0.195,0.707,0l4.242,4.242c0.195,0.195,0.195,0.512,0,0.707C43.877,53.072,43.749,53.121,43.621,53.121z"/></g><g><path fill="#472b29" d="M56.379,53.121c-0.128,0-0.256-0.049-0.354-0.146c-0.195-0.195-0.195-0.512,0-0.707l4.242-4.242 c0.195-0.195,0.512-0.195,0.707,0s0.195,0.512,0,0.707l-4.242,4.242C56.635,53.072,56.507,53.121,56.379,53.121z"/></g><g><path fill="#472b29" d="M60.621,53.121c-0.128,0-0.256-0.049-0.354-0.146l-4.242-4.242c-0.195-0.195-0.195-0.512,0-0.707 s0.512-0.195,0.707,0l4.242,4.242c0.195,0.195,0.195,0.512,0,0.707C60.877,53.072,60.749,53.121,60.621,53.121z"/></g></svg>