<svg xmlns="http://www.w3.org/2000/svg" viewBox="0 0 100 100"><circle cx="77" cy="13" r="1" fill="#f1bc19"/><circle cx="50" cy="50" r="37" fill="#e6edb7"/><circle cx="83" cy="15" r="4" fill="#f1bc19"/><circle cx="87" cy="24" r="2" fill="#9f8066"/><circle cx="81" cy="76" r="2" fill="#fbcd59"/><circle cx="15" cy="64" r="4" fill="#fbcd59"/><circle cx="25" cy="87" r="2" fill="#9f8066"/><circle cx="19.5" cy="43.5" r="2.5" fill="#fff"/><circle cx="79.5" cy="33.5" r="1.5" fill="#fff"/><path fill="#f6cca4" d="M50.485,76.3c-3.063,0-13.495-4.824-16.272-10.622c-0.371-0.768-0.502-1.704-0.502-2.272 c-0.005-0.454-0.003-0.721-0.002-0.961l0.002-1.563l-0.619-0.432c-0.37-0.246-0.584-0.615-0.862-1.471 c-0.116-0.382-0.636-2.505-1.321-5.397c-0.38-1.167-0.309-2.065,0.195-2.729c0.105-0.142,0.439-0.618,0.724-1.022l0.362-0.528 V43.06c0-10.062,8.207-18.246,18.295-18.246s18.295,8.185,18.295,18.246v6.251c0,0,0.954,1.351,1.089,1.539 c0.507,0.663,0.562,1.629,0.171,2.809c-0.065,0.297-1.099,4.705-1.293,5.316c-0.213,0.65-0.414,1.176-0.855,1.478l-0.625,0.422 v2.546c0,0.606-0.155,1.539-0.501,2.256C63.987,71.476,53.551,76.3,50.485,76.3z"/><path fill="#472b29" d="M50.485,25.513c9.702,0,17.596,7.872,17.596,17.547v6.026v0.45l0.262,0.365l0.123,0.172 c0.233,0.334,0.699,0.996,0.861,1.221c0.438,0.572,0.269,1.482,0.049,2.145l-0.027,0.086l-0.016,0.078 c-0.072,0.346-1.072,4.593-1.249,5.148c-0.198,0.604-0.35,0.962-0.581,1.119l-0.319,0.215l-0.617,0.417v0.744v0.861v1.313 c0,0.51-0.135,1.338-0.434,1.957C63.439,71,53.119,75.6,50.485,75.6c-2.632,0-12.947-4.6-15.643-10.228 c-0.298-0.618-0.432-1.433-0.432-1.982c-0.005-0.44-0.003-0.704-0.001-0.94l0.002-0.343v-0.861v-0.73l-0.599-0.417l-0.344-0.24 c-0.175-0.116-0.324-0.333-0.564-1.071c-0.115-0.377-0.63-2.484-1.313-5.368l-0.014-0.058l-0.019-0.057 c-0.288-0.877-0.253-1.56,0.116-2.046c0.114-0.154,0.532-0.749,0.849-1.202l0.126-0.187l0.24-0.355v-0.429V43.06 C32.89,33.385,40.783,25.513,50.485,25.513 M50.485,24.113c-10.47,0-18.996,8.501-18.996,18.947v6.026l-0.126,0.187 c-0.297,0.423-0.705,1.004-0.816,1.155c-0.453,0.595-0.868,1.643-0.319,3.314c0.564,2.382,1.187,4.965,1.336,5.453 c0.282,0.868,0.557,1.449,1.128,1.829l0.319,0.223v0.861c0,0.366-0.007,0.638,0,1.298c0,0.646,0.148,1.7,0.571,2.576 C36.52,72.115,47.213,77,50.485,77c3.28,0,13.972-4.885,16.911-11.019c0.423-0.875,0.571-1.93,0.571-2.562 c0-0.674,0-0.947,0-1.313v-0.861l0.319-0.215c0.631-0.431,0.89-1.119,1.128-1.844c0.208-0.653,1.254-5.115,1.291-5.309 c0.594-1.793,0.178-2.855-0.267-3.437c-0.134-0.187-0.594-0.839-0.824-1.169l-0.134-0.187V43.06 C69.481,32.615,60.963,24.113,50.485,24.113L50.485,24.113z"/><circle cx="43" cy="50" r="2" fill="#472b29"/><g><circle cx="58" cy="50" r="2" fill="#472b29"/></g><g><path fill="#f6cca4" d="M48,58c1,1.333,4,1.333,5,0"/><path fill="#472b29" d="M48.4,57.7c0.532,0.407,1.315,0.606,2.1,0.593c0.785,0.011,1.564-0.191,2.1-0.593l0.061-0.046 c0.222-0.167,0.536-0.122,0.702,0.1c0.123,0.164,0.13,0.378,0.037,0.545c-0.299,0.536-0.806,0.881-1.311,1.096 c-0.514,0.214-1.053,0.296-1.589,0.311c-0.535-0.02-1.075-0.095-1.587-0.314c-0.505-0.214-1.012-0.56-1.313-1.093 c-0.136-0.241-0.051-0.547,0.19-0.683c0.18-0.102,0.396-0.08,0.551,0.038L48.4,57.7z"/></g><g><path fill="#472b29" d="M43,64c1.25-0.077,2.5-0.13,3.75-0.158l3.75-0.045c1.25,0.017,2.5,0.013,3.75,0.048 C55.5,63.872,56.75,63.926,58,64c0.276,0.016,0.487,0.253,0.471,0.529C58.455,64.786,58.25,64.985,58,65 c-1.25,0.074-2.5,0.128-3.75,0.155c-1.25,0.035-2.5,0.031-3.75,0.048l-3.75-0.045C45.5,65.13,44.25,65.077,43,65 c-0.276-0.017-0.486-0.254-0.469-0.531C42.546,64.214,42.751,64.015,43,64z"/></g><g><path fill="#472b29" d="M67.308,54.565c-0.018,0-0.036-0.001-0.054-0.003c-0.274-0.029-0.473-0.276-0.443-0.551 c0.054-0.498,0.118-1.023,0.195-1.58c0.037-0.273,0.288-0.461,0.563-0.427c0.273,0.037,0.465,0.29,0.427,0.563 c-0.075,0.547-0.138,1.063-0.191,1.551C67.776,54.375,67.56,54.565,67.308,54.565z"/></g><g><path fill="#472b29" d="M67.13,64.171c-0.011,0-0.022,0-0.033-0.001c-0.275-0.018-0.484-0.256-0.467-0.531 c0.064-0.989,0.025-1.819-0.019-2.779c-0.06-1.303-0.129-2.779,0.046-5.054c0.021-0.275,0.251-0.504,0.537-0.46 c0.275,0.021,0.481,0.261,0.46,0.536c-0.17,2.213-0.104,3.657-0.044,4.932c0.044,0.948,0.085,1.845,0.018,2.89 C67.611,63.968,67.391,64.171,67.13,64.171z"/></g><g><path fill="#472b29" d="M33.574,55.946c-0.253,0-0.471-0.191-0.497-0.449c-0.06-0.584-0.136-1.224-0.233-1.929 c-0.038-0.273,0.153-0.526,0.427-0.563c0.277-0.044,0.526,0.154,0.563,0.427c0.099,0.719,0.177,1.368,0.238,1.964 c0.028,0.274-0.172,0.52-0.446,0.548C33.608,55.945,33.591,55.946,33.574,55.946z"/></g><g><path fill="#472b29" d="M33.709,64.171c-0.261,0-0.481-0.203-0.499-0.468c-0.068-1.05-0.031-1.897,0.008-2.795 c0.043-0.986,0.087-2.007,0.011-3.475c-0.014-0.276,0.198-0.512,0.474-0.525c0.264-0.052,0.511,0.197,0.525,0.473 c0.079,1.517,0.031,2.608-0.011,3.571c-0.038,0.869-0.074,1.69-0.009,2.687c0.018,0.275-0.191,0.514-0.467,0.531 C33.731,64.171,33.72,64.171,33.709,64.171z"/></g><g><path fill="#5e2e2e" d="M76,35.008c-3.804,0.261-6.194-4.01-8.676-7.159c-6.051-7.678-16.645-10.062-25.459-5.637 c-2.345,1.178-4.226,2.437-4.769,3.579c-4.457,1.774-6.958,7.195-7.939,12.408c-1.145,6.082,4.357,15.494,4.683,10.256 c0.236-3.78,1.744-9.064,3.269-12.35c0.686-1.477,1.309-3.043,1.757-4.66c0.526,3.931,6.008,7.671,9.444,7.705 c0.366,0.004,0.535-1.353,0.437-3.203c0.898,1.508,2.175,2.773,3.597,3.705c2.235,1.466,4.809,2.2,7.375,2.716 c-0.909-0.356-1.447-1.407-1.614-2.441c-0.087-0.538-0.095-1.083-0.086-1.629c2.242,1.452,4.647,2.524,7.264,2.616 c0.302,0.011,0.606,0.002,0.909-0.015c1.359,2.63,1.312,5.812,1.453,8.065c0.327,5.238,5.004-3.528,3.859-9.61 c-0.008-0.045-0.018-0.09-0.026-0.135C73.194,38.203,74.76,36.772,76,35.008z M39.435,28.646c0.009-0.073,0.017-0.146,0.025-0.22 c0.029,0.009,0.056,0.018,0.085,0.027C39.504,28.517,39.472,28.582,39.435,28.646z"/></g><g><path fill="#472b29" d="M52.5,68.75h-4c-0.138,0-0.25-0.112-0.25-0.25s0.112-0.25,0.25-0.25h4c0.138,0,0.25,0.112,0.25,0.25 S52.638,68.75,52.5,68.75z"/></g></svg>