<svg xmlns="http://www.w3.org/2000/svg" viewBox="0 0 100 100"><path fill="#fff" d="M20.8 55.5A.9.9 0 1 0 20.8 57.3.9.9 0 1 0 20.8 55.5zM79.8 30.8A.7.7 0 1 0 79.8 32.2.7.7 0 1 0 79.8 30.8z"/><path fill="#f1bc19" d="M77.2 11.6A.9.9 0 1 0 77.2 13.4.9.9 0 1 0 77.2 11.6zM21.2 63.199999999999996A.9.9 0 1 0 21.2 65 .9.9 0 1 0 21.2 63.199999999999996z"/><path fill="#f9dbd2" d="M50.3 12.200000000000003A37.5 37.5 0 1 0 50.3 87.2A37.5 37.5 0 1 0 50.3 12.200000000000003Z"/><path fill="#f1bc19" d="M82.6 10.6A4 4 0 1 0 82.6 18.6A4 4 0 1 0 82.6 10.6Z"/><path fill="#f8ab97" d="M86.6 21.8A1.9 1.9 0 1 0 86.6 25.599999999999998A1.9 1.9 0 1 0 86.6 21.8Z"/><path fill="#fbcd59" d="M77.6 74.19999999999999A1.9 1.9 0 1 0 77.6 78 1.9 1.9 0 1 0 77.6 74.19999999999999zM14.5 59.2A4 4 0 1 0 14.5 67.2 4 4 0 1 0 14.5 59.2z"/><path fill="#f8ab97" d="M24.7 85.39999999999999A1.9 1.9 0 1 0 24.7 89.2A1.9 1.9 0 1 0 24.7 85.39999999999999Z"/><path fill="#fff" d="M76.3 28.2A1.8 1.8 0 1 0 76.3 31.8 1.8 1.8 0 1 0 76.3 28.2zM18.2 48.6A2.5 2.5 0 1 0 18.2 53.6 2.5 2.5 0 1 0 18.2 48.6z"/><path fill="#472b29" d="M70.8,47.2c-0.2-0.6-0.6-1-1.2-1.3l-0.2-0.1v-0.1c0.2-0.4,0.3-0.8,0.3-1.2v-0.2 c0-0.6-0.2-1.1-0.4-1.6l-0.5-0.6l0.2-0.2c0.5-0.6,0.8-1.3,0.8-2.1v-0.2c0-0.5-0.1-1.1-0.4-1.5l-0.5-0.6c-0.1-0.1-0.2-0.2-0.4-0.3 l0.3-0.2c0.5-0.4,0.7-1.1,0.8-1.7c0-0.3,0-0.7-0.2-1c-0.1-0.3-0.3-0.6-0.5-0.9c-0.2-0.2-0.5-0.4-0.8-0.5 c-0.3-0.2-0.6-0.2-0.9-0.2h-0.3c0.3-0.6,0.5-1.3,0.4-1.9c-0.2-1.7-1.6-3-3.3-3c0-0.1,0-0.2,0-0.3c0.1-2-1.5-3.7-3.5-3.8 c-0.5,0-1,0.1-1.5,0.3c-0.5-1.4-1.8-2.2-3.2-2.2c-0.4,0-0.9,0.1-1.3,0.4l0,0l-0.4-0.5c-0.5-0.5-1.1-0.8-1.8-0.8 c-0.3,0-0.7,0-1,0.2c-0.5,0.2-1,0.5-1.3,1c-0.3-0.5-0.8-0.8-1.3-1c-0.3-0.1-0.7-0.2-1-0.2c-0.7,0-1.3,0.3-1.8,0.8L45.6,22l0,0 c-0.4-0.2-0.8-0.3-1.3-0.4c-1.5-0.1-2.8,0.8-3.3,2.3c-0.5-0.2-1-0.3-1.5-0.3c-2,0.1-3.6,1.8-3.5,3.8c0,0.1,0,0.2,0,0.3 c-1.7,0-3.1,1.3-3.3,3c-0.1,0.7,0.1,1.3,0.4,1.9h-0.3c-0.3,0-0.6,0.1-0.9,0.2c-0.3,0.1-0.6,0.3-0.8,0.5c-0.2,0.2-0.4,0.5-0.5,0.9 c-0.2,0.3-0.2,0.7-0.2,1c0,0.6,0.3,1.3,0.8,1.7l0.3,0.2c-0.1,0.1-0.3,0.2-0.4,0.3l-0.5,0.6c-0.3,0.5-0.4,1-0.5,1.5v0.2 c0,0.8,0.3,1.5,0.8,2.1c0.1,0.1,0.1,0.2,0.2,0.2l-0.5,0.6c-0.3,0.5-0.4,1-0.4,1.6v0.2c0,0.4,0.1,0.8,0.3,1.2c0,0,0,0.1,0,0.1 l-0.1,0.1c-1.1,0.5-1.6,1.8-1.1,3c0,0,0,0,0,0l0.2,0.5c0.3,0.5,0.7,1,1.3,1.2c0.2,0.1,0.5,0.1,0.7,0.1c0,0.2,0.1,0.3,0.2,0.5 c0.1,0.3,0.3,0.5,0.5,0.7c0.2,0.2,0.4,0.3,0.7,0.4c0.2,0.1,0.5,0.2,0.8,0.1h0.2c-0.2,0.4-0.4,0.8-0.4,1.3v0.2 c0,0.3,0.1,0.7,0.2,1c0.1,0.3,0.3,0.6,0.5,0.8c0.2,0.2,0.5,0.4,0.8,0.5c0.3,0.2,0.7,0.2,1,0.2l0.7-0.1l0.3-0.2 c0,0.2,0.1,0.4,0.1,0.7c0.1,0.4,0.2,0.7,0.5,1c0.2,0.3,0.5,0.6,0.9,0.7c0.3,0.2,0.7,0.4,1.1,0.4h0.8c0.2,0,0.4-0.1,0.6-0.2 c0.1,0.2,0.2,0.3,0.3,0.5c0.5,0.5,1.1,0.8,1.8,0.9h0.7c0.3-0.1,0.6-0.2,0.9-0.3c0.6,1.1,1.8,1.7,3.1,1.7c0.8,0,1.7-0.3,2.3-0.8 c0.6,0.6,1.5,0.8,2.3,0.8c1.2,0,2.4-0.6,3.1-1.7c0.3,0.2,0.6,0.3,0.9,0.3H57c0.7-0.1,1.3-0.4,1.8-0.9c0.1-0.1,0.2-0.3,0.3-0.5 c0.2,0.1,0.4,0.1,0.6,0.2h0.8c0.4,0,0.8-0.2,1.1-0.4c0.4-0.2,0.7-0.4,0.9-0.7c0.2-0.3,0.4-0.6,0.5-1c0.1-0.2,0.1-0.4,0.1-0.7 l0.2,0.1l0.7,0.1c0.3,0,0.7-0.1,1-0.2c0.3-0.1,0.6-0.3,0.8-0.5c0.3-0.2,0.4-0.5,0.5-0.8c0.2-0.3,0.3-0.7,0.2-1v-0.2 c0-0.5-0.1-0.9-0.4-1.3h0.2c0.3,0,0.5,0,0.8-0.1c0.3-0.1,0.5-0.2,0.7-0.4c0.2-0.2,0.4-0.4,0.5-0.7c0.1-0.1,0.2-0.3,0.2-0.5 c0.2,0,0.5,0,0.7-0.1c0.6-0.2,1-0.6,1.3-1.2l0.2-0.5C70.9,48.3,71,47.7,70.8,47.2z"/><path fill="#d8ad8f" d="M61.5,41.9c0.1-1.5-0.3-2.8-0.2-3.6l0,0c-1.3-1.7-2.2-3.6-4-4.8c-2.1-1.3-4.4-2.2-6.8-2.8 c-5.7-1.4-11.3,2.7-13.1,8.1l-0.1,0.1c0.2,1,0.3,2,0.4,2.9c-1.5,0-2.3,0.8-1.8,2.4c0,0,0.6,2.6,1,3.9c0.1,0.7,0.8,1.2,1.5,1.2 c0,0.8,0,1.7,0,2.5c0,1,0.3,2,0.9,2.8c1.5,2.2,9.2,7.2,11.1,7c3,0,9-5.1,10.6-7.7c0.3-0.5,0.4-1.1,0.5-1.7c0-1,0-2,0-3 c0.6-0.1,1.1-0.6,1.3-1.2c0.4-1.3,1-3.9,1-3.9C64.2,42.7,63,41.9,61.5,41.9z"/><path fill="#b2876b" d="M66.1,67.5l-0.3-0.1l-0.6-0.2c-1.2-0.5-9.3-3.3-9.3-3.3c-0.6-0.2-1-0.5-1.2-1.1 c-0.2-1-0.3-1.9-0.2-2.9c-1.4,0.6-2.8,1.1-4.2,1.4c-1.9,0.2-5.2-2.3-5.2-2.3s-0.1,3-0.2,3.7c-0.2,0.6-0.7,1-1.3,1.1l-7.7,2.6 c-0.8,0.2-1.5,0.5-2.2,0.9c-1.6,1.1-2.8,2.8-3.3,4.7h0c0,0.2-0.1,0.4-0.1,0.6c-0.1,0.5-0.2,0.9-0.1,1.4c0,0.5-0.1,6-0.1,6.5 c6.8,7,16.3,6.6,26.9,6.6c4.6,0,9.6-2.6,13.1-5.2C69.6,72.5,70.4,68.8,66.1,67.5z"/><g opacity=".3"><path fill="#f4989e" d="M42.7 48.5A2 2 0 1 0 42.7 52.5 2 2 0 1 0 42.7 48.5zM57.8 48.5A2 2 0 1 0 57.8 52.5 2 2 0 1 0 57.8 48.5z" opacity=".8"/></g><path fill="#472b29" d="M38.7 50.1c-.1 0-.2-.1-.2-.2l-.8-8c0-.1.1-.2.2-.2.1 0 .2.1.2.2l.8 8C38.9 50 38.8 50.1 38.7 50.1 38.7 50.1 38.7 50.1 38.7 50.1zM61.2 49.7C61.2 49.7 61.2 49.7 61.2 49.7c-.1 0-.2-.1-.2-.2l.5-8.1c0-.1.1-.2.2-.2 0 0 0 0 0 0 .1 0 .2.1.2.2l-.5 8.1C61.4 49.6 61.3 49.7 61.2 49.7z"/><path fill="#ee8670" d="M41.3,65.3c-0.2,8.8,17.4,9.3,16.2-0.7l4.9,1.7L64,85.5c0,0-16.2,5.6-28.6-1.4L36.1,67L41.3,65.3z"/><path fill="#fbcd59" d="M47.8,87.9c2.2-0.1,3-0.5,4.3-0.3L51.7,73h-3.5L47.8,87.9z"/><path fill="#f1bc19" d="M52.8 71.5L51.7 73.6 48.2 73.6 47.1 71.5 50 69.2z"/><path fill="#e6e7e8" d="M50 69.2L46.3 73l-7.1-7.2 4.8-2.1 1.5 1.3L50 69.2zM50 69.2l3.6 3.8 7.1-7.2L56 63.7l-1.5 1.3L50 69.2z"/><path fill="#472b29" d="M51,59.5C51,59.5,51.1,59.4,51,59.5c0.1-0.1,0-0.2,0-0.2 h-1.8c0,0-0.1,0-0.1,0.1s0,0.1,0.1,0.1l0,0H51z" opacity=".41"/><path fill="#472b29" d="M50.5,88.2c-5.7,0-14.4-1.2-20.8-7.2c-0.1-0.1-0.2-0.3-0.2-0.4c0-0.1,0-0.2,0-0.4 c-0.2-7.3,1.1-11.7,4-13.2c0.7-0.4,1.5-0.7,2.3-0.9l7.7-2.6c0.5-0.1,0.9-0.4,1-0.8c0.1-0.4,0.2-2,0.2-2.9 c-2.3-1.5-4.9-3.4-5.8-4.7c-0.7-0.9-1-2-0.9-3.1l0-2c-0.7-0.2-1.3-0.8-1.5-1.6c-0.4-1.2-1-3.8-1-3.9c-0.4-1.1-0.1-1.8,0.2-2.2 c0.2-0.3,0.7-0.7,1.6-0.8c0-0.1,0-0.3,0-0.4c-0.3-0.6-0.4-1.2-0.5-1.8c0-6.6,5.8-11.9,12.9-11.9c7.1,0,12.9,5.3,12.9,11.8 c0,0.7-0.2,1.3-0.4,1.9c0,0,0,0,0,0c0,0.1,0,0.2,0,0.3c0.8,0.1,1.5,0.4,1.9,1c0.3,0.4,0.6,1.1,0.2,2.1h0c-0.1,0.6-0.7,3-1,3.9 c-0.1,0.6-0.6,1.2-1.2,1.4v2.6c0,0.7-0.2,1.3-0.5,1.9c-1.8,2.4-3.9,4.4-6.4,6c0,0.8,0,1.5,0.2,2.3c0.1,0.3,0.5,0.6,0.9,0.7 c0.4,0.1,8.1,2.7,9.3,3.3l0.9,0.3c3.8,1.2,3.9,4.3,4.1,10.4c0,1.3,0.1,2.8,0.2,4.5c0,0.1,0,0.3-0.1,0.4 c-2.5,2.9-10.1,5.4-17.7,5.8C52.1,88.2,51.3,88.2,50.5,88.2z M30.6,80.4c7,6.5,16.8,7,22.1,6.7c8.2-0.4,14.8-3,16.9-5.3 c-0.1-1.6-0.1-3-0.2-4.3c-0.2-6-0.2-8.5-3.4-9.5c0,0,0,0,0,0L65,67.7c-1.2-0.5-9.1-3.2-9.2-3.2c-0.7-0.2-1.2-0.7-1.5-1.4 c-0.3-1-0.3-2-0.3-2.9c0-0.2,0.1-0.3,0.2-0.4c2.5-1.6,4.6-3.5,6.3-5.9c0.2-0.4,0.3-0.9,0.4-1.4l0-3c0-0.3,0.2-0.5,0.4-0.5 c0.4-0.1,0.8-0.4,0.8-0.8c0.4-1.2,1-3.7,1-3.9c0.2-0.6,0.2-1-0.1-1.3c-0.3-0.4-0.9-0.6-1.6-0.6c-0.1,0-0.3,0-0.4-0.1 c-0.1-0.1-0.2-0.2-0.2-0.4c0-0.8,0-1.2,0.2-1.3c0.2-0.4,0.3-0.9,0.3-1.4c0-6-5.3-10.8-11.9-10.8c-6.6,0-11.9,4.8-11.9,10.8 c0,0.5,0.2,1,0.4,1.5c0,0,0,0.1,0,0.1c0.1,0.4,0.1,0.7,0.1,1.1c0,0.1,0,0.3-0.1,0.4c-0.1,0.1-0.2,0.2-0.4,0.2 c-0.4,0-1,0.1-1.3,0.4c-0.3,0.4-0.2,0.9,0,1.3c0,0.1,0.6,2.7,1,3.9c0.1,0.5,0.5,0.9,1,0.9c0,0,0,0,0,0c0.1,0,0.3,0.1,0.4,0.1 c0.1,0.1,0.1,0.2,0.1,0.4V52c0,0.9,0.2,1.8,0.8,2.5c0.7,1,3.1,2.9,5.8,4.6c0.1,0.1,0.2,0.3,0.2,0.4c0,0.7-0.2,2.8-0.3,3.4 c-0.2,0.8-0.9,1.4-1.7,1.6l-7.7,2.6c-0.7,0.2-1.4,0.5-2.1,0.9c-1.7,0.9-3.7,3.7-3.4,12.2C30.6,80.3,30.6,80.4,30.6,80.4z"/><path fill="#472b29" d="M50.4 61.4c-1.9 0-5-1.7-5.2-1.7-.1-.1-.2-.2-.1-.3.1-.1.2-.2.3-.1 0 0 3.4 1.8 5.1 1.7 1.5-.3 3-.8 4.3-1.6.1-.1.3 0 .3.1.1.1 0 .3-.1.3-1.4.8-2.9 1.4-4.5 1.7C50.6 61.4 50.5 61.4 50.4 61.4zM62.3 34c.3-.3.5-.7.5-1.1 0-.4-.2-.7-.4-1 .3-.3.5-.8.5-1.2-.1-1-.9-1.9-1.9-2-.2-.1-.4-.2-.7-.2.1-.2.1-.4.1-.5-.2-1.2-1.3-2-2.5-1.9-.6 0-1.1.2-1.6.5-.5-1-1.6-1.6-2.8-1.6-1.6 0-2.9 1-2.9 2.3 0 .4.1.7.3 1-.3.1-.6.2-.8.3 0 0 0 0 0-.1 0-.7-.4-1.3-1-1.6 0-.1 0-.2 0-.3 0-1.2-1.3-2.2-2.8-2.2h-.2c-.2 0-.5-.1-.7-.1-.8 0-1.6.2-2.2.7-1.2 0-2.2.9-2.4 2.1-.7 0-1.4.4-1.8 1-.8.3-1.3 1-1.3 1.8-.9.1-1.6.9-1.7 1.8 0 .2 0 .3.1.5-.6.4-1 1-1 1.7 0 .9.6 1.6 1.4 2 0 .1 0 .2 0 .4 0 1.4 1.4 2.5 3.2 2.5.8 0 1.6-.2 2.2-.7.8-.1 1.5-.6 1.8-1.4l0 0c1.2.1 2.3-.7 2.4-1.9l0 0c.7-.1 1.3-.6 1.7-1.2l.3-.1c.6 1.1 1.8 1.7 3 1.6.3 1.1 1.3 1.8 2.4 1.7h.2c0 .1 0 .2 0 .2.2 1.2 1.3 2.1 2.5 1.9.8 0 1.6-.3 2.2-1 .7.5 1.4.7 2.3.7 1.8 0 3.2-1.1 3.2-2.5C63.8 35.2 63.2 34.4 62.3 34zM47.8 39.5c-2.5.1-4.9.7-7.2 1.7-.1 0-.2.1-.1.2 0 .1.1.2.3.1 0 0 5.1-.8 6.7-.8h.1c.1 0 .1-.1.2-.1l.3-.8c0-.1 0-.1 0-.2C48 39.5 47.9 39.5 47.8 39.5zM52.3 39.5c2.5.1 5 .7 7.3 1.6.1 0 .2.1.1.3 0 .1-.1.1-.3.1 0 0-5.1-.8-6.7-.8h-.1c-.1 0-.1-.1-.2-.1l-.4-.8c0-.1 0-.1 0-.2C52.1 39.6 52.2 39.5 52.3 39.5zM44.5 42.2c-.5 0-1 .3-1.2.8.1 0 .1 0 .2 0 .5.1.8.5.7.9 0 .4-.3.7-.7.7-.1 0-.3 0-.4-.1.1.7.7 1.2 1.4 1.3 1-.2 1.6-1.2 1.4-2.2C45.7 42.9 45.2 42.4 44.5 42.2L44.5 42.2zM55.5 42.2c-.4 0-.8.2-1.1.6.1 0 .2-.1.3-.1.5.1.8.5.7.9 0 .4-.3.7-.7.7-.3 0-.5-.1-.7-.4.2.8 1 1.2 1.8 1 .8-.2 1.2-1 1-1.8C56.7 42.6 56.1 42.2 55.5 42.2L55.5 42.2z"/><path fill="#472b29" d="M50.2,52.1c0.5,0,1-0.3,1.3-0.7c0.1-0.1,0.1-0.2,0-0.3 c-0.1-0.1-0.2-0.1-0.3,0c0,0,0,0,0,0c-0.5,0.6-1.3,0.7-1.9,0.2c-0.1-0.1-0.1-0.1-0.2-0.2c-0.1-0.1-0.2-0.1-0.3,0c0,0,0,0,0,0 c-0.1,0.1-0.1,0.2,0,0.3C49.2,51.8,49.7,52.1,50.2,52.1z" opacity=".41"/><path fill="#6d1b18" d="M46.8,54.5c0,0.2-0.1,0.3-0.1,0.5c0,1.4,1.5,2.5,3.4,2.5s3.4-1.1,3.4-2.5c0-0.2,0-0.3-0.1-0.5 H46.8z"/><path fill="#ee3e54" d="M51.9,57.1c-1.1-0.8-2.6-0.8-3.6,0C49.5,57.6,50.8,57.6,51.9,57.1z"/><path fill="#fdfcef" d="M47.7,54.5V55c0,0.4,0.5,0.7,1.1,0.7h2.6c0.6,0,1.1-0.3,1.1-0.7v-0.5H47.7z"/><path fill="#472b29" d="M50.1,57.7c-2,0-3.6-1.2-3.6-2.7c0-0.2,0-0.3,0.1-0.5c0-0.1,0.1-0.1,0.2-0.1h6.8 c0.1,0,0.2,0.1,0.2,0.1c0,0.2,0.1,0.3,0.1,0.5C53.8,56.5,52.1,57.7,50.1,57.7z M46.9,54.7c0,0.1,0,0.2,0,0.3 c0,1.3,1.5,2.3,3.2,2.3c1.8,0,3.2-1,3.2-2.3c0-0.1,0-0.2,0-0.3H46.9z"/><path fill="#fbcd59" d="M51.4,28.1c-2.6-0.6-5.3-0.4-7.8,0.5c-2.5,1.1-4.7,3-6,5.4c1.1-2.7,3-4.9,5.5-6.3 c2.6-1.4,5.6-2,8.5-1.6L51.4,28.1z"/><path fill="#f4bb3b" d="M64.2,27.6h-0.3c-0.7-0.1-1.4-0.1-2.1,0c-0.6,0-1.2,0.1-1.7,0.2l-0.7,0.1c-0.2,0-0.3,0.1-0.5,0.2 c0,0-0.1,0-0.1-0.1l-1-0.6l-1-0.6c0,0-0.1-0.1-0.1-0.1c0-0.2,0-0.4-0.1-0.5c0-0.1-0.2-0.5-0.3-0.7c-0.2-0.5-0.4-1.1-0.7-1.6 c-0.3-0.6-0.6-1.3-1-1.9c-0.1-0.1-0.1-0.2-0.2-0.2c0,0-2,0.1-3.9,3.6c-0.4,0.8-0.6,1.8-0.6,2.7c0,0.4,0,0.6,0.3,0.6 c0.6,0.2,1.2,0.3,1.8,0.3l0.7,0c0.8,0.1,1.7,0.1,2.5,0c0,0.1,2.3,1.4,2.3,1.4c0.4,0.8,0.8,1.5,1.3,2.2c0.1,0.2,0.3,0.4,0.4,0.6 c0.3,0.5,0.7,1,1.1,1.4c0.2,0.3,0.4,0.2,0.7,0c0.8-0.5,1.5-1.1,2-1.9C65.1,29.4,64.2,27.6,64.2,27.6z"/></svg>