<svg xmlns="http://www.w3.org/2000/svg" viewBox="0 0 100 100"><path fill="#fff" d="M20.8 55.5A.9.9 0 1 0 20.8 57.3.9.9 0 1 0 20.8 55.5zM79.8 30.8A.7.7 0 1 0 79.8 32.2.7.7 0 1 0 79.8 30.8z"/><path fill="#f1bc19" d="M77.2 11.6A.9.9 0 1 0 77.2 13.4.9.9 0 1 0 77.2 11.6zM21.2 63.199999999999996A.9.9 0 1 0 21.2 65 .9.9 0 1 0 21.2 63.199999999999996z"/><path fill="#c0e5e4" d="M50.3 12.200000000000003A37.5 37.5 0 1 0 50.3 87.2A37.5 37.5 0 1 0 50.3 12.200000000000003Z"/><path fill="#f1bc19" d="M82.6 10.6A4 4 0 1 0 82.6 18.6A4 4 0 1 0 82.6 10.6Z"/><path fill="#00a5a5" d="M86.6 21.8A1.9 1.9 0 1 0 86.6 25.599999999999998A1.9 1.9 0 1 0 86.6 21.8Z"/><path fill="#fbcd59" d="M77.6 74.19999999999999A1.9 1.9 0 1 0 77.6 78 1.9 1.9 0 1 0 77.6 74.19999999999999zM14.5 59.2A4 4 0 1 0 14.5 67.2 4 4 0 1 0 14.5 59.2z"/><path fill="#00a5a5" d="M24.7 85.39999999999999A1.9 1.9 0 1 0 24.7 89.2A1.9 1.9 0 1 0 24.7 85.39999999999999Z"/><path fill="#fff" d="M76.3 28.2A1.8 1.8 0 1 0 76.3 31.8 1.8 1.8 0 1 0 76.3 28.2zM18.2 48.6A2.5 2.5 0 1 0 18.2 53.6 2.5 2.5 0 1 0 18.2 48.6z"/><path fill="#d8ad8f" d="M61.5,41.9c0.1-1.5-0.3-2.8-0.2-3.6l0,0c-1.3-1.7-2.2-3.6-4-4.8c-2.1-1.3-4.4-2.2-6.8-2.8 c-5.7-1.4-11.3,2.7-13.1,8.1l-0.1,0.1c0.2,1,0.3,2,0.4,2.9c-1.5,0-2.3,0.8-1.8,2.4c0,0,0.6,2.6,1,3.9c0.1,0.7,0.8,1.2,1.5,1.2 c0,0.8,0,1.7,0,2.5c0,1,0.3,2,0.8,2.8c1.5,2.2,9.2,7.2,11.1,7c3,0,9-5.1,10.6-7.7c0.3-0.5,0.4-1.1,0.5-1.7c0-1,0-2,0-3 c0.6-0.1,1.1-0.6,1.3-1.2c0.4-1.3,1-3.9,1-3.9C64.2,42.7,63,41.9,61.5,41.9z"/><path fill="#b2876b" d="M66.1,67.5l-0.3-0.1l-0.6-0.2c-1.2-0.5-9.3-3.3-9.3-3.3c-0.6-0.2-1-0.6-1.2-1.1 c-0.2-1-0.3-1.9-0.2-2.9c-1.4,0.6-2.8,1.1-4.2,1.4c-1.9,0.2-5.2-2.3-5.2-2.3s-0.1,3-0.2,3.7c-0.2,0.6-0.7,1-1.3,1.1l-7.7,2.6 c-0.8,0.2-1.5,0.5-2.2,0.9c-1.6,1.1-2.8,2.8-3.3,4.7l0,0c0,0.1,0,0.3-0.1,0.6c-0.1,0.5-0.2,0.9-0.2,1.4c0,0.5,0,6.1-0.1,6.7 c6.8,7,14,6.5,24.5,6.5c4.6,0,13.1-1.7,15.5-5.3C69.5,72.5,70.3,68.8,66.1,67.5z"/><g opacity=".3"><path fill="#f4989e" d="M42.7 48.5A2 2 0 1 0 42.7 52.5 2 2 0 1 0 42.7 48.5zM57.8 48.5A2 2 0 1 0 57.8 52.5 2 2 0 1 0 57.8 48.5z" opacity=".8"/></g><path fill="#472b29" d="M38.6 50.1c-.1 0-.2-.1-.2-.2l-.8-8c0-.1.1-.2.2-.2.1 0 .2.1.2.2l.8 8C38.9 50 38.8 50.1 38.6 50.1 38.7 50.1 38.7 50.1 38.6 50.1zM61.2 49.7C61.2 49.7 61.2 49.7 61.2 49.7c-.1 0-.2-.1-.2-.2l.5-8.1c0-.1.1-.2.2-.2.1 0 .2.1.2.2l-.5 8.1C61.4 49.6 61.3 49.7 61.2 49.7z"/><path fill="#6d1b18" d="M46.6,54.6c0,0.2-0.1,0.3-0.1,0.5c0,1.4,1.5,2.5,3.5,2.5s3.5-1.1,3.5-2.5c0-0.2,0-0.3-0.1-0.5 H46.6z"/><path fill="#ee3e54" d="M51.8,57.3c-1.1-0.8-2.6-0.8-3.6,0C49.4,57.8,50.7,57.8,51.8,57.3z"/><path fill="#fdfcef" d="M47.6,54.6L47.6,54.6V55c0,0.4,0.5,0.7,1.1,0.7h2.6c0.6,0,1.1-0.3,1.1-0.7v-0.4l0,0H47.6z"/><path fill="#472b29" d="M50,57.8c-2,0-3.7-1.2-3.7-2.7c0-0.2,0-0.4,0.1-0.5c0-0.1,0.1-0.2,0.2-0.2h6.8 c0.1,0,0.2,0.1,0.2,0.2c0,0.2,0.1,0.4,0.1,0.5C53.7,56.6,52,57.8,50,57.8z M46.8,54.8c0,0.1,0,0.2,0,0.3c0,1.3,1.5,2.3,3.3,2.3 c1.8,0,3.2-1,3.2-2.3c0-0.1,0-0.2,0-0.3H46.8z"/><path fill="#472b29" d="M50 52.8c.8 0 1.5-.3 2-.9.1-.1.1-.1 0-.2 0 0 0 0 0 0l0 0c-.1 0-.1 0-.2 0-1 .9-2.6.9-3.6 0 0 0-.1 0-.1 0 0 0-.1 0-.1 0-.1.1-.1.1 0 .2 0 0 0 0 0 0C48.5 52.4 49.2 52.8 50 52.8zM50.9 59.5C51 59.5 51 59.4 50.9 59.5c.1-.1 0-.2 0-.2h-1.8c0 0-.1 0-.1.1s0 .1.1.1l0 0H50.9z" opacity=".41"/><path fill="#512c2b" d="M48 40.7c-2.4-.7-4.9-1-7.4-.8-.1 0-.2.1-.2.2 0 .1.1.2.2.2 2.2.4 4.5.8 6.6 1.4h.1c.1 0 .2 0 .2-.1l.6-.7c0-.1 0-.1 0-.2C48.1 40.8 48 40.7 48 40.7zM52 40.5c2.4-.6 5-.7 7.5-.4.1 0 .2.1.2.2 0 .1-.1.2-.2.2 0 0-5.1.6-6.7 1.1h-.1c-.1 0-.1 0-.2-.1l-.6-.7c0-.1 0-.1 0-.2C51.9 40.6 51.9 40.5 52 40.5z"/><path fill="#472b29" d="M44.4 42.8c-.5 0-1 .3-1.2.8.1 0 .1 0 .2 0 .5.1.8.5.7.9 0 .4-.3.7-.7.7-.1 0-.3 0-.4-.1.1.7.7 1.2 1.4 1.3 1-.2 1.6-1.2 1.4-2.2C45.7 43.5 45.1 43 44.4 42.8L44.4 42.8zM55.4 42.8c-.4 0-.8.3-1.1.6.1 0 .2-.1.3-.1.5.1.8.5.7.9 0 .4-.3.7-.7.7-.3 0-.5-.1-.6-.4.2.8 1 1.3 1.8 1.1.8-.2 1.3-1 1.1-1.8C56.7 43.2 56.1 42.8 55.4 42.8z"/><path fill="#00a5a5" d="M41.3,64.8c1.5,1.2,12.9,1.8,16.1-0.6l4.8,1.6l1.5,19.9c0,0-14.2,3.7-28.4-1.5l0.8-17.9L41.3,64.8 z"/><path fill="#472b29" d="M50.6,87.3c-8.1,0-16.9-1.6-21-6.4c-0.1-0.1-0.1-0.2-0.1-0.4c0-0.1,0-0.2,0-0.4 c-0.2-7.3,1.1-11.7,4-13.2c0.7-0.4,1.5-0.7,2.3-0.9l7.7-2.6c0.5-0.1,0.8-0.4,1-0.8c0.1-0.4,0.2-2.1,0.2-2.9 c-2.3-1.5-4.9-3.4-5.8-4.7c-0.6-0.9-1-2-0.9-3.1l0-2c-0.7-0.2-1.3-0.8-1.5-1.6c-0.4-1.2-1-3.8-1-3.9c-0.4-1.1-0.1-1.8,0.2-2.2 c0.2-0.3,0.7-0.7,1.6-0.8c0-0.1,0-0.3,0-0.4c-0.3-0.6-0.4-1.2-0.5-1.8c0-6.5,5.8-11.8,12.9-11.8c7.1,0,12.9,5.3,12.9,11.8 c0,0.7-0.2,1.3-0.5,1.9c0,0,0,0,0,0c0,0.1,0,0.2,0,0.3c0.8,0.1,1.5,0.5,1.9,1c0.3,0.4,0.6,1.1,0.2,2.1c-0.1,0.6-0.7,3-1,3.9 c-0.1,0.6-0.6,1.2-1.2,1.4v2.6c0,0.7-0.2,1.3-0.5,1.9c-1.8,2.4-3.9,4.4-6.4,6c0,0.8,0,1.5,0.2,2.3c0.1,0.3,0.5,0.6,0.9,0.7 c0.4,0.1,8.1,2.7,9.3,3.3l0.9,0.3c3.8,1.2,3.9,4.3,4.1,10.4c0,1.3,0.1,2.8,0.2,4.5c0,0.1,0,0.2-0.1,0.3c-1.4,2.6-8,4.1-13.7,4.7 C54.9,87.2,52.8,87.3,50.6,87.3z M30.5,80.4c5,5.6,17.2,6.5,26.2,5.6c6.4-0.7,11.7-2.3,12.8-4.1c-0.1-1.6-0.1-3.1-0.2-4.4 c-0.2-6-0.2-8.5-3.4-9.5c0,0,0,0,0,0L65,67.7c-1.2-0.5-9.1-3.2-9.2-3.2c-0.7-0.2-1.2-0.7-1.5-1.4c-0.3-1-0.3-2-0.3-2.9 c0-0.2,0.1-0.3,0.2-0.4c2.5-1.6,4.6-3.5,6.3-5.9c0.2-0.4,0.3-0.9,0.4-1.4l0-3c0-0.3,0.2-0.5,0.4-0.5c0.4-0.1,0.8-0.4,0.8-0.8 c0.4-1.3,1-3.8,1-3.9c0.2-0.6,0.2-1-0.1-1.3c-0.3-0.4-0.9-0.6-1.6-0.6c-0.3,0-0.5-0.2-0.5-0.5c0-0.8,0-1.2,0.2-1.3 c0.2-0.4,0.3-0.9,0.3-1.4c0-5.9-5.3-10.8-11.9-10.8c-6.6,0-11.9,4.8-11.9,10.8c0,0.5,0.2,1,0.4,1.5c0,0.1,0,0.1,0,0.2 c0,0.3,0.1,0.7,0.1,1c0,0.1,0,0.3-0.1,0.4s-0.2,0.2-0.4,0.2c-0.4,0-1,0.1-1.3,0.4c-0.3,0.4-0.2,0.9,0,1.3c0,0.1,0.6,2.7,1,3.9 c0.1,0.5,0.5,0.9,1,0.9c0,0,0,0,0,0c0.1,0,0.3,0.1,0.4,0.1c0.1,0.1,0.1,0.2,0.1,0.4V52c0,0.9,0.2,1.8,0.8,2.5 c0.7,1,3.1,2.9,5.8,4.6c0.2,0.1,0.2,0.3,0.2,0.5l0,0.2c-0.1,1.3-0.2,2.7-0.3,3.1c-0.2,0.8-0.9,1.4-1.7,1.6L36,67.1 c-0.7,0.2-1.4,0.5-2.1,0.9c-1.7,0.9-3.7,3.7-3.4,12.2C30.5,80.3,30.5,80.4,30.5,80.4z"/><path fill="#472b29" d="M50.4,61.4c-1.9,0-5-1.7-5.2-1.7c-0.1-0.1-0.2-0.2-0.1-0.3c0.1-0.1,0.2-0.2,0.3-0.1 c0,0,3.4,1.8,5.1,1.7c1.5-0.3,3-0.8,4.3-1.6c0.1-0.1,0.3,0,0.3,0.1c0.1,0.1,0,0.3-0.1,0.3c-1.4,0.8-2.9,1.4-4.5,1.7 C50.6,61.4,50.5,61.4,50.4,61.4z"/><path fill="#efba43" d="M59,25.8c0-0.2,0-0.5-0.1-0.7c0-0.2,0.1-0.4,0.1-0.6c0-1.3-0.9-2.5-2.2-2.8c-0.2-1.7-1.7-3-3.4-3 c-1-1.9-3.3-2.7-5.2-1.7c-0.6,0.3-1.2,0.8-1.5,1.4c-0.3-0.1-0.5-0.1-0.8-0.1c-1.7-0.1-3.1,1.2-3.2,2.8c0,0,0,0,0,0.1v0.2 c-1.5,0.4-2.5,1.7-2.5,3.2c0,0.8,0.3,1.5,0.8,2.1c-0.4,0.5-0.6,1.1-0.6,1.7c0.1,1.6,1.5,2.9,3.2,2.8c0.4,0,0.9-0.1,1.3-0.2 c0.1,1.4,1.3,2.4,2.7,2.4c0.3,0,0.6,0,0.8-0.1c0.8,0.9,1.9,1.3,3,1.3c1.8,0.1,3.4-1.2,3.7-2.9c1.2-0.4,2.1-1.5,2.3-2.8 C58.3,28.1,59,27,59,25.8z"/><path fill="#472b29" d="M51.4,34.8c-0.1,0-0.1,0-0.2,0c-1.2,0-2.3-0.4-3.1-1.3c-0.2,0-0.5,0.1-0.7,0.1 c-1.4,0.1-2.7-0.9-3.1-2.2c-0.3,0.1-0.6,0.1-0.9,0.1c-1.9,0.1-3.5-1.3-3.7-3.2c0-0.6,0.2-1.2,0.5-1.7c-0.4-0.6-0.7-1.3-0.7-2.1 c0.1-1.6,1.1-3,2.6-3.5c0.2-1.9,1.9-3.3,3.7-3.2c0.2,0,0.3,0,0.5,0c0.4-0.5,0.9-1,1.5-1.3c1-0.5,2.2-0.6,3.3-0.3 c1,0.3,1.9,1,2.4,1.9c1.7,0.1,3.2,1.4,3.6,3.1c1.3,0.5,2.2,1.8,2.3,3.2c0,0.2,0,0.4-0.1,0.7c0,0.2,0.1,0.5,0.1,0.7v0 c0,1.3-0.7,2.5-1.8,3.1c-0.2,1.3-1.1,2.3-2.3,2.8C54.9,33.6,53.3,34.8,51.4,34.8z M51.3,33.8c1.6,0.1,2.9-1,3.2-2.5l0.1-0.3 l0.3-0.1c1-0.3,1.8-1.3,1.9-2.3l0-0.3l0.2-0.1c0.9-0.5,1.5-1.4,1.5-2.4c0-0.2,0-0.4-0.1-0.6l0-0.1l0-0.1c0-0.2,0.1-0.4,0.1-0.5 c0-1.1-0.8-2.1-1.8-2.4L56.3,22l0-0.3c-0.1-1.5-1.4-2.6-2.9-2.6l-0.3,0l-0.1-0.3c-0.4-0.8-1.1-1.4-2-1.7 c-0.9-0.3-1.8-0.2-2.6,0.2c-0.5,0.3-1,0.7-1.3,1.2l-0.2,0.3l-0.3-0.1c-0.2-0.1-0.4-0.1-0.7-0.1c-1.4-0.1-2.6,1-2.7,2.3l0,0.6 l-0.4,0.1c-1.2,0.3-2.1,1.4-2.2,2.7c0,0.6,0.2,1.2,0.7,1.7l0.3,0.3l-0.3,0.3c-0.3,0.4-0.5,0.9-0.5,1.4c0.1,1.3,1.3,2.3,2.6,2.3 c0.4,0,0.8-0.1,1.1-0.2l0.6-0.3l0.1,0.7c0.1,1.1,1,2,2.2,1.9c0.2,0,0.5,0,0.7-0.1l0.3-0.1l0.2,0.2 C49.3,33.4,50.3,33.8,51.3,33.8z"/><path fill="#fbcd59" d="M49.8,24.9c-11.5,0-15.5,9.7-12.1,19.3c0,0.3,0.3,0.5,0.5,0.5s0.5-0.3,0.5-0.5 c0.5-5.4,3-10,11.2-7.7c8.1-2.3,10.7,2.3,11.2,7.7c0,0.3,0.2,0.5,0.5,0.5s0.5-0.2,0.5-0.5C65.3,34.6,61.2,24.9,49.8,24.9z"/><path fill="#472b29" d="M61.5,45.2c0,0-0.1,0-0.1,0c-0.3,0-0.5-0.2-0.7-0.4c-0.2-0.2-0.2-0.5-0.2-0.7 c-0.3-3.2-1.3-5.5-3-6.7c-1.7-1.2-4.3-1.3-7.5-0.4l-0.1,0l-0.1,0c-3.2-0.9-5.7-0.8-7.5,0.4c-1.7,1.2-2.8,3.5-3,6.8 c0,0.2-0.1,0.4-0.2,0.6c-0.2,0.2-0.4,0.3-0.7,0.4c-0.5,0.1-1-0.3-1.1-0.8c-1.9-5.4-1.5-10.9,1.2-14.7c2.4-3.4,6.4-5.3,11.4-5.3 c5,0,9,1.8,11.4,5.2c2.7,3.8,3.2,9.3,1.3,14.7c0,0.2-0.2,0.5-0.4,0.6C61.9,45.1,61.7,45.2,61.5,45.2z M49.8,25.4 c-4.7,0-8.4,1.7-10.6,4.8c-2.5,3.5-2.9,8.7-1,13.8l0,0.1c0.3-3.7,1.5-6.3,3.5-7.6c2-1.4,4.7-1.6,8.2-0.6c3.5-1,6.2-0.8,8.2,0.6 c2,1.4,3.2,3.9,3.5,7.6c1.8-5.2,1.4-10.3-1.1-13.9C58.1,27.1,54.4,25.4,49.8,25.4z"/><path fill="#472b29" d="M48.3 43c-2.3-2.7-10.9-.8-10.9-.8.2.6.3 1.2.4 1.8.6.1.7 1.5.7 2 .3 2.5 2 4.3 5.6 4.3 2.4.1 4.5-1.9 4.6-4.3 0 0 0 0 0 0C48.8 44.9 48.6 43.9 48.3 43zM47.9 46.1c0 2-1.7 3.7-3.8 3.6 0 0-.1 0-.1 0-.2 0-.4 0-.7 0-3.6 0-4.2-3.1-4.2-5-.1-1.1.8-2.1 1.9-2.2.7-.1 1.4-.1 2.2-.1 2.7 0 3.8.6 4.1 1.1C47.8 44.4 47.9 45.2 47.9 46.1L47.9 46.1zM50.8 45.9c.1 2.5 2.1 4.4 4.5 4.3 0 0 0 0 0 0 3.6.1 5.3-1.8 5.6-4.3.1-.5.1-1.9.7-2 .1-.6.3-1.2.4-1.8 0 0-8.6-1.9-10.9.8C50.8 43.9 50.7 44.9 50.8 45.9zM52.1 43.6c.3-.5 1.5-1.1 4.1-1.1.8 0 1.6 0 2.2.1 1.1.1 1.9 1.1 1.9 2.2-.1 1.9-.7 5-4.2 5-.2 0-.4 0-.7 0-2 .1-3.8-1.5-3.8-3.5 0 0 0-.1 0-.1C51.5 45.2 51.7 44.4 52.1 43.6z"/><path fill="#472b29" d="M51.3,45.1c-0.5-0.3-1-0.5-1.6-0.5c-0.5,0-1.1,0.1-1.5,0.5c-0.2-0.4-0.3-0.8-0.5-1.3h4 C51.6,44.3,51.4,44.7,51.3,45.1z"/><g><path fill="#00a5a5" d="M57,67.2c-2.3,0.5-4.6,0.8-7,0.7c-2.4,0.1-4.7-0.2-7-0.7c-0.9-0.1-1.7-0.9-1.6-1.8l0,0 c-0.1-0.9,0.7-1.7,1.6-1.8c0,0,4.4,0.5,6.8,0.5s7.2-0.5,7.2-0.5c0.9,0.1,1.7,0.9,1.6,1.8l0,0C58.7,66.3,57.9,67.1,57,67.2z"/><path fill="#472b29" d="M50.7,68.2c-0.2,0-0.5,0-0.7,0c-2.4,0.1-4.7-0.2-7.1-0.7c-1.1-0.1-1.9-1-1.9-2.2 c-0.1-1.1,0.8-2.1,1.9-2.1c0.1,0,4.4,0.5,6.9,0.5c2.4,0,7.1-0.5,7.1-0.5c1.2,0.1,2,1.1,2,2.2c0.1,1.1-0.8,2-1.9,2.1 C55,68,52.8,68.2,50.7,68.2z M50,67.5c2.3,0.1,4.7-0.2,6.9-0.7l0.1,0c0.7,0,1.3-0.7,1.3-1.4c0-0.8-0.5-1.4-1.3-1.5 c-0.1,0-4.7,0.5-7.1,0.5c-2.5,0-6.7-0.5-6.9-0.5c-0.7,0.1-1.2,0.7-1.2,1.4c0,0.8,0.5,1.4,1.3,1.5C45.3,67.3,47.7,67.6,50,67.5z"/></g></svg>