<svg xmlns="http://www.w3.org/2000/svg" viewBox="0 0 100 100"><path fill="#fff" d="M20.9 56.1A.9.9 0 1 0 20.9 57.9.9.9 0 1 0 20.9 56.1zM80 31.400000000000002A.7.7 0 1 0 80 32.800000000000004.7.7 0 1 0 80 31.400000000000002z"/><path fill="#f1bc19" d="M77.3 12.2A.9.9 0 1 0 77.3 14 .9.9 0 1 0 77.3 12.2zM21.4 63.699999999999996A.9.9 0 1 0 21.4 65.5.9.9 0 1 0 21.4 63.699999999999996z"/><path fill="#c0e5e4" d="M50.2 12.799999999999997A37.5 37.5 0 1 0 50.2 87.8A37.5 37.5 0 1 0 50.2 12.799999999999997Z"/><path fill="#f1bc19" d="M82.8 11.2A4 4 0 1 0 82.8 19.2A4 4 0 1 0 82.8 11.2Z"/><path fill="#00a5a5" d="M86.8 22.400000000000002A1.9 1.9 0 1 0 86.8 26.2A1.9 1.9 0 1 0 86.8 22.400000000000002Z"/><path fill="#fbcd59" d="M77.8 74.8A1.9 1.9 0 1 0 77.8 78.60000000000001 1.9 1.9 0 1 0 77.8 74.8zM14.6 59.8A4 4 0 1 0 14.6 67.8 4 4 0 1 0 14.6 59.8z"/><path fill="#00a5a5" d="M24.9 86A1.9 1.9 0 1 0 24.9 89.80000000000001A1.9 1.9 0 1 0 24.9 86Z"/><path fill="#fff" d="M76.4 28.8A1.8 1.8 0 1 0 76.4 32.4 1.8 1.8 0 1 0 76.4 28.8zM18.4 49.1A2.5 2.5 0 1 0 18.4 54.1 2.5 2.5 0 1 0 18.4 49.1z"/><path fill="#512c2b" d="M57.1 45c1.4 2.4 5.5 1 4.9 3.6s-2 5.4-.4 7.7c-.5.2-1 .3-1.5.3-.3 1-.2 2.1.3 2.9-1 .4-1.8-.1-2.7-.2-1 2-2.9 3.4-5.2 3.5C50.4 54.8 49.9 50.5 57.1 45zM40.3 44.9c-1.4 2.4-5.5 1-4.9 3.6s2 5.4.4 7.7c.5.2 1 .3 1.5.3.4 1 .2 2.1-.3 2.9 1 .4 1.8-.1 2.7-.2 1 2 2.9 3.4 5.2 3.5C47.1 54.7 47.6 50.4 40.3 44.9z"/><path fill="#895f3f" d="M68.7,71.5c-0.4-2.2-1.3-3.4-3.3-4c-0.1,0-0.2-0.1-0.3-0.1l-0.6-0.2c-1.3-0.5-8.7-3.3-8.7-3.3 c-0.6-0.1-1-0.5-1.2-1.1c-0.2-0.9-0.3-1.9-0.2-2.9c-1.6,0.6-3.3,1-5,1.4c-1.9,0.2-6-2.3-6-2.3s-0.1,3-0.2,3.7 c-0.2,0.6-0.7,1-1.3,1.1l-7.1,2.6c-0.8,0.2-1.5,0.5-2.2,0.9c-1.5,1-2.6,2.4-3.2,4.2c0,0-0.5,3.3-0.5,3.4c0,0.5-0.4,5.7-0.5,6.2 c7.8,5.3,14.3,7.1,25,6.6c4.9-0.2,12.5-3,16.3-4.9C69.4,78.7,68.7,71.5,68.7,71.5z"/><path fill="#fdfcef" d="M65.2,67.9l-0.3-0.1l-0.6-0.2c-0.8-0.3-3.9-1.5-6.2-2.3H58c-2.5,1.3-6.1,3.2-9.4,3.2 s-6.6-1.8-9.4-3.3l-0.3,0.1l-4.4,1.6c-0.8,0.2-1.5,0.5-2.2,0.9c-1.5,1-2.6,2.4-3.2,4.2c0,0-0.5,3.3-0.5,3.4c0,0.5-0.1,5.4-0.1,6 c7.8,5.3,14,6.7,24.7,6.3c4.9-0.2,12.1-2.6,15.9-4.5c-0.2-4.2-0.6-11.2-0.6-11.2C68.1,69.8,67.3,68.5,65.2,67.9z"/><path fill="#c0e5e4" d="M29.6 69.8c.4-1 3.2-2.9 4.3-3.3l1.5-.5 0 0 2.6-1c1.5 3.9 8.3 18.7 10.1 22.5-3.2.1-6.4-.3-9.5-1.1-3.6-1.4-7-3.2-10.2-5.3C28.5 80.3 28.3 73 29.6 69.8zM68.2 69.1c-.4-1-1.2-1.1-2.2-1.4l-1.4-.6 0 0-4.8-1.8C58.3 69.2 51.7 84 50 87.7c3.7.2 7.4-.3 11-1.3 6.2-1.8 8.7-3.4 8.6-3.5C69.5 82.1 69.5 72.3 68.2 69.1z"/><path fill="#5fc2c4" d="M59.8,65.1l3.1,1.1L50.3,87.7l-3.2-0.2L59.8,65.1z"/><path fill="#77cbd2" d="M39,64.9l-2.8,1.2c0,0,8.5,18.5,10.3,21.7h2.8L39,64.9z"/><path fill="#85cfcc" d="M35.5 85.4c-.2 0-.4-.2-.4-.3v-2.7c0-.2.2-.3.4-.3s.4.2.4.3v2.7C35.9 85.3 35.7 85.4 35.5 85.4zM61.8 85.9c-.2 0-.3-.2-.3-.3v-3.2c0-.2.2-.3.3-.3s.3.2.3.3v3.2C62.2 85.8 62 85.9 61.8 85.9z"/><path fill="#a3754f" d="M61,45h-0.4c-1,0-1.2,0.3-1.2-0.3c0.1-1.1-0.1-5.4-0.1-5.6c0-4.5-4.7-8.1-10.5-8.3h-0.2 c-5.8,0.2-10.5,3.8-10.5,8.3c0,0.2-0.2,4.5-0.1,5.6c0,0.6-0.2,0.2-1.2,0.3h-0.3c-0.9,0.1-1.7,0.7-2.1,1.6c0.2,1.8,0.7,3.5,1.4,5.2 c0.4,0.8,1.1,0.9,1.8,1.4c0.3,0.2,0.5,0.6,0.6,1c0.5,1.6,1.4,3,2.7,4.1c0.6,0.6,4.5,4.7,7.9,4.5s7.3-4,7.9-4.5 c1.3-1.1,2.2-2.5,2.7-4.1c0.1-0.4,0.3-0.8,0.6-1c0.7-0.5,1.4-0.6,1.8-1.4c0.7-1.6,1.2-3.4,1.4-5.2C63.1,46,62.1,45,61,45z"/><path fill="#472b29" d="M48.6,63.1c-2.1,0-4.7-1.5-7.6-4.4l-0.2-0.2c-1.3-1.1-2.3-2.6-2.8-4.2c-0.1-0.4-0.2-0.7-0.5-0.9 c-0.2-0.2-0.4-0.3-0.6-0.4c-0.5-0.3-0.9-0.5-1.2-1.1c-0.7-1.7-1.2-3.5-1.4-5.3l0-0.1l0-0.1c0.4-1,1.3-1.6,2.3-1.7l0.4,0 c0.4,0,0.6,0,0.8,0.1c0,0,0.1,0,0.1,0c0,0,0-0.1,0-0.1c-0.1-0.9,0-3.8,0.1-5.1c0-0.3,0-0.5,0-0.5c0-4.6,4.7-8.3,10.7-8.5h0.2 c6,0.2,10.7,4,10.7,8.5c0,0,0,0.2,0,0.5c0,1.3,0.1,4.2,0.1,5.1c0,0,0,0.1,0,0.1c0,0,0.1,0,0.1,0c0.2,0,0.5-0.1,0.8-0.1H61 c1.2,0,2.3,1.1,2.4,1.8c-0.2,1.9-0.7,3.6-1.4,5.3c-0.3,0.6-0.8,0.9-1.2,1.1c-0.2,0.1-0.4,0.2-0.6,0.4c-0.3,0.2-0.4,0.5-0.5,0.8 c-0.5,1.7-1.5,3.1-2.8,4.3l-0.1,0.1c-3.8,3.5-6.4,4.4-7.9,4.5C48.8,63.1,48.7,63.1,48.6,63.1z M34.8,46.6c0.2,1.7,0.7,3.4,1.4,5 c0.3,0.5,0.6,0.6,1,0.9c0.2,0.1,0.5,0.3,0.7,0.4c0.4,0.3,0.6,0.7,0.7,1.2c0.5,1.5,1.4,2.9,2.6,4l0.2,0.2c3.7,3.7,6.1,4.4,7.5,4.3 c1.4-0.1,3.8-0.9,7.6-4.3l0.1-0.1c1.2-1.1,2.1-2.4,2.6-4c0.1-0.4,0.3-0.8,0.7-1.1c0.2-0.2,0.5-0.3,0.7-0.4c0.4-0.2,0.8-0.4,1-0.9 c0.7-1.6,1.2-3.3,1.4-5.1c0-0.3-0.9-1.3-1.9-1.3h-0.4c-0.3,0-0.6,0-0.7,0.1c-0.2,0-0.4,0.1-0.6-0.1c-0.1-0.1-0.1-0.3-0.1-0.5 c0.1-0.8,0-3.9-0.1-5c0-0.3,0-0.5,0-0.5c0-4.3-4.5-7.9-10.2-8h-0.2c-5.7,0.2-10.2,3.7-10.2,8c0,0,0,0.2,0,0.5c0,1.1-0.1,4.2-0.1,5 c0,0.2,0,0.4-0.2,0.5c-0.2,0.1-0.3,0.1-0.5,0.1c-0.2,0-0.4-0.1-0.7-0.1h-0.4C35.8,45.3,35.1,45.9,34.8,46.6z"/><path fill="#512c2b" d="M48.9 52c.7 0 1.3-.3 1.8-.8 0 0 0-.1 0-.2 0 0 0 0 0 0l0 0c0 0-.1 0-.2 0 0 0 0 0 0 0-.9.8-2.3.8-3.2 0 0 0-.1 0-.1 0 0 0-.1 0-.1 0 0 0 0 .1 0 .2 0 0 0 0 0 0C47.6 51.7 48.2 52 48.9 52zM46.7 42.8l.4-.8c-1.9-.4-3.8-.4-5.7.2L42 43C43.5 42.5 45.1 42.4 46.7 42.8zM55.9 42.8l.4-.8c-1.9-.4-3.8-.4-5.7.2l.5.8C52.7 42.5 54.3 42.4 55.9 42.8zM44 44c-.4 0-.8.3-1 .7.1 0 .1 0 .2 0 .4 0 .7.3.7.7 0 .4-.3.7-.7.7-.1 0-.2 0-.3-.1.1.6.6 1.1 1.2 1.1.9-.2 1.4-1.1 1.2-2C45.1 44.6 44.7 44.2 44 44L44 44zM53.6 44c-.4 0-.7.2-.9.5.1 0 .2 0 .2 0 .4 0 .7.3.7.7 0 .4-.3.7-.7.7-.2 0-.4-.1-.5-.3.2.7.9 1.1 1.6.9.7-.2 1.1-.9.9-1.6C54.7 44.4 54.2 44 53.6 44zM54.2 53.9c0 0 0-.1 0-.2 0 0 0 0 0 0l0 0c0 0-.1 0-.2 0 0 0 0 0 0 0-1.5 1-3.3 1.5-5.1 1.4-1.8.1-3.6-.4-5.1-1.4 0 0-.1 0-.1 0 0 0-.1 0-.1 0 0 0 0 .1 0 .2 0 0 0 0 0 0C46.7 56.1 50.9 56.1 54.2 53.9L54.2 53.9zM50.3 59.2c.1 0 .1-.1.1-.2s0-.2-.1-.2h-2.6c-.1 0-.1.1-.1.2s0 .2.1.2H50.3z"/><path fill="#895d3d" d="M61.1 49.9l-.6-.1.2-1.8-1 .4-.2-.5 1.5-.6c.1 0 .2 0 .3 0 .1.1.1.2.1.3L61.1 49.9zM36.9 49.5l-.3-2.3c0-.1 0-.2.1-.3.1-.1.2-.1.3 0l1.5.6-.2.5-1-.4.2 1.8L36.9 49.5z"/><path fill="#472b29" d="M38.2 54C38.2 54 38.2 54 38.2 54c-.1 0-.2-.1-.2-.2l.2-8.6c0-.1.1-.2.2-.2.1 0 .2.1.2.2l-.2 8.6C38.4 53.9 38.3 54 38.2 54zM59.6 54c-.1 0-.2-.1-.2-.2l-.2-8.6c0-.1.1-.2.2-.2 0 0 0 0 0 0 .1 0 .2.1.2.2l.2 8.6C59.8 53.9 59.7 53.9 59.6 54 59.6 54 59.6 54 59.6 54z"/><path fill="#f1bc19" d="M47.6 44.6c-2-2.4-9.4-.7-9.4-.7.1.5.3 1.1.4 1.6.5 0 .6 1.3.6 1.7C39.5 49.4 41 51 44 51c2.1.1 3.9-1.6 4-3.7 0 0 0-.1 0-.1C48.1 46.3 47.9 45.4 47.6 44.6zM47.3 47.3c0 1.8-1.4 3.2-3.2 3.2 0 0 0 0-.1 0-.2 0-.4 0-.6 0-3.1 0-3.6-2.7-3.6-4.4-.1-1 .7-1.8 1.6-1.9.6-.1 1.3-.1 1.9-.1 2.3 0 3.3.5 3.5 1C47.2 45.8 47.3 46.5 47.3 47.3zM49.8 47.2c0 2.1 1.7 3.8 3.8 3.8 0 0 .1 0 .1 0 3.1.1 4.5-1.5 4.8-3.7.1-.5.1-1.7.6-1.7.1-.5.2-1.1.4-1.6 0 0-7.4-1.7-9.4.7C49.8 45.4 49.7 46.3 49.8 47.2zM50.9 45.2c.3-.4 1.3-1 3.5-1 .6 0 1.3 0 1.9.1 1 .1 1.7.9 1.6 1.9-.1 1.7-.6 4.4-3.6 4.4-.2 0-.4 0-.6 0-1.8.1-3.2-1.3-3.3-3.1 0 0 0-.1 0-.1C50.4 46.5 50.6 45.8 50.9 45.2L50.9 45.2z"/><path fill="#f1bc19" d="M50.2,46.5c-0.4-0.3-0.9-0.4-1.4-0.4c-0.5,0-0.9,0.1-1.3,0.4l-0.4-1.1h3.5 C50.5,45.7,50.3,46.1,50.2,46.5z"/><path fill="#512c2b" d="M63.3,39.6c-2.3,0.2-3.7-2.5-5.2-4.5c-3.4-4.8-9.9-6.4-15.1-3.6c-1.1,0.5-2.1,1.3-2.8,2.3 c-2.7,1.1-4.1,4.6-4.7,7.9c-0.7,3.8,2.6,9.8,2.8,6.5c0.2-2.7,0.9-5.3,1.9-7.8c0.4-1,0.8-2,1-3c0.3,2.5,3.6,4.9,5.6,4.9 c0.2,0,0.3-0.9,0.3-2c0.5,0.9,1.3,1.7,2.1,2.3c1.3,0.9,2.8,1.4,4.4,1.7c-0.6-0.3-0.9-0.9-1-1.5c0-0.3,0-0.7,0-1 c1.3,1,2.8,1.5,4.4,1.6h0.5c0.7,1.6,1.1,3.3,1.2,5.1c0.2,3.3,2.7-2.2,2-6.1v-0.1C61.8,41.6,62.6,40.7,63.3,39.6z M41.6,35.6 c0,0,0-0.1,0-0.1h0L41.6,35.6z"/><path fill="#472b29" d="M49.3,88.2c-1.8,0-3.1-0.1-3.7-0.2l0,0c-2.4-0.1-4.9-0.5-7.2-1.1c-3.7-1.4-7.1-3.2-10.4-5.4 c-0.2-0.1-0.3-0.3-0.2-0.5c0-0.2,0.1-0.9,0.1-1.6c0.1-2.5,0.2-7.3,1.2-9.7c0.5-1.2,3.5-3.2,4.7-3.5l7.9-3.1 c0.4-0.1,0.7-0.3,0.8-0.4v-0.1c-1.3-0.5-2.4-1.5-3-2.8c-0.1,0-0.3,0.1-0.4,0.1c-0.6,0.2-1.3,0.3-2.2,0c-0.1-0.1-0.3-0.2-0.3-0.3 c0-0.1,0-0.3,0.1-0.4c0.4-0.6,0.5-1.4,0.4-2.2c-0.5,0-0.9-0.1-1.4-0.4c-0.1-0.1-0.2-0.2-0.2-0.3c0-0.1,0-0.3,0.1-0.4 c0.6-1,0.8-2.2,0.6-3.3c-0.2-0.2-0.4-0.4-0.5-0.7c-0.7-1.7-1.2-3.5-1.4-5.3c0-0.6,0.5-1.2,1.2-1.6c-0.3-1.1-0.3-2.3-0.2-3.4 c0.7-4.1,2.5-7.1,4.9-8.2c0.8-1,1.8-1.8,3-2.3c5.4-2.9,12.2-1.3,15.7,3.8c0.2,0.3,0.5,0.7,0.7,1c1.2,1.7,2.4,3.4,4,3.3 c0.2,0,0.4,0.1,0.5,0.2c0.1,0.2,0.1,0.4,0,0.5c-0.7,1-1.5,1.9-2.6,2.6c0.1,0.6,0.1,1.3,0.1,2c1.2,0.2,2.3,1.3,2.3,2 c-0.2,1.9-0.7,3.7-1.4,5.4c-0.2,0.3-0.4,0.6-0.7,0.8c-0.2,1.1,0,2.3,0.6,3.3c0.1,0.1,0.1,0.3,0.1,0.4s-0.1,0.3-0.3,0.3 c-0.4,0.2-0.9,0.3-1.4,0.4c-0.2,0.7,0,1.5,0.4,2.2c0.1,0.1,0.1,0.3,0.1,0.4c0,0.1-0.2,0.3-0.3,0.3c-0.9,0.3-1.6,0.2-2.2,0 c-0.1,0-0.3-0.1-0.4-0.1c-0.5,1.2-1.5,2.1-2.7,2.6c0,0.1,0.1,0.2,0.1,0.3c0.1,0.4,0.2,0.5,0.4,0.6l2.9,1.1l3.5,1.3 c0.2,0.1,0.4,0.1,0.6,0.2c3.9,1.4,5.4,2.2,5.7,2.9c0,0,0,0,0,0c1,2.5,1.3,8.6,1.4,11.9c0,1,0.1,1.9,0.1,2c0.1,0.9-5.4,2.9-9.2,4 C57.3,88,52.6,88.2,49.3,88.2z M45.8,87.1c0.7,0.1,9,0.5,14.9-1.1c5.1-1.4,7.7-2.8,8.4-3.2c0-0.4-0.1-0.9-0.1-1.8 c-0.1-3.2-0.3-9.3-1.3-11.6c-0.2-0.3-1.2-0.9-5.2-2.4c-0.3-0.1-0.5-0.2-0.6-0.2l-3.5-1.3l-2.9-1.1c-0.7-0.2-0.9-0.8-1-1.2 c0-0.1-0.1-0.2-0.1-0.3c-0.1-0.2-0.1-0.3-0.1-0.5c0-0.3,0.1-0.5,0.3-0.6c1.2-0.4,2.2-1.3,2.7-2.6c0.1-0.2,0.3-0.3,0.5-0.3 c0.3,0,0.6,0.1,0.9,0.2c0.4,0.1,0.7,0.2,1,0.2c-0.4-0.9-0.4-1.9-0.1-2.8c0.1-0.2,0.3-0.3,0.5-0.3c0.2,0,0.5,0,0.7-0.1 c-0.6-1.1-0.7-2.4-0.4-3.7c0-0.1,0.1-0.2,0.2-0.3c0.2-0.1,0.4-0.3,0.5-0.5c0.7-1.6,1.1-3.3,1.3-5c0-0.2-0.8-1-1.6-1l-0.2,0 c-0.1,0-0.3-0.1-0.4-0.2c-0.1-0.1-0.1-0.2-0.1-0.4c0.1-0.8,0.1-1.6,0-2.5c0,0,0-0.1,0-0.2c0-0.2,0.1-0.3,0.2-0.4 c0.8-0.5,1.5-1.1,2-1.8c-1.7-0.4-2.9-2.1-3.9-3.7c-0.2-0.3-0.5-0.7-0.7-1c-3.3-4.6-9.5-6.1-14.5-3.4c-1.1,0.5-2,1.2-2.7,2.1 c-0.1,0.1-0.1,0.1-0.2,0.2c-3,1.3-4.1,5.7-4.4,7.5c-0.1,1.1-0.1,2.3,0.2,3.4c0.1,0.2,0,0.5-0.3,0.6c-0.6,0.3-0.9,0.8-1,0.9 c0.2,1.6,0.7,3.3,1.4,4.9c0.1,0.2,0.2,0.3,0.4,0.4c0.1,0.1,0.1,0.2,0.2,0.3c0.3,1.2,0.2,2.6-0.4,3.7c0.2,0.1,0.5,0.1,0.7,0.1 c0.2,0,0.4,0.1,0.5,0.3c0.3,0.9,0.3,1.9-0.1,2.8c0.3,0,0.7-0.1,1.1-0.2c0.3-0.1,0.6-0.1,0.9-0.2c0.2,0,0.4,0.1,0.5,0.3 c0.5,1.3,1.6,2.3,2.9,2.7c0.2,0.1,0.3,0.3,0.3,0.5v0.5c0,0,0,0.1,0,0.1c-0.2,0.7-1.2,1-1.5,1.1l-7.8,3.1c-1.1,0.4-3.8,2.2-4.1,3 c-1,2.3-1.1,6.9-1.1,9.4c0,0.7,0,1.2-0.1,1.5c3.1,2,6.4,3.7,9.9,5.1c2.2,0.6,4.6,1,6.9,1.1C45.7,87.1,45.7,87.1,45.8,87.1z"/></svg>