<svg xmlns="http://www.w3.org/2000/svg" viewBox="0 0 100 100"><path fill="#fff" d="M19.7 55.800000000000004A.9.9 0 1 0 19.7 57.6.9.9 0 1 0 19.7 55.800000000000004zM78.8 31.1A.7.7 0 1 0 78.8 32.5.7.7 0 1 0 78.8 31.1z"/><path fill="#f1bc19" d="M76.1 11.799999999999999A.9.9 0 1 0 76.1 13.6.9.9 0 1 0 76.1 11.799999999999999zM20.2 63.4A.9.9 0 1 0 20.2 65.2.9.9 0 1 0 20.2 63.4z"/><path fill="#c0e5e4" d="M49.3 12.700000000000003A37.5 37.5 0 1 0 49.3 87.7A37.5 37.5 0 1 0 49.3 12.700000000000003Z"/><path fill="#f1bc19" d="M81.6 10.9A4 4 0 1 0 81.6 18.9A4 4 0 1 0 81.6 10.9Z"/><path fill="#00a5a5" d="M85.6 23.1A1.9 1.9 0 1 0 85.6 26.9A1.9 1.9 0 1 0 85.6 23.1Z"/><path fill="#fbcd59" d="M76.6 74.5A1.9 1.9 0 1 0 76.6 78.30000000000001 1.9 1.9 0 1 0 76.6 74.5zM13.4 59.4A4 4 0 1 0 13.4 67.4 4 4 0 1 0 13.4 59.4z"/><path fill="#00a5a5" d="M23.7 85.69999999999999A1.9 1.9 0 1 0 23.7 89.5A1.9 1.9 0 1 0 23.7 85.69999999999999Z"/><path fill="#fff" d="M75.3 28.5A1.8 1.8 0 1 0 75.3 32.1 1.8 1.8 0 1 0 75.3 28.5zM17.2 48.8A2.5 2.5 0 1 0 17.2 53.8 2.5 2.5 0 1 0 17.2 48.8z"/><path fill="#e09010" d="M44.1,62c1.8,0,6.3,0.3,10.3,0c2.7-0.2,5.5-1.2,7.1-3.2c10.2-12.7-4-31.1-18.5-30.7 C32.1,28.4,29.4,62.1,44.1,62z"/><path fill="#472b29" d="M50.4,62.4c-1.6,0-3-0.1-4.3-0.1c-0.8,0-1.5-0.1-2-0.1c0,0,0,0,0,0c-7.5,0-10.2-8.5-10.4-15.8 c-0.1-8.8,3.4-18.4,9.2-18.5c8-0.2,16.3,5.2,20.2,13.1c3.2,6.4,2.6,12.9-1.5,18c-2,2.5-5.4,3.1-7.3,3.3 C53.1,62.4,51.7,62.4,50.4,62.4z M44.1,61.8L44.1,61.8c0.5,0,1.2,0,2,0.1c2.3,0.1,5.4,0.2,8.2-0.1c1.8-0.2,5.1-0.8,6.9-3.1 c4-4.9,4.5-11.3,1.4-17.5c-3.8-7.6-11.7-12.8-19.3-12.8c-0.2,0-0.3,0-0.4,0c-5.6,0.1-8.9,9.5-8.8,18 C34.3,53.5,36.9,61.8,44.1,61.8C44.1,61.8,44.1,61.8,44.1,61.8z"/><path fill="#b2876b" d="M66.1,67.7c-0.1,0-10.2-3.6-10.2-3.6c-0.6-0.2-1-0.6-1.2-1.1c-0.2-1-0.3-1.9-0.2-2.9 c-1.4,0.6-2.8,1.1-4.2,1.4c-1.9,0.2-5.2-2.3-5.2-2.3s-0.1,3-0.2,3.7c-0.2,0.6-0.7,1-1.3,1.2l-7.7,2.6c-0.8,0.2-1.5,0.5-2.2,0.9 c-4.2,2.1-3.6,14-3.7,14.6c6.4,3.1,11.4,6.3,21.9,5.5c10.7-0.8,14-4.1,18-6.1C69.4,72.2,70.3,69,66.1,67.7z"/><path fill="#d8ad8f" d="M61.5,42.2c0.1-1.5-0.3-2.8-0.2-3.6l0,0c-1.3-1.6-2.2-3.6-4-4.8c-2.1-1.3-4.4-2.2-6.8-2.8 c-5.7-1.4-11.3,2.7-13.1,8.1l-0.1,0.1c0.2,1,0.3,2,0.4,2.9c-1.5,0-2.3,0.8-1.8,2.4c0,0,0.6,2.6,1,3.9c0.1,0.7,0.8,1.2,1.5,1.2 c0,0.8,0,1.7,0,2.5c0,1,0.2,2,0.8,2.8c1.5,2.2,9.2,7.2,11.1,7c3,0,9-5.1,10.6-7.7c0.3-0.5,0.4-1.1,0.5-1.7c0-1,0-2,0-3 c0.6-0.1,1.1-0.6,1.3-1.2c0.4-1.3,1-3.9,1-3.9C64.2,43,63,42.1,61.5,42.2z"/><path fill="#472b29" d="M50.2,62.4c-2.2,0-9.7-5-11.3-7.2c-0.6-0.9-0.9-2-0.9-3.1l0-2.1c-0.7-0.2-1.3-0.7-1.5-1.5 c-0.4-1.2-1-3.8-1-3.9c-0.3-0.9-0.2-1.6,0.2-2.1c0.2-0.3,0.7-0.7,1.6-0.8c-0.1-0.8-0.2-1.7-0.3-2.5l0-0.2l0.1-0.2 c1.7-5.2,7.3-9.9,13.5-8.3c2.4,0.6,4.8,1.5,6.9,2.9c1.3,0.8,2.2,2.1,3,3.3c0.4,0.5,0.7,1.1,1.1,1.6l0.1,0.1l0,0.2 c0,0.3,0,0.7,0.1,1.2c0.1,0.6,0.2,1.2,0.2,2c0.8,0.1,1.5,0.4,1.9,1c0.3,0.4,0.5,1,0.2,1.9c-0.1,0.6-0.7,2.9-1,3.9 c-0.1,0.6-0.6,1.2-1.3,1.4v2.7c0,0.7-0.2,1.3-0.5,1.9c-1.6,2.6-7.7,7.9-10.9,7.9C50.3,62.4,50.2,62.4,50.2,62.4z M38.8,49.3v2.9 c0,0.9,0.2,1.8,0.7,2.6c1.5,2.2,9.1,7,10.7,6.8c2.8,0,8.7-4.9,10.3-7.5c0.2-0.4,0.4-1,0.4-1.5l0-3.3l0.3,0 c0.5-0.1,0.8-0.4,0.9-0.9c0.4-1.2,1-3.8,1-3.9c0.2-0.6,0.2-1-0.1-1.3c-0.3-0.4-0.9-0.7-1.7-0.6l-0.4,0l0-0.4 c0.1-0.8,0-1.6-0.1-2.2c-0.1-0.5-0.1-0.9-0.1-1.2c-0.4-0.5-0.7-1-1.1-1.5c-0.8-1.2-1.5-2.3-2.7-3c-2.1-1.3-4.3-2.2-6.7-2.8 c-5.7-1.4-11,3-12.6,7.9l0,0c0.2,0.9,0.3,1.9,0.3,2.9l0,0.4h-0.4c-0.5,0-1.1,0.1-1.4,0.5c-0.3,0.4-0.2,1,0,1.4 c0,0.1,0.6,2.7,1,3.9c0.1,0.6,0.6,0.9,1.1,0.9c0,0,0,0,0,0L38.8,49.3z"/><g opacity=".3"><path fill="#f4989e" d="M42.7 48.8A2 2 0 1 0 42.7 52.8 2 2 0 1 0 42.7 48.8zM57.8 48.8A2 2 0 1 0 57.8 52.8 2 2 0 1 0 57.8 48.8z" opacity=".8"/></g><path fill="#472b29" d="M38.7 50.4c-.1 0-.2-.1-.2-.2l-.8-8c0-.1.1-.2.2-.2.1 0 .2.1.2.2l.8 8C38.9 50.3 38.8 50.4 38.7 50.4 38.7 50.4 38.7 50.4 38.7 50.4zM61.2 50C61.2 50 61.2 49.9 61.2 50c-.1 0-.2-.1-.2-.2l.5-8.1c0-.1.1-.2.2-.2.1 0 .2.1.2.2l-.5 8.1C61.4 49.9 61.3 50 61.2 50z"/><path fill="#6d1b18" d="M46.6,54.9c0,0.2-0.1,0.3-0.1,0.5c0,1.4,1.5,2.5,3.5,2.5s3.5-1.1,3.5-2.5c0-0.2,0-0.3-0.1-0.5H46.6 z"/><path fill="#ee3e54" d="M51.8,57.5c-1.1-0.8-2.6-0.8-3.6,0C49.4,58,50.7,58,51.8,57.5z"/><path fill="#fdfcef" d="M47.6,54.9L47.6,54.9v0.4c0,0.4,0.5,0.7,1.1,0.7h2.6c0.6,0,1.1-0.3,1.1-0.7v-0.4l0,0H47.6z"/><path fill="#472b29" d="M50,58.1c-2,0-3.6-1.2-3.6-2.7c0-0.2,0-0.4,0.1-0.5c0-0.1,0.1-0.1,0.2-0.1h6.8 c0.1,0,0.2,0.1,0.2,0.1c0,0.2,0.1,0.3,0.1,0.5C53.7,56.9,52,58.1,50,58.1z M46.8,55.1c0,0.1,0,0.2,0,0.3c0,1.3,1.5,2.3,3.2,2.3 c1.8,0,3.3-1,3.3-2.3c0-0.1,0-0.2,0-0.3H46.8z"/><path fill="#00a5a5" d="M41.1,64.9c-0.2,9,17.4,9.6,16.2-0.7l4.9,1.7l1.5,18.9c0,0-14.3,6.3-28.4-0.1l0.7-18L41.1,64.9z"/><path fill="#472b29" d="M50 53c.8 0 1.5-.3 2-.9.1 0 .1-.1 0-.2 0 0 0 0 0 0l0 0c-.1 0-.1 0-.2 0-1 .9-2.6.9-3.6 0 0 0-.1 0-.1 0 0 0-.1 0-.1 0C48 52 48 52 48 52.1c0 0 0 0 0 0C48.5 52.7 49.2 53 50 53zM50.9 59.8C51 59.8 51 59.7 50.9 59.8c.1-.1 0-.2 0-.2h-1.8c0 0-.1 0-.1.1s0 .1.1.1l0 0H50.9z" opacity=".41"/><path fill="#512c2b" d="M48 40.1c-2.4-.7-4.9-1-7.4-.8-.1 0-.2.1-.2.2s.1.2.2.2l0 0c0 0 5.1.9 6.6 1.4h.1c.1 0 .1 0 .2-.1l.6-.7c0-.1 0-.1 0-.2C48.1 40.2 48.1 40.1 48 40.1zM52 39.9c2.4-.6 5-.7 7.5-.4.1 0 .2.1.2.2 0 .1-.1.2-.2.2 0 0-5.1.6-6.7 1.1h-.1c-.1 0-.2 0-.2-.1l-.6-.7c0-.1 0-.1 0-.2C51.9 39.9 51.9 39.9 52 39.9z"/><path fill="#472b29" d="M44.4 43c-.5 0-1 .3-1.2.8.1 0 .1 0 .2 0 .5 0 .8.4.8.8 0 .5-.4.8-.8.8-.1 0-.3 0-.4-.1.1.7.7 1.2 1.4 1.3 1-.2 1.6-1.3 1.4-2.3C45.6 43.8 45.1 43.3 44.4 43L44.4 43zM55.4 43c-.4 0-.8.2-1.1.6.1 0 .2-.1.3-.1.5 0 .8.4.8.8 0 .5-.4.8-.8.8-.3 0-.5-.1-.6-.4.2.8 1 1.3 1.8 1.1.8-.2 1.3-1 1.1-1.8C56.7 43.5 56.1 43.1 55.4 43z"/><path fill="#472b29" d="M48.3 42.6c-2.3-2.7-10.7-.8-10.7-.8.2.6.3 1.2.4 1.8.6.1.7 1.5.7 2 .3 2.5 2 4.3 5.5 4.3 2.4.1 4.4-1.9 4.5-4.3 0 0 0 0 0 0C48.8 44.6 48.7 43.5 48.3 42.6zM47.9 45.7c0 2-1.7 3.7-3.7 3.7 0 0-.1 0-.1 0-.2 0-.4 0-.7 0-3.5 0-4.1-3.1-4.2-5-.1-1.1.8-2.1 1.9-2.2.7-.1 1.4-.1 2.2-.1 2.6 0 3.8.6 4.1 1.1C47.8 44 48 44.8 47.9 45.7zM50.8 45.5c0 2.4 2 4.4 4.5 4.3 0 0 0 0 0 0 3.5.1 5.2-1.8 5.5-4.3.1-.5.1-1.9.7-2 .1-.6.3-1.2.4-1.8 0 0-8.5-1.9-10.7.8C50.8 43.5 50.7 44.5 50.8 45.5zM52.1 43.2c.3-.5 1.4-1.1 4-1.1.8 0 1.6 0 2.2.1 1.1.1 1.9 1.1 1.9 2.2-.1 1.9-.7 5-4.2 5-.2 0-.4 0-.7 0-2 .1-3.7-1.5-3.8-3.6 0 0 0-.1 0-.1C51.5 44.8 51.7 44 52.1 43.2z"/><path fill="#472b29" d="M51.3,44.8c-0.5-0.3-1-0.5-1.6-0.5c-0.5,0-1,0.1-1.5,0.5l-0.5-1.3h4L51.3,44.8z"/><path fill="#efa21b" d="M66.6,42.9c-4.1-0.2-1.8-17-18.2-16.3C31.8,27.4,37,42.5,37.9,44.3c0.7-0.2,4.5-5,6.2-8.3 C48.1,42,61.9,46.3,66.6,42.9z"/><path fill="#472b29" d="M37.9,44.6c-0.1,0-0.2-0.1-0.2-0.1c-0.7-1.4-3-8.1-0.2-12.9c1.9-3.2,5.5-4.9,10.8-5.2 c11.2-0.5,13.8,7.1,15.6,12.1c0.8,2.3,1.5,4.2,2.7,4.2c0.1,0,0.2,0.1,0.2,0.2s0,0.2-0.1,0.3c-1.7,1.3-4.7,1.6-8.4,0.9 c-5-0.9-11.4-3.7-14.2-7.5C42.4,39.8,38.8,44.3,37.9,44.6C38,44.6,38,44.6,37.9,44.6z M49.4,26.8c-0.3,0-0.6,0-1,0 c-5.2,0.2-8.7,1.9-10.4,4.9c-2.6,4.4-0.7,10.4,0,12.2c0.9-0.8,4.3-5,5.8-8.1c0-0.1,0.1-0.1,0.2-0.1c0.1,0,0.2,0,0.2,0.1 c2.6,3.8,9.1,6.7,14.2,7.6c3.2,0.6,5.9,0.4,7.6-0.5c-1.1-0.5-1.7-2.3-2.5-4.4C61.9,33.9,59.4,26.8,49.4,26.8z"/><path fill="#e2900e" d="M48.2,26.4c9.6,3.6,8.6,12.2,9,16.9c3.6,0.8,7.2,0.9,9.1-0.5C62.2,42.6,64.4,25.7,48.2,26.4z"/><path fill="#d12642" d="M47.6,87.7c1.5,0.4,3-0.3,4.3-0.1l-0.4-14.8H48L47.6,87.7z"/><path fill="#ee3e54" d="M52.6 71.3L51.5 73.5 48 73.5 46.9 71.3 49.7 68.9z"/><path fill="#472b29" d="M49.4,88.1c-6.9,0-13.7-1.9-19.6-5.5c-0.1-0.1-0.2-0.2-0.2-0.4c-0.2-8.4,1.1-13.6,4-15 c0.7-0.4,1.5-0.7,2.3-0.9l2.7-0.9c0,0,0-0.1,0-0.1c0-0.2,0.1-0.3,0.3-0.4l4.8-2.1c0.2-0.1,0.4,0,0.5,0.1l0.3,0.2 c0.1-0.1,0.1-0.2,0.1-0.3c0-0.1,0.1-0.3,0.1-0.5H44c-5,0-8.7-3.8-10-10.5c-1.8-9,0.8-21.3,6.9-23.9c2.3-1.2,4.9-1.9,7.5-1.9 c11.4-0.5,14,7.3,15.8,12.5c0.8,2.3,1.4,4.1,2.4,4.2c0.2,0,0.4,0.2,0.5,0.4c0.1,0.2,0,0.4-0.2,0.5c-0.6,0.4-1.3,0.8-2.1,1 c1.4,5,0.3,10.4-3,14.4C60,61.2,57,62,55,62.3c0,0.2,0.1,0.4,0.2,0.6c0,0,0.1,0.1,0.1,0.1l0.1-0.1c0.1-0.1,0.4-0.2,0.5-0.1 l4.8,2.1c0.1,0.1,0.3,0.2,0.3,0.4c0,0,0,0.1,0,0.1c0.7,0.3,1.4,0.5,2,0.7c1.1,0.4,2,0.7,2.3,0.8l0.9,0.3c3.8,1.2,3.9,6.2,4.1,13.1 l0,1.2c0,0.2-0.1,0.3-0.2,0.4c-5.6,3.6-12,5.7-18.6,6.1L49.4,88.1C49.4,88.1,49.4,88.1,49.4,88.1z M30.5,81.9 c5.7,3.4,12.2,5.2,18.9,5.2c0,0,0,0,0.1,0h2c6.3-0.3,12.5-2.3,17.9-5.8l0-0.9c-0.1-6.7-0.2-11.2-3.4-12.2c0,0,0,0,0,0L65,67.8 c-0.3-0.1-1.2-0.5-2.3-0.8c-0.8-0.3-1.7-0.6-2.6-0.9c-0.2-0.1-0.3-0.2-0.3-0.4c0-0.1,0-0.1,0-0.2l-3.9-1.7l-0.3,0.3 c-0.2,0.2-0.5,0.2-0.7,0c-0.3-0.2-0.5-0.5-0.6-0.9c-0.2-0.5-0.3-1-0.3-1.4c0-0.3,0.2-0.5,0.5-0.5c1.7-0.2,4.9-0.8,6.7-3 c3.2-3.9,4.2-9.2,2.6-14c0-0.1,0-0.3,0-0.4c0.1-0.1,0.2-0.2,0.3-0.2c0.5-0.1,0.9-0.2,1.4-0.4c-1-0.8-1.5-2.4-2.2-4.4 C61.5,33.6,59,26.5,48.4,27c-2.5,0-4.9,0.7-7.1,1.8C36.2,31,33.1,42.2,35,51.6c0.7,3.6,2.9,9.7,9,9.7c0,0,0,0,0.1,0H45 c0.3,0,0.5,0.2,0.5,0.5c0,0.5-0.1,0.9-0.1,1.2c0,0,0,0.1,0,0.1c-0.1,0.5-0.4,0.9-0.8,1.1c-0.2,0.1-0.4,0.1-0.6-0.1l-0.4-0.3 l-3.9,1.7c0,0.1,0,0.1,0,0.2c0,0.2-0.2,0.3-0.3,0.4L36,67.2c-0.7,0.2-1.4,0.5-2.1,0.9C31.5,69.2,30.3,74.1,30.5,81.9z"/><path fill="#e6e7e8" d="M49.7 69.1l-3.6 3.8-7-7.1 4.7-2 1.4 1.4L49.7 69.1zM49.7 69.1l3.6 3.8 7-7.1-4.7-2L54.2 65 49.7 69.1z"/></svg>