<svg xmlns="http://www.w3.org/2000/svg" viewBox="0 0 100 100"><path fill="#fff" d="M20 56.1A.9.9 0 1 0 20 57.9.9.9 0 1 0 20 56.1zM79.1 31.400000000000002A.7.7 0 1 0 79.1 32.800000000000004.7.7 0 1 0 79.1 31.400000000000002z"/><path fill="#f1bc19" d="M76.5 12.2A.9.9 0 1 0 76.5 14 .9.9 0 1 0 76.5 12.2zM20.5 63.699999999999996A.9.9 0 1 0 20.5 65.5.9.9 0 1 0 20.5 63.699999999999996z"/><path fill="#f9dbd2" d="M49.6 12.799999999999997A37.5 37.5 0 1 0 49.6 87.8A37.5 37.5 0 1 0 49.6 12.799999999999997Z"/><path fill="#f1bc19" d="M81.9 11.2A4 4 0 1 0 81.9 19.2A4 4 0 1 0 81.9 11.2Z"/><path fill="#ee3e54" d="M85.9 22.400000000000002A1.9 1.9 0 1 0 85.9 26.2A1.9 1.9 0 1 0 85.9 22.400000000000002Z"/><path fill="#fbcd59" d="M76.9 74.8A1.9 1.9 0 1 0 76.9 78.60000000000001 1.9 1.9 0 1 0 76.9 74.8zM13.8 59.8A4 4 0 1 0 13.8 67.8 4 4 0 1 0 13.8 59.8z"/><path fill="#fff" d="M75.6 28.8A1.8 1.8 0 1 0 75.6 32.4 1.8 1.8 0 1 0 75.6 28.8zM17.5 49.1A2.5 2.5 0 1 0 17.5 54.1 2.5 2.5 0 1 0 17.5 49.1z"/><path fill="#ee3e54" d="M30.9 86A1.9 1.9 0 1 0 30.9 89.80000000000001A1.9 1.9 0 1 0 30.9 86Z"/><path fill="#472b29" d="M61.8,49.5c-0.5-1,0.3-2.3,1.3-2.9c1-0.6,2.1-0.8,3-1.4c1.5-1,2.3-2.9,1.9-4.7 c-0.4-1.8-1.8-3.1-3.6-3.5c1.7-0.3,2.8-2.2,2.6-4c-0.3-1.7-1.5-3.2-3.2-3.8c-1.6-0.5-3.4-0.6-5-0.1c-2.5-2.5-6.4-3.1-9.5-1.3"/><path fill="#472b29" d="M37.3,49.5c0.5-1-0.3-2.3-1.3-2.9s-2.1-0.8-3-1.4c-1.5-1.1-2.3-2.9-1.9-4.7 c0.4-1.8,1.8-3.1,3.5-3.5c-1.7-0.3-2.8-2.2-2.6-4c0.3-1.7,1.5-3.2,3.2-3.8c1.6-0.5,3.4-0.6,5-0.1c2.5-2.5,6.4-3.1,9.5-1.3"/><path fill="#d8ad8f" d="M60.9,42.2c0.1-1.5-0.3-2.8-0.2-3.6l0,0c-1.3-1.6-2.2-3.6-4-4.8c-2.1-1.3-4.4-2.2-6.8-2.8 c-5.7-1.4-11.3,2.7-13,8.1l-0.1,0.1c0.1,1,0.2,1.9,0.2,2.9c-1.5,0-2.1,0.8-1.6,2.4c0,0,0.6,2.6,1,3.9c0.1,0.7,0.8,1.2,1.5,1.2 c0,0.8,0,1.7,0,2.5c0,1,0.3,2,0.9,2.8c1.5,2.2,9.2,7.2,11,7c3,0,9-5.1,10.5-7.7c0.3-0.5,0.4-1.1,0.5-1.7c0-1,0-2,0-3 c0.6-0.1,1.1-0.6,1.3-1.2c0.4-1.3,1-3.8,1-3.9C63.6,43,62.5,42.2,60.9,42.2z"/><path fill="#78a0cf" d="M49,28.2c-6.8,0-12.3,5-12.3,11.2c0,0.6,0.2,1.2,0.4,1.7C38.6,35.7,45.5,33,49,33 s10.3,2.3,11.9,8.2c0.3-0.5,0.4-1.1,0.4-1.7C61.3,33.3,55.8,28.2,49,28.2z"/><path fill="#b2876b" d="M65.5,67.6c-0.1,0-0.2-0.1-0.3-0.1l-0.6-0.2c-1.2-0.5-9.2-3.3-9.2-3.3c-0.5-0.1-1-0.5-1.2-1 c-0.2-1-0.3-2-0.2-3c-1.3,0.6-2.8,1.1-4.2,1.4c-1.9,0.2-5.1-2.3-5.1-2.3s-0.1,3-0.2,3.7c-0.2,0.6-0.7,1-1.3,1.1l-7.7,2.6 c-0.8,0.2-1.5,0.5-2.2,0.9c-1.6,1.1-2.8,2.8-3.3,4.7l0,0c0,0.1,0,0.3-0.1,0.6c-0.1,0.4-0.1,0.9-0.1,1.3c0,0.5-0.1,7.3-0.1,7.8 c7.2,5.1,16.9,5.8,27,4.8c4.6-0.4,8.6-3.2,12.7-4.7C68.9,72.8,69.8,68.9,65.5,67.6z"/><g opacity=".3"><path fill="#f4989e" d="M42.2 48.8A2 2 0 1 0 42.2 52.8 2 2 0 1 0 42.2 48.8zM57.3 48.8A2 2 0 1 0 57.3 52.8 2 2 0 1 0 57.3 48.8z" opacity=".8"/></g><path fill="#472b29" d="M38.2 50.4c-.1 0-.2-.1-.2-.2l-.8-8c0-.1.1-.2.2-.2.1 0 .2.1.2.2l.8 8C38.4 50.3 38.3 50.4 38.2 50.4 38.2 50.4 38.2 50.4 38.2 50.4zM60.6 49.9C60.6 49.9 60.6 49.9 60.6 49.9c-.1 0-.2-.1-.2-.2l.5-8c0-.1.1-.2.2-.2.1 0 .2.1.2.2l-.5 8C60.8 49.9 60.7 49.9 60.6 49.9z"/><path fill="#472b29" d="M50.4,59.7C50.5,59.7,50.5,59.7,50.4,59.7 c0.1-0.1,0-0.2,0-0.2c0,0,0,0,0,0h-1.8c0,0-0.1,0-0.1,0.1c0,0,0,0.1,0.1,0.1H50.4z" opacity=".41"/><path fill="#472b29" d="M49.9 61.6c-1.9 0-5-1.7-5.1-1.7-.1-.1-.2-.2-.1-.3.1-.1.2-.2.3-.1 0 0 3.4 1.8 5.1 1.7 1.5-.3 3-.8 4.3-1.6.1-.1.3 0 .3.1.1.1 0 .3-.1.3-1.4.8-2.9 1.4-4.5 1.7C50.1 61.6 50 61.6 49.9 61.6zM49.5 38.8c-2.1 0-7.4.8-9.2 1.7-.1 0-.2.1-.1.3 0 .1.1.1.3.1 0 0 7.1-.8 8.7-.8h.1c.1 0 .1-.1.2-.1l.4-.8c0-.1 0-.1 0-.2C49.6 38.8 49.5 38.8 49.5 38.8z"/><path fill="#472b29" d="M50 38.6c2.1.1 7.3 1.1 9.1 2 .1 0 .2.1.1.3 0 .1-.2.2-.3.2 0 0-7-1.1-8.7-1.1h-.1c-.1 0-.1-.1-.2-.2l-.3-.8c0-.1 0-.1 0-.2C49.8 38.6 49.9 38.6 50 38.6zM44.2 42c-.5 0-1 .3-1.2.8.1 0 .1 0 .2 0 .5 0 .8.4.8.8 0 .5-.4.8-.8.8-.1 0-.3 0-.4-.1.1.7.7 1.2 1.4 1.3 1-.2 1.6-1.2 1.4-2.2C45.4 42.8 44.8 42.2 44.2 42L44.2 42zM55.1 42c-.4 0-.8.2-1.1.6.1 0 .2-.1.3-.1.5.1.8.5.7.9 0 .4-.3.7-.7.7-.3 0-.5-.1-.6-.4-.1.9.6 1.7 1.4 1.8 1-.2 1.6-1.2 1.4-2.2C56.3 42.8 55.8 42.2 55.1 42z"/><path fill="#472b29" d="M49.8,50c0.5,0,1-0.3,1.3-0.8c0.1-0.1,0.1-0.2,0-0.3 c-0.1-0.1-0.2-0.1-0.2,0c0,0,0,0,0,0c-0.2,0.3-0.6,0.5-1,0.5c-0.4,0-0.8-0.2-1-0.5c-0.1-0.1-0.2-0.1-0.3,0c0,0,0,0,0,0 c-0.1,0.1-0.1,0.2,0,0.3C48.9,49.7,49.3,49.9,49.8,50z" opacity=".41"/><path fill="#6d1b18" d="M45.3,53.2c-0.1,0.2-0.1,0.4-0.1,0.6c0,1.8,2,3.3,4.5,3.3s4.5-1.5,4.5-3.3c0-0.2,0-0.4-0.1-0.6 H45.3z"/><path fill="#ee3e54" d="M52.1,56.6c-1.4-1-3.3-1-4.8,0C48.9,57.3,50.6,57.3,52.1,56.6z"/><path fill="#fdfcef" d="M46.6,53.2C46.6,53.2,46.6,53.2,46.6,53.2v0.6c0,0.5,0.7,0.9,1.4,0.9h3.4c0.8,0,1.4-0.4,1.4-0.9 v-0.6c0,0,0,0,0-0.1H46.6z"/><path fill="#472b29" d="M49.8,57.4c-2.6,0-4.8-1.6-4.8-3.5c0-0.2,0-0.5,0.1-0.7c0-0.1,0.1-0.2,0.2-0.2h8.8 c0.1,0,0.2,0.1,0.2,0.2c0.1,0.2,0.1,0.4,0.1,0.7C54.5,55.8,52.4,57.4,49.8,57.4z M45.5,53.5c0,0.1,0,0.2,0,0.4c0,1.7,1.9,3,4.3,3 c2.3,0,4.2-1.4,4.2-3c0-0.1,0-0.2,0-0.4H45.5z"/><path fill="#f1bc19" d="M37.5 55.3C37.5 55.3 37.5 55.3 37.5 55.3c-2-.2-3.4-2-3.1-3.9.2-1.6 1.4-2.8 3-3.1.2 0 .4.1.5.3 0 .2-.1.4-.3.5-1.2.2-2.2 1.2-2.3 2.4-.2 1.5.9 2.9 2.4 3 .2 0 .4.2.3.4C37.9 55.1 37.7 55.3 37.5 55.3zM61.2 55.1c-.2 0-.4-.1-.4-.3 0-.2.1-.4.3-.4 1.5-.2 2.6-1.6 2.4-3.1-.2-1.2-1.1-2.1-2.3-2.3-.2 0-.4-.2-.3-.5 0-.2.2-.4.5-.3 1.5.3 2.7 1.5 2.9 3 .1.9-.1 1.9-.7 2.6S62.2 55 61.2 55.1C61.2 55.1 61.2 55.1 61.2 55.1z"/><path fill="#472b29" d="M49,31.5c-6.7,0-12.1,3.7-12.1,8.3c0,0.4,0.2,0.9,0.4,1.2c1.5-4,8.2-7,11.7-7s10.1,2.7,11.7,7 c0.2-0.4,0.4-0.8,0.4-1.3C61.1,35.2,55.7,31.5,49,31.5z"/><path fill="#ee3e54" d="M65.6,67.9l-0.3-0.1l-0.6-0.2c-0.5-0.2-2.1-0.8-3.8-1.4c-2.3,1.9-6.5,3.3-11.4,3.3S40.3,68,38,66 l-2.5,0.8c-0.8,0.2-1.5,0.5-2.2,0.9c-1.6,1.1-2.8,2.8-3.3,4.7l0,0c0,0.1,0,0.3-0.1,0.6c-0.1,0.4-0.1,0.9-0.1,1.3 c0,0.5-0.1,7.3-0.1,7.8c7.2,5.1,16.9,5.8,27,4.8c4.6-0.4,8.6-3.2,12.7-4.7C69,73,69.8,69.2,65.6,67.9z"/><path fill="#472b29" d="M48,87.8c-6.9,0-14-1.4-18.7-5.4c-0.1-0.1-0.2-0.2-0.2-0.4c-0.1-5.8,0.6-13,4-14.7 c0.7-0.4,1.5-0.7,2.3-0.9l7.7-2.6c0.5-0.1,0.8-0.4,0.9-0.8c0.1-0.4,0.2-2,0.2-2.8c-2.3-1.5-4.9-3.4-5.8-4.7c-0.6-0.9-1-2-0.9-3.1 l0-2c-0.7-0.2-1.3-0.8-1.4-1.6c-0.4-1.2-1-3.7-1-3.8c-0.3-0.9-0.2-1.6,0.2-2.2c0.2-0.3,0.7-0.7,1.6-0.8c0-0.2,0-0.3-0.1-0.5 c-0.3-0.5-0.4-1.1-0.5-1.7c0-6.5,5.8-11.8,12.8-11.8c7.1,0,12.9,5.3,12.9,11.7c0,0.7-0.2,1.3-0.5,1.9c0,0,0,0,0,0 c0,0.1,0,0.2,0,0.3c0.8,0.1,1.5,0.4,1.9,1c0.3,0.4,0.6,1.1,0.2,2.1l0,0c-0.1,0.6-0.7,3-1,3.9c-0.1,0.6-0.6,1.2-1.2,1.4v2.6 c0,0.7-0.2,1.3-0.5,1.9c-1.8,2.4-3.9,4.4-6.4,6c0,0.8,0,1.5,0.2,2.3c0.1,0.3,0.5,0.6,0.9,0.7c0.4,0.1,8,2.7,9.3,3.3l0.6,0.2 c0.1,0,0.2,0.1,0.3,0.1c3.8,1.2,3.9,6.1,4.1,12.9l0,1.9c0,0.1,0,0.3-0.1,0.4C67.4,84.9,57.8,87.8,48,87.8z M30.1,81.7 c10.7,8.9,34.6,4.1,38.7,0.2l0-1.7c-0.2-6.6-0.3-11-3.4-12c-0.1,0-0.3-0.1-0.4-0.2l-0.6-0.2c-1.2-0.5-9.1-3.2-9.2-3.2 c-0.7-0.2-1.2-0.7-1.5-1.4c-0.3-1-0.3-2-0.2-2.9c0-0.2,0.1-0.3,0.2-0.4c2.4-1.6,4.6-3.5,6.3-5.9c0.2-0.4,0.3-0.9,0.4-1.4l0-3 c0-0.3,0.2-0.5,0.4-0.5c0.4-0.1,0.8-0.4,0.8-0.8c0.4-1.2,1-3.7,1-3.9c0.2-0.6,0.2-1-0.1-1.3c-0.3-0.4-0.9-0.6-1.6-0.6 c-0.2,0-0.3,0-0.4-0.1c-0.1-0.1-0.1-0.2-0.1-0.4c0-0.8,0-1.2,0.2-1.3c0.2-0.4,0.3-0.9,0.3-1.4c0-5.9-5.3-10.7-11.9-10.7 s-11.9,4.8-11.9,10.7c0,0.5,0.2,1,0.4,1.4c0,0,0,0.1,0,0.1c0.1,0.4,0.1,0.8,0.1,1.1c0,0.1,0,0.3-0.1,0.4c-0.1,0.1-0.2,0.1-0.4,0.1 c-0.4,0-1,0.1-1.3,0.4c-0.3,0.4-0.1,0.9,0,1.3c0,0.1,0.6,2.7,1,3.9c0.1,0.6,0.5,0.9,1,0.9c0.3,0,0.5,0.2,0.5,0.5v2.5 c0,0.9,0.2,1.8,0.8,2.5c0.7,1,3.1,2.9,5.8,4.6c0.1,0.1,0.2,0.3,0.2,0.4c0,0.8-0.2,2.8-0.3,3.3c-0.3,0.8-0.9,1.4-1.6,1.5l-7.6,2.6 c-0.7,0.2-1.4,0.5-2.1,0.9C31.3,69.2,30.1,74.2,30.1,81.7z"/><path fill="#88ae45" d="M44.6 24.6c.7.4 1.3 1 1.5 1.8-.8.3-1.6.4-2.4.1-.7-.4-1.3-1-1.5-1.8C43 24.4 43.8 24.4 44.6 24.6zM52.5 32c.6.6.9 1.4.9 2.2-.8.1-1.6-.1-2.3-.6-.6-.6-.9-1.4-.9-2.2C51 31.3 51.8 31.5 52.5 32zM40.5 33c-.5.2-1.2.3-1.7.1.1-.6.5-1.1 1-1.5.5-.2 1.2-.3 1.7-.1C41.3 32.2 41 32.7 40.5 33z"/><path fill="#ee3e54" d="M47.7 22.7c.3 0 .7.1 1 .2-.2 0-.5.1-.7.2-1.6.4-2.6 2-2.4 3.6-.6 1-.6 2.3-.1 3.3-.8-.4-1.3-1.1-1.5-2-.3-1.2-.2-2.5.5-3.5C45.1 23.2 46.4 22.6 47.7 22.7zM49.2 27.1c-.4-.1-.8-.1-1.1.1.4-.7 1.2-1.1 2-1l0 0c.1.5 0 .9-.3 1.4C49.7 27.3 49.5 27.1 49.2 27.1z"/><path fill="#ee3e54" d="M51.5,26.8c0.1,0.1,0.7,0.8-0.2,2.2c-0.6,0.9-1.7,1.5-2.8,1.3c-0.8-0.1-1.5-0.5-1.9-1.1 c-0.6-0.9-0.4-2.2,0.3-3c0,0.5,0.1,0.9,0.3,1.4l0,0c0,0.2,0.1,0.4,0.2,0.6c0.7,0.9,2,1.1,3,0.3c0.1-0.1,0.2-0.1,0.2-0.2 c0.2-0.2,0.3-0.4,0.4-0.6l0,0C51.2,27.5,51.5,27.2,51.5,26.8z"/><path fill="#ee3e54" d="M48.5,30.3c1.1,0.1,2.2-0.4,2.8-1.3c0.9-1.4,0.3-2.1,0.2-2.2c0.1-0.4,0-0.9-0.1-1.3 c-0.1-0.3-0.3-0.5-0.5-0.7c0.7,0.2,1.3,0.6,1.8,1.1c0.3,0.4,0.5,0.8,0.5,1.3c0,0.1,0,0.1,0,0.2c0,0.9-0.4,1.8-1.2,2.4 C51.1,30.7,49.7,30.9,48.5,30.3L48.5,30.3z"/><path fill="#ee3e54" d="M49.9,27.5c-0.1,0.1-0.1,0.2-0.2,0.2c-0.3,0.2-0.6,0.4-1,0.4c0,0,0.1-0.9,0.5-1.1 C49.5,27.1,49.7,27.3,49.9,27.5z"/><path fill="#ee3e54" d="M48.1 27.1c.3-.1.7-.2 1.1-.1-.5.3-.5 1.1-.5 1.1-.3.1-.5.1-.8.1l0 0C47.9 27.9 47.9 27.5 48.1 27.1zM51.5 22.6c2.3.9 3.6 4 2.5 6.1l0 0c0-.5-.3-1-.8-1.2 0-.1 0-.1 0-.2-.1-.5-.2-.9-.5-1.3-.4-1.9-2.1-3.2-4-3.1l0 0c-.3-.1-.7-.2-1-.2C48.9 22.1 50.3 22 51.5 22.6z"/><path fill="#ee3e54" d="M48.7,22.8c1.9-0.1,3.6,1.2,4,3.1c-0.5-0.6-1.1-1-1.8-1.1c-1-0.9-2.6-0.8-3.5,0.2 c-0.1,0.2-0.3,0.4-0.3,0.7l0,0c-0.5,0.1-1,0.4-1.3,0.8c0,0-0.1,0.1-0.1,0.1c-0.1-1.6,0.9-3.1,2.4-3.5 C48.2,22.9,48.4,22.9,48.7,22.8L48.7,22.8z"/><path fill="#ee3e54" d="M45.6,26.5c0,0,0.1-0.1,0.1-0.1c0.3-0.4,0.8-0.7,1.3-0.8l0,0c-0.1,0.2-0.1,0.4-0.1,0.7 c-0.8,0.8-0.9,2-0.3,3c0.4,0.6,1.2,1,1.9,1.1l0,0c1.2,0.6,2.6,0.3,3.6-0.6l0,0c0,0-1.5,2.9-4.4,1.9l-0.3-0.1 c-0.8-0.3-1.5-0.9-1.9-1.7C45,28.8,45,27.5,45.6,26.5z"/><path fill="#ee3e54" d="M48.6 28.2c.4-.1.7-.2 1-.4.1-.1.2-.1.2-.2.2-.4.3-.9.3-1.4 0-.2 0-.4-.1-.6.3-.1 1.3 1.1.9 2.2-.1.2-.2.4-.4.6-.8.8-2.1.9-3 .1-.1-.1-.1-.1-.2-.2 0 0 .2 0 .5 0C48.1 28.3 48.4 28.3 48.6 28.2zM50.6 32.8c-1.5.5-3.1.4-4.5-.4-1.7-.8-2.6-2.6-2.1-4.4.2.9.7 1.6 1.5 2 .4.8 1.1 1.4 1.9 1.7l.3.1C48.5 32.4 49.5 32.8 50.6 32.8L50.6 32.8z"/><path fill="#ee3e54" d="M47.8,25.9c-0.4,0.5-0.7,1.1-0.6,1.7l0,0c-0.2-0.4-0.3-0.9-0.3-1.4c0-0.2,0.1-0.4,0.1-0.7 c0.1-0.2,0.2-0.5,0.3-0.7c0.9-1,2.5-1.1,3.5-0.2c0.2,0.2,0.4,0.5,0.5,0.7c0.2,0.4,0.2,0.9,0.1,1.3c-0.1,0.4-0.3,0.7-0.6,1l0,0 c0.4-1.1-0.6-2.3-0.9-2.2C49.3,25.1,48.4,25.2,47.8,25.9z"/><path fill="#ee3e54" d="M47.9 28.2L47.9 28.2c-.3 0-.5 0-.5 0-.1-.2-.1-.4-.2-.6 0-.6.2-1.3.6-1.7.5-.7 1.5-.8 2.2-.3 0 .2.1.4.1.6l0 0c-.8-.1-1.6.2-2 1C47.9 27.5 47.9 27.9 47.9 28.2zM54 28.6c.1.7-.1 1.5-.4 2.1-.5 1.2-1.7 2-3.1 1.9-1.1.1-2.1-.3-2.9-1 2.9 1 4.4-1.9 4.4-1.9l0 0c.7-.6 1.1-1.4 1.2-2.4C53.7 27.7 54 28.2 54 28.6z"/><path fill="#cc2340" d="M47.9,28.4c-0.1,0-0.1-0.1-0.1-0.1c0-0.2,0-0.3,0-0.5c0.2-1.1,1.3-1.9,2.4-1.6 c0.1,0,0.1,0.1,0.1,0.2c0,0.1-0.1,0.1-0.2,0.1c-1-0.2-1.9,0.4-2.1,1.4c0,0.1,0,0.3,0,0.4C48,28.3,48,28.4,47.9,28.4 C47.9,28.4,47.9,28.4,47.9,28.4z"/><path fill="#cc2340" d="M49,29.3c-0.1,0-0.2,0-0.3,0c-0.6-0.1-1.1-0.4-1.5-0.8c0,0,0-0.1,0-0.2c0-0.1,0.1-0.1,0.1-0.1 c0.8,0.1,1.5-0.1,2.2-0.4c0.7-0.6,0.3-2,0.3-2.1c0-0.1,0-0.1,0.1-0.2c0.3-0.1,0.6,0.2,0.8,0.5c0.4,0.7,0.7,1.7-0.1,2.5 c-0.1,0.1-0.2,0.2-0.3,0.2C50,29.1,49.5,29.3,49,29.3z M47.8,28.5c0.3,0.3,0.6,0.4,1,0.5c0.5,0.1,1-0.1,1.4-0.4 c0.1-0.1,0.2-0.1,0.2-0.2c0.7-0.7,0.5-1.4,0.3-1.8c-0.1-0.3-0.3-0.6-0.5-0.7c0.1,0.5,0.2,1.6-0.5,2.1 C49.1,28.3,48.5,28.5,47.8,28.5z"/><path fill="#cc2340" d="M47.4,28.5c-0.1,0-0.1,0-0.1-0.1c-0.4-0.9-0.2-1.8,0.5-2.5c0.6-0.7,1.6-0.9,2.4-0.4 c0.1,0,0.1,0.1,0,0.2c0,0.1-0.1,0.1-0.2,0c-0.6-0.4-1.5-0.3-2,0.3c-0.6,0.6-0.8,1.4-0.4,2.2C47.6,28.3,47.5,28.4,47.4,28.5 C47.4,28.5,47.4,28.5,47.4,28.5z"/><path fill="#cc2340" d="M49.9,27.8c0,0-0.1,0-0.1-0.1c-0.4-0.5-1.1-0.7-1.7-0.4c-0.1,0-0.2,0-0.2-0.1c0-0.1,0-0.2,0.1-0.2 c0.7-0.3,1.6-0.1,2,0.5C50.1,27.6,50.1,27.7,49.9,27.8C50,27.8,49.9,27.8,49.9,27.8z"/><path fill="#cc2340" d="M48.6,28.4C48.6,28.4,48.6,28.4,48.6,28.4c-0.1,0-0.2-0.1-0.1-0.2c0,0,0.1-1,0.6-1.3 c0.1,0,0.2,0,0.2,0.1c0,0.1,0,0.2-0.1,0.2c-0.4,0.3-0.5,1-0.5,1.1C48.8,28.4,48.7,28.4,48.6,28.4z"/><path fill="#cc2340" d="M51,28c0,0-0.1,0-0.1,0c-0.1-0.1-0.1-0.2,0-0.2c0.6-0.6,0.7-1.4,0.3-2.1c-0.1-0.3-0.3-0.5-0.5-0.7 c-0.5-0.4-1-0.6-1.7-0.6c-0.6,0-1.2,0.3-1.6,0.7c-0.5,0.7-0.6,1.7-0.1,2.5c0,0.1,0,0.2-0.1,0.2c-0.1,0-0.2,0-0.2-0.1 c-0.5-0.9-0.4-2,0.2-2.9c0.5-0.5,1.1-0.8,1.8-0.9c0.7,0,1.4,0.2,1.9,0.7c0.2,0.2,0.4,0.5,0.6,0.8c0.4,0.8,0.3,1.8-0.4,2.5 C51.1,28,51,28,51,28z"/><path fill="#cc2340" d="M48.9,30.6c-0.9,0-1.8-0.4-2.4-1.2c-0.6-1-0.5-2.3,0.4-3.2c0.1-0.1,0.2-0.1,0.2,0s0.1,0.2,0,0.2 c-0.7,0.8-0.9,1.9-0.3,2.8c0.9,1.2,2.7,1.4,3.9,0.4c0.2-0.2,0.4-0.4,0.6-0.7c0.9-1.4,0.3-2,0.2-2c-0.1-0.1-0.1-0.1,0-0.2 c0.1-0.1,0.1-0.1,0.2,0c0,0,0.9,0.8-0.2,2.4c-0.2,0.3-0.4,0.5-0.7,0.8C50.2,30.4,49.5,30.6,48.9,30.6z"/><path fill="#cc2340" d="M49.9,30.8c-0.5,0-1-0.1-1.4-0.3c-0.1,0-0.1-0.1-0.1-0.2s0.1-0.1,0.2-0.1c0.4,0.2,0.9,0.3,1.4,0.3 c1.8,0,3.2-1.5,3.2-3.3c-0.2-1.1-1.1-2-2.3-2.3c-0.1,0-0.1-0.1-0.1-0.2c0-0.1,0.1-0.1,0.2-0.1c1.3,0.3,2.2,1.3,2.5,2.6 C53.4,29.2,51.9,30.8,49.9,30.8C49.9,30.8,49.9,30.8,49.9,30.8z"/><path fill="#cc2340" d="M48.9,32.1c-0.5,0-1-0.1-1.6-0.3c-0.9-0.4-1.6-1.1-2-2s-0.4-1.9,0-2.8c0.1-0.2,0.2-0.4,0.3-0.6 c0.4-0.5,0.8-0.8,1.4-0.9c0.1,0,0.2,0,0.2,0.1c0,0.1,0,0.2-0.1,0.2c-0.5,0.1-0.9,0.4-1.2,0.7c-0.1,0.2-0.2,0.3-0.3,0.5 c-0.7,1.7,0.2,3.7,1.9,4.4c2.9,1.3,4.5-1.6,4.6-1.7c0-0.1,0.1-0.1,0.2-0.1c0.1,0,0.1,0.1,0.1,0.2C52.2,30,51.1,32.1,48.9,32.1z"/><path fill="#cc2340" d="M45.6,26.8c-0.1,0-0.1-0.1-0.1-0.1c-0.2-1.7,0.9-3.3,2.5-3.8c1.2-0.4,2.4-0.1,3.5,0.7 c0.9,0.7,1.5,1.7,1.4,2.4c0,0.1-0.1,0.1-0.2,0.1c-0.1,0-0.1-0.1-0.1-0.2c0-0.5-0.4-1.5-1.3-2.2c-0.5-0.4-1.7-1.1-3.2-0.7 c-1.5,0.4-2.5,1.9-2.3,3.5C45.7,26.7,45.7,26.8,45.6,26.8C45.6,26.8,45.6,26.8,45.6,26.8z"/><path fill="#cc2340" d="M45.5,30.1C45.5,30.1,45.5,30.1,45.5,30.1c-0.6-0.1-1.2-0.7-1.5-1.5c-0.6-1.4-0.5-2.9,0.3-4.2 c0.9-1.5,2.7-2.1,4.4-1.6c0.1,0,0.1,0.1,0.1,0.2c0,0.1-0.1,0.1-0.2,0.1c-1.5-0.5-3.2,0.1-4,1.5c-0.7,1.2-0.8,2.6-0.3,3.9 c0.3,0.7,0.8,1.2,1.3,1.3c0.1,0,0.1,0.1,0.1,0.2C45.7,30,45.6,30.1,45.5,30.1z"/><path fill="#cc2340" d="M54,28.9C54,28.9,54,28.9,54,28.9c-0.1-0.1-0.2-0.1-0.1-0.2c0.5-0.9,0.5-2,0.1-3.2 c-0.5-1.2-1.4-2.2-2.5-2.7c-1.2-0.6-2.6-0.5-3.7,0.1c-0.1,0-0.2,0-0.2-0.1c0-0.1,0-0.2,0.1-0.2c1.2-0.7,2.7-0.7,4-0.1 c1.2,0.5,2.2,1.5,2.7,2.9c0.4,1.2,0.4,2.4-0.1,3.4C54.1,28.8,54.1,28.9,54,28.9z"/><path fill="#cc2340" d="M50.5,33c-1.2,0-2.4-0.5-3-1.2c0-0.1,0-0.2,0-0.2c0.1-0.1,0.2,0,0.2,0c0.6,0.8,2,1.2,3.3,1 c1.2-0.2,2-0.8,2.4-1.9c1-2.6-0.3-3.2-0.3-3.2c-0.1,0-0.1-0.1-0.1-0.2c0-0.1,0.1-0.1,0.2-0.1c0.1,0,1.6,0.7,0.5,3.6 c-0.4,1.1-1.4,1.9-2.7,2C50.9,33,50.7,33,50.5,33z"/><path fill="#cc2340" d="M48.8,33.3c-1,0-1.9-0.3-2.7-0.8c-1.7-0.8-2.7-2.7-2.2-4.6c0-0.1,0.1-0.1,0.2-0.1 c0.1,0,0.1,0.1,0.1,0.2c-0.4,1.7,0.4,3.5,2.1,4.2c1.3,0.8,2.9,1,4.3,0.4c0.1,0,0.2,0,0.2,0.1c0,0.1,0,0.2-0.1,0.2 C50.1,33.2,49.4,33.3,48.8,33.3z"/><path fill="#d62543" d="M42.8 25.6c.2 0 .5.1.7.1L43 25.8c-1.1.3-1.8 1.4-1.7 2.5-.4.7-.4 1.6-.1 2.3-.6-.3-1-.8-1.1-1.4-.2-.8-.1-1.8.3-2.5C40.9 26 41.8 25.5 42.8 25.6zM43.8 28.7c-.3-.1-.5 0-.8.1.3-.5.9-.8 1.5-.7l0 0c0 .3 0 .7-.2 1C44.2 28.9 44 28.8 43.8 28.7z"/><path fill="#d62543" d="M45.5,28.5c0,0.1,0.5,0.6-0.2,1.6c-0.4,0.7-1.2,1-2,0.9c-0.5-0.1-1-0.3-1.3-0.8 c-0.4-0.7-0.3-1.5,0.2-2.1c0,0.3,0.1,0.7,0.2,1l0,0c0,0.2,0,0.3,0.1,0.4c0.5,0.6,1.4,0.8,2.1,0.2c0.1,0,0.1-0.1,0.2-0.2 c0.1-0.1,0.2-0.3,0.3-0.4l0,0C45.3,29.1,45.4,28.8,45.5,28.5z"/><path fill="#d62543" d="M43.3,31c0.8,0.1,1.6-0.3,2-0.9c0.6-1,0.2-1.5,0.2-1.6c0-0.3,0-0.6-0.1-0.9 c-0.1-0.2-0.2-0.4-0.4-0.5c0.5,0.1,1,0.4,1.3,0.8c0.2,0.3,0.3,0.6,0.4,0.9c0,0,0,0.1,0,0.1c0,0.7-0.3,1.3-0.8,1.7 C45.2,31.3,44.2,31.4,43.3,31L43.3,31z"/><path fill="#d62543" d="M44.3,29.1c0,0.1-0.1,0.1-0.2,0.2c-0.2,0.2-0.5,0.3-0.7,0.3c0,0,0-0.6,0.4-0.8 C44,28.8,44.2,28.9,44.3,29.1z"/><path fill="#d62543" d="M43 28.8c.2-.1.5-.1.8-.1-.3.2-.4.8-.4.8-.2 0-.4.1-.5 0l0 0C42.8 29.3 42.9 29 43 28.8zM45.5 25.6c1.7.7 2.5 2.6 1.8 4.3 0 0 0 0 0 0l0 0c0-.4-.2-.7-.5-.9 0 0 0-.1 0-.1 0-.3-.2-.7-.4-.9-.3-1.3-1.5-2.3-2.8-2.2l0 0c-.2-.1-.5-.1-.7-.1C43.6 25.2 44.6 25.2 45.5 25.6z"/><path fill="#d62543" d="M43.5,25.7c1.4-0.1,2.6,0.8,2.8,2.2c-0.3-0.4-0.8-0.7-1.3-0.8c-0.7-0.6-1.8-0.6-2.5,0.1 c-0.1,0.1-0.2,0.3-0.3,0.5l0,0c-0.4,0.1-0.7,0.3-0.9,0.6c0,0-0.1,0.1-0.1,0.1c-0.1-1.2,0.6-2.2,1.7-2.5L43.5,25.7z"/><path fill="#d62543" d="M41.3,28.4C41.3,28.3,41.3,28.3,41.3,28.4c0.3-0.4,0.6-0.6,1-0.7l0,0c0,0.1-0.1,0.3-0.1,0.5 c-0.5,0.6-0.6,1.4-0.2,2.1c0.3,0.5,0.8,0.7,1.4,0.8l0,0c0.9,0.4,1.9,0.2,2.5-0.4l0,0c-0.6,1.2-1.9,1.7-3.2,1.3l-0.2-0.1 c-1.3-0.5-1.9-2-1.4-3.3C41.2,28.5,41.2,28.4,41.3,28.4L41.3,28.4z"/><path fill="#d62543" d="M43.4 29.5c.3 0 .5-.1.7-.3.1 0 .1-.1.2-.2.2-.3.2-.7.2-1 0-.1 0-.3-.1-.4.2-.1.9.8.6 1.6-.1.2-.2.3-.3.4-.6.6-1.5.6-2.1.1-.1-.1-.1-.1-.2-.2.1 0 .2 0 .3 0C43.1 29.6 43.3 29.6 43.4 29.5zM44.8 32.8c-1 .4-2.2.3-3.2-.3-1.2-.5-1.8-1.9-1.5-3.1.1.6.5 1.1 1.1 1.4.3.6.7 1 1.3 1.2l.2.1C43.3 32.5 44.1 32.8 44.8 32.8L44.8 32.8z"/><path fill="#d62543" d="M42.9,27.9c-0.3,0.3-0.5,0.8-0.4,1.2l0,0c-0.2-0.3-0.3-0.7-0.2-1c0-0.2,0-0.3,0.1-0.5 c0.1-0.2,0.1-0.3,0.3-0.5c0.7-0.7,1.8-0.7,2.5-0.1c0.2,0.1,0.3,0.3,0.4,0.5c0.1,0.3,0.1,0.6,0.1,0.9c0,0.3-0.2,0.5-0.4,0.7l0,0 c0.3-0.8-0.4-1.7-0.6-1.6C43.9,27.3,43.2,27.4,42.9,27.9z"/><path fill="#d62543" d="M42.9 29.6L42.9 29.6c-.1 0-.2 0-.3 0-.1-.1-.1-.3-.1-.4 0-.5.1-.9.4-1.2.4-.5 1.1-.6 1.6-.2 0 .1.1.3.1.4l0 0c-.6-.1-1.1.2-1.5.7C42.9 29 42.9 29.3 42.9 29.6zM47.2 29.9c0 .5 0 1-.2 1.5-.4.9-1.2 1.4-2.2 1.4-.8.1-1.5-.2-2.1-.8 1.2.4 2.6-.2 3.1-1.3l0 0c.5-.4.8-1 .8-1.7C47 29.2 47.2 29.5 47.2 29.9z"/><path fill="#ee3e54" d="M42.9,29.8c-0.1,0-0.1-0.1-0.1-0.1c0-0.1,0-0.3,0-0.4c0.1-0.4,0.3-0.7,0.6-1 c0.3-0.2,0.7-0.3,1.1-0.2c0.1,0,0.1,0.1,0.1,0.2c0,0.1-0.1,0.1-0.2,0.1c-0.3-0.1-0.6,0-0.9,0.2c-0.3,0.2-0.4,0.5-0.5,0.8 c0,0.1,0,0.2,0,0.3C43.1,29.7,43,29.8,42.9,29.8C42.9,29.8,42.9,29.8,42.9,29.8z"/><path fill="#ee3e54" d="M43.7,30.3c-0.1,0-0.1,0-0.2,0c-0.4-0.1-0.8-0.3-1.1-0.6c0,0,0-0.1,0-0.2c0-0.1,0.1-0.1,0.1-0.1 c0.5,0.1,1.1,0,1.5-0.3c0.5-0.4,0.2-1.4,0.2-1.4c0-0.1,0-0.1,0.1-0.2c0.2-0.1,0.5,0.2,0.6,0.4c0.3,0.5,0.5,1.2-0.1,1.8 c-0.1,0.1-0.1,0.1-0.2,0.2C44.4,30.2,44.1,30.3,43.7,30.3z M42.9,29.8c0.2,0.1,0.4,0.2,0.6,0.2c0.4,0,0.7-0.1,1-0.3 c0.1,0,0.1-0.1,0.2-0.1c0.4-0.4,0.3-0.8,0.2-1.1c-0.1-0.2-0.2-0.4-0.3-0.5c0,0.4,0,1-0.4,1.4C43.9,29.7,43.4,29.8,42.9,29.8z"/><path fill="#ee3e54" d="M42.5,29.8c-0.1,0-0.1,0-0.1-0.1c-0.3-0.6-0.1-1.3,0.4-1.8c0.4-0.5,1.2-0.6,1.8-0.3 c0.1,0,0.1,0.1,0,0.2c0,0.1-0.1,0.1-0.2,0c-0.4-0.3-1-0.2-1.4,0.2c-0.4,0.4-0.5,1-0.3,1.5C42.7,29.6,42.7,29.7,42.5,29.8 C42.6,29.8,42.6,29.8,42.5,29.8z"/><path fill="#ee3e54" d="M44.3,29.3c0,0-0.1,0-0.1-0.1c-0.3-0.3-0.7-0.5-1.1-0.3c-0.1,0-0.2,0-0.2-0.1c0-0.1,0-0.2,0.1-0.2 c0.5-0.2,1.2-0.1,1.5,0.4C44.5,29.1,44.5,29.2,44.3,29.3C44.4,29.3,44.4,29.3,44.3,29.3z"/><path fill="#ee3e54" d="M43.4,29.8c-0.1,0-0.1-0.1-0.1-0.1c0,0,0-0.7,0.5-1c0.1,0,0.2,0,0.2,0.1c0,0.1,0,0.2-0.1,0.2 c-0.3,0.2-0.3,0.7-0.3,0.7C43.6,29.7,43.5,29.8,43.4,29.8z"/><path fill="#ee3e54" d="M45.1,29.4c0,0-0.1,0-0.1,0c-0.1-0.1-0.1-0.2,0-0.2c0.4-0.4,0.5-1,0.3-1.4 c-0.1-0.2-0.2-0.3-0.4-0.5c-0.3-0.3-0.7-0.4-1.1-0.4c-0.4,0-0.8,0.2-1.1,0.5c-0.4,0.5-0.4,1.2-0.1,1.7c0,0.1,0,0.2-0.1,0.2 c-0.1,0-0.2,0-0.2-0.1c-0.4-0.6-0.3-1.5,0.1-2.1c0.7-0.8,1.9-0.8,2.7-0.2c0.2,0.2,0.3,0.4,0.4,0.6c0.3,0.6,0.2,1.3-0.3,1.8 C45.2,29.4,45.1,29.4,45.1,29.4z"/><path fill="#ee3e54" d="M43.6,31.3c-0.1,0-0.2,0-0.3,0c-0.6-0.1-1.1-0.4-1.5-0.8c-0.5-0.7-0.4-1.7,0.2-2.3 c0.1-0.1,0.2-0.1,0.2,0c0.1,0.1,0.1,0.2,0,0.2c-0.5,0.5-0.6,1.3-0.2,1.9c0.3,0.4,0.8,0.6,1.3,0.7c0.5,0.1,1-0.1,1.4-0.4 c0.2-0.1,0.3-0.3,0.4-0.5c0.6-0.9,0.2-1.4,0.2-1.4c-0.1-0.1-0.1-0.2,0-0.2c0.1-0.1,0.1-0.1,0.2,0c0,0,0.6,0.6-0.1,1.8 c-0.1,0.2-0.3,0.4-0.5,0.5C44.6,31.1,44.1,31.3,43.6,31.3z"/><path fill="#ee3e54" d="M44.3,31.5c-0.4,0-0.7-0.1-1-0.2c-0.1,0-0.1-0.1-0.1-0.2c0-0.1,0.1-0.1,0.2-0.1 c0.3,0.1,0.6,0.2,0.9,0.2c0,0,0,0,0,0c1.2,0,2.2-1,2.2-2.3c-0.2-0.8-0.8-1.4-1.6-1.6c-0.1,0-0.1-0.1-0.1-0.2S44.9,27,45,27 c0.9,0.2,1.6,0.9,1.8,1.8C46.8,30.3,45.7,31.4,44.3,31.5C44.3,31.5,44.3,31.5,44.3,31.5z"/><path fill="#ee3e54" d="M43.5,32.3c-0.3,0-0.7-0.1-1-0.2c-1.4-0.5-2-2.1-1.5-3.4c0.1-0.2,0.1-0.3,0.2-0.4 c0.3-0.3,0.6-0.5,1-0.6c0.1,0,0.2,0,0.2,0.1c0,0.1,0,0.2-0.1,0.2c-0.3,0.1-0.6,0.2-0.8,0.5c-0.1,0.1-0.1,0.2-0.2,0.4 c-0.5,1.2,0.1,2.6,1.3,3.1c1.2,0.5,2.6,0,3.2-1.2c0-0.1,0.1-0.1,0.2-0.1c0.1,0,0.1,0.1,0.1,0.2C45.5,31.8,44.6,32.3,43.5,32.3z"/><path fill="#ee3e54" d="M41.3,28.6c-0.1,0-0.1-0.1-0.1-0.1c-0.1-1.2,0.6-2.4,1.8-2.7c0.7-0.2,1.5-0.1,2.1,0.3 c0.7,0.4,1.1,1,1.3,1.7c0,0.1,0,0.1,0,0.2c0,0.1,0,0.2-0.1,0.2c-0.1,0-0.2,0-0.2-0.1c0-0.1,0-0.1,0-0.2c-0.2-0.7-0.6-1.2-1.2-1.5 c-0.6-0.3-1.3-0.4-1.9-0.3c-1,0.3-1.7,1.3-1.6,2.4C41.4,28.5,41.4,28.6,41.3,28.6C41.3,28.6,41.3,28.6,41.3,28.6z"/><path fill="#ee3e54" d="M41.2,30.9C41.2,30.9,41.2,30.9,41.2,30.9c-0.4-0.1-0.8-0.5-1.1-1.1c-0.4-1-0.3-2.1,0.2-3 c0.7-1.1,2-1.5,3.2-1.1c0.1,0,0.1,0.1,0.1,0.2c0,0.1-0.1,0.1-0.2,0.1c-1.1-0.4-2.2,0.1-2.8,1c-0.5,0.8-0.6,1.9-0.2,2.7 c0.2,0.5,0.6,0.9,0.9,0.9c0.1,0,0.1,0.1,0.1,0.2C41.4,30.9,41.3,30.9,41.2,30.9z"/><path fill="#ee3e54" d="M47.3,30C47.2,30,47.2,30,47.3,30c-0.1,0-0.2-0.1-0.1-0.2c0.7-1.6-0.1-3.4-1.7-4.1 c-0.8-0.4-1.8-0.4-2.6,0.1c-0.1,0-0.2,0-0.2-0.1c0-0.1,0-0.2,0.1-0.2c0.9-0.5,2-0.5,2.9-0.1c1.7,0.7,2.6,2.7,1.8,4.5 C47.4,30,47.3,30,47.3,30z"/><path fill="#ee3e54" d="M44.8,33c-0.9,0-1.7-0.3-2.1-0.9c0-0.1,0-0.2,0-0.2c0.1,0,0.2,0,0.2,0c0.4,0.5,1.4,0.8,2.3,0.7 c0.5-0.1,1.3-0.3,1.7-1.3c0.7-1.8-0.2-2.2-0.2-2.2c-0.1,0-0.1-0.1-0.1-0.2s0.1-0.1,0.2-0.1c0,0,1.1,0.5,0.4,2.6 c-0.3,0.8-1,1.3-1.9,1.5C45.1,32.9,44.9,33,44.8,33z"/><path fill="#ee3e54" d="M43.6,33.2c-0.7,0-1.4-0.2-2-0.6c-1.3-0.6-1.9-1.9-1.6-3.3c0-0.1,0.1-0.1,0.2-0.1 c0.1,0,0.1,0.1,0.1,0.2c-0.3,1.2,0.3,2.5,1.4,3c0.9,0.6,2,0.7,3,0.3c0.1,0,0.2,0,0.2,0.1s0,0.2-0.1,0.2 C44.5,33.1,44,33.2,43.6,33.2z"/><path fill="#d62543" d="M53.6 25.6c.2 0 .5.1.7.1-.2 0-.3.1-.5.1-1.1.3-1.8 1.4-1.7 2.5-.4.7-.4 1.6-.1 2.3-.5-.3-.9-.8-1-1.4-.2-.8-.1-1.8.3-2.5C51.8 26 52.7 25.6 53.6 25.6zM54.6 28.7c-.3-.1-.5 0-.8.1.3-.5.9-.8 1.5-.7l0 0c0 .3 0 .7-.2 1C55 28.9 54.8 28.8 54.6 28.7z"/><path fill="#d62543" d="M56.3,28.5c0.1,0.1,0.5,0.6-0.2,1.6c-0.4,0.7-1.2,1-2,0.9c-0.6,0-1.1-0.3-1.4-0.8 c-0.4-0.7-0.3-1.5,0.2-2.1c0,0.3,0.1,0.7,0.2,1l0,0c0,0.2,0,0.3,0.1,0.4c0.5,0.6,1.4,0.8,2.1,0.2c0.1,0,0.1-0.1,0.2-0.2 c0.1-0.1,0.2-0.3,0.3-0.4l0,0C56.1,29.1,56.3,28.8,56.3,28.5z"/><path fill="#d62543" d="M54.2,31c0.8,0.1,1.6-0.3,2-0.9c0.6-1,0.2-1.5,0.2-1.6c0-0.3,0-0.6-0.1-0.9 c-0.1-0.2-0.2-0.4-0.4-0.5c0.5,0.1,0.9,0.4,1.3,0.8c0.2,0.3,0.3,0.6,0.4,0.9c0,0,0,0.1,0,0.1c0,0.7-0.3,1.3-0.8,1.7 C56,31.2,55,31.4,54.2,31L54.2,31z"/><path fill="#d62543" d="M55.1,29.1c0,0.1-0.1,0.1-0.2,0.2c-0.2,0.2-0.5,0.3-0.7,0.3c0,0,0-0.6,0.4-0.8 C54.8,28.8,55,28.9,55.1,29.1z"/><path fill="#d62543" d="M53.9 28.8c.2-.1.5-.1.8-.1-.3.2-.4.8-.4.8-.2 0-.4.1-.5 0l0 0C53.7 29.3 53.7 29 53.9 28.8zM56.3 25.6c1.7.7 2.5 2.6 1.8 4.3 0 0 0 0 0 0l0 0c0-.4-.2-.7-.5-.9 0 0 0-.1 0-.1 0-.3-.2-.7-.4-.9-.3-1.3-1.5-2.3-2.8-2.2l0 0c-.2-.1-.5-.1-.7-.1C54.4 25.2 55.4 25.2 56.3 25.6z"/><path fill="#d62543" d="M54.3,25.7c1.4-0.1,2.6,0.8,2.8,2.2c-0.3-0.4-0.8-0.7-1.3-0.8c-0.7-0.6-1.8-0.6-2.5,0.1 c-0.1,0.1-0.2,0.3-0.3,0.5l0,0c-0.4,0.1-0.7,0.3-0.9,0.6c0,0-0.1,0.1-0.1,0.1c-0.1-1.2,0.6-2.2,1.7-2.5 C54,25.8,54.1,25.8,54.3,25.7L54.3,25.7z"/><path fill="#d62543" d="M52.1,28.4C52.1,28.3,52.1,28.3,52.1,28.4c0.3-0.4,0.6-0.6,1-0.7l0,0c0,0.1-0.1,0.3-0.1,0.5 c-0.5,0.6-0.6,1.4-0.2,2.1c0.3,0.5,0.8,0.7,1.4,0.8l0,0c0.9,0.4,1.9,0.2,2.5-0.4l0,0c-0.6,1.1-1.9,1.7-3.1,1.4l-0.2-0.1 c-0.6-0.2-1.1-0.7-1.3-1.2C51.6,30,51.7,29.1,52.1,28.4z"/><path fill="#d62543" d="M54.3 29.5c.3 0 .5-.1.7-.3.1 0 .1-.1.2-.2.2-.3.2-.7.2-1 0-.1 0-.3-.1-.4.2-.1.9.8.6 1.6-.1.2-.2.3-.3.4-.6.6-1.5.6-2.1.1-.1-.1-.1-.1-.2-.2.1 0 .2 0 .3 0C53.9 29.6 54.1 29.6 54.3 29.5zM55.6 32.8c-1 .4-2.2.3-3.2-.3-1.2-.6-1.8-1.9-1.5-3.2.1.6.5 1.1 1 1.4.3.6.7 1 1.3 1.2l.2.1C54.1 32.5 54.8 32.8 55.6 32.8L55.6 32.8z"/><path fill="#d62543" d="M53.7,27.9c-0.3,0.3-0.5,0.8-0.4,1.2l0,0c-0.2-0.3-0.2-0.7-0.2-1c0-0.2,0-0.3,0.1-0.5 c0.1-0.2,0.1-0.3,0.3-0.5c0.7-0.7,1.8-0.8,2.5-0.1c0.2,0.1,0.3,0.3,0.4,0.5c0.1,0.3,0.1,0.6,0.1,0.9c0,0.3-0.2,0.5-0.4,0.7l0,0 c0.3-0.8-0.4-1.7-0.6-1.6C54.7,27.3,54.1,27.4,53.7,27.9z"/><path fill="#d62543" d="M53.7 29.6L53.7 29.6c-.1 0-.2 0-.3 0-.1-.1-.1-.3-.1-.4 0-.5.1-.9.4-1.2.4-.5 1.1-.6 1.6-.2 0 .1.1.3.1.4l0 0c-.6-.1-1.1.2-1.5.7C53.8 29 53.7 29.3 53.7 29.6zM58.1 29.9c0 .5 0 1-.3 1.5-.4.9-1.2 1.4-2.2 1.4-.8.1-1.5-.2-2.1-.8 1.2.4 2.6-.2 3.1-1.3l0 0c.5-.4.8-1 .8-1.7C57.8 29.2 58 29.5 58.1 29.9z"/><path fill="#ee3e54" d="M53.7,29.8c-0.1,0-0.1-0.1-0.1-0.1c0-0.1,0-0.3,0-0.4c0.2-0.8,0.9-1.4,1.8-1.2 c0.1,0,0.1,0.1,0.1,0.2c0,0.1-0.1,0.1-0.2,0.1c-0.7-0.1-1.3,0.3-1.4,1c0,0.1,0,0.2,0,0.3C53.9,29.7,53.8,29.8,53.7,29.8 C53.7,29.8,53.7,29.8,53.7,29.8z"/><path fill="#ee3e54" d="M54.5,30.3c-0.1,0-0.1,0-0.2,0c-0.4-0.1-0.8-0.3-1.1-0.6c0,0,0-0.1,0-0.2c0-0.1,0.1-0.1,0.1-0.1 c0.5,0.1,1.1,0,1.5-0.3c0.5-0.4,0.2-1.4,0.2-1.4c0-0.1,0-0.1,0.1-0.2c0.2-0.1,0.5,0.2,0.6,0.4c0.3,0.5,0.5,1.2-0.1,1.8 c-0.1,0.1-0.1,0.1-0.2,0.2C55.3,30.2,54.9,30.3,54.5,30.3z M53.8,29.8c0.2,0.1,0.4,0.2,0.6,0.2c0.4,0,0.7-0.1,1-0.3 c0.1,0,0.1-0.1,0.2-0.1c0.4-0.4,0.3-0.8,0.2-1.1c-0.1-0.2-0.2-0.4-0.3-0.5c0,0.4,0,1-0.4,1.4C54.7,29.7,54.2,29.8,53.8,29.8z"/><path fill="#ee3e54" d="M53.4,29.8c-0.1,0-0.1,0-0.1-0.1c-0.3-0.6-0.1-1.3,0.4-1.8c0.4-0.5,1.2-0.6,1.8-0.3 c0.1,0,0.1,0.1,0,0.2c0,0.1-0.1,0.1-0.2,0c-0.4-0.3-1-0.2-1.4,0.2c-0.4,0.4-0.5,1-0.3,1.5C53.5,29.6,53.5,29.7,53.4,29.8 C53.4,29.8,53.4,29.8,53.4,29.8z"/><path fill="#ee3e54" d="M55.2,29.3c0,0-0.1,0-0.1-0.1c-0.3-0.3-0.7-0.5-1.1-0.3c-0.1,0-0.2,0-0.2-0.1c0-0.1,0-0.2,0.1-0.2 c0.5-0.2,1.2-0.1,1.5,0.4C55.3,29.1,55.3,29.2,55.2,29.3C55.2,29.3,55.2,29.3,55.2,29.3z"/><path fill="#ee3e54" d="M54.3,29.8L54.3,29.8c-0.1,0-0.2-0.1-0.2-0.1c0,0,0-0.7,0.5-1c0.1,0,0.2,0,0.2,0.1 c0,0.1,0,0.2-0.1,0.2c-0.3,0.2-0.3,0.7-0.3,0.7C54.4,29.7,54.3,29.8,54.3,29.8z"/><path fill="#ee3e54" d="M55.9,29.4c0,0-0.1,0-0.1,0c-0.1-0.1-0.1-0.2,0-0.2c0.4-0.4,0.5-1,0.3-1.4 c-0.1-0.2-0.2-0.3-0.4-0.5c-0.3-0.3-0.7-0.4-1.1-0.4c-0.4,0-0.8,0.2-1.1,0.5c-0.4,0.5-0.4,1.2-0.1,1.7c0,0.1,0,0.2-0.1,0.2 c-0.1,0-0.2,0-0.2-0.1c-0.4-0.6-0.3-1.5,0.1-2.1c0.3-0.4,0.8-0.6,1.3-0.6c0.5,0,1,0.1,1.4,0.5c0.2,0.2,0.3,0.4,0.4,0.6 c0.3,0.6,0.2,1.3-0.3,1.8C56,29.4,55.9,29.4,55.9,29.4z"/><path fill="#ee3e54" d="M54.4,31.3c-0.7,0-1.3-0.3-1.7-0.8c-0.5-0.7-0.3-1.7,0.3-2.3c0.1-0.1,0.2-0.1,0.2,0 c0.1,0.1,0.1,0.2,0,0.2c-0.5,0.5-0.6,1.3-0.2,1.9c0.6,0.8,1.8,1,2.7,0.3c0.2-0.1,0.3-0.3,0.4-0.5c0.6-0.9,0.2-1.4,0.2-1.4 c-0.1-0.1-0.1-0.2,0-0.2c0.1-0.1,0.1-0.1,0.2,0c0,0,0.6,0.6-0.1,1.8c-0.1,0.2-0.3,0.4-0.5,0.6C55.3,31.1,54.9,31.3,54.4,31.3z"/><path fill="#ee3e54" d="M55.1,31.5c-0.4,0-0.7-0.1-1-0.2C54,31.2,54,31.1,54,31c0-0.1,0.1-0.1,0.2-0.1 c0.3,0.1,0.6,0.2,0.9,0.2c0.6,0,1.2-0.2,1.6-0.7c0.4-0.4,0.6-1,0.6-1.6c-0.2-0.8-0.8-1.4-1.6-1.6c-0.1,0-0.1-0.1-0.1-0.2 c0-0.1,0.1-0.1,0.2-0.1c0.9,0.2,1.6,0.9,1.8,1.8c0,0.7-0.2,1.4-0.7,1.8C56.5,31.2,55.8,31.4,55.1,31.5 C55.1,31.5,55.1,31.5,55.1,31.5z"/><path fill="#ee3e54" d="M54.3,32.3c-0.3,0-0.7-0.1-1-0.2c-0.7-0.3-1.2-0.8-1.5-1.4s-0.3-1.4,0-2c0.1-0.2,0.1-0.3,0.2-0.4 c0.3-0.3,0.6-0.5,1-0.6c0.1,0,0.2,0,0.2,0.1c0,0.1,0,0.2-0.1,0.2c-0.3,0.1-0.6,0.2-0.8,0.5c-0.1,0.1-0.1,0.2-0.2,0.4 c-0.2,0.6-0.2,1.2,0,1.8s0.7,1,1.3,1.3c1.2,0.5,2.6,0,3.2-1.2c0-0.1,0.1-0.1,0.2-0.1c0.1,0,0.1,0.1,0.1,0.2 C56.4,31.8,55.4,32.3,54.3,32.3z"/><path fill="#ee3e54" d="M52.1,28.6c-0.1,0-0.1-0.1-0.1-0.1c-0.1-1.2,0.6-2.4,1.8-2.7c0.7-0.2,1.5-0.1,2.1,0.3 c0.7,0.4,1.1,1,1.3,1.7c0,0.1,0,0.2,0.1,0.2c0,0.1,0,0.2-0.1,0.2c-0.1,0-0.2,0-0.2-0.1c0-0.1,0-0.1,0-0.2 c-0.2-0.7-0.6-1.2-1.2-1.5c-0.6-0.3-1.3-0.4-1.9-0.3c-1,0.3-1.7,1.3-1.6,2.4C52.3,28.5,52.2,28.6,52.1,28.6 C52.1,28.6,52.1,28.6,52.1,28.6z"/><path fill="#ee3e54" d="M52,30.9C52,30.9,52,30.9,52,30.9c-0.4-0.1-0.8-0.5-1.1-1c-0.3-0.8-0.5-2,0.2-3.1 c0.7-1.1,2-1.5,3.2-1.1c0.1,0,0.1,0.1,0.1,0.2c0,0.1-0.1,0.1-0.2,0.1c-1.1-0.4-2.2,0.1-2.8,1c-0.6,1-0.5,2.1-0.2,2.8 c0.2,0.5,0.5,0.8,0.8,0.9c0.1,0,0.1,0.1,0.1,0.2C52.2,30.9,52.1,30.9,52,30.9z"/><path fill="#ee3e54" d="M58.1,30C58.1,30,58,30,58.1,30c-0.1,0-0.2-0.1-0.1-0.2c0.7-1.6-0.1-3.4-1.7-4.1 c-0.8-0.4-1.8-0.4-2.6,0.1c-0.1,0-0.2,0-0.2-0.1c0-0.1,0-0.2,0.1-0.2c0.9-0.5,2-0.5,2.9-0.1c1.7,0.7,2.6,2.7,1.8,4.5 C58.2,30,58.1,30,58.1,30z"/><path fill="#ee3e54" d="M55.6,33c-0.9,0-1.7-0.3-2.1-0.9c0-0.1,0-0.2,0-0.2c0.1,0,0.2,0,0.2,0c0.4,0.5,1.4,0.8,2.3,0.7 c0.5-0.1,1.3-0.3,1.7-1.3c0.7-1.8-0.2-2.2-0.2-2.2c-0.1,0-0.1-0.1-0.1-0.2c0-0.1,0.1-0.1,0.2-0.1c0,0,1.1,0.5,0.4,2.6 c-0.3,0.8-1,1.3-1.9,1.5C55.9,32.9,55.7,33,55.6,33z"/><path fill="#ee3e54" d="M54.4,33.2c-0.7,0-1.4-0.2-2-0.6c-1.3-0.6-1.9-2-1.6-3.3c0-0.1,0.1-0.1,0.2-0.1 c0.1,0,0.1,0.1,0.1,0.2c-0.3,1.2,0.3,2.5,1.4,3c0.9,0.6,2,0.7,3,0.3c0.1,0,0.2,0,0.2,0.1s0,0.2-0.1,0.2 C55.3,33.1,54.8,33.2,54.4,33.2z"/><path fill="#e0a825" d="M50,83.7c-0.2,0-0.4-0.2-0.4-0.4l-0.4-12.2L43.4,65c-0.2-0.2-0.1-0.4,0-0.6c0.2-0.2,0.4-0.1,0.6,0 l5.9,6.2c0.1,0.1,0.1,0.2,0.1,0.3l0.4,12.4C50.4,83.5,50.3,83.7,50,83.7C50,83.7,50,83.7,50,83.7z"/><path fill="#e0a825" d="M49.6,71.3c-0.1,0-0.2,0-0.3-0.1c-0.2-0.1-0.2-0.4,0-0.6l5.4-6.3c0.1-0.2,0.4-0.2,0.6,0 c0.2,0.1,0.2,0.4,0,0.6l-5.4,6.3C49.8,71.3,49.7,71.3,49.6,71.3z"/><path fill="#f1bc19" d="M49.3,67c-2.9,0-6-0.9-6-2.6c0-0.2,0.2-0.4,0.4-0.4s0.4,0.2,0.4,0.4c0,0.7,2,1.8,5.2,1.8 c2.8,0,4.9-0.9,5.2-1.7c0,0,0,0,0,0c0,0,0,0,0-0.1c0-0.2,0.1-0.4,0.3-0.4c0.2,0,0.4,0.1,0.4,0.3c0,0.1,0,0.2,0,0.3 C54.9,66,52.4,67,49.3,67z"/><path fill="#e0a825" d="M49.7 68.6A2.2 2.7 0 1 0 49.7 74A2.2 2.7 0 1 0 49.7 68.6Z"/><path fill="#ce942b" d="M49.7 69.3A1.6 2 0 1 0 49.7 73.3A1.6 2 0 1 0 49.7 69.3Z"/></svg>